<svg xmlns="http://www.w3.org/2000/svg" width="20" height="20" viewBox="0 0 20 20">
  <path fill="#007AFF" d="M5.16774802,16.6369808 C8.19877726,18.5490243 12.261947,18.1859511 14.900995,15.5477612 C17.2954628,13.1596765 17.8870608,9.50456805 16.3681592,6.48308458 C16.1833774,6.11461998 16.3322817,5.66612515 16.7007463,5.48134331 C17.0692109,5.29656148 17.5177057,5.44546577 17.7024876,5.81393035 C19.1545825,8.708459 19.0026889,12.148793 17.3011497,14.9040862 C15.5996105,17.6593793 12.5915778,19.3358963 9.35323383,19.3338308 C7.59085721,19.3370371 5.87927346,18.8403743 4.40797166,17.9221968 L4.64427861,19.1079602 C4.68798,19.3273756 4.63093612,19.5548226 4.48886115,19.7276451 C4.34678618,19.9004676 4.13466997,20.0004318 3.91094527,20 C3.555196,19.9997378 3.2490916,19.748399 3.17960199,19.3995025 L2.54577114,16.221393 C2.5045845,16.0148385 2.55259917,15.8004975 2.67796871,15.6312534 C2.80333825,15.4620092 2.99438763,15.3536228 3.2039801,15.3328358 L6.38208955,15.0159204 C6.79218157,14.9747051 7.15803842,15.2737388 7.19925369,15.6838308 C7.24046897,16.0939229 6.9414353,16.4597797 6.53134328,16.500995 L5.16774802,16.6369808 Z M14.2992795,2.07799007 L14.0626866,0.892039801 C13.9875521,0.490268794 14.2495959,0.10281356 14.6504573,0.0229682895 C15.0513187,-0.0568769808 15.4418231,0.200600934 15.5263682,0.600497512 L16.160199,3.78109453 C16.2013843,3.98757103 16.1534344,4.20183807 16.0281717,4.37106585 C15.902909,4.54029363 15.71199,4.64873469 15.5024876,4.66965174 L12.3243781,4.98656716 C12.299005,4.98656716 12.2741294,4.98756219 12.2492537,4.98756219 C11.8527891,4.98557185 11.527086,4.67391567 11.5076305,4.2779237 C11.488175,3.88193173 11.7817593,3.53984934 12.1761194,3.49900498 L13.5388555,3.36310488 C10.5078118,1.45096481 6.44456009,1.81400945 3.80547264,4.45223881 C1.41100486,6.84032347 0.819406898,10.495432 2.33830846,13.5169154 C2.45442666,13.7482112 2.44241689,14.0231559 2.30657312,14.2434458 C2.17072934,14.4637357 1.93044903,14.5979153 1.67164179,14.59801 C1.3885448,14.5981888 1.13008712,14.4387231 1.00348259,14.1860697 C-0.804100217,10.5896824 -0.0997705886,6.23932855 2.75024876,3.39701493 C5.87957794,0.267258122 10.6959512,-0.172416829 14.2992795,2.07799007 Z" opacity=".7" transform="translate(.5)"/>
</svg>
