<?xml version="1.0" encoding="UTF-8"?>
<svg width="22px" height="22px" viewBox="0 0 22 22" version="1.1" xmlns="http://www.w3.org/2000/svg" xmlns:xlink="http://www.w3.org/1999/xlink">
    <!-- Generator: Sketch 57.1 (83088) - https://sketch.com -->
    <title>add@1x</title>
    <desc>Created with Sketch.</desc>
    <g id="页面-1" stroke="none" stroke-width="1" fill="none" fill-rule="evenodd" opacity="0.7">
        <g id="挖矿分红备份-38" transform="translate(-131.000000, -264.000000)" fill="#007AFF" fill-rule="nonzero">
            <g id="编组" transform="translate(24.000000, 163.000000)">
                <g id="添加" transform="translate(107.000000, 101.000000)">
                    <path d="M11,22 C17.0751322,22 22,17.0751322 22,11 C22,4.92486775 17.0751322,0 11,0 C4.92486775,0 0,4.92486775 0,11 C0,17.0751322 4.92486775,22 11,22 Z M11,4.23289474 C11.6118734,4.23289474 12.1078947,4.72891611 12.1078947,5.34078947 L12.1073333,10.0408947 L16.8087719,10.0416667 C17.4206453,10.0416667 17.9166667,10.537688 17.9166667,11.1495614 C17.9166667,11.7614348 17.4206453,12.2574561 16.8087719,12.2574561 L12.1073333,12.2568947 L12.1078947,16.9583333 C12.1078947,17.5702067 11.6118734,18.0662281 11,18.0662281 C10.3881266,18.0662281 9.89210526,17.5702067 9.89210526,16.9583333 L9.89133333,12.2568947 L5.19122807,12.2574561 C4.5793547,12.2574561 4.08333333,11.7614348 4.08333333,11.1495614 C4.08333333,10.537688 4.5793547,10.0416667 5.19122807,10.0416667 L9.89133333,10.0408947 L9.89210526,5.34078947 C9.89210526,4.72891611 10.3881266,4.23289474 11,4.23289474 Z" id="形状结合"></path>
                </g>
            </g>
        </g>
    </g>
</svg>