<?xml version="1.0" encoding="UTF-8"?>
<svg width="327px" height="191px" viewBox="0 0 327 191" version="1.1" xmlns="http://www.w3.org/2000/svg" xmlns:xlink="http://www.w3.org/1999/xlink">
    <!-- Generator: Sketch 57.1 (83088) - https://sketch.com -->
    <title>bg</title>
    <desc>Created with Sketch.</desc>
    <defs>
        <linearGradient x1="85.1500099%" y1="70.4955966%" x2="25.6741284%" y2="32.9414845%" id="linearGradient-1">
            <stop stop-color="#C7E4FF" offset="0%"></stop>
            <stop stop-color="#FFFFFF" offset="100%"></stop>
        </linearGradient>
        <path d="M2,0 L325,0 C326.104569,-2.02906125e-16 327,0.8954305 327,2 L327,189 C327,190.104569 326.104569,191 325,191 L2,191 C0.8954305,191 1.3527075e-16,190.104569 0,189 L0,2 C-1.3527075e-16,0.8954305 0.8954305,2.02906125e-16 2,0 Z" id="path-2"></path>
    </defs>
    <g id="页面-1" stroke="none" stroke-width="1" fill="none" fill-rule="evenodd">
        <g id="资产备份-52" transform="translate(-24.000000, -78.000000)">
            <g id="编组" transform="translate(24.000000, 78.000000)">
                <g id="编组-2" transform="translate(0.000000, -0.000000)">
                    <mask id="mask-3" fill="white">
                        <use xlink:href="#path-2"></use>
                    </mask>
                    <use id="Mask" fill="url(#linearGradient-1)" xlink:href="#path-2"></use>
                    <path d="M-693.435017,161.994609 C-693.435017,161.994609 -461.835775,-9.70339099 -264.660553,161.158927 C-67.4853311,332.021246 145.194084,156.60352 145.194084,156.60352 C145.194084,156.60352 484.755193,-206.496971 813.052205,145.877893 C1141.34922,498.252757 1300.31684,187.648681 1353.57893,131.872373 C1406.84101,76.0960656 1586.75214,-100.189481 1889.67282,123.810874 C2192.59349,347.811229 1906.00147,120.90798 1906.00147,120.90798 L1906.00147,779.416 L-719,779.416 L-693.435017,161.994609 Z" id="Path-2-Copy-2" fill="#FFFFFF" opacity="0.361672249" mask="url(#mask-3)"></path>
                </g>
            </g>
        </g>
    </g>
</svg>