<?xml version="1.0" encoding="UTF-8"?>
<svg width="28px" height="28px" viewBox="0 0 28 28" version="1.1" xmlns="http://www.w3.org/2000/svg" xmlns:xlink="http://www.w3.org/1999/xlink">
    <!-- Generator: Sketch 57.1 (83088) - https://sketch.com -->
    <title>资产-蓝@3x</title>
    <desc>Created with Sketch.</desc>
    <defs>
        <rect id="path-1" x="0" y="0" width="375" height="49"></rect>
        <filter x="-8.3%" y="-67.3%" width="116.5%" height="226.5%" filterUnits="objectBoundingBox" id="filter-2">
            <feOffset dx="0" dy="-2" in="SourceAlpha" result="shadowOffsetOuter1"></feOffset>
            <feGaussianBlur stdDeviation="10" in="shadowOffsetOuter1" result="shadowBlurOuter1"></feGaussianBlur>
            <feColorMatrix values="0 0 0 0 0   0 0 0 0 0   0 0 0 0 0  0 0 0 0.05 0" type="matrix" in="shadowBlurOuter1"></feColorMatrix>
        </filter>
        <linearGradient x1="-10.3703828%" y1="8.30555221%" x2="141.485541%" y2="113.922689%" id="linearGradient-3">
            <stop stop-color="#0B30E4" offset="0%"></stop>
            <stop stop-color="#0D6CEF" offset="31.4739301%"></stop>
            <stop stop-color="#0998F3" offset="49.1836977%"></stop>
            <stop stop-color="#00C3FF" offset="71.3239784%"></stop>
            <stop stop-color="#00ECFF" offset="100%"></stop>
        </linearGradient>
    </defs>
    <g id="页面-1" stroke="none" stroke-width="1" fill="none" fill-rule="evenodd">
        <g id="资产备份-52" transform="translate(-33.000000, -620.000000)">
            <rect fill="#FFFFFF" x="0" y="0" width="375" height="667"></rect>
            <g id="底图"></g>
            <g id="菜单" transform="translate(0.000000, 618.000000)">
                <g id="Rectangle-3">
                    <use fill="black" fill-opacity="1" filter="url(#filter-2)" xlink:href="#path-1"></use>
                    <use fill="#FFFFFF" fill-rule="evenodd" xlink:href="#path-1"></use>
                </g>
                <g id="WALLET" transform="translate(33.000000, 2.000000)" fill="url(#linearGradient-3)" fill-rule="nonzero">
                    <path d="M2.5000456,23.0270872 L2.5000456,9.10463103 C2.96144623,9.49966523 3.54759032,9.75429559 4.19083377,9.80127132 L4.40727025,9.80914674 L24.3922178,9.80914674 C24.7795835,9.80914674 25.0997385,10.0954623 25.1504076,10.467001 L25.157393,10.5702916 L25.157393,14.0690716 L21.9938527,14.0690716 C20.4198874,14.0690716 19.1421978,15.3547976 19.1662753,16.9258006 C19.1891172,18.4120854 20.3907029,19.603813 21.8653863,19.6900503 L22.0367025,19.6950486 L25.157393,19.6950486 L25.157393,24.1632227 C25.157393,24.5485481 24.8695185,24.8670168 24.4960446,24.917419 L24.3922178,24.9243676 L4.40737228,24.9243676 C3.40409401,24.9243676 2.58182044,24.1538566 2.50578368,23.1753524 L2.5000456,23.0270872 L2.5000456,9.10463103 Z M21.9938323,15.0839518 L26.0836937,15.0839518 C26.2845522,15.0839518 26.4526428,15.226182 26.4915271,15.4147118 L26.5,15.4980653 L26.5,18.2660955 C26.5,18.4658516 26.3570167,18.6330902 26.1674885,18.6717787 L26.0836937,18.6802091 L21.9938323,18.6802091 C20.9971151,18.6802091 20.1861824,17.8735477 20.1861824,16.8820804 C20.1861824,15.9401383 20.9180492,15.1650751 21.8457963,15.0899236 L21.9938323,15.0839518 L26.0836937,15.0839518 Z M22.3232759,5 C22.7458567,5 23.0884511,5.34073919 23.0884511,5.76114488 L23.0884511,5.76114488 L23.0884511,8.79425645 L4.44296823,8.79425645 C3.40151379,8.79425645 2.52513314,7.97851213 2.50054551,6.94279693 C2.47514169,5.87592553 3.34029977,5 4.40720904,5 L4.40720904,5 Z" id="形状结合"></path>
                </g>
                <g id="WALLET" transform="translate(33.000000, 2.000000)" fill="url(#linearGradient-3)" fill-rule="nonzero">
                    <path d="M2.5000456,23.0270872 L2.5000456,9.10463103 C2.96144623,9.49966523 3.54759032,9.75429559 4.19083377,9.80127132 L4.40727025,9.80914674 L24.3922178,9.80914674 C24.7795835,9.80914674 25.0997385,10.0954623 25.1504076,10.467001 L25.157393,10.5702916 L25.157393,14.0690716 L21.9938527,14.0690716 C20.4198874,14.0690716 19.1421978,15.3547976 19.1662753,16.9258006 C19.1891172,18.4120854 20.3907029,19.603813 21.8653863,19.6900503 L22.0367025,19.6950486 L25.157393,19.6950486 L25.157393,24.1632227 C25.157393,24.5485481 24.8695185,24.8670168 24.4960446,24.917419 L24.3922178,24.9243676 L4.40737228,24.9243676 C3.40409401,24.9243676 2.58182044,24.1538566 2.50578368,23.1753524 L2.5000456,23.0270872 L2.5000456,9.10463103 Z M21.9938323,15.0839518 L26.0836937,15.0839518 C26.2845522,15.0839518 26.4526428,15.226182 26.4915271,15.4147118 L26.5,15.4980653 L26.5,18.2660955 C26.5,18.4658516 26.3570167,18.6330902 26.1674885,18.6717787 L26.0836937,18.6802091 L21.9938323,18.6802091 C20.9971151,18.6802091 20.1861824,17.8735477 20.1861824,16.8820804 C20.1861824,15.9401383 20.9180492,15.1650751 21.8457963,15.0899236 L21.9938323,15.0839518 L26.0836937,15.0839518 Z M22.3232759,5 C22.7458567,5 23.0884511,5.34073919 23.0884511,5.76114488 L23.0884511,5.76114488 L23.0884511,8.79425645 L4.44296823,8.79425645 C3.40151379,8.79425645 2.52513314,7.97851213 2.50054551,6.94279693 C2.47514169,5.87592553 3.34029977,5 4.40720904,5 L4.40720904,5 Z" id="形状结合"></path>
                </g>
            </g>
        </g>
    </g>
</svg>