<?xml version="1.0" encoding="UTF-8"?>
<svg width="28px" height="28px" viewBox="0 0 28 28" version="1.1" xmlns="http://www.w3.org/2000/svg" xmlns:xlink="http://www.w3.org/1999/xlink">
    <!-- Generator: Sketch 57.1 (83088) - https://sketch.com -->
    <title>交易-灰@3x</title>
    <desc>Created with Sketch.</desc>
    <defs>
        <rect id="path-1" x="0" y="0" width="375" height="49"></rect>
        <filter x="-8.3%" y="-67.3%" width="116.5%" height="226.5%" filterUnits="objectBoundingBox" id="filter-2">
            <feOffset dx="0" dy="-2" in="SourceAlpha" result="shadowOffsetOuter1"></feOffset>
            <feGaussianBlur stdDeviation="10" in="shadowOffsetOuter1" result="shadowBlurOuter1"></feGaussianBlur>
            <feColorMatrix values="0 0 0 0 0   0 0 0 0 0   0 0 0 0 0  0 0 0 0.05 0" type="matrix" in="shadowBlurOuter1"></feColorMatrix>
        </filter>
    </defs>
    <g id="页面-1" stroke="none" stroke-width="1" fill="none" fill-rule="evenodd">
        <g id="资产备份-52" transform="translate(-127.000000, -620.000000)">
            <rect fill="#FFFFFF" x="0" y="0" width="375" height="667"></rect>
            <g id="底图"></g>
            <g id="菜单" transform="translate(0.000000, 618.000000)">
                <g id="Rectangle-3">
                    <use fill="black" fill-opacity="1" filter="url(#filter-2)" xlink:href="#path-1"></use>
                    <use fill="#FFFFFF" fill-rule="evenodd" xlink:href="#path-1"></use>
                </g>
                <g id="交易记录" transform="translate(126.666667, 2.000000)" fill="#D3DFEF" fill-rule="nonzero">
                    <path d="M6.50703976,11.8788197 L6.50703976,14.0060925 L4.42727273,14.0060925 L4.42727273,17.1970016 L23.5727273,17.1970016 L23.5727273,14.0060925 L21.6955735,14.0060925 L21.6955735,11.8823652 L23.7854545,11.8788197 C24.8490909,11.8788197 25.7,12.7297289 25.7,13.7933652 L25.7,13.7933652 L25.7,24.1106379 C25.7,25.0147288 25.0086364,25.7060924 24.1045455,25.7060924 L24.1045455,25.7060924 L3.89545455,25.7060924 C2.99136364,25.7060924 2.3,25.0147288 2.3,24.1106379 L2.3,24.1106379 L2.3,13.7933652 C2.3,12.7297289 3.15090909,11.8788197 4.21454545,11.8788197 L4.21454545,11.8788197 L6.50703976,11.8788197 Z M17.5203776,3.90610548 C17.8757345,3.90610548 18.1796527,4.21002365 18.1796527,4.56538054 L18.1796527,11.1529083 C18.1796527,11.2467042 18.3003446,11.2941189 18.365752,11.2287116 L19.4739342,10.1205294 C19.7351719,9.85929167 20.1360448,9.8586925 20.3979231,10.1187319 L21.0329472,10.7241141 C21.3005661,10.9471298 21.3144722,11.3782188 21.0769494,11.6619789 L17.5369228,15.2020055 C17.2750845,15.4638438 16.8729683,15.4638438 16.6111301,15.2020055 L13.0711035,11.6619789 C12.8092652,11.4001407 12.8092652,10.9980245 13.0678938,10.7394714 L13.7175431,10.0589637 C13.9793814,9.79712544 14.3814976,9.79712544 14.6433359,10.0589637 L15.7515181,11.1671459 C15.8169254,11.2325533 15.9376174,11.1851386 15.9376174,11.0913426 L15.9376174,4.56538054 C15.9376174,4.23222826 16.2495609,3.90610548 16.5968924,3.90610548 L17.5203776,3.90610548 Z M10.7653066,2.99691363 L14.2745504,6.53694022 C14.53578,6.79816722 14.53578,7.20028342 14.2739418,7.46212169 L13.6275021,8.10856132 C13.3656639,8.37039959 12.9635477,8.37039959 12.7017094,8.10856132 L11.5935272,7.00037909 C11.5281199,6.93497177 11.4074279,6.98238646 11.4074279,7.07618242 L11.4074279,13.6021445 C11.4074279,13.9352968 11.0954844,14.2614196 10.7481528,14.2614196 L9.82466764,14.2614196 C9.46931075,14.2614196 9.16539257,13.9575014 9.16539257,13.6021445 L9.16539257,7.07618242 C9.16539257,6.98238646 9.04470063,6.93497177 8.97929331,7.00037909 L7.87111107,8.10856132 C7.60927281,8.37039959 7.20715661,8.37039959 6.94531834,8.10856132 L6.2988787,7.46212169 C6.03704043,7.20028342 6.03704043,6.79816722 6.2988787,6.53632895 L9.83890529,2.99630236 C10.1007436,2.73446409 10.5028598,2.73446409 10.7653066,2.99691363 Z" id="形状结合"></path>
                </g>
                <g id="交易记录" transform="translate(127.000000, 2.000000)" fill="#D3DFEF" fill-rule="nonzero">
                    <path d="M6.50703976,11.8788197 L6.50703976,14.0060925 L4.42727273,14.0060925 L4.42727273,17.1970016 L23.5727273,17.1970016 L23.5727273,14.0060925 L21.6955735,14.0060925 L21.6955735,11.8823652 L23.7854545,11.8788197 C24.8490909,11.8788197 25.7,12.7297289 25.7,13.7933652 L25.7,13.7933652 L25.7,24.1106379 C25.7,25.0147288 25.0086364,25.7060924 24.1045455,25.7060924 L24.1045455,25.7060924 L3.89545455,25.7060924 C2.99136364,25.7060924 2.3,25.0147288 2.3,24.1106379 L2.3,24.1106379 L2.3,13.7933652 C2.3,12.7297289 3.15090909,11.8788197 4.21454545,11.8788197 L4.21454545,11.8788197 L6.50703976,11.8788197 Z M17.5203776,3.90610548 C17.8757345,3.90610548 18.1796527,4.21002365 18.1796527,4.56538054 L18.1796527,11.1529083 C18.1796527,11.2467042 18.3003446,11.2941189 18.365752,11.2287116 L19.4739342,10.1205294 C19.7351719,9.85929167 20.1360448,9.8586925 20.3979231,10.1187319 L21.0329472,10.7241141 C21.3005661,10.9471298 21.3144722,11.3782188 21.0769494,11.6619789 L17.5369228,15.2020055 C17.2750845,15.4638438 16.8729683,15.4638438 16.6111301,15.2020055 L13.0711035,11.6619789 C12.8092652,11.4001407 12.8092652,10.9980245 13.0678938,10.7394714 L13.7175431,10.0589637 C13.9793814,9.79712544 14.3814976,9.79712544 14.6433359,10.0589637 L15.7515181,11.1671459 C15.8169254,11.2325533 15.9376174,11.1851386 15.9376174,11.0913426 L15.9376174,4.56538054 C15.9376174,4.23222826 16.2495609,3.90610548 16.5968924,3.90610548 L17.5203776,3.90610548 Z M10.7653066,2.99691363 L14.2745504,6.53694022 C14.53578,6.79816722 14.53578,7.20028342 14.2739418,7.46212169 L13.6275021,8.10856132 C13.3656639,8.37039959 12.9635477,8.37039959 12.7017094,8.10856132 L11.5935272,7.00037909 C11.5281199,6.93497177 11.4074279,6.98238646 11.4074279,7.07618242 L11.4074279,13.6021445 C11.4074279,13.9352968 11.0954844,14.2614196 10.7481528,14.2614196 L9.82466764,14.2614196 C9.46931075,14.2614196 9.16539257,13.9575014 9.16539257,13.6021445 L9.16539257,7.07618242 C9.16539257,6.98238646 9.04470063,6.93497177 8.97929331,7.00037909 L7.87111107,8.10856132 C7.60927281,8.37039959 7.20715661,8.37039959 6.94531834,8.10856132 L6.2988787,7.46212169 C6.03704043,7.20028342 6.03704043,6.79816722 6.2988787,6.53632895 L9.83890529,2.99630236 C10.1007436,2.73446409 10.5028598,2.73446409 10.7653066,2.99691363 Z" id="形状结合"></path>
                </g>
            </g>
        </g>
    </g>
</svg>