<?xml version="1.0" encoding="UTF-8"?>
<svg width="12px" height="12px" viewBox="0 0 12 12" version="1.1" xmlns="http://www.w3.org/2000/svg" xmlns:xlink="http://www.w3.org/1999/xlink">
    <!-- Generator: Sketch 58 (84663) - https://sketch.com -->
    <title>select</title>
    <desc>Created with Sketch.</desc>
    <g id="页面-1" stroke="none" stroke-width="1" fill="none" fill-rule="evenodd">
        <g id="资产备份-66" transform="translate(-24.000000, -274.000000)" fill-rule="nonzero">
            <g id="隐藏小额币种" transform="translate(24.000000, 272.000000)">
                <rect id="矩形" stroke-opacity="0.45" stroke="#3E4A59" x="0.5" y="2.5" width="11" height="11" rx="2"></rect>
                <path d="M9.19277872,5.43722128 C8.98315034,5.22759291 8.64327559,5.22759291 8.44225167,5.42785419 L5.20167047,9.27069893 L4.98093006,9.28006209 L3.56635278,7.86538012 C3.35672441,7.65575174 3.01684966,7.65575174 2.80722128,7.86538012 C2.59759291,8.07500849 2.59759291,8.41488324 2.80722128,8.62451161 L4.74974835,10.5670387 C4.85188,10.6691703 4.98773049,10.72426 5.11786668,10.7246974 L5.2116004,10.7179627 C5.32346876,10.7007287 5.42701253,10.648906 5.50069274,10.575913 L9.25489083,6.12201004 C9.39981909,5.91280466 9.37911505,5.62355761 9.19277872,5.43722128 Z" id="合并形状" fill="#A8ADB4"></path>
            </g>
        </g>
    </g>
</svg>