<?xml version="1.0" encoding="UTF-8"?>
<svg width="18px" height="18px" viewBox="0 0 18 18" version="1.1" xmlns="http://www.w3.org/2000/svg" xmlns:xlink="http://www.w3.org/1999/xlink">
    <!-- Generator: Sketch 57.1 (83088) - https://sketch.com -->
    <title>close</title>
    <desc>Created with Sketch.</desc>
    <g id="页面-1" stroke="none" stroke-width="1" fill="none" fill-rule="evenodd">
        <g id="充值至交易所备份-4" transform="translate(-289.000000, -215.000000)" fill="#BBBBBB" fill-rule="nonzero">
            <g id="充值蓝色" transform="translate(53.000000, 199.000000)">
                <g id="编组" transform="translate(236.000000, 16.000000)">
                    <path d="M9.874213,8.92928932 L13.7335892,5.06991311 C13.9554703,4.84803207 13.9554703,4.48829182 13.7335892,4.26641078 C13.5117082,4.04452974 13.1519679,4.04452974 12.9300869,4.26641078 L9.07071068,8.125787 L8.92928932,8.125787 L5.06991311,4.26641078 C4.84803207,4.04452974 4.48829182,4.04452974 4.26641078,4.26641078 C4.04452974,4.48829182 4.04452974,4.84803207 4.26641078,5.06991311 L8.125787,8.92928932 L8.125787,9.07071068 L4.26641078,12.9300869 C4.04452974,13.1519679 4.04452974,13.5117082 4.26641078,13.7335892 C4.48829182,13.9554703 4.84803207,13.9554703 5.06991311,13.7335892 L8.92928932,9.874213 L9.07071068,9.874213 L12.9300869,13.7335892 C13.1519679,13.9554703 13.5117082,13.9554703 13.7335892,13.7335892 C13.9554703,13.5117082 13.9554703,13.1519679 13.7335892,12.9300869 L9.874213,9.07071068 L9.874213,8.92928932 Z" id="Combined-Shape"></path>
                </g>
            </g>
        </g>
    </g>
</svg>