<?xml version="1.0" encoding="UTF-8"?>
<svg width="16px" height="18px" viewBox="0 0 16 18" version="1.1" xmlns="http://www.w3.org/2000/svg" xmlns:xlink="http://www.w3.org/1999/xlink">
    <!-- Generator: Sketch 57.1 (83088) - https://sketch.com -->
    <title>复制</title>
    <desc>Created with Sketch.</desc>
    <g id="页面-1" stroke="none" stroke-width="1" fill="none" fill-rule="evenodd">
        <g id="资产备份-52" transform="translate(-303.000000, -220.000000)" fill="#A8ADB4" fill-rule="nonzero">
            <g id="编组" transform="translate(24.000000, 78.000000)">
                <g id="地址s" transform="translate(279.000000, 142.000000)">
                    <path d="M0.48888714,17.28 C0.48888714,17.6030866 0.747568811,17.8650013 1.06666671,17.8650013 L11.2304577,17.8650013 C11.5495559,17.8650013 11.8082348,17.6030869 11.8082348,17.2800003 L11.8082348,8.37001615 C11.8082348,8.21491338 11.7473822,8.06615919 11.6390879,7.95645873 L7.75728583,4.02425341 C7.64892389,3.91448445 7.50192255,3.85279451 7.34863887,3.85279451 L1.0666654,3.85279451 C0.747567112,3.85279451 0.48888714,4.11470788 0.48888714,4.43779451 L0.48888714,17.28 Z M1.4889126,4.86533666 L7.17237727,4.86533666 L10.8098821,8.54831029 L10.8098821,16.852476 L1.4889126,16.852476 L1.4889126,4.86533666 Z" id="Mask"></path>
                    <path d="M7.87936555,7.83248465 L7.87936555,4.35907466 C7.87936555,4.07947387 7.65550262,3.85281266 7.3793537,3.85281266 C7.10320478,3.85281266 6.87934184,4.07947387 6.87934184,4.35906928 L6.87940764,8.25958115 C6.87940764,8.58264659 7.13805498,8.84455126 7.45713727,8.84458115 L11.3098745,8.84500866 C11.586041,8.84500866 11.8099058,8.61834932 11.8099058,8.33874665 C11.8099058,8.05914587 11.5860429,7.83248465 11.3098939,7.83248465 L7.87936555,7.83248465 Z M5.75369556,1.37772202 L14.7936729,1.37772202 L14.7936729,13.0012304 L13.4832768,13.0012304 C13.2179832,13.0012304 13.0029202,13.2189817 13.0029202,13.4875914 C13.0029202,13.7562012 13.2179832,13.9739524 13.4832768,13.9739524 L15.1766082,13.9739524 C15.495706,13.9739524 15.754386,13.712039 15.754386,13.3889524 L15.754386,0.99 C15.754386,0.666913421 15.495706,0.405 15.1766082,0.405 L5.37076023,0.405 C5.05166238,0.405 4.79298246,0.666913421 4.79298246,0.99 L4.79298246,2.41212588 C4.79298246,2.68073565 5.00804541,2.89848689 5.27333901,2.89848689 C5.53863261,2.89848689 5.75369556,2.68073565 5.75369556,2.41212588 L5.75369556,1.37772202 Z" id="Combined-Shape"></path>
                </g>
            </g>
        </g>
    </g>
</svg>