<?xml version="1.0" encoding="UTF-8"?>
<svg width="16px" height="16px" viewBox="0 0 16 16" version="1.1" xmlns="http://www.w3.org/2000/svg" xmlns:xlink="http://www.w3.org/1999/xlink">
    <!-- Generator: Sketch 57.1 (83088) - https://sketch.com -->
    <title>收益</title>
    <desc>Created with Sketch.</desc>
    <g id="页面-1" stroke="none" stroke-width="1" fill="none" fill-rule="evenodd">
        <g id="挖矿分红备份-59" transform="translate(-201.000000, -257.000000)">
            <g id="收益备份" transform="translate(201.000000, 257.000000)">
                <g id="编组-4" transform="translate(2.200000, 2.600000)">
                    <path d="M0.0786055736,3.45507657 C-0.0181715693,3.337088 0.0658305086,3.15980384 0.218408171,3.15980384 L11.3427178,3.15980384 C11.4952954,3.15980384 11.579177,3.337088 11.4825204,3.45507657 L5.92042583,10.2452646 C5.84811414,10.3334849 5.71301181,10.3334849 5.64070012,10.2452646 L0.0786055736,3.45507657 Z" id="Fill-3" fill="#86C0FF"></path>
                    <path d="M7.60355269,3.28267345 L8.61495217,0.261370597 C8.65255425,0.133017351 8.77331477,0.0349144935 8.90914022,0.0122568312 C9.0450862,-0.0102803117 9.18838386,0.0423867013 9.2715423,0.155675013 L11.5356213,3.16962618 L11.5375496,3.17203657 C11.6184181,3.28448125 11.5381522,3.44115657 11.3997958,3.44115657 L7.59608048,3.44115657 C7.58089503,3.38836904 7.58836724,3.33546099 7.60355269,3.28267345" id="Fill-5" fill="#5AA9FF"></path>
                    <path d="M3.96637118,3.28267345 L2.9549717,0.261370597 C2.91724911,0.133017351 2.79648859,0.0349144935 2.66066313,0.0122568312 C2.52483768,-0.0102803117 2.3814195,0.0423867013 2.29838157,0.155675013 L0.034182093,3.16962618 L0.0323743008,3.17203657 C-0.0486147901,3.28448125 0.031651184,3.44115657 0.170128067,3.44115657 L3.97384339,3.44115657 C3.98902885,3.38836904 3.98143612,3.33546099 3.96637118,3.28267345" id="Fill-7" fill="#5AA9FF"></path>
                    <path d="M5.55661368,10.0883724 L3.33556017,3.36688042 C3.28506251,3.21418223 3.3988329,3.05690431 3.55948537,3.05690431 L8.00159238,3.05690431 C8.16236537,3.05690431 8.27589472,3.21418223 8.22563809,3.3667599 L6.00446407,10.0883724 C5.93323705,10.3041022 5.62796121,10.3041022 5.55661368,10.0883724" id="Fill-9" fill="#5AA9FF"></path>
                    <path d="M8.00713627,3.44179532 L3.55394147,3.44179532 C3.4458355,3.44179532 3.35749472,3.36538597 3.35749472,3.2721039 L2.44058251,0.169932468 C2.44058251,0.0764093506 2.52904381,1.32338585e-13 2.63714978,1.32338585e-13 L8.92392796,1.32338585e-13 C9.03203394,1.32338585e-13 9.12037472,0.0764093506 9.12037472,0.169932468 L8.20358303,3.2721039 C8.20358303,3.36538597 8.11512173,3.44179532 8.00713627,3.44179532 L8.20099902,3.15980384" id="Fill-11" fill="#459DFF"></path>
                </g>
            </g>
        </g>
    </g>
</svg>