<?xml version="1.0" encoding="UTF-8"?>
<svg width="16px" height="16px" viewBox="0 0 16 16" version="1.1" xmlns="http://www.w3.org/2000/svg" xmlns:xlink="http://www.w3.org/1999/xlink">
    <!-- Generator: Sketch 57.1 (83088) - https://sketch.com -->
    <title>金额</title>
    <desc>Created with Sketch.</desc>
    <g id="页面-1" stroke="none" stroke-width="1" fill="none" fill-rule="evenodd">
        <g id="挖矿分红备份-59" transform="translate(-38.000000, -257.000000)" fill="#459DFF">
            <g id="编组-2" transform="translate(24.000000, 156.000000)">
                <g id="编组-5" transform="translate(14.000000, 101.000000)">
                    <g id="编组-3" transform="translate(1.500000, 3.000000)">
                        <path d="M8.54989251,5.00147157 C7.16876177,5.00147157 6.04909531,3.88190044 6.04909531,2.50073579 C6.04909531,1.11957113 7.16876177,8.4288132e-13 8.54989251,8.4288132e-13 C9.93090043,8.4288132e-13 11.0505669,1.11957113 11.0505669,2.50073579 C11.0505669,3.88190044 9.93090043,5.00147157 8.54989251,5.00147157 Z" id="Fill-4"></path>
                        <path d="M8.4760037,4.94589967 C10.6724104,4.94589967 12.4639896,6.86574873 12.5564855,9.27253994 C12.5606118,9.37990326 12.4804944,9.72508361 12.3835284,9.72508361 L7.13323987,9.72566286 C7.17328503,9.55864575 7.1858467,9.38348539 7.17671388,9.21944473 C7.10796298,7.97704394 6.55767161,6.87291487 5.72304068,6.12871163 C6.44826535,5.39394958 7.41488231,4.94589967 8.4760037,4.94589967 Z" id="形状结合"></path>
                        <path d="M0.184839776,9.72508361 C0.0776193398,9.72508361 -0.00612752306,9.38249706 0.000352161226,9.26391516 C0.102926786,7.41249435 1.4914131,5.94619398 3.18921263,5.94619398 C4.88701217,5.94619398 6.27549848,7.41249435 6.37795085,9.26391516 C6.38455279,9.38249706 6.30080593,9.72508361 6.19346324,9.72508361 L0.184839776,9.72508361 Z" id="Fill-6"></path>
                        <path d="M5.11768944,4.02643721 C5.11768944,5.10060536 4.2468117,5.97145394 3.17260759,5.97145394 C2.09840348,5.97145394 1.227656,5.10060536 1.227656,4.02643721 C1.227656,2.95226907 2.09840348,2.08142049 3.17260759,2.08142049 C4.2468117,2.08142049 5.11768944,2.95226907 5.11768944,4.02643721" id="Fill-8"></path>
                    </g>
                </g>
            </g>
        </g>
    </g>
</svg>