<?xml version="1.0" encoding="UTF-8"?>
<svg width="28px" height="28px" viewBox="0 0 28 28" version="1.1" xmlns="http://www.w3.org/2000/svg" xmlns:xlink="http://www.w3.org/1999/xlink">
    <!-- Generator: Sketch 57.1 (83088) - https://sketch.com -->
    <title>挖矿-灰@3x</title>
    <desc>Created with Sketch.</desc>
    <defs>
        <rect id="path-1" x="0" y="0" width="375" height="49"></rect>
        <filter x="-8.3%" y="-67.3%" width="116.5%" height="226.5%" filterUnits="objectBoundingBox" id="filter-2">
            <feOffset dx="0" dy="-2" in="SourceAlpha" result="shadowOffsetOuter1"></feOffset>
            <feGaussianBlur stdDeviation="10" in="shadowOffsetOuter1" result="shadowBlurOuter1"></feGaussianBlur>
            <feColorMatrix values="0 0 0 0 0   0 0 0 0 0   0 0 0 0 0  0 0 0 0.05 0" type="matrix" in="shadowBlurOuter1"></feColorMatrix>
        </filter>
    </defs>
    <g id="页面-1" stroke="none" stroke-width="1" fill="none" fill-rule="evenodd">
        <g id="资产备份-53" transform="translate(-314.000000, -1189.000000)">
            <rect fill="#FFFFFF" x="0" y="0" width="375" height="1236"></rect>
            <g id="菜单" transform="translate(0.000000, 1187.000000)">
                <g id="Rectangle-3">
                    <use fill="black" fill-opacity="1" filter="url(#filter-2)" xlink:href="#path-1"></use>
                    <use fill="#FFFFFF" fill-rule="evenodd" xlink:href="#path-1"></use>
                </g>
                <g id="挖矿" transform="translate(314.000000, 2.000000)" fill="#D3DFEF" fill-rule="nonzero">
                    <path d="M11.0606676,14.7094104 C11.1032019,14.7432445 11.1438028,14.7809454 11.1786037,14.8234797 L15.2754327,19.6791599 C15.5548059,20.0107343 16.0507175,20.0532686 16.3813253,19.7729287 C16.4170928,19.743928 16.4489935,19.7120273 16.4789609,19.6762598 L17.7955916,18.0976562 C18.0730315,17.7651151 18.5689431,17.7196807 18.9014842,17.9980872 C18.9430518,18.0319213 18.9807527,18.0705889 19.0136201,18.1131232 L24.1293397,24.5706075 C24.399046,24.9099154 24.3420113,25.4048603 24.0017367,25.6745666 C23.8606001,25.7857359 23.6856293,25.8456706 23.5058251,25.8437826 L3.17634995,25.6339657 C2.74327317,25.6291323 2.39526503,25.2733906 2.40004873,24.8403138 C2.40106517,24.6682431 2.45906652,24.5029393 2.56443565,24.3666361 L9.95767512,14.8476469 C10.2244814,14.5054389 10.7174929,14.4426041 11.0606676,14.7094104 Z M22.7490041,2.73599717 C23.3802522,2.8684336 23.6847593,3.60118406 23.2487824,3.92985841 C22.8398729,4.23823228 21.1549335,4.66454225 19.5985638,5.4697944 C18.8899806,5.83616963 18.1688304,6.32918116 17.4341465,6.94882897 C17.4186795,7.12863317 17.3413444,7.30070386 17.2079412,7.43120691 L25.3629319,18.2581266 C25.754441,18.7772388 25.6500386,19.5148227 25.1309264,19.9072985 L24.8380196,20.1277037 C24.3189075,20.5192128 23.5803569,20.4148104 23.1888477,19.8956982 L15.0367572,9.07747872 C14.8472861,9.21958205 14.614314,9.26404975 14.3997089,9.21764867 C13.6292576,9.73289404 12.9806091,10.2752067 12.4498967,10.8368532 C11.2473353,12.1109496 10.3724815,13.6131847 9.96357192,13.9215586 C9.52759507,14.250233 8.90698056,13.7552881 8.95338165,13.111473 C9.02685003,12.1022494 10.4343496,9.90593142 11.1883672,8.92280844 C11.6755786,8.28672691 12.190824,7.71444687 12.7331367,7.20500163 C12.6693352,6.91789492 12.7747043,6.60275422 13.0279769,6.41231643 L12.7921047,6.09910911 C12.4005956,5.5780636 12.5040313,4.84047969 13.0231434,4.44897054 L13.3160503,4.22856539 C13.8361291,3.83705624 14.5746797,3.94049199 14.9661889,4.45960412 L15.2078612,4.78151165 L15.2523289,4.75541104 C15.4843343,4.64424177 15.7540406,4.65487536 15.9734791,4.77764489 C16.6259943,4.37936892 17.3384443,4.03136078 18.1059956,3.72878704 C19.2582892,3.27540978 21.7571809,2.52719229 22.7490041,2.73599717 Z M7.53465611,15.5145173 C7.65298947,15.7201885 7.60320312,15.9765143 7.42817294,16.1244344 L7.35674956,16.1745122 L5.98405081,16.9642973 C5.7526707,17.0974224 5.4571809,17.0177709 5.32405587,16.7863908 C5.2057225,16.5807196 5.25550885,16.3243938 5.43053903,16.1764737 L5.50196241,16.1263959 L6.87466117,15.3366107 C7.10604127,15.2034857 7.40153107,15.2831372 7.53465611,15.5145173 Z M4.97668069,12.4049198 L5.0638889,12.4068737 C5.5535013,12.4618389 5.97314955,12.5087684 6.32283365,12.5477229 C6.67244945,12.5866093 6.67244945,12.5866093 6.74220866,12.5943202 C7.00753655,12.6236483 7.19885216,12.8625142 7.16952404,13.1278421 C7.14019591,13.39317 6.90133001,13.5844856 6.63600212,13.5551575 C6.56583306,13.5474013 6.56583306,13.5474013 6.21580751,13.5084692 C5.86585026,13.4694844 5.44592888,13.4225242 4.95604338,13.3675285 C4.69076591,13.3377477 4.49985807,13.0985558 4.52963879,12.8332783 C4.55280157,12.6269514 4.7026452,12.4656135 4.89291359,12.4181088 L4.97668069,12.4049198 Z M7.18184789,9.12633488 L7.2428115,9.18872502 L8.34483726,10.5391899 C8.51361002,10.7460106 8.48276611,11.0504892 8.27594545,11.219262 C8.09210487,11.3692822 7.83110244,11.3615806 7.65683703,11.2127603 L7.59587341,11.1503701 L6.49384766,9.79990525 C6.32507489,9.5930846 6.35591881,9.28860597 6.56273946,9.11983321 C6.74658005,8.96981298 7.00758248,8.97751456 7.18184789,9.12633488 Z" id="形状结合"></path>
                </g>
                <g id="ME" transform="translate(314.000000, 2.000000)" fill="#D3DFEF" fill-rule="nonzero">
                    <path d="M11.0606676,14.7094104 C11.1032019,14.7432445 11.1438028,14.7809454 11.1786037,14.8234797 L15.2754327,19.6791599 C15.5548059,20.0107343 16.0507175,20.0532686 16.3813253,19.7729287 C16.4170928,19.743928 16.4489935,19.7120273 16.4789609,19.6762598 L17.7955916,18.0976562 C18.0730315,17.7651151 18.5689431,17.7196807 18.9014842,17.9980872 C18.9430518,18.0319213 18.9807527,18.0705889 19.0136201,18.1131232 L24.1293397,24.5706075 C24.399046,24.9099154 24.3420113,25.4048603 24.0017367,25.6745666 C23.8606001,25.7857359 23.6856293,25.8456706 23.5058251,25.8437826 L3.17634995,25.6339657 C2.74327317,25.6291323 2.39526503,25.2733906 2.40004873,24.8403138 C2.40106517,24.6682431 2.45906652,24.5029393 2.56443565,24.3666361 L9.95767512,14.8476469 C10.2244814,14.5054389 10.7174929,14.4426041 11.0606676,14.7094104 Z M22.7490041,2.73599717 C23.3802522,2.8684336 23.6847593,3.60118406 23.2487824,3.92985841 C22.8398729,4.23823228 21.1549335,4.66454225 19.5985638,5.4697944 C18.8899806,5.83616963 18.1688304,6.32918116 17.4341465,6.94882897 C17.4186795,7.12863317 17.3413444,7.30070386 17.2079412,7.43120691 L25.3629319,18.2581266 C25.754441,18.7772388 25.6500386,19.5148227 25.1309264,19.9072985 L24.8380196,20.1277037 C24.3189075,20.5192128 23.5803569,20.4148104 23.1888477,19.8956982 L15.0367572,9.07747872 C14.8472861,9.21958205 14.614314,9.26404975 14.3997089,9.21764867 C13.6292576,9.73289404 12.9806091,10.2752067 12.4498967,10.8368532 C11.2473353,12.1109496 10.3724815,13.6131847 9.96357192,13.9215586 C9.52759507,14.250233 8.90698056,13.7552881 8.95338165,13.111473 C9.02685003,12.1022494 10.4343496,9.90593142 11.1883672,8.92280844 C11.6755786,8.28672691 12.190824,7.71444687 12.7331367,7.20500163 C12.6693352,6.91789492 12.7747043,6.60275422 13.0279769,6.41231643 L12.7921047,6.09910911 C12.4005956,5.5780636 12.5040313,4.84047969 13.0231434,4.44897054 L13.3160503,4.22856539 C13.8361291,3.83705624 14.5746797,3.94049199 14.9661889,4.45960412 L15.2078612,4.78151165 L15.2523289,4.75541104 C15.4843343,4.64424177 15.7540406,4.65487536 15.9734791,4.77764489 C16.6259943,4.37936892 17.3384443,4.03136078 18.1059956,3.72878704 C19.2582892,3.27540978 21.7571809,2.52719229 22.7490041,2.73599717 Z M7.53465611,15.5145173 C7.65298947,15.7201885 7.60320312,15.9765143 7.42817294,16.1244344 L7.35674956,16.1745122 L5.98405081,16.9642973 C5.7526707,17.0974224 5.4571809,17.0177709 5.32405587,16.7863908 C5.2057225,16.5807196 5.25550885,16.3243938 5.43053903,16.1764737 L5.50196241,16.1263959 L6.87466117,15.3366107 C7.10604127,15.2034857 7.40153107,15.2831372 7.53465611,15.5145173 Z M4.97668069,12.4049198 L5.0638889,12.4068737 C5.5535013,12.4618389 5.97314955,12.5087684 6.32283365,12.5477229 C6.67244945,12.5866093 6.67244945,12.5866093 6.74220866,12.5943202 C7.00753655,12.6236483 7.19885216,12.8625142 7.16952404,13.1278421 C7.14019591,13.39317 6.90133001,13.5844856 6.63600212,13.5551575 C6.56583306,13.5474013 6.56583306,13.5474013 6.21580751,13.5084692 C5.86585026,13.4694844 5.44592888,13.4225242 4.95604338,13.3675285 C4.69076591,13.3377477 4.49985807,13.0985558 4.52963879,12.8332783 C4.55280157,12.6269514 4.7026452,12.4656135 4.89291359,12.4181088 L4.97668069,12.4049198 Z M7.18184789,9.12633488 L7.2428115,9.18872502 L8.34483726,10.5391899 C8.51361002,10.7460106 8.48276611,11.0504892 8.27594545,11.219262 C8.09210487,11.3692822 7.83110244,11.3615806 7.65683703,11.2127603 L7.59587341,11.1503701 L6.49384766,9.79990525 C6.32507489,9.5930846 6.35591881,9.28860597 6.56273946,9.11983321 C6.74658005,8.96981298 7.00758248,8.97751456 7.18184789,9.12633488 Z" id="形状结合"></path>
                </g>
            </g>
        </g>
    </g>
</svg>