<?xml version="1.0" encoding="UTF-8"?>
<svg width="16px" height="16px" viewBox="0 0 16 16" version="1.1" xmlns="http://www.w3.org/2000/svg" xmlns:xlink="http://www.w3.org/1999/xlink">
    <!-- Generator: Sketch 57.1 (83088) - https://sketch.com -->
    <title>运营商</title>
    <desc>Created with Sketch.</desc>
    <g id="页面-1" stroke="none" stroke-width="1" fill="none" fill-rule="evenodd" fill-opacity="0.703562063">
        <g id="资产备份-53" transform="translate(-273.000000, -95.000000)" fill="#007AFF" fill-rule="nonzero">
            <g id="编组-7" transform="translate(267.000000, 92.000000)">
                <g id="编组-3" transform="translate(6.000000, 3.000000)">
                    <path d="M13.4405069,12.2316353 C13.5430536,12.2316353 13.6285958,12.3005656 13.6542614,12.3945492 L13.6621325,12.4535948 L13.6621325,13.0294518 C13.6621325,13.1320356 13.5936505,13.2178313 13.4996231,13.2435803 L13.4404847,13.2514781 L2.75637746,13.2514781 C2.65505507,13.2514781 2.56827929,13.1827488 2.54216854,13.088626 L2.53415085,13.0294518 L2.53415085,12.4535948 C2.53415085,12.3513635 2.60403955,12.2653792 2.69769857,12.2395575 L2.75637746,12.2316353 L13.4405069,12.2316353 Z M4.39116665,7.59570719 C4.49371337,7.59570719 4.58022944,7.6649621 4.60621961,7.75855154 L4.61419464,7.81726599 L4.61419464,11.6380812 C4.61419464,11.7401086 4.54475424,11.8259815 4.45040731,11.8517718 L4.39116665,11.8596846 L3.54037017,11.8596846 C3.43715563,11.8596846 3.35110023,11.7908161 3.32528217,11.6970077 L3.31736443,11.6380812 L3.31736443,7.81726599 C3.31736443,7.71573954 3.38623287,7.62956357 3.4808529,7.60365842 L3.54037017,7.59570719 L4.39116665,7.59570719 Z M7.14772944,7.59570719 C7.24921879,7.59570719 7.33546587,7.6649621 7.36139575,7.75855154 L7.36935502,7.81726599 L7.36935502,11.6380812 C7.36935502,11.7401086 7.30002282,11.8259815 7.20643337,11.8517718 L7.14772944,11.8596846 L6.29477369,11.8596846 C6.19337709,11.8596846 6.10762468,11.7908161 6.08185711,11.6970077 L6.07394948,11.6380812 L6.07394948,7.81726599 C6.07394948,7.71573954 6.14280246,7.62956357 6.23616776,7.60365842 L6.29477369,7.59570719 L7.14772944,7.59570719 Z M12.6579834,7.59570719 C12.7594357,7.59570719 12.8461094,7.6649621 12.8721825,7.75855154 L12.8801878,7.81726599 L12.8801878,11.6380812 C12.8801878,11.7401086 12.8104536,11.8259815 12.7167302,11.8517718 L12.6579834,11.8596846 L11.8048941,11.8596846 C11.7030708,11.8596846 11.6172319,11.7908161 11.5914473,11.6970077 L11.5835356,11.6380812 L11.5835356,7.81726599 C11.5835356,7.71573954 11.6523886,7.62956357 11.7460631,7.60365842 L11.8048941,7.59570719 L12.6579834,7.59570719 Z M9.90219974,7.59570719 C10.0252558,7.59570719 10.1244264,7.69543425 10.1244264,7.81726599 L10.1244264,7.81726599 L10.1244264,11.6380812 C10.1244264,11.760514 10.0252558,11.8596846 9.90219974,11.8596846 L9.90219974,11.8596846 L9.0506464,11.8596846 C8.92734546,11.8596846 8.82817492,11.760514 8.82817492,11.6380812 L8.82817492,11.6380812 L8.82817492,7.81726599 C8.82817492,7.69543425 8.92734546,7.59570719 9.0506464,7.59570719 L9.0506464,7.59570719 Z M8.8398638,2.49438646 L8.95350156,2.57716551 L13.5076446,6.34660351 C13.9487156,6.71264968 13.8752886,7.01456212 13.3615572,7.0508713 L13.2529622,7.05453207 L2.94519106,7.05453207 C2.37251871,7.05453207 2.23516531,6.77549752 2.60862691,6.41889793 L2.69015246,6.34660351 L7.24336056,2.57716551 C7.67785136,2.21845631 8.3663174,2.1908633 8.8398638,2.49438646 Z M8.09847558,4.40811426 C7.62089872,4.40811426 7.23381081,4.79466792 7.23381081,5.27213348 C7.23381081,5.74951 7.62089872,6.13746607 8.09847558,6.13746607 C8.57723225,6.13746607 8.96318488,5.74951 8.96318488,5.27213348 C8.96318488,4.79466792 8.57723225,4.40811426 8.09847558,4.40811426 Z" id="形状结合"></path>
                </g>
            </g>
        </g>
    </g>
</svg>