<?xml version="1.0" encoding="UTF-8"?>
<svg width="28px" height="28px" viewBox="0 0 28 28" version="1.1" xmlns="http://www.w3.org/2000/svg" xmlns:xlink="http://www.w3.org/1999/xlink">
    <!-- Generator: Sketch 57.1 (83088) - https://sketch.com -->
    <title>订单-灰@3x</title>
    <desc>Created with Sketch.</desc>
    <defs>
        <rect id="path-1" x="0" y="0" width="375" height="49"></rect>
        <filter x="-8.3%" y="-67.3%" width="116.5%" height="226.5%" filterUnits="objectBoundingBox" id="filter-2">
            <feOffset dx="0" dy="-2" in="SourceAlpha" result="shadowOffsetOuter1"></feOffset>
            <feGaussianBlur stdDeviation="10" in="shadowOffsetOuter1" result="shadowBlurOuter1"></feGaussianBlur>
            <feColorMatrix values="0 0 0 0 0   0 0 0 0 0   0 0 0 0 0  0 0 0 0.05 0" type="matrix" in="shadowBlurOuter1"></feColorMatrix>
        </filter>
    </defs>
    <g id="页面-1" stroke="none" stroke-width="1" fill="none" fill-rule="evenodd">
        <g id="资产备份-53" transform="translate(-220.000000, -1189.000000)">
            <rect fill="#FFFFFF" x="0" y="0" width="375" height="1236"></rect>
            <g id="菜单" transform="translate(0.000000, 1187.000000)">
                <g id="Rectangle-3">
                    <use fill="black" fill-opacity="1" filter="url(#filter-2)" xlink:href="#path-1"></use>
                    <use fill="#FFFFFF" fill-rule="evenodd" xlink:href="#path-1"></use>
                </g>
                <g id="订单" transform="translate(220.000000, 2.000000)" fill="#D3DFEF">
                    <path d="M19.6243564,12.3654191 L9.21745871,12.3654191 C8.8613562,12.3532084 8.58138912,12.0695028 8.58873854,11.7282641 C8.58873854,11.4209071 8.91349117,11.1136603 9.29692434,11.1136603 L19.6791326,11.1136603 C20.0514268,11.1112401 20.3672223,11.3747046 20.4159123,11.7282641 C20.4159123,12.035511 20.0115792,12.3654191 19.6334284,12.3654191 L19.6243564,12.3654191 Z M19.6243564,16.764121 L9.21745871,16.764121 C8.8613562,16.7519104 8.58138912,16.4682048 8.58873854,16.126966 C8.58873854,15.8196091 8.91349117,15.5122522 9.29692434,15.5122522 L19.6791326,15.5122522 C20.0514268,15.509942 20.3672223,15.7734065 20.4159123,16.126966 C20.4159123,16.4343229 20.0115792,16.764121 19.6334284,16.764121 L19.6243564,16.764121 Z M19.7625026,21.1690933 L9.36869605,21.1690933 C8.98526288,21.1690933 8.60309288,20.7943027 8.60309288,20.4857357 C8.60309288,20.1771687 8.92658233,19.9173345 9.3100155,19.9173345 L19.6738502,19.9173345 C20.0572834,19.9173345 20.380658,20.1559376 20.4093667,20.4857357 C20.4093667,20.7930926 20.1484622,21.1690933 19.7573351,21.1690933 L19.7625026,21.1690933 Z M20.4054623,5.45681913 C20.4054623,7.08083845 20.0924228,7.97166744 18.4361615,7.97166744 L10.563207,7.97166744 C8.91486918,7.97166744 8.59402094,6.8073634 8.59402094,5.45681913 L5.97016211,5.45681913 C4.91391223,5.42667747 4.03232598,6.22246124 4.00086126,7.23418688 C3.99971291,7.27059888 3.99971291,7.30690088 4.00086126,7.34331288 L4.00086126,24.3135062 C4.00086126,25.562955 4.70904706,26.2 5.97016211,26.2 L23.0306992,26.2 C24.0817815,26.2 25,25.5853962 25,24.3135062 L25,7.34331288 C25,6.1164154 24.2670099,5.45681913 23.0306992,5.45681913 L20.4054623,5.45681913 Z M17.2325786,4.2 L11.7551915,4.2 C11.0835231,4.2 10.5475894,4.75971078 10.5475894,5.44933871 C10.5475894,6.13896664 11.0849011,6.69856742 11.7551915,6.69856742 L17.2599093,6.69856742 C17.8977014,6.69856742 18.4336351,6.13764657 18.4336351,5.44933871 C18.4336351,4.76103086 17.8963234,4.2 17.2247699,4.2 L17.2325786,4.2 Z" id="Fill-1"></path>
                </g>
                <g id="发现-copy-4" transform="translate(220.000000, 2.000000)" fill="#D3DFEF">
                    <path d="M19.6243564,12.3654191 L9.21745871,12.3654191 C8.8613562,12.3532084 8.58138912,12.0695028 8.58873854,11.7282641 C8.58873854,11.4209071 8.91349117,11.1136603 9.29692434,11.1136603 L19.6791326,11.1136603 C20.0514268,11.1112401 20.3672223,11.3747046 20.4159123,11.7282641 C20.4159123,12.035511 20.0115792,12.3654191 19.6334284,12.3654191 L19.6243564,12.3654191 Z M19.6243564,16.764121 L9.21745871,16.764121 C8.8613562,16.7519104 8.58138912,16.4682048 8.58873854,16.126966 C8.58873854,15.8196091 8.91349117,15.5122522 9.29692434,15.5122522 L19.6791326,15.5122522 C20.0514268,15.509942 20.3672223,15.7734065 20.4159123,16.126966 C20.4159123,16.4343229 20.0115792,16.764121 19.6334284,16.764121 L19.6243564,16.764121 Z M19.7625026,21.1690933 L9.36869605,21.1690933 C8.98526288,21.1690933 8.60309288,20.7943027 8.60309288,20.4857357 C8.60309288,20.1771687 8.92658233,19.9173345 9.3100155,19.9173345 L19.6738502,19.9173345 C20.0572834,19.9173345 20.380658,20.1559376 20.4093667,20.4857357 C20.4093667,20.7930926 20.1484622,21.1690933 19.7573351,21.1690933 L19.7625026,21.1690933 Z M20.4054623,5.45681913 C20.4054623,7.08083845 20.0924228,7.97166744 18.4361615,7.97166744 L10.563207,7.97166744 C8.91486918,7.97166744 8.59402094,6.8073634 8.59402094,5.45681913 L5.97016211,5.45681913 C4.91391223,5.42667747 4.03232598,6.22246124 4.00086126,7.23418688 C3.99971291,7.27059888 3.99971291,7.30690088 4.00086126,7.34331288 L4.00086126,24.3135062 C4.00086126,25.562955 4.70904706,26.2 5.97016211,26.2 L23.0306992,26.2 C24.0817815,26.2 25,25.5853962 25,24.3135062 L25,7.34331288 C25,6.1164154 24.2670099,5.45681913 23.0306992,5.45681913 L20.4054623,5.45681913 Z M17.2325786,4.2 L11.7551915,4.2 C11.0835231,4.2 10.5475894,4.75971078 10.5475894,5.44933871 C10.5475894,6.13896664 11.0849011,6.69856742 11.7551915,6.69856742 L17.2599093,6.69856742 C17.8977014,6.69856742 18.4336351,6.13764657 18.4336351,5.44933871 C18.4336351,4.76103086 17.8963234,4.2 17.2247699,4.2 L17.2325786,4.2 Z" id="Fill-1"></path>
                </g>
            </g>
        </g>
    </g>
</svg>