<?xml version="1.0" encoding="UTF-8"?>
<svg width="16px" height="16px" viewBox="0 0 16 16" version="1.1" xmlns="http://www.w3.org/2000/svg" xmlns:xlink="http://www.w3.org/1999/xlink">
    <!-- Generator: Sketch 58 (84663) - https://sketch.com -->
    <title>Sort</title>
    <desc>Created with Sketch.</desc>
    <g id="页面-1" stroke="none" stroke-width="1" fill="none" fill-rule="evenodd">
        <g id="资产备份-64" transform="translate(-335.000000, -272.000000)" fill-rule="nonzero" stroke="#A8ADB4">
            <g id="排序" transform="translate(335.000000, 272.000000)">
                <path d="M1.55434077,13.7255831 L9.74965282,13.7295189 C9.78644842,13.7248614 9.81534208,13.6959678 9.82002074,13.6590053 C9.82565981,13.6145751 9.79411859,13.5738772 9.81244075,13.5722061 L1.57109575,13.5682454 C1.53432797,13.572901 1.50537886,13.6018464 1.50070843,13.6387439 C1.49580108,13.6774201 1.51896348,13.713189 1.55434077,13.7255831 Z M1.55441425,8.18948003 L9.74965282,8.19341587 C9.78644842,8.18875836 9.81534208,8.1598647 9.82001846,8.12292015 C9.82566403,8.07842583 9.79415951,8.03777933 9.81244075,8.03610307 L1.57109575,8.03214234 C1.53437503,8.036792 1.50537423,8.0657928 1.50070843,8.1026408 C1.49580366,8.14129671 1.51895961,8.17705907 1.55441425,8.18948003 Z M1.55441425,2.65337696 L9.74965282,2.6573128 C9.78644842,2.65265529 9.81534208,2.62376163 9.82001846,2.58681708 C9.82566221,2.54233713 9.79415281,2.50168832 9.81244075,2.5 L1.57109575,2.49603927 C1.53437503,2.50068893 1.50537423,2.52968972 1.50070843,2.56653773 C1.49580366,2.60519364 1.51895961,2.640956 1.55441425,2.65337696 Z M14.3734515,11.7464559 L12.6617831,13.4583084 L12.6617831,12.2511098 L12.6657656,2.63504482 C12.6610856,2.59818668 12.6320596,2.56916068 12.5953689,2.56450193 C12.5508567,2.55886535 12.5100839,2.5904644 12.5084199,2.57206398 L12.5084127,13.6469487 C12.5083096,13.6662096 12.5159551,13.6847091 12.5297012,13.6983389 C12.5580221,13.7264501 12.6036153,13.7262849 12.6329198,13.6967899 L14.4782148,11.8514949 C14.5072496,11.8224481 14.5072496,11.7754371 14.4782875,11.7464749 C14.4493375,11.7175249 14.4023825,11.7175249 14.3734515,11.7464559 Z" id="Fill-1"></path>
            </g>
        </g>
    </g>
</svg>