<?xml version="1.0" encoding="UTF-8"?>
<svg width="16px" height="16px" viewBox="0 0 16 16" version="1.1" xmlns="http://www.w3.org/2000/svg" xmlns:xlink="http://www.w3.org/1999/xlink">
    <!-- Generator: Sketch 57.1 (83088) - https://sketch.com -->
    <title>挖矿</title>
    <desc>Created with Sketch.</desc>
    <g id="页面-1" stroke="none" stroke-width="1" fill="none" fill-rule="evenodd" fill-opacity="0.7">
        <g id="挖矿分红备份-55" transform="translate(-201.000000, -257.000000)" fill="#007AFF" fill-rule="nonzero">
            <g id="编组-2" transform="translate(24.000000, 156.000000)">
                <g id="快照块" transform="translate(177.000000, 101.000000)">
                    <path d="M6.47965564,8.21176398 C6.50165615,8.22926439 6.52265664,8.24876484 6.54065706,8.27076536 L8.65970659,10.7823241 C8.80420997,10.9538281 9.06071597,10.9758286 9.23171996,10.8308252 C9.25022039,10.8158248 9.26672078,10.7993245 9.28222114,10.780824 L9.96323706,9.96430494 C10.1067404,9.79230092 10.3632464,9.76880037 10.5352504,9.91280374 C10.5567509,9.93030415 10.5762514,9.95030461 10.5932518,9.97230513 L13.2393136,13.3123832 C13.3788169,13.4878873 13.3493162,13.7438933 13.1733121,13.8833965 C13.1003104,13.9408979 13.0098083,13.9718986 12.9168061,13.970922 L2.40156032,13.8623961 C2.17755509,13.859896 1.99755088,13.6758917 2.00002521,13.4518865 C2.00055095,13.3628844 2.03055165,13.2773824 2.08505292,13.2068807 L5.9091423,8.28326565 C6.04714553,8.10626151 6.30215149,8.07376075 6.47965564,8.21176398 Z M12.5253469,2.01861923 C12.8518546,2.08712083 13.0093583,2.46612969 12.783853,2.63613366 C12.572348,2.79563739 11.7008277,3.01614254 10.8958089,3.43265228 C10.5293003,3.62215671 10.1562916,3.87716267 9.77628269,4.19767016 C9.7682825,4.29067233 9.72828157,4.37967441 9.65927996,4.44717599 L13.8773785,10.0473069 C14.0798833,10.3158132 14.025882,10.6973221 13.7573757,10.9003268 L13.6058722,11.0143295 C13.3373659,11.2168342 12.955357,11.162833 12.7528523,10.8943267 L8.53625371,5.29869589 C8.43825142,5.37219761 8.3177486,5.39519815 8.20674601,5.37119759 C7.80823669,5.63770382 7.47272885,5.91821037 7.19822243,6.20871716 C6.57620789,6.86773257 6.12369732,7.64475073 5.91219237,7.80425445 C5.6866871,7.97425843 5.3656796,7.71825244 5.38968016,7.38524466 C5.42768105,6.86323246 6.15569807,5.72720591 6.54570718,5.21869402 C6.79771307,4.88968633 7.0642193,4.59367941 7.34472586,4.33017325 C7.31172509,4.18166978 7.36622636,4.01866597 7.49722942,3.92016367 L7.37522657,3.75815989 C7.17272184,3.48865359 7.22622309,3.10714467 7.49472936,2.90463994 L7.6462329,2.79063727 C7.91523919,2.58813254 8.29724812,2.64163379 8.49975285,2.91014006 L8.62475578,3.07664396 L8.64775631,3.06314364 C8.76775912,3.0056423 8.90726238,3.01114243 9.02076503,3.07464391 C9.35827292,2.86863909 9.72678153,2.68863489 10.1237908,2.53213123 C10.7198047,2.29762575 12.012335,1.9106167 12.5253469,2.01861923 Z M4.65585661,8.66840539 C4.71487756,8.80388639 4.69304044,8.97154319 4.61023016,9.07394908 L4.56383598,9.1192634 L3.85381938,9.65878412 C3.73414002,9.74972495 3.58130047,9.69531316 3.51244269,9.53725199 C3.45342174,9.40177098 3.47525886,9.23411418 3.55806914,9.1317083 L3.60446332,9.08639398 L4.31447991,8.54687325 C4.43415928,8.45593242 4.58699883,8.51034421 4.65585661,8.66840539 Z M3.32723655,7.02124277 L3.37787357,7.02239543 C3.63112136,7.07953605 3.8481808,7.12832309 4.02905189,7.16881935 C4.20988764,7.20924491 4.20988764,7.20924491 4.24597,7.21726094 C4.38320856,7.24774987 4.48216491,7.49607002 4.46699519,7.77189953 C4.45182547,8.04772904 4.32827414,8.24661688 4.19103558,8.21612795 C4.15474124,8.20806477 4.15474124,8.20806477 3.97369354,8.16759181 C3.79268117,8.12706392 3.57548046,8.07824513 3.32209141,8.02107263 C3.18487892,7.9901132 3.08613349,7.74145411 3.1015373,7.46567702 C3.11309017,7.2588442 3.18557086,7.09550003 3.27897567,7.03981601 L3.32723655,7.02124277 Z M4.50391007,5.31044682 L4.55879252,5.35634882 L5.19803563,6.05571403 C5.29593427,6.16282024 5.2780429,6.32050057 5.15807412,6.40790291 C5.05810014,6.4807382 4.91878751,6.48178496 4.81847271,6.41812792 L4.76359027,6.37222592 L4.12434715,5.67286071 C4.02644851,5.5657545 4.04433989,5.40807417 4.16430866,5.32067182 C4.26428264,5.24783654 4.40359528,5.24678978 4.50391007,5.31044682 Z" id="形状结合"></path>
                </g>
            </g>
        </g>
    </g>
</svg>