<?xml version="1.0" encoding="UTF-8"?>
<svg width="16px" height="16px" viewBox="0 0 16 16" version="1.1" xmlns="http://www.w3.org/2000/svg" xmlns:xlink="http://www.w3.org/1999/xlink">
    <!-- Generator: Sketch 57.1 (83088) - https://sketch.com -->
    <title>快照块</title>
    <desc>Created with Sketch.</desc>
    <g id="页面-1" stroke="none" stroke-width="1" fill="none" fill-rule="evenodd">
        <g id="挖矿分红备份-37" transform="translate(-193.000000, -264.000000)" fill="#459DFF">
            <g id="快照块" transform="translate(193.000000, 264.000000)">
                <path d="M11.7064832,12.5000448 L14.177472,11.2645504 L14.177472,9.2467584 L11.7064832,10.3020672 L11.7064832,12.5000448 Z M11.2935168,9.581056 L13.8922752,8.4680448 L11.2935168,7.3568256 L8.6947584,8.4680448 L11.2935168,9.581056 Z M8.411264,7.69632 L10.8822528,6.6358144 L10.8822528,4.9242752 L8.411264,5.9812864 L8.411264,7.69632 Z M8,5.2567808 L10.8384384,4.0387584 L8,2.822528 L5.161472,4.0387584 L8,5.2567808 Z M5.1177472,12.5000448 L7.588736,11.2645504 L7.588736,9.2467584 L5.1177472,10.3020672 L5.1177472,12.5000448 Z M4.7064832,9.581056 L7.3052416,8.4680448 L4.7064832,7.3568256 L2.1077248,8.4680448 L4.7064832,9.581056 Z M15,8.590528 L15,11.2662528 C15,11.4220672 14.9579776,11.5655168 14.8775168,11.6967808 C14.795264,11.8298368 14.6849664,11.931264 14.5415168,11.9995392 L11.659264,13.4415616 C11.5507584,13.501056 11.4299776,13.5325056 11.2935168,13.5325056 C11.1569664,13.5325056 11.0344832,13.5027584 10.9277696,13.4415616 L8.0455168,11.9995392 C8.0279552,11.9907584 8.0139776,11.9820672 8,11.9750784 C7.9912192,11.9837696 7.9754496,11.9925504 7.9544832,11.9995392 L5.0722304,13.4415616 C4.9637248,13.501056 4.842944,13.5325056 4.7064832,13.5325056 C4.5682304,13.5325056 4.4474496,13.5027584 4.340736,13.4415616 L1.4584832,11.9995392 C1.316736,11.931264 1.204736,11.8298368 1.1224832,11.6967808 C1.0402304,11.5638144 1,11.4202752 1,11.2662528 L1,8.590528 C1,8.4278144 1.0455168,8.2772864 1.1399552,8.1408256 C1.2326912,8.0025728 1.353472,7.899264 1.502208,7.8310784 L4.2935168,6.6358144 L4.2935168,4.0598144 C4.2935168,3.8970112 4.338944,3.7465728 4.433472,3.6100224 C4.526208,3.4717696 4.6469888,3.3685504 4.7957248,3.3002752 L7.6779776,2.0647808 C7.776,2.0227584 7.8845056,2 8.0017024,2 C8.1171968,2 8.2257024,2.0227584 8.3255168,2.0647808 L11.2077696,3.3002752 C11.358208,3.3685504 11.4806912,3.4735616 11.5700224,3.6100224 C11.6627584,3.7482752 11.7099776,3.8988032 11.7099776,4.0598144 L11.7099776,6.6340224 L14.5011968,7.8292864 C14.6570112,7.8975616 14.7777024,8.0025728 14.866944,8.1390336 C14.9562752,8.275584 15,8.4260224 15,8.590528 L15,8.590528 Z" id="Fill-1"></path>
            </g>
        </g>
    </g>
</svg>