<?xml version="1.0" encoding="UTF-8"?>
<svg width="16px" height="16px" viewBox="0 0 16 16" version="1.1" xmlns="http://www.w3.org/2000/svg" xmlns:xlink="http://www.w3.org/1999/xlink">
    <!-- Generator: Sketch 57.1 (83088) - https://sketch.com -->
    <title>金额</title>
    <desc>Created with Sketch.</desc>
    <g id="页面-1" stroke="none" stroke-width="1" fill="none" fill-rule="evenodd" fill-opacity="0.7">
        <g id="挖矿分红备份-37" transform="translate(-38.000000, -264.000000)" fill="#007AFF">
            <g id="金额" transform="translate(38.000000, 264.000000)">
                <path d="M12.3998859,5.49550741 C12.3998859,6.29808992 10.4302322,6.94862067 8.00005705,6.94862067 C5.56999598,6.94862067 3.6,6.29796934 3.6,5.49550741 L3.6,4.33323384 C3.6,3.53089249 5.56999598,2.88 8.00005705,2.88 C10.4302322,2.88 12.3998859,3.53089249 12.3998859,4.33323384 L12.3998859,5.49550741 Z M12.3998859,8.59202421 C12.3998859,9.39424498 10.4302322,10.0451375 8.00005705,10.0451375 C5.56999598,10.0451375 3.6,9.39424498 3.6,8.59202421 L3.6,7.42963006 C3.6,7.27781946 3.66389793,7.13155555 3.79477458,6.99385284 C4.35536481,7.58361111 6.01602635,8.01106829 7.98636464,8.01106829 C9.95624652,8.01106829 11.6308287,7.58361111 12.1916471,6.99385284 C12.3224097,7.13155555 12.3998859,7.27781946 12.3998859,7.42963006 L12.3998859,8.59202421 Z M12.3998859,11.6934328 C12.3998859,12.4961359 10.4302322,13.1466667 8.00005705,13.1466667 C5.56999598,13.1466667 3.6001141,12.4960153 3.6001141,11.6934328 L3.6001141,10.5310387 C3.6001141,10.3789869 3.66389793,10.2329642 3.79477458,10.0951409 C4.35536481,10.6847786 6.01602635,11.1123563 7.98636464,11.1123563 C9.95624652,11.1123563 11.6308287,10.6847786 12.1916471,10.0951409 C12.3224097,10.2329642 12.4,10.3789869 12.4,10.5310387 L12.4,11.6934328 L12.3998859,11.6934328 Z" id="Fill-1"></path>
            </g>
        </g>
    </g>
</svg>