<?xml version="1.0" encoding="UTF-8"?>
<svg width="16px" height="16px" viewBox="0 0 16 16" version="1.1" xmlns="http://www.w3.org/2000/svg" xmlns:xlink="http://www.w3.org/1999/xlink">
    <!-- Generator: Sketch 57.1 (83088) - https://sketch.com -->
    <title>时间</title>
    <desc>Created with Sketch.</desc>
    <g id="页面-1" stroke="none" stroke-width="1" fill="none" fill-rule="evenodd">
        <g id="挖矿分红备份-37" transform="translate(-38.000000, -315.000000)" fill="#459DFF">
            <g id="时间" transform="translate(38.000000, 315.000000)">
                <path d="M4.98221911,4.05716827 L4.98221911,4.61457212 L4.12446626,4.61457212 C3.84205459,4.61457212 3.60668537,4.83082212 3.60668537,5.09029327 L3.60668537,5.09029327 L3.60668537,6.58471635 L12.3828491,6.58471635 L12.3828491,5.09029327 C12.3828491,4.83082212 12.1475322,4.61457212 11.8650682,4.61457212 L11.8650682,4.61457212 L11.0177809,4.61457212 L11.0177809,4.05716827 L11.833724,4.05716827 C12.4770387,4.05716827 13,4.53769712 13,5.12875481 L13,5.12875481 L13,11.5438029 C13,12.1348606 12.4770387,12.6153894 11.833724,12.6153894 L11.833724,12.6153894 L4.14539727,12.6153894 C3.51254814,12.6153894 3,12.1348606 3,11.5438029 L3,11.5438029 L3,5.12875481 C3,4.53769712 3.52301365,4.05716827 4.16632828,4.05716827 L4.16632828,4.05716827 L4.98221911,4.05716827 Z M5.92886596,3 C6.16423518,3 6.35774238,3.17778846 6.35774238,3.38442308 L6.35774238,5.2825 C6.35774238,5.49394231 6.15900243,5.66692308 5.92886596,5.66692308 C5.69872949,5.66692308 5.51045504,5.49394231 5.51045504,5.2825 L5.51045504,3.38442308 C5.51045504,3.17298077 5.69872949,3 5.92886596,3 Z M10.0502344,3 C10.2855513,3 10.4790585,3.17778846 10.4790585,3.38442308 L10.4790585,5.2825 C10.4790585,5.49394231 10.2855513,5.66692308 10.0502344,5.66692308 C9.82004563,5.66692308 9.63182351,5.49394231 9.63182351,5.2825 L9.63182351,3.38442308 C9.63182351,3.17298077 9.82004563,3 10.0502344,3 Z M9.10357711,4.05716346 L9.10357711,4.619375 L6.88075603,4.619375 L6.88075603,4.05716346 L9.10357711,4.05716346 Z" id="合并形状"></path>
            </g>
        </g>
    </g>
</svg>