<?xml version="1.0" encoding="UTF-8"?>
<svg width="16px" height="16px" viewBox="0 0 16 16" version="1.1" xmlns="http://www.w3.org/2000/svg" xmlns:xlink="http://www.w3.org/1999/xlink">
    <!-- Generator: Sketch 57.1 (83088) - https://sketch.com -->
    <title>可用余额</title>
    <desc>Created with Sketch.</desc>
    <g id="页面-1" stroke="none" stroke-width="1" fill="none" fill-rule="evenodd">
        <g id="资产备份-53" transform="translate(-212.000000, -357.000000)">
            <rect fill="#FFFFFF" x="0" y="0" width="375" height="1236"></rect>
            <g id="底图"></g>
            <g id="编组-3" transform="translate(212.000000, 357.000000)" fill="#485173" fill-opacity="0.33" fill-rule="nonzero">
                <path d="M12.9259259,1.3 C14.4548657,1.3 15.7,2.55783971 15.7,4.0952381 L15.7,10.9047619 C15.7,12.4421603 14.4548657,13.7 12.9259259,13.7 L3.07407407,13.7 C1.54513426,13.7 0.3,12.4421603 0.3,10.9047619 L0.3,4.0952381 C0.3,2.55783971 1.54513426,1.3 3.07407407,1.3 L12.9259259,1.3 Z M12.9259259,2.7 L3.07407407,2.7 C2.32153241,2.7 1.7,3.32787458 1.7,4.0952381 L1.7,10.9047619 C1.7,11.6721254 2.32153241,12.3 3.07407407,12.3 L12.9259259,12.3 C13.6784676,12.3 14.3,11.6721254 14.3,10.9047619 L14.3,4.0952381 C14.3,3.32787458 13.6784676,2.7 12.9259259,2.7 Z M14,4.85 L14.15,5 L14.15,6.17867667 L14,6.32867667 L9.96344354,6.32867667 C9.05447934,6.32867667 8.31420996,7.07814479 8.31420996,8.00026788 C8.31420996,8.87385818 8.97860686,9.59248945 9.8214081,9.66571492 L9.96344354,9.67185909 L14,9.67185909 L14.15,9.82185909 L14.15,11 L14,11.15 L9.96344354,11.15 C8.24596354,11.15 6.85,9.73703839 6.85,8.00026788 C6.85,6.32329544 8.15143617,4.94786072 9.78697306,4.85499718 L9.96344354,4.85 L14,4.85 Z M11,7 C11.553,7 12,7.448 12,8 C12,8.553 11.553,9 11,9 C10.447,9 10,8.553 10,8 C10,7.448 10.447,7 11,7 Z" id="形状结合"></path>
            </g>
        </g>
    </g>
</svg>