<?xml version="1.0" encoding="UTF-8"?>
<svg width="16px" height="16px" viewBox="0 0 16 16" version="1.1" xmlns="http://www.w3.org/2000/svg" xmlns:xlink="http://www.w3.org/1999/xlink">
    <!-- Generator: Sketch 51.2 (57519) - http://www.bohemiancoding.com/sketch -->
    <title>add_icon</title>
    <desc>Created with Sketch.</desc>
    <defs></defs>
    <g id="Page-1" stroke="none" stroke-width="1" fill="none" fill-rule="evenodd">
        <g id="vite-钱包7" transform="translate(-204.000000, -517.000000)">
            <g id="自定义账户名-copy-4" transform="translate(189.000000, 508.000000)">
                <rect id="Rectangle-6" x="0" y="0" width="335" height="36"></rect>
                <path d="M28.6761265,11.3237897 C25.5387113,8.22540344 20.4654441,8.22540344 17.3280289,11.3237897 C14.2239904,14.4554919 14.2239904,19.5195211 17.3280289,22.6512233 C20.4654441,25.7829256 25.5387113,25.7829256 28.6427497,22.6512233 C31.780165,19.5195211 31.780165,14.4554919 28.6761265,11.3237897 Z M28.3423589,17.6538261 C28.3423589,17.853722 28.2088519,17.9869859 28.0085913,17.9869859 L24.337148,17.9869859 C24.1702642,17.9869859 24.0033804,18.1535659 24.0033804,18.3201458 L24.0033804,21.9849037 C24.0033804,22.1514836 23.8364966,22.3180635 23.6696128,22.3180635 L22.3345425,22.3180635 C22.134282,22.3180635 22.0007749,22.1847996 22.0007749,21.9849037 L22.0007749,18.3201458 C22.0007749,18.1202499 21.8672679,17.9869859 21.6670074,17.9869859 L17.995564,17.9869859 C17.7953035,17.9869859 17.6617964,17.853722 17.6617964,17.6538261 L17.6617964,16.3211869 C17.6617964,16.154607 17.8286802,15.9880271 17.995564,15.9880271 L21.6670074,15.9880271 C21.8672679,15.9880271 22.0007749,15.8547631 22.0007749,15.6548673 L22.0007749,11.9901093 C22.0007749,11.8235294 22.1676587,11.6569495 22.3345425,11.6569495 L23.6696128,11.6569495 C23.8364966,11.6569495 24.0033804,11.7902134 24.0033804,11.9901093 L24.0033804,15.6548673 C24.0033804,15.8547631 24.1368874,15.9880271 24.337148,15.9880271 L28.0085913,15.9880271 C28.1754751,15.9880271 28.3423589,16.154607 28.3423589,16.3211869 L28.3423589,17.6538261 Z" id="Mask" fill="#007AFF"></path>
            </g>
        </g>
    </g>
</svg>