<?xml version="1.0" encoding="UTF-8"?>
<svg width="16px" height="17px" viewBox="0 0 16 17" version="1.1" xmlns="http://www.w3.org/2000/svg" xmlns:xlink="http://www.w3.org/1999/xlink">
    <!-- Generator: Sketch 55.2 (78181) - https://sketchapp.com -->
    <title>向右</title>
    <desc>Created with Sketch.</desc>
    <g id="页面1" stroke="none" stroke-width="1" fill="none" fill-rule="evenodd">
        <g id="挖矿-copy-31" transform="translate(-696.000000, -463.000000)" stroke="#007AFF">
            <g id="分组-4" transform="translate(696.000000, 459.000000)">
                <g id="分组-2" transform="translate(0.000000, 4.100000)">
                    <rect id="矩形" stroke-opacity="0.299360795" stroke-width="0.5" fill="#F4F9FE" x="0.25" y="0.25" width="15.5" height="15.5" rx="2"></rect>
                    <g id="编组-7" transform="translate(3.000000, 3.000000)" fill="#007AFF" fill-rule="nonzero" opacity="0.7" stroke-width="0.3">
                        <path d="M4.52631579,4.52631579 L4.52631579,0.473684211 C4.52631579,0.212075645 4.73839143,-6.74535032e-14 5,-6.75015599e-14 C5.26160857,-6.75496166e-14 5.47368421,0.212075645 5.47368421,0.473684211 L5.47368421,4.52631579 L9.52631579,4.52631579 C9.78792436,4.52631579 10,4.73839143 10,5 C10,5.26160857 9.78792436,5.47368421 9.52631579,5.47368421 L5.47368421,5.47368421 L5.47368421,9.52631579 C5.47368421,9.78792436 5.26160857,10 5,10 C4.73839143,10 4.52631579,9.78792436 4.52631579,9.52631579 L4.52631579,5.47368421 L0.473684211,5.47368421 C0.212075645,5.47368421 -6.06593823e-13,5.26160857 -6.06625861e-13,5 C-6.06657898e-13,4.73839143 0.212075645,4.52631579 0.473684211,4.52631579 L4.52631579,4.52631579 Z" id="合并形状"></path>
                    </g>
                </g>
            </g>
        </g>
    </g>
</svg>