<?xml version="1.0" encoding="UTF-8"?>
<svg width="18px" height="18px" viewBox="0 0 18 18" version="1.1" xmlns="http://www.w3.org/2000/svg" xmlns:xlink="http://www.w3.org/1999/xlink">
    <!-- Generator: Sketch 52.5 (67469) - http://www.bohemiancoding.com/sketch -->
    <title>勾选</title>
    <desc>Created with Sketch.</desc>
    <g id="Page-1" stroke="none" stroke-width="1" fill="none" fill-rule="evenodd">
        <g id="vite-钱包1-copy-3" transform="translate(-540.000000, -491.000000)" fill="#FFFFFF" fill-rule="nonzero" stroke-width="0.8">
            <g id="Group-2" transform="translate(540.000000, 190.000000)">
                <g id="分组-2" transform="translate(0.000000, 301.000000)">
                    <g id="分组">
                        <path d="M2.45454545,1.63636364 C2.00267611,1.63636364 1.63636364,2.00267611 1.63636364,2.45454545 L1.63636364,15.5454545 C1.63636364,15.9973239 2.00267611,16.3636364 2.45454545,16.3636364 L15.5454545,16.3636364 C15.9973239,16.3636364 16.3636364,15.9973239 16.3636364,15.5454545 L16.3636364,2.45454545 C16.3636364,2.00267611 15.9973239,1.63636364 15.5454545,1.63636364 L2.45454545,1.63636364 Z M2.45454545,0 L15.5454545,0 C16.9010626,-1.81672859e-16 18,1.09893743 18,2.45454545 L18,15.5454545 C18,16.9010626 16.9010626,18 15.5454545,18 L2.45454545,18 C1.09893743,18 1.81672859e-16,16.9010626 0,15.5454545 L0,2.45454545 C-1.81672859e-16,1.09893743 1.09893743,2.72509288e-16 2.45454545,0 Z" id="矩形" stroke="#0C8DE6"></path>
                        <path d="M7.89132108,10.4755094 L12.1367532,5.4386039 C12.4882251,5.08713203 13.0580736,5.08713203 13.4095454,5.4386039 C13.7610173,5.79007576 13.7610173,6.35992424 13.4095454,6.7113961 L8.68164118,12.3207207 C8.65234683,12.3622296 8.6191266,12.4018149 8.58198052,12.438961 C8.23050865,12.7904329 7.66066017,12.7904329 7.30918831,12.438961 L4.7636039,9.89337662 C4.41213203,9.54190476 4.41213203,8.97205627 4.7636039,8.62058441 C5.11507576,8.26911255 5.68492424,8.26911255 6.0363961,8.62058441 L7.89132108,10.4755094 Z" id="合并形状" stroke="#0C8EE6"></path>
                    </g>
                </g>
            </g>
        </g>
    </g>
</svg>