<?xml version="1.0" encoding="UTF-8"?>
<svg width="28px" height="28px" viewBox="0 0 28 28" version="1.1" xmlns="http://www.w3.org/2000/svg" xmlns:xlink="http://www.w3.org/1999/xlink">
    <!-- Generator: Sketch 55.2 (78181) - https://sketchapp.com -->
    <title>apple</title>
    <desc>Created with Sketch.</desc>
    <g id="页面1" stroke="none" stroke-width="1" fill="none" fill-rule="evenodd">
        <g id="新建账户备份-7" transform="translate(-746.000000, -461.000000)" fill="#FFFFFF">
            <g id="编组-5" transform="translate(540.000000, 255.000000)">
                <g id="编组-2备份" transform="translate(190.000000, 190.000000)">
                    <g id="google" transform="translate(16.000000, 16.000000)">
                        <path d="M22.1359773,16.8735184 C21.423123,15.8509375 21.0669401,14.6988651 21.0669401,13.4182782 C21.0669401,12.2510098 21.4030969,11.1815928 22.0739994,10.2107325 C22.4355552,9.6839204 23.0245079,9.07461588 23.8405863,8.38238472 C23.303517,7.72146814 22.7663934,7.20496764 22.2288898,6.83299176 C21.257921,6.16165508 20.1576778,5.82598673 18.9285401,5.82598673 C18.1952798,5.82598673 17.3015391,6.0015003 16.2481321,6.35296161 C15.2357542,6.70415156 14.4970667,6.87993648 14.0324496,6.87993648 C13.6810426,6.87993648 12.9684054,6.7251003 11.8941039,6.41504804 C10.8094909,6.10510432 9.89523558,5.95026814 9.1515009,5.95026814 C7.37476523,5.95026814 5.90791899,6.69411136 4.75101648,8.18147216 C3.58374814,9.68967317 3.00000543,11.6212993 3.00000543,13.9765676 C3.00000543,16.4764149 3.75942452,19.0741676 5.27782854,21.7703144 C6.81685568,24.4456752 8.37156724,25.7836269 9.94169186,25.7836269 C10.4685039,25.7836269 11.150315,25.6078963 11.9869079,25.2567606 C12.8237723,24.9160993 13.5571411,24.7454702 14.1873401,24.7454702 C14.8585682,24.7454702 15.6386105,24.9107264 16.5268697,25.2411305 C17.4668496,25.5713717 18.190124,25.7366822 18.6962044,25.7366822 C20.0183632,25.7366822 21.3459491,24.7243043 22.678311,22.6997114 C23.5458386,21.4085415 24.1811934,20.1173717 24.5840496,18.826039 C23.6646929,18.5469214 22.8487773,17.8961536 22.1359773,16.8735184" id="Fill-1"></path>
                        <path d="M16.8674659,4.89631839 C17.5183966,4.24555055 17.9986981,3.53269628 18.3086961,2.75808121 C18.6081112,1.98335759 18.7575745,1.28081487 18.7575745,0.650615879 C18.7575745,0.60942392 18.7553493,0.557703317 18.7498137,0.495671156 C18.7450921,0.433693266 18.7423242,0.382189749 18.7423242,0.340834975 C18.7319041,0.309791759 18.7190961,0.252969648 18.703683,0.170422915 C18.6882699,0.0878761809 18.6754076,0.0310540704 18.6648247,1.08542714e-05 C16.8467885,0.423761608 15.5556187,1.1881194 14.7911524,2.29346412 C14.0166458,3.4091204 13.6135725,4.7363807 13.5825292,6.27551638 C14.2746519,6.21348422 14.8115584,6.12583598 15.1939544,6.01213749 C15.7521895,5.82614955 16.3093393,5.4541194 16.8674659,4.89631839" id="Fill-3"></path>
                    </g>
                </g>
            </g>
        </g>
    </g>
</svg>