<svg xmlns="http://www.w3.org/2000/svg" width="1350" height="60" viewBox="0 0 1350 60">
  <defs>
    <linearGradient id="资产英文-a" x1="-10.37%" x2="238.49%" y1="-4.598%" y2="83.967%">
      <stop offset="0%" stop-color="#0B30E4"/>
      <stop offset="31.474%" stop-color="#0D6CEF"/>
      <stop offset="49.184%" stop-color="#0998F3"/>
      <stop offset="71.324%" stop-color="#00C3FF"/>
      <stop offset="100%" stop-color="#00ECFF"/>
    </linearGradient>
  </defs>
  <g fill="none" fill-rule="evenodd">
    <rect width="1350" height="60" fill="#FFF"/>
    <polygon fill="#D3DFEF" fill-opacity=".7" points="148.25 10 148.75 10 148.75 50 148.25 50" transform="matrix(-1 0 0 1 297 0)"/>
    <polygon fill="#D3DFEF" fill-opacity=".69" points="1174.25 10 1174.75 10 1174.75 50 1174.25 50"/>
    <rect width="46.5" height="15.5" x="155.25" y="34.25" fill="#007AFF" fill-opacity=".05" stroke="#007AFF" stroke-opacity=".299" stroke-width=".5" rx="2"/>
    <rect width="45.5" height="15.5" x="208.25" y="34.25" fill="#007AFF" fill-opacity=".05" stroke="#007AFF" stroke-opacity=".299" stroke-width=".5" rx="2"/>
    <rect width="55.5" height="15.5" x="876.25" y="34.25" fill="#007AFF" fill-opacity=".05" stroke="#007AFF" stroke-opacity=".299" stroke-width=".5" rx="2"/>
    <rect width="42.5" height="15.5" x="938.25" y="34.25" fill="#5E6875" fill-opacity=".05" stroke="#5E6875" stroke-opacity=".297" stroke-width=".5" rx="2"/>
    <text fill="#007AFF" font-family="PingFang-SC-Regular, PingFang SC" font-size="12">
      <tspan x="157" y="47">transfer</tspan>
    </text>
    <text fill="#007AFF" font-family="PingFang-SC-Regular, PingFang SC" font-size="12">
      <tspan x="210" y="47">Deposit</tspan>
    </text>
    <text fill="#007AFF" font-family="PingFang-SC-Regular, PingFang SC" font-size="12">
      <tspan x="878" y="47">Withdraw</tspan>
    </text>
    <text fill="#5E6875" font-family="PingFang-SC-Regular, PingFang SC" font-size="12">
      <tspan x="940" y="47">History</tspan>
    </text>
    <text fill="#5E6875" font-family="PingFangSC-Semibold, PingFang SC" font-size="12" font-weight="500">
      <tspan x="50" y="21">VITE</tspan>
    </text>
    <path stroke="#5E6875" stroke-dasharray="1 1" stroke-width=".5" d="M50,24.5 L77,24.5"/>
    <g transform="translate(30 8)">
      <path fill="#F8FFF2" stroke="#5BC500" stroke-width=".5" d="M8,0.25 C3.71979319,0.25 0.25,3.71979319 0.25,8 C0.25,12.2802068 3.71979319,15.75 8,15.75 C12.2802068,15.75 15.75,12.2802068 15.75,8 C15.75,3.71979319 12.2802068,0.25 8,0.25 Z"/>
      <g transform="translate(4.8 3.2)">
        <polygon fill="#5BC500" points="2.953 .005 .007 1.344 2.953 3.085 5.897 1.344" opacity=".6" transform="translate(.324 3.543)"/>
        <polygon fill="#82C53C" points=".007 4.887 2.953 6.628 2.953 0" opacity=".45" transform="translate(.324)"/>
        <polygon fill="#5BC500" points="0 0 0 6.628 2.945 4.887" opacity=".8" transform="translate(3.276)"/>
        <polygon fill="#82C53C" points=".007 .003 2.953 4.153 2.953 1.744" opacity=".45" transform="translate(.324 5.442)"/>
        <polygon fill="#5BC500" points="0 1.744 0 4.153 2.947 .003" opacity=".8" transform="translate(3.276 5.442)"/>
      </g>
    </g>
    <g transform="translate(30 8)">
      <path fill="#F2F8FF" stroke="#007AFF" stroke-opacity=".67" stroke-width=".5" d="M8,0.25 C3.71979319,0.25 0.25,3.71979319 0.25,8 C0.25,12.2802068 3.71979319,15.75 8,15.75 C12.2802068,15.75 15.75,12.2802068 15.75,8 C15.75,3.71979319 12.2802068,0.25 8,0.25 Z"/>
      <path fill="url(#资产英文-a)" d="M3.75,5.95778598 L6.37727272,5.36259615 L6.11544098,12.04 L3.75,5.95778598 Z M7.00003595,5.20820673 L12.25,3.965 L6.22272727,11.9623558 L7.00003595,5.20820673 Z"/>
    </g>
    <text fill="#5E6875" font-family="PingFangSC-Regular, PingFang SC" font-size="12">
      <tspan x="155" y="21">905310579.50744484 VITE</tspan>
    </text>
    <text fill="#5E6875" font-family="PingFangSC-Regular, PingFang SC" font-size="12">
      <tspan x="447" y="21">0 VITE</tspan>
    </text>
    <text fill="#5E6875" font-family="PingFangSC-Regular, PingFang SC" font-size="12">
      <tspan x="624" y="21">60012525.65834905 VITE</tspan>
    </text>
    <text fill="#5E6875" font-family="PingFangSC-Regular, PingFang SC" font-size="12">
      <tspan x="876" y="21">59753228.86503017 VITE</tspan>
    </text>
    <rect width="1350" height="1" y="59" fill="#C6CBD4" fill-opacity=".299"/>
    <text fill="#5E6875" font-family="PingFangSC-Regular, PingFang SC" font-size="12">
      <tspan x="1181" y="21">2847.68903858 BTC</tspan>
    </text>
    <text fill="#5E6875" fill-opacity=".58" font-family="PingFang-SC-Regular, PingFang SC" font-size="12">
      <tspan x="1183" y="47">=$ 35068309.54456371</tspan>
    </text>
  </g>
</svg>
