<?xml version="1.0" encoding="UTF-8"?>
<svg width="24px" height="24px" viewBox="0 0 24 24" version="1.1" xmlns="http://www.w3.org/2000/svg" xmlns:xlink="http://www.w3.org/1999/xlink">
    <!-- Generator: Sketch 52.5 (67469) - http://www.bohemiancoding.com/sketch -->
    <title>side new</title>
    <desc>Created with Sketch.</desc>
    <defs>
        <path d="M3.79960181e-05,15.0225726 L3.79960181e-05,3.42052586 C0.427260809,3.78629826 0.982820505,4.00762228 1.58939188,4.00762228 L18.2435148,4.00762228 C18.5956655,4.00762228 18.8811608,4.29157161 18.8811608,4.64190967 L18.8811608,7.55755969 L16.2448773,7.55755969 C14.9332395,7.55755969 13.8684982,8.62899797 13.8885628,9.93816714 C13.9083298,11.2243751 14.9873969,12.2458738 16.2805854,12.2458738 L18.8811608,12.2458738 L18.8811608,15.9693523 C18.8811608,16.3196481 18.5956655,16.6036397 18.2435148,16.6036397 L1.5894769,16.6036397 C0.71160841,16.6036397 3.79960181e-05,15.8957326 3.79960181e-05,15.0225726 Z M19.6530781,8.40329314 C19.8443719,8.40329314 20,8.55810155 20,8.74838777 L20,11.0550796 C20,11.2453235 19.8443719,11.4001742 19.6530781,11.4001742 L16.2448603,11.4001742 C15.4142626,11.4001742 14.7384854,10.7279564 14.7384854,9.90173368 C14.7384854,9.07546864 15.4142626,8.40329314 16.2448603,8.40329314 L19.6530781,8.40329314 Z M0.000454591399,1.61899744 C-0.0207152555,0.729937943 0.70024981,0 1.58934087,0 L16.5193966,0 C16.8715472,0 17.1570426,0.283949324 17.1570426,0.634287402 L17.1570426,3.16188038 L1.61914019,3.16188038 C0.751261489,3.16188038 0.0209442825,2.48209344 0.000454591399,1.61899744 Z" id="path-1"></path>
    </defs>
    <g id="Page-1" stroke="none" stroke-width="1" fill="none" fill-rule="evenodd">
        <g id="web新样式" transform="translate(-23.000000, -151.000000)">
            <g id="side-panel" transform="translate(12.000000, 30.000000)">
                <g id="钱包-灰色" transform="translate(13.000000, 125.000000)">
                    <mask id="mask-2" fill="white">
                        <use xlink:href="#path-1"></use>
                    </mask>
                    <use id="Combined-Shape" fill="#BDC1D1" fill-rule="nonzero" xlink:href="#path-1"></use>
                </g>
            </g>
        </g>
    </g>
</svg>