<?xml version="1.0" encoding="UTF-8"?>
<svg width="14px" height="14px" viewBox="0 0 14 14" version="1.1" xmlns="http://www.w3.org/2000/svg" xmlns:xlink="http://www.w3.org/1999/xlink">
    <!-- Generator: Sketch 56.3 (81716) - https://sketch.com -->
    <title>形状结合</title>
    <desc>Created with Sketch.</desc>
    <defs>
        <rect id="path-1" x="350" y="57" width="761" height="430" rx="2"></rect>
        <filter x="-2.3%" y="-3.6%" width="104.6%" height="108.1%" filterUnits="objectBoundingBox" id="filter-2">
            <feMorphology radius="0.5" operator="dilate" in="SourceAlpha" result="shadowSpreadOuter1"></feMorphology>
            <feOffset dx="0" dy="2" in="shadowSpreadOuter1" result="shadowOffsetOuter1"></feOffset>
            <feGaussianBlur stdDeviation="5" in="shadowOffsetOuter1" result="shadowBlurOuter1"></feGaussianBlur>
            <feColorMatrix values="0 0 0 0 0.690196078   0 0 0 0 0.752941176   0 0 0 0 0.929411765  0 0 0 0.422186368 0" type="matrix" in="shadowBlurOuter1"></feColorMatrix>
        </filter>
        <rect id="path-3" x="0" y="0" width="761" height="430" rx="2"></rect>
        <filter x="-2.3%" y="-3.6%" width="104.6%" height="108.1%" filterUnits="objectBoundingBox" id="filter-5">
            <feMorphology radius="0.5" operator="dilate" in="SourceAlpha" result="shadowSpreadOuter1"></feMorphology>
            <feOffset dx="0" dy="2" in="shadowSpreadOuter1" result="shadowOffsetOuter1"></feOffset>
            <feGaussianBlur stdDeviation="5" in="shadowOffsetOuter1" result="shadowBlurOuter1"></feGaussianBlur>
            <feColorMatrix values="0 0 0 0 0.690196078   0 0 0 0 0.752941176   0 0 0 0 0.929411765  0 0 0 0.422186368 0" type="matrix" in="shadowBlurOuter1"></feColorMatrix>
        </filter>
    </defs>
    <g id="页面-1" stroke="none" stroke-width="1" fill="none" fill-rule="evenodd">
        <g id="交易中心" transform="translate(-501.000000, -68.000000)">
            <rect id="矩形" fill="#FAFCFF" fill-rule="nonzero" x="0" y="0" width="1440" height="1126"></rect>
            <g id="Rectangle-2">
                <use fill="black" fill-opacity="1" filter="url(#filter-2)" xlink:href="#path-1"></use>
                <use fill="#FFFFFF" fill-rule="evenodd" xlink:href="#path-1"></use>
            </g>
            <g id="屏幕快照-2019-03-29-下午6.23.11-+-屏幕快照-2019-04-02-下午2.23.54-+-屏幕快照-2019-04-02-下午2.23.54-Mask" transform="translate(349.000000, 57.000000)">
                <mask id="mask-4" fill="white">
                    <use xlink:href="#path-3"></use>
                </mask>
                <g id="Mask">
                    <use fill="black" fill-opacity="1" filter="url(#filter-5)" xlink:href="#path-3"></use>
                    <use fill="#FFFFFF" fill-rule="evenodd" xlink:href="#path-3"></use>
                </g>
            </g>
            <polygon id="矩形-copy" fill="#F7F9FB" fill-rule="nonzero" points="349 57 1111 57 1110.79727 105 349 105"></polygon>
            <g id="编组-4" transform="translate(359.000000, 64.000000)">
                <g id="编组-5">
                    <g id="mining" transform="translate(142.000000, 4.000000)">
                        <g id="编组" transform="translate(0.500000, -1.500000)">
                            <path d="M2.11379885,9.83470256 L2.8130176,9.43214518" id="路径-11" stroke-opacity="0.7" stroke="#007AFF" stroke-width="0.4" stroke-linecap="round" stroke-linejoin="round"></path>
                            <path d="M1.7404468,7.97126872 C2.31067792,8.03486735 2.59579348,8.06666667 2.59579348,8.06666667" id="路径-12" stroke-opacity="0.7" stroke="#007AFF" stroke-width="0.4" stroke-linecap="round" stroke-linejoin="round"></path>
                            <path d="M2.68704104,6.24295146 L3.248183,6.93110758" id="路径-9" stroke-opacity="0.7" stroke="#007AFF" stroke-width="0.4" stroke-linecap="round" stroke-linejoin="round"></path>
                            <path d="M9.60097118,5.11129215 L9.60097118,12.0148167 C9.60097118,12.3461876 9.33234203,12.6148167 9.00097118,12.6148167 L8.81430451,12.6148167 C8.48293366,12.6148167 8.21430451,12.3461876 8.21430451,12.0148167 L8.21430451,5.11481672 C8.09208483,5.11481672 7.98266784,5.06000189 7.90929658,4.97361526 C7.43906268,4.95052842 7.01018134,4.97191885 6.62265257,5.03778655 C5.74261617,5.18736505 4.92645395,5.53038003 4.66572316,5.53038003 C4.38737828,5.53038003 4.28660605,5.13908811 4.50284689,4.89146843 C4.84229665,4.50276091 6.08808516,4.04106677 6.69604346,3.87227894 C7.08924473,3.76311424 7.47423958,3.68807606 7.851028,3.6471644 C7.91443885,3.50999193 8.053257,3.41481672 8.21430451,3.41481672 L8.21430451,3.21481672 C8.21430451,2.88344587 8.48293366,2.61481672 8.81430451,2.61481672 L9.00097118,2.61481672 C9.33234203,2.61481672 9.60097118,2.88344587 9.60097118,3.21481672 L9.60097118,3.41834129 C9.7404228,3.43692132 9.8571609,3.5273492 9.91274626,3.65118571 C10.3006586,3.691187 10.6972926,3.7674572 11.1026482,3.87999631 C11.7106064,4.04878413 12.956395,4.51047828 13.2958447,4.89918579 C13.5120856,5.14680547 13.4113133,5.5380974 13.1329684,5.5380974 C12.8722377,5.5380974 12.0560754,5.19508241 11.176039,5.04550392 C10.7760157,4.97751253 10.3319302,4.95691269 9.8437826,4.98370441 C9.78188099,5.05184041 9.6967876,5.09852592 9.60097118,5.11129215 Z" id="形状结合" fill-opacity="0.7" fill="#007AFF" transform="translate(8.899346, 7.614817) rotate(-37.000000) translate(-8.899346, -7.614817) "></path>
                            <path d="M0.494787538,13.8184562 L4.26096828,8.96969548 C4.39648243,8.7952281 4.64777211,8.76365027 4.82223949,8.89916442 C4.84434083,8.91633121 4.86457962,8.93577001 4.88262333,8.95716143 L6.96926505,11.4309446 C7.11170157,11.5998078 7.36405988,11.6212309 7.5329231,11.4787943 C7.55074528,11.4637613 7.56721893,11.4471988 7.58215588,11.429296 L8.25304317,10.6251994 C8.39456921,10.4555723 8.64680862,10.432792 8.81643565,10.574318 C8.8374941,10.5918879 8.85668975,10.6115769 8.87371965,10.6330743 L11.479519,13.9224662 C11.6166958,14.0956293 11.5875231,14.3472095 11.41436,14.4843864 C11.3425671,14.5412594 11.253431,14.571772 11.1618457,14.5708254 L0.806554949,14.4638049 C0.585652846,14.4615219 0.408427041,14.2805947 0.410710034,14.0596926 C0.411613721,13.9722519 0.441146385,13.8875164 0.494787538,13.8184562 Z" id="路径-8" fill-opacity="0.7" fill="#007AFF"></path>
                        </g>
                    </g>
                    <g id="mining备份" transform="translate(142.000000, 2.000000)">
                        <g id="编组" transform="translate(0.500000, 0.500000)">
                            <path d="M2.11379885,9.83470256 L2.8130176,9.43214518" id="路径-11" stroke-opacity="0.7" stroke="#007AFF" stroke-width="0.4" stroke-linecap="round" stroke-linejoin="round"></path>
                            <path d="M1.7404468,7.97126872 C2.31067792,8.03486735 2.59579348,8.06666667 2.59579348,8.06666667" id="路径-12" stroke-opacity="0.7" stroke="#007AFF" stroke-width="0.4" stroke-linecap="round" stroke-linejoin="round"></path>
                            <path d="M2.68704104,6.24295146 L3.248183,6.93110758" id="路径-9" stroke-opacity="0.7" stroke="#007AFF" stroke-width="0.4" stroke-linecap="round" stroke-linejoin="round"></path>
                            <path d="M9.60097118,5.11129215 L9.60097118,12.0148167 C9.60097118,12.3461876 9.33234203,12.6148167 9.00097118,12.6148167 L8.81430451,12.6148167 C8.48293366,12.6148167 8.21430451,12.3461876 8.21430451,12.0148167 L8.21430451,5.11481672 C8.09208483,5.11481672 7.98266784,5.06000189 7.90929658,4.97361526 C7.43906268,4.95052842 7.01018134,4.97191885 6.62265257,5.03778655 C5.74261617,5.18736505 4.92645395,5.53038003 4.66572316,5.53038003 C4.38737828,5.53038003 4.28660605,5.13908811 4.50284689,4.89146843 C4.84229665,4.50276091 6.08808516,4.04106677 6.69604346,3.87227894 C7.08924473,3.76311424 7.47423958,3.68807606 7.851028,3.6471644 C7.91443885,3.50999193 8.053257,3.41481672 8.21430451,3.41481672 L8.21430451,3.21481672 C8.21430451,2.88344587 8.48293366,2.61481672 8.81430451,2.61481672 L9.00097118,2.61481672 C9.33234203,2.61481672 9.60097118,2.88344587 9.60097118,3.21481672 L9.60097118,3.41834129 C9.7404228,3.43692132 9.8571609,3.5273492 9.91274626,3.65118571 C10.3006586,3.691187 10.6972926,3.7674572 11.1026482,3.87999631 C11.7106064,4.04878413 12.956395,4.51047828 13.2958447,4.89918579 C13.5120856,5.14680547 13.4113133,5.5380974 13.1329684,5.5380974 C12.8722377,5.5380974 12.0560754,5.19508241 11.176039,5.04550392 C10.7760157,4.97751253 10.3319302,4.95691269 9.8437826,4.98370441 C9.78188099,5.05184041 9.6967876,5.09852592 9.60097118,5.11129215 Z" id="形状结合" fill-opacity="0.7" fill="#007AFF" transform="translate(8.899346, 7.614817) rotate(-37.000000) translate(-8.899346, -7.614817) "></path>
                            <path d="M0.494787538,13.8184562 L4.26096828,8.96969548 C4.39648243,8.7952281 4.64777211,8.76365027 4.82223949,8.89916442 C4.84434083,8.91633121 4.86457962,8.93577001 4.88262333,8.95716143 L6.96926505,11.4309446 C7.11170157,11.5998078 7.36405988,11.6212309 7.5329231,11.4787943 C7.55074528,11.4637613 7.56721893,11.4471988 7.58215588,11.429296 L8.25304317,10.6251994 C8.39456921,10.4555723 8.64680862,10.432792 8.81643565,10.574318 C8.8374941,10.5918879 8.85668975,10.6115769 8.87371965,10.6330743 L11.479519,13.9224662 C11.6166958,14.0956293 11.5875231,14.3472095 11.41436,14.4843864 C11.3425671,14.5412594 11.253431,14.571772 11.1618457,14.5708254 L0.806554949,14.4638049 C0.585652846,14.4615219 0.408427041,14.2805947 0.410710034,14.0596926 C0.411613721,13.9722519 0.441146385,13.8875164 0.494787538,13.8184562 Z" id="路径-8" fill-opacity="0.7" fill="#007AFF"></path>
                        </g>
                    </g>
                </g>
            </g>
        </g>
    </g>
</svg>