<?xml version="1.0" encoding="UTF-8"?>
<svg width="24px" height="24px" viewBox="0 0 24 24" version="1.1" xmlns="http://www.w3.org/2000/svg" xmlns:xlink="http://www.w3.org/1999/xlink">
    <!-- Generator: Sketch 52.5 (67469) - http://www.bohemiancoding.com/sketch -->
    <title>side new</title>
    <desc>Created with Sketch.</desc>
    <defs>
        <linearGradient x1="89.6207764%" y1="-9.20606102%" x2="-19.0855496%" y2="138.638755%" id="linearGradient-1">
            <stop stop-color="#0B30E4" offset="0%"></stop>
            <stop stop-color="#0D6CEF" offset="31.4739301%"></stop>
            <stop stop-color="#0998F3" offset="49.1836977%"></stop>
            <stop stop-color="#00C3FF" offset="71.3239784%"></stop>
            <stop stop-color="#00ECFF" offset="100%"></stop>
        </linearGradient>
    </defs>
    <g id="Page-1" stroke="none" stroke-width="1" fill="none" fill-rule="evenodd">
        <g id="web新样式" transform="translate(-23.000000, -353.000000)">
            <g id="side-panel" transform="translate(12.000000, 30.000000)">
                <g id="钱包-灰色-copy" transform="translate(11.000000, 323.000000)">
                    <g id="分组-2" transform="translate(12.000000, 12.230769) scale(-1, 1) rotate(-8.000000) translate(-12.000000, -12.230769) translate(2.000000, 3.000000)">
                        <path d="M3.48474309,6.63568457 C3.99696023,7.14842012 4.56059448,7.68961305 5.15571065,8.23535417 C6.27503016,9.23720301 7.56382365,10.2749748 8.94580899,11.2823763 C11.2777931,12.9828934 13.9072951,14.5682239 15.8141664,15.3995579 C17.3409243,16.0657205 18.4273644,16.2344373 18.6009741,15.9646151 C18.6216311,15.9324629 18.419031,15.4313004 18.0083581,14.6698066 C17.8418284,14.3609829 17.9596011,13.9774038 18.27142,13.8130486 C18.2962234,13.8004301 18.2962234,13.8004301 18.3217475,13.7892513 L18.3492499,13.7776806 C18.699331,13.6303406 19.1060172,13.7596323 19.3044354,14.0813317 C19.9621607,15.1473389 20.1033437,16.0168641 19.6805798,16.6705701 C19.4270692,17.0643123 18.8884349,17.273183 17.9424432,17.3692318 C17.8922954,17.3657251 17.8545062,17.3619109 17.761968,17.3512133 L17.7539421,17.3502858 C17.1015401,17.2732343 16.2836796,17.0189972 15.3031955,16.5916163 C15.2432412,16.5655146 15.1826811,16.5387552 15.1215387,16.511352 C13.763089,17.4060651 12.1364133,17.9266532 10.3881686,17.9264824 C5.63006957,17.9260174 1.77324896,14.0684218 1.77355894,9.30892787 C1.77361038,8.51934942 1.87987895,7.75459253 2.07885302,7.02816245 C0.20740709,4.97782825 -0.387935299,3.59895949 0.261302488,2.59351824 C0.718257717,1.88765 1.62708127,1.72221933 2.88981703,2.05059409 C2.92700882,2.05319479 2.88108836,2.03387082 3.60211973,2.34114835 C3.91385405,2.47396594 4.0602894,2.82982164 3.93082474,3.13991286 C3.80188372,3.44874989 3.45081422,3.60302903 3.13241057,3.49078121 C2.869153,3.39797795 2.68958103,3.33925366 2.59743776,3.31554104 C1.91601416,3.13968547 1.43367569,3.15731314 1.33981668,3.30324231 C1.12191924,3.64191608 1.70944158,4.70882752 3.04874342,6.1724625 C3.18802549,6.32467951 3.33347501,6.47918793 3.48474309,6.63568457 Z M3.08367231,4.74036836 C4.60708226,2.30991598 7.30977548,0.693962566 10.3897185,0.69416322 C15.1478175,0.694628196 19.0047931,4.55222377 19.0043282,9.31171772 C19.0041214,11.4279022 18.2409996,13.3658197 16.9750473,14.8654268 C14.9027025,13.9395236 11.7218644,12.1402853 9.43583394,10.4565217 C7.07260815,8.71652731 4.60385117,6.38791942 3.08367231,4.74036836 Z" id="合并形状" fill="url(#linearGradient-1)"></path>
                        <path d="M11.1527989,6.92307661 C12.2148181,6.92367497 13.0763245,6.06343382 13.0769231,5.00164533 C13.0770228,3.93786231 12.2161149,3.0770228 11.1538962,3.07692308 C10.091877,3.07682335 9.2308693,3.93756313 9.23076954,4.99925189 C9.230171,6.06123984 10.0906799,6.92247825 11.1527989,6.92307661 Z" id="Fill-13" fill="#FFFFFF"></path>
                        <path d="M5.38461538,13.161501 C5.38461538,13.6330455 5.76699359,14.0153096 6.2384497,14.0153096 C6.71000843,14.0153096 7.09238663,13.6330455 7.09238663,13.161501 C7.09238663,12.6899564 6.71000843,12.3076923 6.2384497,12.3076923 C5.76699359,12.3076923 5.38461538,12.6899564 5.38461538,13.161501" id="Fill-17-Copy" fill="#FFFFFF"></path>
                    </g>
                </g>
            </g>
        </g>
    </g>
</svg>