<?xml version="1.0" encoding="UTF-8"?>
<svg width="24px" height="24px" viewBox="0 0 24 24" version="1.1" xmlns="http://www.w3.org/2000/svg" xmlns:xlink="http://www.w3.org/1999/xlink">
    <!-- Generator: Sketch 55.2 (78181) - https://sketchapp.com -->
    <title>BTC</title>
    <desc>Created with Sketch.</desc>
    <g id="页面1" stroke="none" stroke-width="1" fill="none" fill-rule="evenodd">
        <g id="挖矿-copy-12备份-10" transform="translate(-110.000000, -104.000000)">
            <g id="btc" transform="translate(80.000000, 90.000000)">
                <g id="btc-icon" transform="translate(30.000000, 14.000000)">
                    <path d="M12,0.25 C5.51065419,0.25 0.25,5.51065419 0.25,12 C0.25,18.4893458 5.51065419,23.75 12,23.75 C18.4893458,23.75 23.75,18.4893458 23.75,12 C23.75,5.51065419 18.4893458,0.25 12,0.25 Z" id="Combined-Shape" stroke="#FE7F00" stroke-width="0.5" fill="#FEF1E1"></path>
                    <g id="分组" transform="translate(7.500000, 6.000000)" fill="#FE7F00">
                        <path d="M6.93723806,4.77063731 C6.64649611,5.93654485 4.85001074,5.34418386 4.26735095,5.19895987 L4.78151441,3.13819037 C5.36388023,3.28341435 7.24032699,3.55445993 6.93723806,4.77063731 M6.61798047,8.09638416 C6.29901686,9.37782414 4.14094141,8.68492347 3.44127929,8.51118384 L4.00835838,6.23904582 C4.70802049,6.41366738 6.95164287,6.75938278 6.61798047,8.09638416 M8.97654734,4.78915778 C9.16351587,3.53740934 8.21044672,2.86449901 6.90725254,2.41559815 L7.33028354,0.719946437 L6.29784096,0.462717718 L5.88656899,2.11368513 C5.61522943,2.04607072 5.33654049,1.982278 5.05932143,1.91907323 L5.47382713,0.257228719 L4.44256045,0 L4.01923548,1.69506376 C3.79493203,1.64391199 3.57445027,1.59334818 3.36043598,1.54013858 L3.36131791,1.53484702 L1.93818165,1.17943042 L1.66360836,2.28183922 C1.66360836,2.28183922 2.42941501,2.4573427 2.41295237,2.4682198 C2.83098578,2.57258116 2.90683151,2.84921228 2.89419055,3.06851813 L2.41236442,5.00023232 C2.44146801,5.00758171 2.47850895,5.01816483 2.51995952,5.03462747 C2.48527039,5.02610217 2.44852343,5.01669495 2.41089454,5.00758171 L1.73592638,7.71362783 C1.68448064,7.84062532 1.55483736,8.03112156 1.26262554,7.95880354 C1.27291469,7.9737963 0.512693583,7.77154104 0.512693583,7.77154104 L0,8.95302929 L1.34346885,9.28786759 C1.5930542,9.35048441 1.83793594,9.41604098 2.07928997,9.47777587 L1.65184934,11.19283 L2.68282204,11.4500587 L3.10585304,9.75323108 C3.38748174,9.82966476 3.66087912,9.90021892 3.92869097,9.96665743 L3.50712984,11.6555477 L4.53898448,11.9127764 L4.96613114,10.200956 C6.72616352,10.5340305 8.04964203,10.3996836 8.60701991,8.8078053 C9.0556268,7.52607134 8.58467776,6.78672251 7.6583604,6.3046024 C8.33274061,6.14908927 8.84102455,5.70547997 8.97654734,4.78915778" id="Fill-3"></path>
                    </g>
                </g>
            </g>
        </g>
    </g>
</svg>