<?xml version="1.0" encoding="UTF-8"?>
<svg width="20px" height="20px" viewBox="0 0 20 20" version="1.1" xmlns="http://www.w3.org/2000/svg" xmlns:xlink="http://www.w3.org/1999/xlink">
    <!-- Generator: Sketch 51.2 (57519) - http://www.bohemiancoding.com/sketch -->
    <title>close</title>
    <desc>Created with Sketch.</desc>
    <defs></defs>
    <g id="Page-1" stroke="none" stroke-width="1" fill="none" fill-rule="evenodd" opacity="0.7">
        <g id="弹窗" transform="translate(-1298.000000, -173.000000)" fill="#CED1D5" fill-rule="nonzero">
            <g id="icons/utility/add" transform="translate(1292.000000, 167.000000)">
                <g transform="translate(15.899495, 16.077164) rotate(45.000000) translate(-15.899495, -16.077164) translate(4.899495, 5.077164)" id="Mask">
                    <path d="M12.4346972,11.7446151 L18.8710525,11.7446151 C19.0174328,11.7446151 19.1561757,11.6058722 19.1561757,11.4594919 L19.1561757,10.2892455 C19.1561757,10.1428652 19.0174328,10.0041223 18.8710525,10.0041223 L12.4346972,10.0041223 C12.0349625,10.0041223 11.7446151,9.71377482 11.7446151,9.31404011 L11.7446151,2.87768481 C11.7446151,2.73130453 11.6058722,2.5925616 11.4594919,2.5925616 L10.2892455,2.5925616 C10.1428652,2.5925616 10.0041223,2.73130453 10.0041223,2.87768481 L10.0041223,9.31404011 C10.0041223,9.71377482 9.71377482,10.0041223 9.31404011,10.0041223 L2.87768481,10.0041223 C2.73130453,10.0041223 2.5925616,10.1428652 2.5925616,10.2892455 L2.5925616,11.4594919 C2.5925616,11.6058722 2.73130453,11.7446151 2.87768481,11.7446151 L9.31404011,11.7446151 C9.71377482,11.7446151 10.0041223,12.0349625 10.0041223,12.4346972 L10.0041223,18.8710525 C10.0041223,19.0174328 10.1428652,19.1561757 10.2892455,19.1561757 L11.4594919,19.1561757 C11.6058722,19.1561757 11.7446151,19.0174328 11.7446151,18.8710525 L11.7446151,12.4346972 C11.7446151,12.0349625 12.0349625,11.7446151 12.4346972,11.7446151 Z"></path>
                </g>
            </g>
        </g>
    </g>
</svg>