<?xml version="1.0" encoding="UTF-8"?>
<svg width="20px" height="20px" viewBox="0 0 20 20" version="1.1" xmlns="http://www.w3.org/2000/svg" xmlns:xlink="http://www.w3.org/1999/xlink">
    <!-- Generator: Sketch 58 (84663) - https://sketch.com -->
    <title>cmc</title>
    <desc>Created with Sketch.</desc>
    <g id="组件" stroke="none" stroke-width="1" fill="none" fill-rule="evenodd">
        <g id="cmc">
            <rect id="矩形" x="0" y="0" width="20" height="20"></rect>
            <path d="M15.5430377,11.9634146 C15.2775277,12.1287805 14.9648572,12.1492683 14.727198,12.0171951 C14.4252964,11.8492683 14.2593063,11.4559756 14.2593063,10.9090244 L14.2593063,9.27256098 C14.2593063,8.48231707 13.9421797,7.92 13.4119025,7.76817073 C12.5132534,7.5102439 11.8374098,8.59353659 11.5834115,9.00036585 L9.99852124,11.5320732 L9.99852124,8.43768293 C9.98069679,7.72573171 9.74600827,7.29987805 9.30039714,7.17146341 C9.00555111,7.08658537 8.56439609,7.12060976 8.13586673,7.76670732 L4.58508873,13.3840244 C4.1097243,12.4949233 3.86191698,11.5049077 3.86319376,10.5 C3.86319376,7.11621951 6.6155901,4.36353659 9.99852124,4.36353659 C13.3814524,4.36353659 16.1334724,7.11621951 16.1334724,10.5 C16.1334724,10.5058537 16.1349578,10.5109756 16.1353291,10.5164634 C16.1353291,10.5223171 16.1342151,10.527439 16.1345865,10.5332927 C16.1665219,11.1885366 15.9511432,11.709878 15.5430377,11.9637805 L15.5430377,11.9634146 Z M17.4966711,10.5003659 L17.4966711,10.5 L17.4966711,10.4831707 L17.4962998,10.4663415 C17.4773613,6.34536585 14.1215382,3 9.9981499,3 C5.86399267,3 2.5,6.36439024 2.5,10.5 C2.5,14.6352439 5.86399267,18 9.99852124,18 C11.8957106,18 13.7063772,17.2895122 15.0963125,15.999878 C15.3725914,15.7437805 15.3889305,15.312439 15.1327041,15.0365854 C15.0108768,14.9042277 14.8400972,14.8257603 14.6588756,14.8188774 C14.4776541,14.8119945 14.3012498,14.8772756 14.1694414,15 C13.0428176,16.0510888 11.550123,16.6367486 9.99852124,16.6364634 C8.18711201,16.6364634 6.55728931,15.8465854 5.43323524,14.5939024 L8.63532253,9.52829268 L8.63532253,11.8635366 C8.63532253,12.9852439 9.07684889,13.3478049 9.44707747,13.4539024 C9.81767739,13.56 10.3839749,13.487561 10.9784944,12.5363415 L12.7397724,9.72329268 C12.7962164,9.63256098 12.8482044,9.55426829 12.8957362,9.48658537 L12.8957362,10.9090244 C12.8957362,11.957561 13.3220376,12.7960976 14.0650941,13.2091463 C14.7349962,13.5815854 15.5772012,13.5479268 16.2634423,13.1213415 C17.0952498,12.6036585 17.5434603,11.649878 17.4966711,10.5003659 L17.4966711,10.5003659 Z" id="形状" fill="#1D2024"></path>
        </g>
    </g>
</svg>