<svg xmlns="http://www.w3.org/2000/svg" width="20" height="20" viewBox="0 0 20 20">
  <path fill="#FFF" d="M17.4388667,2.62724782 L17.4388667,2.62724782 C17.1337515,2.31147409 16.6304215,2.30283366 16.3146478,2.60794888 C16.3116791,2.61081742 16.3087327,2.61370904 16.305809,2.61662347 L10.0441277,8.85844894 L3.79686816,2.58386672 C3.47571686,2.26131084 2.95397084,2.25990933 2.63109128,2.58073521 L2.63109128,2.58073521 C2.31031506,2.89947113 2.30866108,3.41789815 2.627397,3.73867437 C2.62859749,3.73988255 2.62980176,3.74108698 2.63100977,3.74228765 L8.90132655,9.97447122 L2.58421464,16.2565487 C2.26348266,16.5755019 2.26204068,17.0940693 2.5809939,17.4148012 C2.58214336,17.4159571 2.58329627,17.4171096 2.58445262,17.4182585 L2.58445262,17.4182585 C2.90763098,17.7393813 3.42960658,17.738806 3.75207629,17.4169716 L9.99990622,11.1814507 L16.2479172,17.4169811 C16.5702695,17.7386895 17.0921516,17.7389218 17.4147902,17.4175005 L17.4147902,17.4175005 C17.7372297,17.0962774 17.7384187,16.5745489 17.4174466,16.2518595 L11.1983581,9.99949688 L17.4285563,3.77857578 C17.7456624,3.4619419 17.7502513,2.94950996 17.4388667,2.62724782 Z" opacity=".8"/>
</svg>
