<?xml version="1.0" encoding="UTF-8"?>
<svg width="20px" height="20px" viewBox="0 0 20 20" version="1.1" xmlns="http://www.w3.org/2000/svg" xmlns:xlink="http://www.w3.org/1999/xlink">
    <!-- Generator: Sketch 50.2 (55047) - http://www.bohemiancoding.com/sketch -->
    <title>correct_icon</title>
    <desc>Created with Sketch.</desc>
    <defs></defs>
    <g id="Page-1" stroke="none" stroke-width="1" fill="none" fill-rule="evenodd">
        <g transform="translate(-604.000000, -592.000000)" fill="#01AC5A">
            <g id="Group-11" transform="translate(604.000000, 592.000000)">
                <path d="M10,0 C4.45833333,0 0,4.45833333 0,10 C0,15.5416667 4.45833333,20 10,20 C15.5416667,20 20,15.5416667 20,10 C20,4.45833333 15.5416667,0 10,0 Z M15.5833333,7.5 L9.20833333,13.9583333 C8.95833333,14.2083333 8.54166667,14.2083333 8.29166667,13.9583333 L4.79166667,10.4166667 C4.54166667,10.1666667 4.54166667,9.75 4.79166667,9.5 L5.70833333,8.58333333 C5.95833333,8.33333333 6.375,8.33333333 6.625,8.58333333 L8.45833333,10.4583333 C8.625,10.625 8.91666667,10.625 9.08333333,10.4583333 L13.75,5.625 C14,5.375 14.4166667,5.375 14.6666667,5.625 L15.5833333,6.54166667 C15.875,6.79166667 15.875,7.20833333 15.5833333,7.5 L15.5833333,7.5 Z" id="Mask"></path>
            </g>
        </g>
    </g>
</svg>