<?xml version="1.0" encoding="UTF-8"?>
<svg width="34px" height="34px" viewBox="0 0 34 34" version="1.1" xmlns="http://www.w3.org/2000/svg" xmlns:xlink="http://www.w3.org/1999/xlink">
    <!-- Generator: Sketch 58 (84663) - https://sketch.com -->
    <title>deposit</title>
    <desc>Created with Sketch.</desc>
    <defs>
        <path d="M21.0625,21.7948561 L18.9296875,21.7948561 C18.7621094,21.7948561 18.625,21.6571159 18.625,21.4887668 L18.625,20.4684693 C18.625,20.3001202 18.7621094,20.1623801 18.9296875,20.1623801 L21.0625,20.1623801 C21.5119141,20.1623801 21.875,19.7976237 21.875,19.3461421 L21.875,14.448714 C21.875,13.9972324 21.5119141,13.632476 21.0625,13.632476 L18.9296875,13.632476 C18.7621094,13.632476 18.625,13.4947359 18.625,13.3263868 L18.625,12.3060893 C18.625,12.1377402 18.7621094,12 18.9296875,12 L21.0625,12 C22.4082031,12 23.5,13.0968198 23.5,14.448714 L23.5,19.3461421 C23.5,20.6980363 22.4082031,21.7948561 21.0625,21.7948561 Z M19.8691406,16.6678611 L15.6035156,12.3826116 C15.2226562,12 14.5625,12.2678281 14.5625,12.816238 L14.5625,15.264952 L11.109375,15.264952 C10.7716797,15.264952 10.5,15.5378816 10.5,15.8771305 L10.5,18.3258446 C10.5,18.6650935 10.7716797,18.9380231 11.109375,18.9380231 L14.5625,18.9380231 L14.5625,21.3867371 C14.5625,21.935147 15.2226562,22.2029751 15.6035156,21.8203635 L19.8691406,17.535114 C20.1052734,17.2953441 20.1052734,16.907631 19.8691406,16.6678611 Z" id="path-1"></path>
    </defs>
    <g id="页面-1" stroke="none" stroke-width="1" fill="none" fill-rule="evenodd">
        <g id="借存款" transform="translate(-110.000000, -111.000000)">
            <g id="top" transform="translate(80.000000, 66.000000)">
                <g id="编组-8" transform="translate(30.000000, 42.000000)">
                    <g id="存款" transform="translate(0.000000, 3.000000)">
                        <circle id="椭圆形" fill="#E8F3FF" fill-rule="nonzero" cx="17" cy="17" r="17"></circle>
                        <mask id="mask-2" fill="white">
                            <use xlink:href="#path-1"></use>
                        </mask>
                        <use id="sign-in-alt" fill="#459DFF" fill-rule="nonzero" xlink:href="#path-1"></use>
                    </g>
                </g>
            </g>
        </g>
    </g>
</svg>