<?xml version="1.0" encoding="UTF-8"?>
<svg width="20px" height="20px" viewBox="0 0 20 20" version="1.1" xmlns="http://www.w3.org/2000/svg" xmlns:xlink="http://www.w3.org/1999/xlink">
    <!-- Generator: Sketch 52.2 (67145) - http://www.bohemiancoding.com/sketch -->
    <title>详情</title>
    <desc>Created with Sketch.</desc>
    <g id="Page-1" stroke="none" stroke-width="1" fill="none" fill-rule="evenodd">
        <g id="投票" transform="translate(-1246.000000, -46.000000)" fill="#007AFF" fill-rule="nonzero">
            <g id="分组-2" transform="translate(1246.000000, 46.000000)">
                <g id="了解icon-copy-3" transform="translate(2.000000, 0.000000)">
                    <path d="M14.0999,5.5 C14.4864993,5.5 14.7999,5.81340068 14.7999,6.2 C14.7999,6.58659932 14.4864993,6.9 14.0999,6.9 L9.2999,6.9 C8.52187187,6.9 7.9999,6.16959977 7.9999,5.36 L7.9999,0.95 C7.9999,0.563400675 8.31330068,0.25 8.6999,0.25 C9.08649932,0.25 9.3999,0.563400675 9.3999,0.95 L9.3999,5.36 C9.3999,5.47798596 9.41563208,5.5 9.2999,5.5 L14.0999,5.5 Z" id="路径"></path>
                    <path d="M8.78803599,1.4 L2.5,1.4 C1.9101696,1.4 1.4,1.96694212 1.4,2.7 L1.4,16.7 C1.4,17.4330579 1.9101696,18 2.5,18 L11.7,18 C12.0865993,18 12.4,18.3134007 12.4,18.7 C12.4,19.0865993 12.0865993,19.4 11.7,19.4 L2.5,19.4 C1.10210665,19.4 0,18.1752491 0,16.7 L0,2.7 C0,1.2247509 1.10210665,0 2.5,0 L9.082,0 C9.27002266,0 9.45014037,0.0756401784 9.58178715,0.20988491 L14.6997872,5.42888491 C14.8281152,5.55974541 14.9,5.73571728 14.9,5.919 L14.9,11.419 C14.9,11.8055993 14.5865993,12.119 14.2,12.119 C13.8134007,12.119 13.5,11.8055993 13.5,11.419 L13.5,6.20495119 L8.78803599,1.4 Z" id="路径"></path>
                    <path d="M14.9625,14.725 C14.9625,12.9369743 13.5130257,11.4875 11.725,11.4875 C9.93697432,11.4875 8.4875,12.9369743 8.4875,14.725 C8.4875,16.5130257 9.93697432,17.9625 11.725,17.9625 C13.5130257,17.9625 14.9625,16.5130257 14.9625,14.725 Z M16.3625,14.725 C16.3625,17.2862243 14.2862243,19.3625 11.725,19.3625 C9.16377568,19.3625 7.0875,17.2862243 7.0875,14.725 C7.0875,12.1637757 9.16377568,10.0875 11.725,10.0875 C14.2862243,10.0875 16.3625,12.1637757 16.3625,14.725 Z" id="Stroke-5"></path>
                    <path d="M11.4767125,15.9766072 C11.2920056,15.9766072 11.1462125,15.8308141 11.1462125,15.6461072 L11.1462125,15.5054822 C11.1462125,15.0269189 11.4528559,14.5962046 11.908457,14.4375026 C11.9914406,14.4092882 12.0640548,14.3618957 12.1184685,14.301915 C12.4464079,13.9085454 12.1899443,13.390785 11.7391027,13.3754164 C11.5891538,13.3688612 11.445122,13.4232251 11.3312894,13.52941 C11.2437947,13.610363 11.1926906,13.7077988 11.1785492,13.8286628 C11.1501681,13.9863356 11.0059934,14.0967322 10.8410875,14.0967322 L10.3730875,14.0967322 C10.1713539,14.0967322 10.0117979,13.9302011 10.0335442,13.7263341 C10.074965,13.3296984 10.2520458,12.9676812 10.5446402,12.6752395 C10.8848324,12.3567076 11.3186926,12.1891774 11.7829048,12.2006027 C12.6646556,12.2312279 13.3850123,12.9515846 13.4169032,13.831899 C13.4485972,14.5697347 12.996803,15.2410032 12.3175401,15.4907636 C12.295129,15.5009233 12.2943375,15.5019409 12.2943375,15.4964822 L12.2943375,15.6359822 C12.2943375,15.8323438 12.1294651,15.9766072 11.9447125,15.9766072 L11.4767125,15.9766072 Z M12.2943375,16.8355 C12.2943375,17.0206313 12.1391206,17.175 11.9537125,17.175 L11.4857125,17.175 C11.3010056,17.175 11.1462125,17.0202069 11.1462125,16.8355 L11.1462125,16.3675 C11.1462125,16.1820919 11.3005812,16.026875 11.4857125,16.026875 L11.9537125,16.026875 C12.1395444,16.026875 12.2943375,16.1816681 12.2943375,16.3675 L12.2943375,16.8355 Z" id="Fill-13"></path>
                </g>
            </g>
        </g>
    </g>
</svg>