<?xml version="1.0" encoding="UTF-8"?>
<svg width="60px" height="60px" viewBox="0 0 60 60" version="1.1" xmlns="http://www.w3.org/2000/svg" xmlns:xlink="http://www.w3.org/1999/xlink">
    <!-- Generator: Sketch 52.5 (67469) - http://www.bohemiancoding.com/sketch -->
    <title>empty</title>
    <desc>Created with Sketch.</desc>
    <g id="Page-1" stroke="none" stroke-width="1" fill="none" fill-rule="evenodd">
        <g id="首页-copy" transform="translate(-726.000000, -918.000000)" fill="#BDC1D1">
            <g id="列表" transform="translate(80.000000, 820.000000)">
                <g id="空记录" transform="translate(646.000000, 98.000000)">
                    <path d="M30,60 C46.5685425,60 60,46.5685425 60,30 C60,13.4314575 46.5685425,0 30,0 C13.4314575,0 0,13.4314575 0,30 C0,46.5685425 13.4314575,60 30,60 Z" id="Oval" opacity="0.176781064"></path>
                    <path d="M34.1992377,43.8077421 C33.7251074,43.0780343 33.495696,42.2435871 33.5441669,41.4018757 L33.5433982,39.8679208 L17.6393804,39.8679208 L17.6393804,41.4636124 C17.6088774,42.0152239 17.7977404,42.5135008 18.1688909,42.9288533 C18.6300538,43.4446752 19.3042757,43.7642963 20.0207773,43.8079248 L22.1623574,43.8079248 L34.1992377,43.8077421 Z M35.6757436,38.7947833 C35.6767016,38.8133223 35.6771866,38.8319864 35.6771866,38.8507638 L35.6771866,41.4636124 C35.6466835,42.0154065 35.8355466,42.5135008 36.2065144,42.9290359 C36.6672203,43.4439637 37.3402174,43.7635907 38.055611,43.8079248 L38.1313281,43.8079248 C39.343552,43.777588 40.3655191,42.7375435 40.3655191,41.4636124 L40.3655191,40.8995074 L40.3654278,16.2044809 L24.9164697,16.2044809 C22.8210765,16.2044809 21.0508054,17.9331071 21.0508054,19.979184 L21.0508054,37.7334399 L35.6757436,37.7334399 L35.6757436,38.7947833 Z M15.5064886,38.7453085 L15.5064886,37.7334399 L18.9163245,37.7334399 L18.9163245,19.979184 C18.9163245,16.7206577 21.6080791,14.07 24.9164697,14.07 L42.4999087,14.07 L42.4999087,38.6892657 C42.4999695,38.6939575 42.5,38.6986567 42.5,38.7033629 L42.5,41.4636124 C42.5,43.8961338 40.5500208,45.8823278 38.1313281,45.9409285 L38.1313281,45.9424056 L19.8391962,45.9424056 L19.8391962,45.9352962 C18.5833487,45.8449151 17.3994845,45.2704981 16.5778022,44.3511708 C15.8247247,43.5091413 15.4453547,42.4612621 15.5063608,41.4018757 L15.5050822,38.8005342 C15.5050822,38.7820121 15.5055548,38.7635997 15.5064886,38.7453085 Z M35.4437015,22.7617536 L23.6631426,22.7617536 C23.0739046,22.7617536 22.5960848,22.2837512 22.5960848,21.6945132 C22.5960848,21.1054578 23.0739046,20.6272728 23.6631426,20.6272728 L35.4437015,20.6272728 C36.0329395,20.6272728 36.5109419,21.1054578 36.5109419,21.6945132 C36.5109419,22.2837512 36.0329395,22.7617536 35.4437015,22.7617536 Z M35.4437015,27.4750548 L23.6631426,27.4750548 C23.0739046,27.4750548 22.5960848,26.9970524 22.5960848,26.4079971 C22.5960848,25.8187591 23.0739046,25.3407566 23.6631426,25.3407566 L35.4437015,25.3407566 C36.0329395,25.3407566 36.5109419,25.8187591 36.5109419,26.4079971 C36.5109419,26.9970524 36.0329395,27.4750548 35.4437015,27.4750548 Z M30.4344844,32.188356 L23.6631791,32.188356 C23.0739411,32.188356 22.5959387,31.7105363 22.5959387,31.1212983 C22.5959387,30.5322429 23.0739411,30.0540578 23.6631791,30.0540578 L30.4344844,30.0540578 C31.0237224,30.0540578 31.5017248,30.5322429 31.5017248,31.1212983 C31.5017248,31.7105363 31.0237224,32.188356 30.4344844,32.188356 Z" id="合并形状"></path>
                </g>
            </g>
        </g>
    </g>
</svg>