<svg xmlns="http://www.w3.org/2000/svg" width="20" height="20" viewBox="0 0 20 20">
  <path fill="#007AFF" fill-opacity="0.7" d="M13.3266056,15.2476979 C14.4445703,14.8987378 15.388055,14.355911 16.1312107,13.4059642 C12.066472,15.7517513 8.05343114,15.6806669 4.04685249,13.4511997 C4.14378585,13.7032265 4.5961415,14.1685066 5.19066607,14.5239289 C5.64948395,14.7953422 6.14707517,15.0150579 6.63820417,15.2606223 C6.5929686,15.3187824 6.52834636,15.4092535 6.4572619,15.4997246 C6.28924409,15.712978 6.09537738,15.9068447 5.95320846,16.1330225 C5.76580398,16.4302848 5.53316393,16.5142937 5.17774163,16.4755204 C3.71727909,16.3075026 2.43129659,15.7969869 1.37795414,14.7436445 C0.996682942,14.3688355 0.88682514,13.9681776 0.912674035,13.4253508 C1.04191851,10.943857 1.62998086,8.5722209 2.56700328,6.28459373 C2.69624776,5.96794478 2.86426557,5.66422027 2.99351004,5.34757131 C3.08398117,5.12139348 3.23907454,4.97276234 3.43940347,4.84351787 C4.42166146,4.19083328 5.47500391,3.71909096 6.64466639,3.51876202 C6.88376866,3.47998868 7.12287094,3.44767756 7.36843544,3.43475312 C7.45890657,3.42829089 7.55583992,3.49937535 7.63984883,3.57045981 C6.67051528,3.90003322 5.73349286,4.24899329 4.86109267,4.75950896 C4.51213259,4.95983789 4.18255919,5.19894017 3.84652356,5.41865577 C3.7754391,5.46389133 3.71081686,5.52851357 3.62680796,5.59959803 C7.7690933,3.6221576 11.891992,3.52522425 16.0213529,5.54790024 C14.9163126,4.65611338 13.6432546,4.10036215 12.3055743,3.66739317 C12.4025076,3.46706423 12.5382143,3.42182867 12.7514677,3.44121534 C14.1990058,3.57692204 15.4914505,4.10682437 16.6675752,4.933989 C16.777433,5.01153568 16.8808286,5.12139348 16.9454508,5.24417573 C17.8630866,7.09883391 18.4769978,9.04396322 18.8259579,11.0795637 C18.9875135,12.0295105 19.0715224,12.9923819 19.0909091,13.9552532 C19.0909091,14.0780354 19.0456735,14.2266666 18.9681268,14.3235999 C18.19266,15.3317068 17.1651665,15.9520803 15.9502684,16.2687292 C15.4849883,16.3915115 14.9938593,16.4302848 14.5156548,16.4949071 C14.4381081,16.5078315 14.3282503,16.4819826 14.2830147,16.4302848 C13.9599035,16.0360892 13.656179,15.654818 13.3266056,15.2476979 Z M7.09702204,12.6886573 C7.44598212,12.6886573 7.75616885,12.5787995 8.02758225,12.3590839 C8.4799379,11.9907372 8.62856904,11.493146 8.6996535,10.9244703 C8.84182242,9.72895893 7.49121768,8.85655874 6.44433746,9.34768773 C5.70764396,9.69664781 5.31991055,10.5948969 5.5525506,11.434986 C5.75934175,12.1910661 6.373253,12.6886573 7.09702204,12.6886573 Z M12.7773166,12.7145062 C12.9582589,12.6692707 13.1521256,12.649884 13.3201434,12.5787995 C14.3734858,12.158755 14.7095215,10.7499903 13.9857524,9.80650561 C13.4106145,9.06334989 12.3378854,8.99226543 11.6787386,9.66433669 C11.2522318,10.0973057 11.1229874,10.627208 11.1876096,11.2217326 C11.2910052,12.0359728 11.9889253,12.6886573 12.7773166,12.7145062 Z"/>
</svg>
