<?xml version="1.0" encoding="UTF-8"?>
<svg width="16px" height="16px" viewBox="0 0 16 16" version="1.1" xmlns="http://www.w3.org/2000/svg" xmlns:xlink="http://www.w3.org/1999/xlink">
    <!-- Generator: Sketch 55.2 (78181) - https://sketchapp.com -->
    <title>infor</title>
    <desc>Created with Sketch.</desc>
    <g id="页面1" stroke="none" stroke-width="1" fill="none" fill-rule="evenodd">
        <g id="挖矿-copy-12备份-10" transform="translate(-969.000000, -315.000000)" fill="#BCC4C9">
            <g id="总收益" transform="translate(80.000000, 252.000000)">
                <g transform="translate(0.000000, 30.000000)" id="编组-2">
                    <g transform="translate(889.000000, 33.000000)">
                        <g id="编组" transform="translate(2.500000, 2.500000)">
                            <g>
                                <path d="M10.1851852,9.81168086 C10.1851852,10.0551068 9.98718519,10.2531068 9.74375926,10.2531068 L1.23709259,10.2531068 C0.993734568,10.2531068 0.795734568,10.0551068 0.795734568,9.81168086 L0.795734568,1.3050142 C0.795734568,1.06165617 0.993734568,0.863656173 1.23709259,0.863656173 L9.74375926,0.863656173 C9.98718519,0.863656173 10.1851852,1.06165617 10.1851852,1.3050142 L10.1851852,9.81168086 Z M9.74375926,0.0679216049 L1.23709259,0.0679216049 C0.55495679,0.0679216049 0,0.622878395 0,1.3050142 L0,9.81168086 C0,10.4938846 0.55495679,11.0488414 1.23709259,11.0488414 L9.74375926,11.0488414 C10.425963,11.0488414 10.9809198,10.4938846 10.9809198,9.81168086 L10.9809198,1.3050142 C10.9809198,0.622878395 10.425963,0.0679216049 9.74375926,0.0679216049 L9.74375926,0.0679216049 Z" id="Fill-1"></path>
                                <path d="M8.48765432,5.16050741 L3.91226543,5.16050741 C3.69253704,5.16050741 3.5144321,5.33868025 3.5144321,5.55834074 C3.5144321,5.77813704 3.69253704,5.95624198 3.91226543,5.95624198 L8.48765432,5.95624198 C8.70738272,5.95624198 8.88548765,5.77813704 8.88548765,5.55834074 C8.88548765,5.33868025 8.70738272,5.16050741 8.48765432,5.16050741" id="Fill-3"></path>
                                <path d="M2.08875741,5.5583679 C2.08875741,5.7780963 2.26693025,5.95620123 2.48659074,5.95620123 C2.70631914,5.95620123 2.88449198,5.7780963 2.88449198,5.5583679 C2.88449198,5.33863951 2.70631914,5.16053457 2.48659074,5.16053457 C2.26693025,5.16053457 2.08875741,5.33863951 2.08875741,5.5583679" id="Fill-5"></path>
                                <path d="M8.48765432,2.61421111 L3.91226543,2.61421111 C3.69253704,2.61421111 3.5144321,2.79238395 3.5144321,3.01204444 C3.5144321,3.23177284 3.69253704,3.40994568 3.91226543,3.40994568 L8.48765432,3.40994568 C8.70738272,3.40994568 8.88548765,3.23177284 8.88548765,3.01204444 C8.88548765,2.79238395 8.70738272,2.61421111 8.48765432,2.61421111" id="Fill-7"></path>
                                <path d="M2.08875741,3.0120716 C2.08875741,3.2318 2.26693025,3.40990494 2.48659074,3.40990494 C2.70631914,3.40990494 2.88449198,3.2318 2.88449198,3.0120716 C2.88449198,2.79234321 2.70631914,2.61423827 2.48659074,2.61423827 C2.26693025,2.61423827 2.08875741,2.79234321 2.08875741,3.0120716" id="Fill-9"></path>
                                <path d="M8.48765432,7.7068037 L3.91226543,7.7068037 C3.69253704,7.7068037 3.5144321,7.88490864 3.5144321,8.10463704 C3.5144321,8.32443333 3.69253704,8.50253827 3.91226543,8.50253827 L8.48765432,8.50253827 C8.70738272,8.50253827 8.88548765,8.32443333 8.88548765,8.10463704 C8.88548765,7.88490864 8.70738272,7.7068037 8.48765432,7.7068037" id="Fill-11"></path>
                                <path d="M2.08875741,8.1046642 C2.08875741,8.32439259 2.26693025,8.50249753 2.48659074,8.50249753 C2.70631914,8.50249753 2.88449198,8.32439259 2.88449198,8.1046642 C2.88449198,7.8849358 2.70631914,7.70683086 2.48659074,7.70683086 C2.26693025,7.70683086 2.08875741,7.8849358 2.08875741,8.1046642" id="Fill-13"></path>
                            </g>
                        </g>
                    </g>
                </g>
            </g>
        </g>
    </g>
</svg>