<?xml version="1.0" encoding="UTF-8"?>
<svg width="20px" height="20px" viewBox="0 0 20 20" version="1.1" xmlns="http://www.w3.org/2000/svg" xmlns:xlink="http://www.w3.org/1999/xlink">
    <!-- Generator: Sketch 50.2 (55047) - http://www.bohemiancoding.com/sketch -->
    <title>edit_icon</title>
    <desc>Created with Sketch.</desc>
    <defs></defs>
    <g id="Page-1" stroke="none" stroke-width="1" fill="none" fill-rule="evenodd" opacity="0.434468284" stroke-linecap="round" stroke-linejoin="round">
        <g transform="translate(-307.000000, -125.000000)" fill="#195ADD" fill-rule="nonzero" stroke="#195ADD" stroke-width="0.8">
            <g id="if_edit_2199097" transform="translate(307.000000, 125.000000)">
                <g id="Group-10" opacity="0.7984375" transform="translate(0.500000, 0.500000)">
                    <path d="M15.0171429,18.1314286 L1.32285714,18.1314286 C1.10194324,18.1314286 0.922857143,17.9523425 0.922857143,17.7314286 L0.922857143,4.03714286 C0.922857143,3.81622896 1.10194324,3.63714286 1.32285714,3.63714286 L7.77,3.63714286 C7.9909139,3.63714286 8.17,3.45805676 8.17,3.23714286 L8.17,3.22285714 C8.17,3.00194324 7.9909139,2.82285714 7.77,2.82285714 L0.508571429,2.82285714 C0.287657529,2.82285714 0.108571429,3.00194324 0.108571429,3.22285714 L0.108571429,18.5457143 C0.108571429,18.7666282 0.287657529,18.9457143 0.508571429,18.9457143 L15.8314286,18.9457143 C16.0523425,18.9457143 16.2314286,18.7666282 16.2314286,18.5457143 L16.2314286,10.3071429 C16.2314286,10.086229 16.0523425,9.90714286 15.8314286,9.90714286 L15.8171429,9.90714286 C15.596229,9.90714286 15.4171429,10.086229 15.4171429,10.3071429 L15.4171429,17.7314286 C15.4171429,17.9523425 15.2380568,18.1314286 15.0171429,18.1314286 Z" id="Shape"></path>
                    <path d="M4.75533367,11.3189049 L4.294631,14.1928121 C4.25966376,14.410941 4.40814567,14.6161161 4.62627463,14.6510833 C4.66821608,14.6578067 4.71096075,14.6578067 4.7529022,14.6510833 L7.62680934,14.1903806 C7.71496612,14.1762486 7.7958607,14.1330291 7.85661295,14.0676036 L8.11050439,13.7941821 C8.11397734,13.790442 8.11752155,13.7867687 8.12113508,13.7831643 L18.633719,3.29699388 C18.7901251,3.14098078 18.7904436,2.88771498 18.6344305,2.7313089 C18.6338821,2.73075911 18.6333321,2.73021093 18.6327805,2.72966434 L16.215694,0.334551299 C16.059279,0.179558311 15.8070086,0.180134267 15.651303,0.335839856 L5.16237889,10.824764 C5.1588885,10.8282544 5.1553338,10.8316798 5.15171662,10.8350387 L4.87811065,11.0891013 C4.81268515,11.1498536 4.76946567,11.2307482 4.75533367,11.3189049 Z M6.05471365,12.3065005 L6.62308284,12.8841872 C6.77801743,13.0416617 6.77595843,13.2949194 6.61848392,13.449854 C6.55942017,13.5079651 6.48376793,13.5463002 6.40197848,13.5595633 L5.71248143,13.6713737 C5.49441611,13.7067356 5.28897272,13.5586253 5.25361078,13.3405599 C5.24645139,13.2964104 5.24674726,13.2513727 5.25448607,13.2073211 L5.37561393,12.517824 C5.41383777,12.3002421 5.62120932,12.1548437 5.83879123,12.1930675 C5.92081923,12.2074779 5.99630358,12.2471329 6.05471365,12.3065005 Z M17.4777979,3.29350403 L16.9777888,3.80633382 C16.8235688,3.9645082 16.5703231,3.96771384 16.4121487,3.81349382 C16.4102225,3.8116158 16.4083154,3.8097184 16.4064275,3.8078019 L15.183583,2.56642946 C15.0285521,2.40904968 15.0304563,2.15579085 15.1878361,2.00076002 C15.1883242,2.00027918 15.1888136,1.99979959 15.1893042,1.99932126 L15.7021781,1.4992692 C15.8597909,1.34559678 16.1119493,1.34815514 16.2664117,1.50499383 L17.4763913,2.73358854 C17.6291846,2.88873251 17.6298098,3.13759438 17.4777979,3.29350403 Z M14.5871284,3.13284271 L15.8395511,4.38526542 C15.9957609,4.54147514 15.9957609,4.79474113 15.8395511,4.95095084 C15.8393968,4.95110515 15.8392424,4.95125933 15.8390878,4.95141338 L8.10211943,12.6630976 C7.94565426,12.8190514 7.69238861,12.8186369 7.53643476,12.6621717 C7.53588111,12.6616163 7.53532909,12.6610592 7.53477872,12.6605005 L6.30431977,11.4113982 C6.15011253,11.2548545 6.15105848,11.0032272 6.30643836,10.8478474 L14.021443,3.13284271 C14.1776527,2.976633 14.4309187,2.976633 14.5871284,3.13284271 Z" id="Shape"></path>
                </g>
            </g>
        </g>
    </g>
</svg>