<?xml version="1.0" encoding="UTF-8"?>
<svg width="24px" height="24px" viewBox="0 0 24 24" version="1.1" xmlns="http://www.w3.org/2000/svg" xmlns:xlink="http://www.w3.org/1999/xlink">
    <!-- Generator: Sketch 55.2 (78181) - https://sketchapp.com -->
    <title>eth</title>
    <desc>Created with Sketch.</desc>
    <g id="页面1" stroke="none" stroke-width="1" fill="none" fill-rule="evenodd">
        <g id="挖矿-copy-12备份-10" transform="translate(-561.000000, -104.000000)">
            <g id="btc" transform="translate(80.000000, 90.000000)">
                <g id="eth-icon" transform="translate(481.000000, 14.000000)">
                    <path d="M12,0.25 C5.51065419,0.25 0.25,5.51065419 0.25,12 C0.25,18.4893458 5.51065419,23.75 12,23.75 C18.4893458,23.75 23.75,18.4893458 23.75,12 C23.75,5.51065419 18.4893458,0.25 12,0.25 Z" id="Rectangle-3" stroke="#5BC500" stroke-width="0.5" fill="#F8FFF2"></path>
                    <g id="eth" transform="translate(7.200000, 4.800000)">
                        <g id="Group" opacity="0.6" transform="translate(0.485505, 5.314695)" fill="#5BC500">
                            <polygon id="Path" points="4.42891227 0.00694731336 0.01042097 2.0164577 4.42891227 4.6269107 8.84566674 2.0164577"></polygon>
                        </g>
                        <g id="Group" opacity="0.45" transform="translate(0.485505, 0.000000)" fill="#82C53C">
                            <polygon id="Path" points="0.01042097 7.33115242 4.42891227 9.94160542 4.42891227 0"></polygon>
                        </g>
                        <g id="Group" opacity="0.8" transform="translate(4.914417, 0.000000)" fill="#5BC500">
                            <polygon id="Path" points="0 0 0 9.94160542 4.41675447 7.33115242"></polygon>
                        </g>
                        <g id="Group" opacity="0.45" transform="translate(0.485505, 8.163093)" fill="#82C53C">
                            <polygon id="Path" points="0.01042097 0.00521048502 4.42891227 6.23000326 4.42891227 2.61566348"></polygon>
                        </g>
                        <g id="Group" opacity="0.8" transform="translate(4.914417, 8.163093)" fill="#5BC500">
                            <polygon id="Path" points="0 2.61566348 0 6.23000326 4.42022813 0.00521048502"></polygon>
                        </g>
                    </g>
                </g>
            </g>
        </g>
    </g>
</svg>