<?xml version="1.0" encoding="UTF-8"?>
<svg width="20px" height="20px" viewBox="0 0 20 20" version="1.1" xmlns="http://www.w3.org/2000/svg" xmlns:xlink="http://www.w3.org/1999/xlink">
    <!-- Generator: Sketch 51.2 (57519) - http://www.bohemiancoding.com/sketch -->
    <title>eyeclose_default</title>
    <desc>Created with Sketch.</desc>
    <defs>
        <rect id="path-1" x="158" y="112" width="1242" height="737" rx="2"></rect>
        <filter x="-6.0%" y="-9.8%" width="112.0%" height="120.2%" filterUnits="objectBoundingBox" id="filter-2">
            <feMorphology radius="0.5" operator="dilate" in="SourceAlpha" result="shadowSpreadOuter1"></feMorphology>
            <feOffset dx="0" dy="2" in="shadowSpreadOuter1" result="shadowOffsetOuter1"></feOffset>
            <feGaussianBlur stdDeviation="24" in="shadowOffsetOuter1" result="shadowBlurOuter1"></feGaussianBlur>
            <feComposite in="shadowBlurOuter1" in2="SourceAlpha" operator="out" result="shadowBlurOuter1"></feComposite>
            <feColorMatrix values="0 0 0 0 0.690196078   0 0 0 0 0.752941176   0 0 0 0 0.929411765  0 0 0 0.422186368 0" type="matrix" in="shadowBlurOuter1"></feColorMatrix>
        </filter>
    </defs>
    <g id="Page-1" stroke="none" stroke-width="1" fill="none" fill-rule="evenodd">
        <g id="vite-钱包7" transform="translate(-1147.000000, -233.000000)">
            <rect id="Rectangle-2" fill="#FAFCFF" x="0" y="0" width="1440" height="889"></rect>
            <g id="Title-Rectangle">
                <use fill="black" fill-opacity="1" filter="url(#filter-2)" xlink:href="#path-1"></use>
                <rect stroke="#F6F5F5" stroke-width="1" stroke-linejoin="square" fill="#FFFFFF" fill-rule="evenodd" x="158.5" y="112.5" width="1241" height="736" rx="2"></rect>
            </g>
            <g id="Group-13-Copy" transform="translate(772.000000, 233.000000)" fill="#007AFF" opacity="0.7">
                <g id="if_00-ELASTOFONT-STORE-READY_eye_2738306-Copy" transform="translate(375.000000, 0.000000)">
                    <g id="Group-8">
                        <g transform="translate(0.320000, 9.500000)" fill-rule="nonzero">
                            <path d="M17.2778018,0.5 C18.1510975,0.513646849 18.6768425,0.530845747 18.6741134,0.551596694 C18.6900569,0.672822997 18.675442,0.799088967 18.6076817,0.912251832 C18.1609302,1.6587993 17.671793,2.31047064 17.1322109,2.87151215 L18.561956,4.77833892 C18.7991425,5.09467057 18.7350122,5.54338102 18.4187104,5.78060736 C18.1024434,6.0178076 17.6537695,5.95371134 17.4165693,5.63744435 L16.0550112,3.82155736 C15.4252087,4.28813743 14.7354702,4.65972314 13.9767516,4.94107977 L14.654557,6.95902756 C14.7805475,7.33412358 14.5789327,7.74038754 14.2040119,7.86689859 C13.8283225,7.99300141 13.422714,7.79125451 13.296976,7.41664906 L12.5991181,5.3375539 C11.9020152,5.48614797 11.1539434,5.5746234 10.3497512,5.60569447 L10.3710004,7.63996408 C10.3749527,8.03519378 10.0577597,8.35879472 9.66251072,8.36274721 C9.26705627,8.36659995 8.94348887,8.04927645 8.93963776,7.65398696 L8.91964566,5.60194038 C8.12575054,5.56681148 7.38693523,5.47504657 6.69816481,5.32399277 L6.01782065,7.35091022 C5.8910093,7.72606552 5.48564872,7.92661233 5.1119364,7.80028704 C4.73752778,7.67372638 4.53624072,7.26795827 4.66200296,6.89328071 L5.32464082,4.91911481 C4.56501124,4.63140626 3.87494381,4.25227393 3.24523305,3.77686749 L1.9018165,5.57044147 C1.6649652,5.88665787 1.21668667,5.95114701 0.900303384,5.71451868 C0.58411483,5.47803599 0.51950046,5.03000742 0.75598315,4.71381887 L2.17631571,2.81755526 C1.65704981,2.26880641 1.18482146,1.63498957 0.752318307,0.912251907 C0.684558014,0.799088967 0.66994306,0.672822997 0.685886632,0.551596694 C0.683157487,0.530845747 1.20890247,0.513646849 2.08219815,0.500000001 C3.8250894,3.07917376 6.21126718,4.24251642 9.68,4.24251642 C13.1487328,4.24251642 15.5349106,3.07917372 17.2778018,0.5 Z" id="Combined-Shape"></path>
                        </g>
                    </g>
                </g>
                <g id="if_00-ELASTOFONT-STORE-READY_eye_2738306-Copy" transform="translate(375.000000, 0.000000)" fill-rule="nonzero">
                    <g id="Group-8" transform="translate(0.320000, 9.500000)">
                        <path d="M17.2778018,0.5 C18.1510975,0.513646849 18.6768425,0.530845747 18.6741134,0.551596694 C18.6900569,0.672822997 18.675442,0.799088967 18.6076817,0.912251832 C18.1609302,1.6587993 17.671793,2.31047064 17.1322109,2.87151215 L18.561956,4.77833892 C18.7991425,5.09467057 18.7350122,5.54338102 18.4187104,5.78060736 C18.1024434,6.0178076 17.6537695,5.95371134 17.4165693,5.63744435 L16.0550112,3.82155736 C15.4252087,4.28813743 14.7354702,4.65972314 13.9767516,4.94107977 L14.654557,6.95902756 C14.7805475,7.33412358 14.5789327,7.74038754 14.2040119,7.86689859 C13.8283225,7.99300141 13.422714,7.79125451 13.296976,7.41664906 L12.5991181,5.3375539 C11.9020152,5.48614797 11.1539434,5.5746234 10.3497512,5.60569447 L10.3710004,7.63996408 C10.3749527,8.03519378 10.0577597,8.35879472 9.66251072,8.36274721 C9.26705627,8.36659995 8.94348887,8.04927645 8.93963776,7.65398696 L8.91964566,5.60194038 C8.12575054,5.56681148 7.38693523,5.47504657 6.69816481,5.32399277 L6.01782065,7.35091022 C5.8910093,7.72606552 5.48564872,7.92661233 5.1119364,7.80028704 C4.73752778,7.67372638 4.53624072,7.26795827 4.66200296,6.89328071 L5.32464082,4.91911481 C4.56501124,4.63140626 3.87494381,4.25227393 3.24523305,3.77686749 L1.9018165,5.57044147 C1.6649652,5.88665787 1.21668667,5.95114701 0.900303384,5.71451868 C0.58411483,5.47803599 0.51950046,5.03000742 0.75598315,4.71381887 L2.17631571,2.81755526 C1.65704981,2.26880641 1.18482146,1.63498957 0.752318307,0.912251907 C0.684558014,0.799088967 0.66994306,0.672822997 0.685886632,0.551596694 C0.683157487,0.530845747 1.20890247,0.513646849 2.08219815,0.500000001 C3.8250894,3.07917376 6.21126718,4.24251642 9.68,4.24251642 C13.1487328,4.24251642 15.5349106,3.07917372 17.2778018,0.5 Z" id="Combined-Shape"></path>
                    </g>
                </g>
            </g>
        </g>
    </g>
</svg>