<?xml version="1.0" encoding="UTF-8"?>
<svg width="20px" height="20px" viewBox="0 0 20 20" version="1.1" xmlns="http://www.w3.org/2000/svg" xmlns:xlink="http://www.w3.org/1999/xlink">
    <!-- Generator: Sketch 51.2 (57519) - http://www.bohemiancoding.com/sketch -->
    <title>eyeopen_disabled</title>
    <desc>Created with Sketch.</desc>
    <defs></defs>
    <g id="Page-1" stroke="none" stroke-width="1" fill="none" fill-rule="evenodd" opacity="0.7">
        <g id="vite-钱包7" transform="translate(-449.000000, -234.000000)" fill="#CED1D5" fill-rule="nonzero" stroke="#CED1D5" stroke-width="0.2">
            <g id="Group-13" transform="translate(188.000000, 234.000000)">
                <g id="if_00-ELASTOFONT-STORE-READY_eye_2738306" transform="translate(261.000000, 0.000000)">
                    <path d="M19.1260746,9.81069049 C17.1351082,6.48367092 14.3206295,5 10,5 C5.67937052,5 2.86489185,6.48367092 0.87392538,9.81069049 C0.804659303,9.92636808 0.789719573,10.05544 0.806017446,10.1793602 C0.789719573,10.3032804 0.804659303,10.4323523 0.87392538,10.54803 C2.86489185,13.8750495 5.67937052,15.3587204 10,15.3587204 C14.3206295,15.3587204 17.1351082,13.8750494 19.1260746,10.5480299 C19.1953407,10.4323523 19.2102804,10.3032804 19.1939826,10.1793602 C19.2102804,10.05544 19.1953407,9.92636808 19.1260746,9.81069049 Z M10,13.632267 C8.09595571,13.632267 6.54709321,12.0834045 6.54709321,10.1793602 C6.54709321,8.27531589 8.09595571,6.7264534 10,6.7264534 C11.9040443,6.7264534 13.4529068,8.27531589 13.4529068,10.1793602 C13.4529068,12.0834045 11.9040443,13.632267 10,13.632267 Z M1.99908928,10.1793602 C3.00019246,8.57139436 4.45627865,6.98450347 7.38540473,6.39440707 C6.18507373,7.22616198 5.39612428,8.61157714 5.39612428,10.1793602 C5.39612428,11.7471432 6.18507373,13.1325584 7.38540473,13.9643133 C4.45627873,13.3742169 3.00019246,11.787326 1.99908928,10.1793602 Z M12.6145953,13.9643133 C13.8149263,13.1325584 14.6038757,11.7471432 14.6038757,10.1793602 C14.6038757,8.61157714 13.8149263,7.22616198 12.6145953,6.39440707 C15.5437213,6.98450347 16.9998075,8.57139436 18.0009107,10.1793602 C16.9998075,11.787326 15.5437213,13.3742169 12.6145953,13.9643133 Z M11.6207981,9.51245763 C11.9100389,9.49372439 12.2037758,9.73201094 12.227005,10.0452303 C12.2337489,10.0871927 12.2382449,10.1329018 12.2382449,10.1793602 C12.2382449,11.4135046 11.2341444,12.4176051 10,12.4176051 C8.76585561,12.4176051 7.76175507,11.4135046 7.76175507,10.1793602 C7.76175507,9.02164727 8.66994153,8.0445226 9.82990229,7.95535251 C9.98351475,7.95085652 10.1356284,7.99431765 10.2525237,8.095477 C10.3686697,8.19663642 10.4391066,8.34050754 10.4488479,8.49411992 C10.483317,9.07110302 10.9606394,9.52294826 11.5346252,9.52294826 L11.6207981,9.51245763 Z" id="Combined-Shape"></path>
                </g>
            </g>
        </g>
    </g>
</svg>