<?xml version="1.0" encoding="UTF-8"?>
<svg width="20px" height="20px" viewBox="0 0 20 20" version="1.1" xmlns="http://www.w3.org/2000/svg" xmlns:xlink="http://www.w3.org/1999/xlink">
    <!-- Generator: Sketch 56.3 (81716) - https://sketch.com -->
    <title>facebook</title>
    <desc>Created with Sketch.</desc>
    <g id="页面-1" stroke="none" stroke-width="1" fill="none" fill-rule="evenodd" fill-opacity="0.7">
        <g id="弹窗" transform="translate(-871.000000, -630.000000)" fill="#007AFF" fill-rule="nonzero">
            <g id="编组-5" transform="translate(781.000000, 48.000000)">
                <g id="facebook" transform="translate(90.000000, 582.000000)">
                    <path d="M16.010101,2.27272727 L3.98989899,2.27272727 C3.04116162,2.27272727 2.27272727,3.04116162 2.27272727,3.98989899 L2.27272727,16.010101 C2.27272727,16.9588384 3.04116162,17.7272727 3.98989899,17.7272727 L10.5331818,17.7272727 L10.5331818,11.7506566 L8.52151515,11.7506566 L8.52151515,9.4110101 L10.5331818,9.4110101 L10.5331818,7.68954545 C10.5331818,5.69419192 11.7532323,4.60636364 13.5339394,4.60636364 C14.1340909,4.60464646 14.7333838,4.63555556 15.330101,4.69651515 L15.330101,6.78287879 L14.1040404,6.78287879 C13.1338384,6.78287879 12.9449495,7.24136364 12.9449495,7.91792929 L12.9449495,9.40757576 L15.2631313,9.40757576 L14.9617677,11.7472222 L12.9312121,11.7472222 L12.9312121,17.7272727 L16.010101,17.7272727 C16.9588384,17.7272727 17.7272727,16.9588384 17.7272727,16.010101 L17.7272727,3.98989899 C17.7272727,3.04116162 16.9588384,2.27272727 16.010101,2.27272727 Z" id="路径"></path>
                </g>
            </g>
        </g>
    </g>
</svg>