<svg xmlns="http://www.w3.org/2000/svg" width="20" height="20" viewBox="0 0 20 20">
  <path fill="#007AFF" fill-opacity="0.7" d="M7.71131878,19.4793026 C7.71131878,19.2199834 7.69927399,18.5161171 7.69927399,17.5899771 C4.688077,18.2567979 4.04970324,16.0958047 4.04970324,16.0958047 C3.55586694,14.8115574 2.84522445,14.4657985 2.84522445,14.4657985 C1.85755183,13.7866292 2.91749317,13.7866292 2.91749317,13.7866292 C4.00152409,13.8607204 4.57967391,14.9350427 4.57967391,14.9350427 C5.54325695,16.6267916 7.12112417,16.1451988 7.73540835,15.8611826 C7.83176666,15.1449677 8.10879678,14.6510264 8.42196127,14.3793587 C6.01300368,14.0953425 3.48359821,13.1445055 3.48359821,8.88426184 C3.48359821,7.67410567 3.90516579,6.67387455 4.60376349,5.89591702 C4.4953604,5.61190077 4.12197197,4.48818433 4.71216658,2.95696632 C4.71216658,2.95696632 5.62757046,2.66060155 7.6872292,4.0930313 C8.55445393,3.84606065 9.48190261,3.72257533 10.3973065,3.72257533 C11.3127104,3.72257533 12.240159,3.84606065 13.1073838,4.0930313 C15.1790873,2.64825301 16.0824464,2.95696632 16.0824464,2.95696632 C16.672641,4.48818433 16.2992526,5.61190077 16.1908495,5.89591702 C16.8894472,6.67387455 17.29897,7.66175714 17.29897,8.88426184 C17.29897,13.156854 14.7695645,14.0953425 12.3485621,14.3670102 C12.7339954,14.7127691 13.0832942,15.3919384 13.0832942,16.4292151 C13.0832942,17.911039 13.0712494,19.1088466 13.0712494,19.4793026 C13.0712494,19.7756674 7.71131878,19.7633188 7.71131878,19.4793026 Z"/>
</svg>
