<?xml version="1.0" encoding="UTF-8"?>
<svg width="28px" height="28px" viewBox="0 0 28 28" version="1.1" xmlns="http://www.w3.org/2000/svg" xmlns:xlink="http://www.w3.org/1999/xlink">
    <!-- Generator: Sketch 55.2 (78181) - https://sketchapp.com -->
    <title>google</title>
    <desc>Created with Sketch.</desc>
    <defs>
        <polygon id="path-1" points="0.0251337748 0.0289748344 9.74521854 0.0289748344 9.74521854 7.54802119 0.0251337748 7.54802119"></polygon>
    </defs>
    <g id="页面1" stroke="none" stroke-width="1" fill="none" fill-rule="evenodd">
        <g id="新建账户备份-8" transform="translate(-556.000000, -461.000000)">
            <g id="编组-2" transform="translate(540.000000, 445.000000)">
                <g id="google" transform="translate(16.000000, 16.000000)">
                    <g id="编组" transform="translate(2.000000, 0.000000)">
                        <polygon id="Fill-1" fill="#FFFFFF" points="0 -5.29801324e-06 0 13.3249748 0 27.1258225 14.2767152 13.3249748"></polygon>
                        <polygon id="Fill-2" fill-opacity="0.8" fill="#FFFFFF" points="0 -5.29801324e-06 14.2767152 13.3249748 17.9887682 9.56539868 12.3255629 6.32937219"></polygon>
                        <polygon id="Fill-3" fill-opacity="0.8" fill="#FFFFFF" points="0 27.1258278 12.3255629 20.3205828 17.9887682 17.0845033 14.2767152 13.3249801"></polygon>
                        <g transform="translate(14.251656, 9.536424)">
                            <mask id="mask-2" fill="white">
                                <use xlink:href="#path-1"></use>
                            </mask>
                            <g id="Clip-5"></g>
                            <path d="M3.73708079,0.0289748344 L0.0251337748,3.78849801 L3.73708079,7.54802119 L9.49538543,4.2167894 C9.8285245,4.02643179 9.8285245,3.5981404 9.49538543,3.40778278 L3.73708079,0.0289748344 Z" id="Fill-4" fill-opacity="0.6" fill="#FFFFFF" mask="url(#mask-2)"></path>
                        </g>
                    </g>
                </g>
            </g>
        </g>
    </g>
</svg>