<?xml version="1.0" encoding="UTF-8"?>
<svg width="12px" height="12px" viewBox="0 0 12 12" version="1.1" xmlns="http://www.w3.org/2000/svg" xmlns:xlink="http://www.w3.org/1999/xlink">
    <!-- Generator: Sketch 56.3 (81716) - https://sketch.com -->
    <title>Combined Shape Copy 3</title>
    <desc>Created with Sketch.</desc>
    <g id="页面-1" stroke="none" stroke-width="1" fill="none" fill-rule="evenodd">
        <g id="资产管理" transform="translate(-319.000000, -243.000000)" fill="#BCC4C9" fill-rule="nonzero">
            <g id="编组-2" transform="translate(319.000000, 243.000000)">
                <path d="M6,10.4602273 C8.4633155,10.4602273 10.4602273,8.4633155 10.4602273,6 C10.4602273,3.5366845 8.4633155,1.53977273 6,1.53977273 C3.5366845,1.53977273 1.53977273,3.5366845 1.53977273,6 C1.53977273,8.4633155 3.5366845,10.4602273 6,10.4602273 Z M6,11 C3.23857625,11 1,8.76142375 1,6 C1,3.23857625 3.23857625,1 6,1 C8.76142375,1 11,3.23857625 11,6 C11,8.76142375 8.76142375,11 6,11 Z M6.00568182,4.40909091 C5.69181818,4.40909091 5.4375,4.15477273 5.4375,3.84090909 C5.4375,3.52704545 5.69181818,3.27272727 6.00568182,3.27272727 C6.31954545,3.27272727 6.57386364,3.52704545 6.57386364,3.84090909 C6.57386364,4.15477273 6.31954545,4.40909091 6.00568182,4.40909091 Z M5.58306566,8.95454545 L5.58306566,5.09090909 L6.40851505,5.09090909 L6.40851505,8.95454545 L5.58306566,8.95454545 Z" id="Combined-Shape-Copy-3"></path>
            </g>
        </g>
    </g>
</svg>