<?xml version="1.0" encoding="UTF-8"?>
<svg width="34px" height="34px" viewBox="0 0 34 34" version="1.1" xmlns="http://www.w3.org/2000/svg" xmlns:xlink="http://www.w3.org/1999/xlink">
    <!-- Generator: Sketch 55.2 (78181) - https://sketchapp.com -->
    <title>总收益</title>
    <desc>Created with Sketch.</desc>
    <defs>
        <linearGradient x1="1.49759936%" y1="-10.4966906%" x2="201.435183%" y2="87.6369925%" id="linearGradient-1">
            <stop stop-color="#0B30E4" offset="0%"></stop>
            <stop stop-color="#0D6CEF" offset="31.4739301%"></stop>
            <stop stop-color="#0998F3" offset="49.1836977%"></stop>
            <stop stop-color="#00C3FF" offset="71.3239784%"></stop>
            <stop stop-color="#00ECFF" offset="100%"></stop>
        </linearGradient>
    </defs>
    <g id="页面1" stroke="none" stroke-width="1" fill="none" fill-rule="evenodd">
        <g id="首页-copy-13备份-40" transform="translate(-110.000000, -147.000000)">
            <g id="分组-4" transform="translate(110.000000, 147.000000)">
                <circle id="椭圆形" stroke-opacity="0.67" stroke="#007AFF" stroke-width="0.5" fill="#F2F8FF" cx="17" cy="17" r="16.75"></circle>
                <path d="M23.5,11.9936057 C23.5,10.8406055 20.5850515,9.9 17,9.9 C13.4149485,9.9 10.5,10.8406055 10.5,11.9936057 L10.5,12.7218164 C10.5,13.8748166 13.4149485,14.8154221 17,14.8154221 C20.5850515,14.8154221 23.5,13.8748166 23.5,12.7218164 L23.5,11.9936057 Z M10.5,14.4209746 C10.5,15.331238 13.4149485,16.0594487 17,16.0594487 C20.5850515,16.0594487 23.5,15.331238 23.5,14.4209746 L23.5,15.9077381 C23.5,17.0607384 20.5850515,18.0013438 17,18.0013438 C13.4149485,18.0013438 10.5,17.0607384 10.5,15.9077381 L10.5,14.4209746 Z M10.5,17.6068964 C10.5,18.5171597 13.4149485,19.2453704 17,19.2453704 C20.5850515,19.2453704 23.5,18.5171597 23.5,17.6068964 L23.5,19.0936599 C23.5,20.2466601 20.5850515,21.1872656 17,21.1872656 C13.4149485,21.1872656 10.5,20.2770022 10.5,19.124002 L10.5,17.6068964 Z M10.5,20.8231602 C10.5,21.7334236 13.4149485,22.4616343 17,22.4616343 C20.5850515,22.4616343 23.5,21.7334236 23.5,20.8231602 L23.5,22.3099237 C23.5,23.4629239 20.5850515,24.4035294 17,24.4035294 C13.4149485,24.4035294 10.5,23.4629239 10.5,22.3099237 L10.5,20.8231602 Z" id="Mask备份" fill="url(#linearGradient-1)"></path>
            </g>
        </g>
    </g>
</svg>