<svg xmlns="http://www.w3.org/2000/svg" width="18" height="18" viewBox="0 0 18 18">
  <g fill="none" fill-rule="evenodd">
    <rect width="16.6" height="16.6" x=".7" y=".7" stroke="#007AFF" stroke-width="1.4" rx="2"/>
    <path fill="#007AFF" d="M9.80620473,11.5054267 L8.76679919,11.5054267 C8.60049431,11.5054267 8.47576564,11.380698 8.47576564,11.2143932 L8.47576564,10.9025715 C8.47576564,10.0294708 9.03704463,9.23952263 9.86856907,8.94848908 C10.1180264,8.86533664 10.3466956,8.71981986 10.5337886,8.51193875 C11.5731941,7.26465211 10.6169411,5.76790813 9.36965441,5.72633191 C8.91231597,5.7055438 8.47576564,5.87184869 8.14315587,6.18367035 C7.87291043,6.43312768 7.70660554,6.74494934 7.66502932,7.09834722 C7.64424121,7.22307589 7.51951255,7.32701644 7.35320766,7.32701644 L6.31380212,7.32701644 C6.12670913,7.32701644 5.98119235,7.18149966 6.00198046,6.99440667 C6.0851329,6.20445846 6.43853079,5.49766269 6.99980978,4.9363837 C7.66502932,4.31274038 8.51734186,3.9801306 9.43201874,4.00091872 C11.1574319,4.06328305 12.5710235,5.47687458 12.6333878,7.20228778 C12.6957521,8.65745553 11.8018634,9.96710651 10.4506362,10.4660212 C10.2635432,10.5491736 10.1388145,10.6946904 10.1388145,10.8817834 L10.1388145,11.193605 C10.1388145,11.380698 9.97250962,11.5054267 9.80620473,11.5054267 Z M10.1388145,13.6881783 C10.1388145,13.8544832 9.99329773,14 9.82699284,14 L8.7875873,14 C8.62128242,14 8.47576564,13.8544832 8.47576564,13.6881783 L8.47576564,12.6487728 C8.47576564,12.4824679 8.62128242,12.3369511 8.7875873,12.3369511 L9.82699284,12.3369511 C9.99329773,12.3369511 10.1388145,12.4824679 10.1388145,12.6487728 L10.1388145,13.6881783 Z"/>
  </g>
</svg>
