<?xml version="1.0" encoding="UTF-8"?>
<svg width="30px" height="30px" viewBox="0 0 30 30" version="1.1" xmlns="http://www.w3.org/2000/svg" xmlns:xlink="http://www.w3.org/1999/xlink">
    <!-- Generator: Sketch 51.2 (57519) - http://www.bohemiancoding.com/sketch -->
    <title>index_icon_default</title>
    <desc>Created with Sketch.</desc>
    <defs></defs>
    <g id="Page-1" stroke="none" stroke-width="1" fill="none" fill-rule="evenodd">
        <g id="vite-钱包7" transform="translate(-46.000000, -135.000000)" fill="#BDC1D1" fill-rule="nonzero">
            <g id="Group-8" transform="translate(46.000000, 135.000000)">
                <path d="M29.2838837,15.3464849 L15.6950208,1.29604049 C15.5028966,1.09908294 15.2515642,1 15.0002319,1 C14.7488996,1 14.4975672,1.09908294 14.305443,1.29724882 L11.5117874,4.18515406 L11.5117874,2.07662074 L7.01680518,2.07662074 L7.01680518,8.83238566 L0.716580118,15.3464849 C0.334748296,15.7428166 0.471289422,16.0666487 1.01987058,16.0666487 L5.01702143,16.0666487 L5.01702143,27.0576052 C5.01702143,28.1571842 5.91601787,29.0561806 7.01559685,29.0561806 L12.5002001,29.0561806 L12.5002001,21.0630872 L17.4990554,21.0630872 L17.4809304,29.0561806 L23.0029919,29.0561806 C24.1013625,29.0561806 25.0015673,28.1571842 25.0015673,27.0576052 L25.0015673,16.0666487 L28.9781766,16.0666487 C29.5279661,16.0666487 29.6657155,15.7428166 29.2838837,15.3464849 Z" id="Shape"></path>
            </g>
        </g>
    </g>
</svg>