<?xml version="1.0" encoding="UTF-8"?>
<svg width="16px" height="16px" viewBox="0 0 16 16" version="1.1" xmlns="http://www.w3.org/2000/svg" xmlns:xlink="http://www.w3.org/1999/xlink">
    <!-- Generator: Sketch 57.1 (83088) - https://sketch.com -->
    <title>infor copy 3</title>
    <desc>Created with Sketch.</desc>
    <g id="页面-1" stroke="none" stroke-width="1" fill="none" fill-rule="evenodd">
        <g id="1备份-22" transform="translate(-166.000000, -69.000000)">
            <g id="Group-1-Copy-2" transform="translate(166.000000, 69.000000)">
                <g id="编组-2">
                    <path d="M11.2523965,4.30594971 L11.37395,4.41691204 L11.3790015,4.42174398 C12.1403412,5.18474218 12.1402844,6.42001376 11.3787046,7.18325222 L9.79587436,8.76572701 C9.47127639,9.09102839 9.04354138,9.28978196 8.59036203,9.33004149 C8.73651961,9.54957975 8.71238591,9.84839012 8.51885336,10.043139 L7.18327293,11.3787194 C6.81698016,11.7451565 6.31968873,11.9507165 5.8028195,11.9496507 C5.28474697,11.9506445 4.7874075,11.7449232 4.42121619,11.3781547 C3.65955746,10.61527 3.65959552,9.37966241 4.42141512,8.61654469 L6.0043373,7.03362269 C6.34132642,6.6972069 6.7705373,6.50938825 7.21049481,6.47016719 C7.06347558,6.25155122 7.08740248,5.95201885 7.28129963,5.75703904 L8.61711066,4.42128734 C9.33320385,3.7062772 10.4749169,3.65788996 11.2523965,4.30594971 Z M9.41970936,5.2242717 L8.08330816,6.56061127 L8.05770376,6.58131759 C8.31599147,6.67579415 8.55833521,6.82656638 8.76573649,7.03363438 C8.98709817,7.25623059 8.98698033,7.61434705 8.76524428,7.83731429 C8.54354785,8.05777736 8.18555804,8.05765066 7.96330474,7.83678556 C7.64386377,7.51775918 7.12628567,7.51773105 6.80700506,7.83659715 L5.22436737,9.4195899 C4.90534944,9.73902241 4.90529905,10.2566129 5.22402989,10.5757998 C5.54353422,10.8948481 6.06107788,10.8948753 6.38042717,10.575982 L7.71678014,9.23957224 L7.74116292,9.21856624 C7.47768816,9.12187673 7.23551312,8.96838361 7.03319445,8.76574562 C6.81245103,8.5439224 6.81276118,8.18567335 7.03448885,7.96286922 C7.25618335,7.74240807 7.61417314,7.74253093 7.83641232,7.96338189 C8.15591775,8.28243124 8.67340221,8.28245624 8.99276509,7.96354934 L10.5757641,6.38066887 C10.8947983,6.06117855 10.8948535,5.54363486 10.5761337,5.22445891 C10.2565722,4.905395 9.73902854,4.90536704 9.41970936,5.2242717 Z" id="形状结合" fill="#007AFF" fill-rule="nonzero"></path>
                    <circle id="椭圆形" stroke="#007AFF" stroke-width="1.2" cx="8" cy="8" r="7.4"></circle>
                </g>
            </g>
        </g>
    </g>
</svg>