<?xml version="1.0" encoding="UTF-8"?>
<svg width="24px" height="24px" viewBox="0 0 24 24" version="1.1" xmlns="http://www.w3.org/2000/svg" xmlns:xlink="http://www.w3.org/1999/xlink">
    <!-- Generator: Sketch 52.5 (67469) - http://www.bohemiancoding.com/sketch -->
    <title>logout_icon</title>
    <desc>Created with Sketch.</desc>
    <defs>
        <path d="M21.5,19.997223 C21.5,20.5510414 21.0613852,21 20.5012539,21 L1.49874609,21 C0.947153856,21 0.5,20.5481176 0.5,19.997223 L0.5,17.9375 C0.5,15.4 3.475,13.825 6.275,12.6 L6.5375,12.46875 C6.75625,12.38125 6.975,12.38125 7.19375,12.5125 C8.33125,13.25625 9.6,13.65 10.95625,13.65 C12.3125,13.65 13.625,13.2125 14.71875,12.5125 C14.9375,12.38125 15.15625,12.38125 15.375,12.46875 L15.6375,12.6 C18.525,13.825 21.5,15.35625 21.5,17.9375 L21.5,19.997223 Z M11,0 C13.8875,0 16.20625,2.58125 16.20625,5.775 C16.20625,8.96875 13.8875,11.55 11,11.55 C8.1125,11.55 5.79375,8.96875 5.79375,5.775 C5.79375,2.58125 8.1125,0 11,0 Z" id="path-1"></path>
    </defs>
    <g id="Page-1" stroke="none" stroke-width="1" fill="none" fill-rule="evenodd">
        <g id="交易所-0114" transform="translate(-22.000000, -757.000000)">
            <g id="side-panel">
                <g id="关闭" transform="translate(23.000000, 758.000000)">
                    <mask id="mask-2" fill="white">
                        <use xlink:href="#path-1"></use>
                    </mask>
                    <use id="Mask" fill="#BDC1D1" xlink:href="#path-1"></use>
                </g>
            </g>
        </g>
    </g>
</svg>