<?xml version="1.0" encoding="UTF-8"?>
<svg width="30px" height="30px" viewBox="0 0 30 30" version="1.1" xmlns="http://www.w3.org/2000/svg" xmlns:xlink="http://www.w3.org/1999/xlink">
    <!-- Generator: Sketch 50.2 (55047) - http://www.bohemiancoding.com/sketch -->
    <title>logout_icon_hover</title>
    <desc>Created with Sketch.</desc>
    <defs>
        <linearGradient x1="100%" y1="38.7352683%" x2="-137.88902%" y2="38.7352675%" id="linearGradient-1">
            <stop stop-color="#1B3BD8" offset="0%"></stop>
            <stop stop-color="#176CE0" offset="31.4739301%"></stop>
            <stop stop-color="#0B92E7" offset="49.1836977%"></stop>
            <stop stop-color="#0BB6EB" offset="71.3239784%"></stop>
            <stop stop-color="#00E0F2" offset="100%"></stop>
        </linearGradient>
    </defs>
    <g id="Page-1" stroke="none" stroke-width="1" fill="none" fill-rule="evenodd">
        <g transform="translate(-44.000000, -934.000000)" fill="url(#linearGradient-1)">
            <g id="Group-11-Copy-2" transform="translate(44.000000, 934.000000)">
                <path d="M19.7176449,4.32308658 C19.3095466,4.14818729 18.9014482,4.43968611 18.9014482,4.84778446 L18.9014482,7.06317551 C18.9014482,7.47127386 19.1346473,7.87937222 19.4844459,8.05427151 C22.5743334,9.80326445 24.5565254,13.3012503 24.0901273,17.2073345 C23.6237292,21.4632174 20.1840431,24.9612032 15.8698605,25.4276013 C10.2730831,26.0688988 5.4925024,21.6381166 5.4925024,16.1579388 C5.4925024,12.7182527 7.35809486,9.68666492 10.1564836,8.05427151 C10.5062821,7.87937222 10.7394812,7.47127386 10.7394812,7.06317551 L10.7394812,4.84778446 C10.7394812,4.43968611 10.3313829,4.14818729 9.9232845,4.32308658 C4.96780452,6.36357834 1.52811841,11.4939576 2.05281629,17.3239341 C2.57751417,23.3288098 7.35809486,28.22599 13.3629706,28.9255872 C21.0585395,29.7417839 27.6464129,23.7369082 27.6464129,16.1579388 C27.6464129,10.7943604 24.3816261,6.24697881 19.7176449,4.32308658 L19.7176449,4.32308658 Z M16.5694577,1.87449647 C16.5694577,1.40809835 16.1613593,1 15.6949612,1 L13.9459683,1 C13.4795701,1 13.0714718,1.40809835 13.0714718,1.87449647 L13.0714718,11.7854564 C13.0714718,12.2518546 13.4795701,12.6599529 13.9459683,12.6599529 L15.6949612,12.6599529 C16.1613593,12.6599529 16.5694577,12.2518546 16.5694577,11.7854564 L16.5694577,1.87449647 Z" id="Mask"></path>
            </g>
        </g>
    </g>
</svg>