<?xml version="1.0" encoding="UTF-8"?>
<svg width="78px" height="50px" viewBox="0 0 78 50" version="1.1" xmlns="http://www.w3.org/2000/svg" xmlns:xlink="http://www.w3.org/1999/xlink">
    <!-- Generator: Sketch 50.2 (55047) - http://www.bohemiancoding.com/sketch -->
    <title>logo+tastnet</title>
    <desc>Created with Sketch.</desc>
    <defs>
        <linearGradient x1="-20.1549328%" y1="88.5290022%" x2="89.2610173%" y2="58.4054023%" id="linearGradient-1">
            <stop stop-color="#06C8EE" offset="0%"></stop>
            <stop stop-color="#0C8DE6" offset="100%"></stop>
        </linearGradient>
    </defs>
    <g id="Page-1" stroke="none" stroke-width="1" fill="none" fill-rule="evenodd">
        <g transform="translate(-30.000000, -15.000000)">
            <g id="Group-3" transform="translate(30.000000, 15.000000)">
                <path d="M0,12.1798324 L16.4458086,8.48421217 L14.8068334,49.9451837 L0,12.1798324 Z M20.2040563,7.77261115 L53.1462166,0 L15.3266463,50 L20.2040563,7.77261115 Z" id="Combined-Shape" fill="#FFFFFF"></path>
                <g id="Group-12" transform="translate(31.000000, 35.000000)">
                    <rect id="Rectangle-4" fill-opacity="0.48" fill="url(#linearGradient-1)" transform="translate(23.500000, 6.500000) scale(-1, 1) translate(-23.500000, -6.500000) " x="1.5" y="1" width="44" height="11" rx="5.5"></rect>
                    <path d="M7,1 C3.96243388,1 1.5,3.46243388 1.5,6.5 C1.5,9.53756612 3.96243388,12 7,12 L40,12 C43.0375661,12 45.5,9.53756612 45.5,6.5 C45.5,3.46243388 43.0375661,1 40,1 L7,1 Z M7,0 L40,0 C43.5898509,0 46.5,2.91014913 46.5,6.5 C46.5,10.0898509 43.5898509,13 40,13 L7,13 C3.41014913,13 0.5,10.0898509 0.5,6.5 C0.5,2.91014913 3.41014913,0 7,0 Z" id="Rectangle-4" fill="#0B94E7" fill-rule="nonzero" transform="translate(23.500000, 6.500000) scale(-1, 1) translate(-23.500000, -6.500000) "></path>
                    <path d="M10.05,3 L10.05,3.74 L8.2,3.74 C8.08,3.74 8.01,3.73 7.95,3.71 L7.93,3.72 C7.95,3.78 7.96,3.86 7.96,3.97 L7.96,10 L7.19,10 L7.19,3.97 C7.19,3.86 7.2,3.78 7.22,3.72 L7.2,3.71 C7.14,3.73 7.07,3.74 6.95,3.74 L5.1,3.74 L5.1,3 L10.05,3 Z M14.84,3 L14.84,3.73 L11.95,3.73 C11.83,3.73 11.76,3.72 11.7,3.7 L11.68,3.71 C11.7,3.77 11.71,3.85 11.71,3.96 L11.71,5.57 C11.71,5.67 11.7,5.76 11.68,5.81 L11.7,5.83 C11.76,5.8 11.83,5.8 11.95,5.8 L14.52,5.8 L14.52,6.52 L11.95,6.52 C11.83,6.52 11.76,6.52 11.7,6.49 L11.68,6.51 C11.7,6.56 11.71,6.65 11.71,6.76 L11.71,9.04 C11.71,9.15 11.7,9.23 11.68,9.29 L11.7,9.3 C11.76,9.28 11.83,9.27 11.95,9.27 L14.88,9.27 L14.88,10 L10.94,10 L10.94,3 L14.84,3 Z M17.84,2.85 C18.48,2.85 19.08,3.03 19.62,3.29 L19.26,4.03 C18.78,3.77 18.3,3.63 17.83,3.63 C17.14,3.63 16.78,3.93 16.78,4.43 C16.78,4.83 16.98,5.12 17.52,5.51 L18.67,6.36 C19.49,6.96 19.85,7.49 19.85,8.27 C19.85,9.47 18.99,10.15 17.68,10.15 C16.85,10.15 16.05,9.88 15.47,9.51 L15.84,8.79 C16.36,9.11 17.01,9.37 17.68,9.37 C18.55,9.37 19.03,8.94 19.03,8.32 C19.03,7.85 18.77,7.49 18.13,7.02 L16.99,6.15 C16.29,5.63 15.95,5.15 15.95,4.46 C15.95,3.46 16.65,2.85 17.84,2.85 Z M25.25,3 L25.25,3.74 L23.4,3.74 C23.28,3.74 23.21,3.73 23.15,3.71 L23.13,3.72 C23.15,3.78 23.16,3.86 23.16,3.97 L23.16,10 L22.39,10 L22.39,3.97 C22.39,3.86 22.4,3.78 22.42,3.72 L22.4,3.71 C22.34,3.73 22.27,3.74 22.15,3.74 L20.3,3.74 L20.3,3 L25.25,3 Z M26.22,2.9 L30.49,7.67 C30.72,7.93 30.95,8.24 31.04,8.46 L31.07,8.45 C31.01,8.14 30.99,7.77 30.99,7.19 L30.99,3 L31.76,3 L31.76,10.1 L31.67,10.1 L27.41,5.33 C27.18,5.07 26.95,4.76 26.86,4.54 L26.82,4.55 C26.88,4.86 26.91,5.23 26.91,5.8 L26.91,10 L26.14,10 L26.14,2.9 L26.22,2.9 Z M37.24,3 L37.24,3.73 L34.35,3.73 C34.23,3.73 34.16,3.72 34.1,3.7 L34.08,3.71 C34.1,3.77 34.11,3.85 34.11,3.96 L34.11,5.57 C34.11,5.67 34.1,5.76 34.08,5.81 L34.1,5.83 C34.16,5.8 34.23,5.8 34.35,5.8 L36.92,5.8 L36.92,6.52 L34.35,6.52 C34.23,6.52 34.16,6.52 34.1,6.49 L34.08,6.51 C34.1,6.56 34.11,6.65 34.11,6.76 L34.11,9.04 C34.11,9.15 34.1,9.23 34.08,9.29 L34.1,9.3 C34.16,9.28 34.23,9.27 34.35,9.27 L37.28,9.27 L37.28,10 L33.34,10 L33.34,3 L37.24,3 Z M42.73,3 L42.73,3.74 L40.88,3.74 C40.76,3.74 40.69,3.73 40.63,3.71 L40.61,3.72 C40.63,3.78 40.64,3.86 40.64,3.97 L40.64,10 L39.87,10 L39.87,3.97 C39.87,3.86 39.88,3.78 39.9,3.72 L39.88,3.71 C39.82,3.73 39.75,3.74 39.63,3.74 L37.78,3.74 L37.78,3 L42.73,3 Z" id="TESTNET" fill="#FFFFFF"></path>
                </g>
            </g>
        </g>
    </g>
</svg>