<svg xmlns="http://www.w3.org/2000/svg" width="20" height="20" viewBox="0 0 20 20">
  <path fill="#007AFF" fill-rule="evenodd" fill-opacity="0.7" d="M3.75863636,6.28659091 C3.77909091,6.08545455 3.70204545,5.88704545 3.55204545,5.75204545 L2.02477273,3.91113636 L2.02477273,3.63636364 L6.76886364,3.63636364 L10.4356818,11.6784091 L13.6593182,3.63636364 L18.1818182,3.63636364 L18.1818182,3.91113636 L16.8754545,5.16363636 C16.7629545,5.24954545 16.7070455,5.39068182 16.7302273,5.53045455 L16.7302273,14.7336364 C16.7070455,14.8727273 16.7629545,15.0138636 16.8754545,15.0997727 L18.1511364,16.3522727 L18.1511364,16.6270455 L11.7338636,16.6270455 L11.7338636,16.3522727 L13.0559091,15.0690909 C13.1854545,14.9395455 13.1854545,14.9013636 13.1854545,14.7029545 L13.1854545,7.26431818 L9.51113636,16.5970455 L9.01477273,16.5970455 L4.73636364,7.26431818 L4.73636364,13.5193182 C4.70090909,13.7818182 4.78818182,14.0470455 4.97295455,14.2365909 L6.69181818,16.3215909 L6.69181818,16.5970455 L1.81818182,16.5970455 L1.81818182,16.3215909 L3.53704545,14.2365909 C3.72113636,14.0463636 3.80295455,13.7797727 3.75863636,13.5193182 L3.75863636,6.28659091 L3.75863636,6.28659091 Z"/>
</svg>
