<svg xmlns="http://www.w3.org/2000/svg" width="16" height="14" viewBox="0 0 16 14">
  <path fill="#BDC1D1" d="M14.9991283,14 L1.00087166,14 C0.444630861,14 0,13.5522847 0,13 C0,12.4438648 0.448105505,12 1.00087166,12 L14.9991283,12 C15.5553691,12 16,12.4477153 16,13 C16,13.5561352 15.5518945,14 14.9991283,14 Z M14.9991283,8 L1.00087166,8 C0.444630861,8 0,7.55228475 0,7 C0,6.44386482 0.448105505,6 1.00087166,6 L14.9991283,6 C15.5553691,6 16,6.44771525 16,7 C16,7.55613518 15.5518945,8 14.9991283,8 Z M0,1 C0,0.443864822 0.448105505,0 1.00087166,0 L14.9991283,0 C15.5553691,0 16,0.44771525 16,1 C16,1.55613518 15.5518945,2 14.9991283,2 L1.00087166,2 C0.444630861,2 0,1.55228475 0,1 Z"/>
</svg>
