<?xml version="1.0" encoding="UTF-8"?>
<svg width="12px" height="12px" viewBox="0 0 12 12" version="1.1" xmlns="http://www.w3.org/2000/svg" xmlns:xlink="http://www.w3.org/1999/xlink">
    <!-- Generator: Sketch 58 (84663) - https://sketch.com -->
    <title>挖矿@3x</title>
    <desc>Created with Sketch.</desc>
    <g id="页面-1" stroke="none" stroke-width="1" fill="none" fill-rule="evenodd" fill-opacity="0.7">
        <g id="首页-copy-13备份-16" transform="translate(-163.000000, -184.000000)" fill="#007AFF" fill-rule="nonzero">
            <g id="交易中心" transform="translate(80.000000, 57.000000)">
                <g id="交易对-0111-copy备份" transform="translate(6.000000, 125.000000)">
                    <g id="挖矿" transform="translate(77.000000, 2.000000)">
                        <path d="M3.14470137,6.49055352 C3.24924606,6.42447274 3.38273674,6.46404988 3.44286116,6.57895154 C3.50298557,6.69385321 3.46697582,6.84056847 3.36243113,6.90664925 L3.36243113,6.90664925 L2.59923864,7.38904925 C2.49469395,7.45513004 2.36120327,7.4155529 2.30107885,7.30065123 C2.24095444,7.18574957 2.27696419,7.03903431 2.38150888,6.97295352 L2.38150888,6.97295352 Z M2.16810362,5.2236037 C2.57696682,5.28031893 2.84957887,5.31843428 2.98593977,5.33764975 C3.0908935,5.35243943 3.16642226,5.47120952 3.15463798,5.60293016 C3.1428537,5.7346508 3.04821885,5.82944207 2.94326513,5.81465239 C2.80712375,5.79546786 2.53473127,5.7573832 2.12608766,5.70069843 C2.02111367,5.68613703 1.94542103,5.56753138 1.95702342,5.4357853 C1.96862581,5.30403923 2.06312963,5.20904229 2.16810362,5.2236037 Z M4.73337959,6.17630236 C4.75199565,6.19068749 4.76891933,6.20761118 4.78415065,6.22538105 L6.55013741,8.31884115 C6.67029559,8.46184631 6.88438023,8.48046237 7.02738539,8.359458 C7.04177052,8.34676524 7.05615566,8.3323801 7.06800224,8.31714879 L7.63579194,7.63766275 C7.75595012,7.49381141 7.96918858,7.47434917 8.11303992,7.59366116 C8.13080979,7.60804629 8.14688729,7.62581617 8.16127243,7.64358604 L10.3664289,10.4266864 C10.4823561,10.5730763 10.4578168,10.7863147 10.3105807,10.902242 C10.2505016,10.9513207 10.1751912,10.9767062 10.0973422,10.9758805 L1.33510321,10.8853183 C1.14809646,10.8836259 0.998321833,10.7304666 1,10.5426136 C1.00086039,10.4689956 1.02539973,10.3970699 1.07109369,10.3386832 L4.25782398,6.23638145 C4.37290506,6.08829919 4.58529733,6.06206747 4.73337959,6.17630236 Z M9.77113817,1.01542396 C10.0436095,1.07296449 10.1747681,1.38859126 9.986069,1.52990405 C9.81006265,1.66360117 9.08403647,1.846377 8.41301228,2.19415877 C8.10753972,2.35154906 7.79783625,2.56394133 7.4813633,2.83048941 C7.47374764,2.90833837 7.43990026,2.98280259 7.38235973,3.04034313 L10.8974096,7.70620368 C11.0666464,7.92959635 11.0217987,8.24776167 10.7975598,8.41699854 L10.6723245,8.51177119 C10.4480857,8.68100806 10.1290742,8.63531411 9.96068347,8.41192143 L6.44732601,3.74859943 C6.36439994,3.81121708 6.26285782,3.82983313 6.16893136,3.80867852 C5.83976564,4.03291738 5.5605248,4.26561808 5.33205503,4.5076268 C4.81334401,5.05680045 4.43679197,5.70413149 4.26078563,5.83698243 C4.07208652,5.9791414 3.80469226,5.76590295 3.82500068,5.48835448 C3.8563095,5.05256953 4.46302369,4.10653542 4.78795848,3.68259705 C4.99865839,3.40843332 5.22035869,3.16219367 5.45475176,2.94218574 C5.42682767,2.81695046 5.47252163,2.68240714 5.58083323,2.60032726 L5.4792911,2.46493776 C5.31090042,2.24154509 5.354902,1.92253359 5.57914086,1.7541429 L5.70606851,1.65937025 C5.92946118,1.49013338 6.2476265,1.53498115 6.41601719,1.75837382 L6.52009786,1.89630187 C6.62417854,1.83791515 6.74856764,1.83960752 6.84926358,1.8946095 C7.13188916,1.72452645 7.43820789,1.57390563 7.76991216,1.44359324 C8.26662238,1.24812465 9.34381507,0.925728414 9.77113817,1.01542396 Z"></path>
                    </g>
                </g>
            </g>
        </g>
    </g>
</svg>