<?xml version="1.0" encoding="UTF-8"?>
<svg width="12px" height="12px" viewBox="0 0 12 12" version="1.1" xmlns="http://www.w3.org/2000/svg" xmlns:xlink="http://www.w3.org/1999/xlink">
    <!-- Generator: Sketch 58 (84663) - https://sketch.com -->
    <title>形状结合</title>
    <desc>Created with Sketch.</desc>
    <g id="页面-1" stroke="none" stroke-width="1" fill="none" fill-rule="evenodd">
        <g id="挖矿标示&amp;区域" transform="translate(-163.000000, -244.000000)">
            <g id="交易中心" transform="translate(80.000000, 57.000000)">
                <g id="交易对-0111-copy-6备份" transform="translate(6.000000, 185.000000)">
                    <g id="mining备份-2" transform="translate(77.000000, 2.000000)">
                        <g id="编组">
                            <rect id="矩形" x="0" y="0" width="12" height="12"></rect>
                            <path d="M6.72561077,0.30167809 C6.77348783,0.298223175 6.8265504,0.309000974 6.89362997,0.341380398 L6.87208047,0.327100268 L6.90861224,0.34709819 L6.93366049,0.365570247 L6.97296648,0.405703707 L6.99298051,0.432206387 L7.02159244,0.491692997 L7.03485108,0.547442033 C7.04494031,0.62213152 7.02480885,0.697759315 6.97892253,0.757548597 C6.93456591,0.815344712 6.86964217,0.853774753 6.79770548,0.864890208 C6.21062135,1.03537972 5.5723635,1.37397522 4.99943194,1.82006129 C4.51652315,2.19760208 4.14509781,2.60621873 4.03810734,2.83955036 C4.01214587,2.8962466 4.07212322,3.01726282 4.1329206,3.08464848 L9.15589798,8.10574441 C9.20923505,8.15882462 9.23922119,8.23097117 9.23922119,8.30621977 C9.23922119,8.38146837 9.20923505,8.45361493 9.15817254,8.50437358 C9.10563472,8.55937067 9.03292369,8.59053859 8.95619162,8.59066423 C8.8816683,8.59039751 8.81016675,8.561173 8.75560995,8.50799793 L3.86543001,3.61831707 L3.61440184,3.86934523 L9.76084779,10.0149587 L10.0118633,9.76394316 L9.32343535,9.07582323 C9.27021657,9.02271716 9.24030907,8.95062218 9.24030907,8.87543911 C9.24030907,8.80025603 9.27021657,8.72816106 9.32326891,8.67522138 C9.37637032,8.62203808 9.44844045,8.59215312 9.52359512,8.59215312 C9.59874978,8.59215312 9.67081992,8.62203808 9.72385475,8.67515475 L10.5682978,9.52088424 L11.0438936,9.99829158 C11.0971124,10.0513977 11.1270199,10.1234926 11.1270199,10.1986757 C11.1270199,10.2738588 11.0971124,10.3459538 11.0439856,10.3989679 L10.390685,11.0521727 C10.3381335,11.1027693 10.2681223,11.1311958 10.1934771,11.1315531 C10.1194649,11.130942 10.0485034,11.101979 9.99349261,11.0489494 L3.06865978,4.12417977 L3.00912691,4.08259756 C2.95919535,4.05275076 2.91187805,4.03552936 2.87564893,4.03507596 C2.86202582,4.03490547 2.85075939,4.03710375 2.84093454,4.04160259 C2.60765389,4.14847338 2.19907509,4.51988015 1.82148015,5.00280238 C1.36728232,5.58460406 1.02466703,6.23523455 0.856945825,6.83371394 C0.846158479,6.87055548 0.828192594,6.90456253 0.799481631,6.93947756 L0.774230734,6.96548613 L0.728852258,6.99872688 C0.705934227,7.01195369 0.678804625,7.02289042 0.642951738,7.03221609 L0.582960219,7.03938668 C0.554355638,7.03938668 0.527169334,7.03559969 0.506378494,7.02834854 C0.481769176,7.02144463 0.458271205,7.01126088 0.436488399,6.99810595 L0.402550535,6.97366706 L0.353107775,6.92078583 L0.332419315,6.88757091 L0.308469855,6.82490252 L0.301010766,6.77535926 L0.30079018,6.73361748 L0.303826485,6.70796663 L0.339457248,6.55284643 C0.509272801,5.87076689 0.923651858,4.80813505 1.58980962,3.75959271 C2.14682085,2.88309841 2.80714963,2.15322469 3.54928326,1.59429184 C4.47469688,0.89786631 5.5307141,0.464675468 6.71177757,0.306979111 L6.68828571,0.307714286 L6.72561077,0.30167809 Z M10.3017085,10.0571814 L10.0523754,10.3065145 L10.1930483,10.4472501 L10.4424271,10.1979078 L10.3017085,10.0571814 Z M3.9938652,1.96550371 L3.76249661,2.14057294 C3.22941142,2.56331264 2.74383436,3.08570926 2.3075319,3.70656829 C2.41281603,3.62933437 2.51231066,3.56860589 2.60298979,3.52721423 C2.8153996,3.42884166 3.02698457,3.45431183 3.22178272,3.55161788 L3.30419334,3.59756697 L3.59480025,3.30680502 C3.46110099,3.09074474 3.41115191,2.84751747 3.52357386,2.60370158 C3.60810109,2.41940509 3.77357476,2.19765469 3.9938652,1.96550371 Z" id="形状结合" fill="#007AFF" fill-rule="nonzero"></path>
                            <path d="M10.2062432,0.498248549 L10.4521331,0.545268336 L10.6906186,0.602606931 C10.9221034,0.663880901 11.0983204,0.725303841 11.2120815,0.771670446 C11.2815878,0.800700256 11.3375067,0.855849373 11.3634657,0.92113762 C11.4396585,1.08976099 11.5660349,1.49488322 11.638358,1.93034595 C11.7664096,2.70308914 11.6943648,3.40910726 11.4263549,3.97455844 C11.4123025,4.0025116 11.393976,4.02810175 11.3712301,4.05121816 L9.08064151,6.33876985 C9.02699008,6.39296052 8.9535988,6.42298942 8.87861437,6.42197424 C8.80407497,6.42170524 8.73255771,6.39246737 8.6780471,6.33930399 L7.76207619,5.42363916 L3.54188323,9.64386104 C3.52270646,10.194846 3.33171808,10.738948 2.84448487,11.0799553 C2.79683639,11.1136494 2.73988494,11.1316835 2.68129251,11.1315575 C2.60686381,11.1312605 2.53545011,11.1021127 2.48075793,11.048949 L1.08440402,9.6525945 C0.987402603,9.55511688 0.974250824,9.40211785 1.0531362,9.28959835 C1.39546034,8.80050563 1.94134693,8.60985531 2.49238562,8.59154529 L6.711057,4.36936418 L5.79590027,3.45563973 C5.74268149,3.40253366 5.71277399,3.33043868 5.71277399,3.25525561 C5.71277399,3.18007253 5.74268149,3.10797756 5.79580385,3.05496781 L8.08521982,0.765552429 C8.10918989,0.741459436 8.13580875,0.722094947 8.16478518,0.70907754 C8.72738053,0.442361743 9.43335323,0.370303048 10.2062432,0.498248549 Z M2.60201504,9.15836138 L2.56501483,9.15815006 C2.29545221,9.16123332 2.01273242,9.22069465 1.78591616,9.36411261 L1.67748639,9.44294566 L2.6905789,10.4560382 C2.75769436,10.3751282 2.81260097,10.2811264 2.8561905,10.176025 C2.93059797,9.9966164 2.96442381,9.81272166 2.97322552,9.65590359 L2.97500375,9.53122024 L2.60201504,9.15836138 Z M8.36079309,3.77383566 L8.10741066,3.77650863 L2.95530799,8.92753215 L3.20634174,9.1785659 L7.57286833,4.80872964 L7.58035502,4.80456198 L8.3571943,4.02883581 L8.36079309,3.77383566 Z M9.93704613,1.03463578 C9.45451838,0.974602105 9.00503082,1.00176648 8.61351891,1.13762838 L8.44935031,1.20257254 L6.39741093,3.25451193 L7.1132672,3.97060425 L7.78916786,3.29542707 C7.82887794,3.25580471 7.87915886,3.22920845 7.93273632,3.21838797 L7.98714321,3.21292794 L8.64793871,3.20514269 L8.70436885,3.21055235 C8.75815294,3.22128945 8.80827669,3.24776228 8.85056573,3.28775124 C8.89166754,3.32885305 8.91911576,3.38127187 8.92911837,3.43630813 L8.93316533,3.49189467 L8.92539797,4.14965734 C8.92539797,4.20461885 8.90875569,4.25786347 8.877927,4.30479479 L8.84246046,4.34945144 L8.16361445,5.02434623 L8.87770797,5.73794031 L10.9215207,3.70497712 C11.1200151,3.27270172 11.1677682,2.75646135 11.0982842,2.1958536 C11.0543949,1.84174822 10.970962,1.51628393 10.8790023,1.25468485 C10.6136684,1.16161781 10.2909339,1.07866472 9.93704613,1.03463578 Z" id="形状结合" fill="#007AFF" fill-rule="nonzero"></path>
                            <path d="M7.7621984,5.09893576 C7.74203058,5.09893576 7.72179954,5.09115946 7.7078907,5.07567007 L7.05638792,4.42410407 C7.04150165,4.40965074 7.03310125,4.38978619 7.03310125,4.3690377 C7.03310125,4.34828921 7.04150165,4.32842466 7.05638792,4.31397133 C7.07083028,4.29908869 7.09068443,4.29068968 7.11142268,4.29068968 C7.13216092,4.29068968 7.15201507,4.29908869 7.16645743,4.31397133 L7.81802343,4.96553733 C7.84900222,4.99651611 7.84900222,5.04462806 7.81802343,5.07567007 C7.80089027,5.09115946 7.78078567,5.09893576 7.7621984,5.09893576 L7.7621984,5.09893576 Z" id="路径" stroke="#007AFF" stroke-width="0.3" fill="#007AFF" fill-rule="nonzero"></path>
                            <path d="M9.92148281,2.29118323 C9.90131499,2.29118323 9.88108395,2.28340692 9.86717511,2.26785431 C9.85232484,2.2533944 9.84394843,2.23354682 9.84394843,2.21281955 C9.84394843,2.19209229 9.85232484,2.1722447 9.86717511,2.1577848 L11.0460759,0.978820817 C11.0605292,0.963934545 11.0803937,0.955534152 11.1011422,0.955534152 C11.1218907,0.955534152 11.1417553,0.963934545 11.1562086,0.978820817 C11.1872506,1.0097996 11.1872506,1.05791155 11.1562086,1.08889033 L9.97730785,2.26791753 C9.9602379,2.28340692 9.94165063,2.29118323 9.92148281,2.29118323 Z" id="路径" stroke="#007AFF" stroke-width="0.3" fill="#007AFF" fill-rule="nonzero"></path>
                        </g>
                    </g>
                </g>
            </g>
        </g>
    </g>
</svg>