<?xml version="1.0" encoding="UTF-8"?>
<svg width="1350px" height="62px" viewBox="0 0 1350 62" version="1.1" xmlns="http://www.w3.org/2000/svg" xmlns:xlink="http://www.w3.org/1999/xlink">
    <!-- Generator: Sketch 55.2 (78181) - https://sketchapp.com -->
    <title>挖矿_bg</title>
    <desc>Created with Sketch.</desc>
    <defs>
        <rect id="path-1" x="0" y="0" width="1350" height="62" rx="2"></rect>
    </defs>
    <g id="页面1" stroke="none" stroke-width="1" fill="none" fill-rule="evenodd">
        <g id="挖矿-copy-31备份" transform="translate(-80.000000, -440.000000)">
            <g id="编组" transform="translate(80.000000, 440.000000)">
                <mask id="mask-2" fill="white">
                    <use xlink:href="#path-1"></use>
                </mask>
                <rect stroke="#F3F7FB" x="0.5" y="0.5" width="1349" height="61" rx="2"></rect>
                <path d="M498.012379,-66.5 C392.830914,67.1685662 382.501786,164.99156 466.830146,227.191384 C594.546938,321.394118 756.76658,325.394306 867.072033,235.780533 C891.370836,216.039828 919.066837,203.678772 952.471716,196.340497 C977.950849,190.743324 999.50373,188.668849 1047.90331,185.922213 C1082.29505,183.970512 1096.99455,182.89484 1115.88465,180.555562 C1178.88731,172.75355 1226.82488,154.522045 1270.28946,116.623142 C1357.44755,40.6257089 1312.7322,-20.2892125 1135.43616,-66.5 L498.012379,-66.5 Z" id="wave" stroke-opacity="0.02" stroke="#007AFF" fill-opacity="0.2" fill="#EAF8FF" fill-rule="nonzero" mask="url(#mask-2)" transform="translate(862.000000, 117.000000) scale(-1, -1) translate(-862.000000, -117.000000) "></path>
                <path d="M33.2616993,-3.59409982 C-18.1448427,62.0811506 -23.1695313,111.920361 18.0232437,146.122202 C80.5121632,198.005963 159.85028,200.208238 213.802589,150.868058 C225.743491,139.947927 239.355891,133.109029 255.767689,129.050645 C268.275249,125.957718 278.848156,124.812178 302.582856,123.29598 C319.429275,122.219812 326.628104,121.626816 335.875791,120.337695 C366.695945,116.041387 390.134072,106.007196 411.390685,85.1431668 C453.943626,43.3761273 432.157907,9.94829202 345.464737,-15.4972545 L33.2616993,-3.59409982 Z" id="wave" stroke-opacity="0.02" stroke="#007AFF" fill-opacity="0.2" fill="#EAF8FF" fill-rule="nonzero" mask="url(#mask-2)" transform="translate(211.500000, 85.500000) scale(1, -1) translate(-211.500000, -85.500000) "></path>
            </g>
        </g>
    </g>
</svg>