<?xml version="1.0" encoding="UTF-8"?>
<svg width="14px" height="14px" viewBox="0 0 14 14" version="1.1" xmlns="http://www.w3.org/2000/svg" xmlns:xlink="http://www.w3.org/1999/xlink">
    <!-- Generator: Sketch 55.2 (78181) - https://sketchapp.com -->
    <title>注意</title>
    <desc>Created with Sketch.</desc>
    <g id="页面1" stroke="none" stroke-width="1" fill="none" fill-rule="evenodd">
        <g id="弹窗新修改" transform="translate(-112.000000, -321.000000)" fill="#FFC800">
            <g id="开通交易对备份">
                <g id="注意" transform="translate(112.000000, 321.000000)">
                    <path d="M7.38830585,7.73463268 C7.38830585,8.16491754 7.20989505,8.51124438 7,8.51124438 C6.79010495,8.51124438 6.61169415,8.16491754 6.61169415,7.73463268 L6.22338793,4.28185907 C6.22296852,3.85293853 6.57034483,3.50493253 6.99926537,3.50451236 C7.42818591,3.50409295 7.7761919,3.85157421 7.77661169,4.28038981 L7.77661169,4.28185907 L7.38830585,7.73463268 Z M7,10.8830585 C6.57107946,10.8830585 6.22338831,10.5353673 6.22338831,10.1064468 C6.22338831,9.67752624 6.57107946,9.32983508 7,9.32983508 C7.42892054,9.32983508 7.77661169,9.67752624 7.77661169,10.1064468 C7.77661169,10.5353673 7.42892054,10.8830585 7,10.8830585 L7,10.8830585 Z M7,0 C3.13394303,0 0,3.13404798 0,7 C0,10.865952 3.13394303,14 7,14 C10.865952,14 14,10.865952 14,7 C14,3.13404798 10.865952,0 7,0 L7,0 Z" id="Fill-1"></path>
                </g>
            </g>
        </g>
    </g>
</svg>