<?xml version="1.0" encoding="UTF-8"?>
<svg width="12px" height="12px" viewBox="0 0 12 12" version="1.1" xmlns="http://www.w3.org/2000/svg" xmlns:xlink="http://www.w3.org/1999/xlink">
    <!-- Generator: Sketch 58 (84663) - https://sketch.com -->
    <title>挂单挖矿</title>
    <desc>Created with Sketch.</desc>
    <g id="页面-1" stroke="none" stroke-width="1" fill="none" fill-rule="evenodd">
        <g id="挖矿标示&amp;区域" transform="translate(-163.000000, -164.000000)">
            <g id="交易中心" transform="translate(80.000000, 57.000000)">
                <g id="交易对-0111-copy" transform="translate(6.000000, 105.000000)">
                    <g id="mining备份-2" transform="translate(77.000000, 2.000000)">
                        <g id="编组">
                            <rect id="矩形" x="0" y="0" width="12" height="12"></rect>
                            <path d="M7.02482059,0.30167809 C7.07269765,0.298223175 7.12576022,0.309000974 7.19283979,0.341380398 L7.17129029,0.327100268 L7.20782206,0.34709819 L7.23287031,0.365570247 L7.2721763,0.405703707 L7.29219033,0.432206387 L7.32080226,0.491692997 L7.3340609,0.547442033 C7.34415013,0.62213152 7.32401867,0.697759315 7.27813235,0.757548597 C7.23377573,0.815344712 7.16885199,0.853774753 7.0969153,0.864890208 C6.50983117,1.03537972 5.87157332,1.37397522 5.29864176,1.82006129 C4.81573297,2.19760208 4.44430763,2.60621873 4.33731716,2.83955036 C4.31135569,2.8962466 4.37133304,3.01726282 4.43213042,3.08464848 L9.4551078,8.10574441 C9.50844487,8.15882462 9.53843101,8.23097117 9.53843101,8.30621977 C9.53843101,8.38146837 9.50844487,8.45361493 9.45738236,8.50437358 C9.40484454,8.55937067 9.33213351,8.59053859 9.25540144,8.59066423 C9.18087812,8.59039751 9.10937657,8.561173 9.05481977,8.50799793 L4.16463983,3.61831707 L3.91361166,3.86934523 L10.0600576,10.0149587 L10.3110731,9.76394316 L9.62264517,9.07582323 C9.56942639,9.02271716 9.53951889,8.95062218 9.53951889,8.87543911 C9.53951889,8.80025603 9.56942639,8.72816106 9.62247873,8.67522138 C9.67558014,8.62203808 9.74765027,8.59215312 9.82280494,8.59215312 C9.8979596,8.59215312 9.97002974,8.62203808 10.0230646,8.67515475 L10.8675076,9.52088424 L11.3431034,9.99829158 C11.3963222,10.0513977 11.4262297,10.1234926 11.4262297,10.1986757 C11.4262297,10.2738588 11.3963222,10.3459538 11.3431954,10.3989679 L10.6898948,11.0521727 C10.6373433,11.1027693 10.5673322,11.1311958 10.4926869,11.1315531 C10.4186747,11.130942 10.3477133,11.101979 10.2927024,11.0489494 L3.3678696,4.12417977 L3.30833673,4.08259756 C3.25840517,4.05275076 3.21108787,4.03552936 3.17485876,4.03507596 C3.16123564,4.03490547 3.14996921,4.03710375 3.14014436,4.04160259 C2.90686371,4.14847338 2.49828491,4.51988015 2.12068997,5.00280238 C1.66649214,5.58460406 1.32387685,6.23523455 1.15615565,6.83371394 C1.1453683,6.87055548 1.12740241,6.90456253 1.09869145,6.93947756 L1.07344055,6.96548613 L1.02806208,6.99872688 C1.00514405,7.01195369 0.978014445,7.02289042 0.942161558,7.03221609 L0.88217004,7.03938668 C0.853565458,7.03938668 0.826379154,7.03559969 0.805588314,7.02834854 C0.780978997,7.02144463 0.757481026,7.01126088 0.735698219,6.99810595 L0.701760355,6.97366706 L0.652317596,6.92078583 L0.631629135,6.88757091 L0.607679676,6.82490252 L0.600220586,6.77535926 L0.6,6.73361748 L0.603036305,6.70796663 L0.638667068,6.55284643 C0.808482621,5.87076689 1.22286168,4.80813505 1.88901944,3.75959271 C2.44603067,2.88309841 3.10635945,2.15322469 3.84849308,1.59429184 C4.7739067,0.89786631 5.82992392,0.464675468 7.01098739,0.306979111 L6.98749553,0.307714286 L7.02482059,0.30167809 Z M10.6009184,10.0571814 L10.3515852,10.3065145 L10.4922581,10.4472501 L10.7416369,10.1979078 L10.6009184,10.0571814 Z M4.29307502,1.96550371 L4.06170643,2.14057294 C3.52862124,2.56331264 3.04304418,3.08570926 2.60674172,3.70656829 C2.71202585,3.62933437 2.81152048,3.56860589 2.90219961,3.52721423 C3.11460942,3.42884166 3.32619439,3.45431183 3.52099254,3.55161788 L3.60340316,3.59756697 L3.89401007,3.30680502 C3.76031081,3.09074474 3.71036173,2.84751747 3.82278368,2.60370158 C3.90731091,2.41940509 4.07278458,2.19765469 4.29307502,1.96550371 Z" id="形状结合" fill="#007AFF" fill-rule="nonzero" transform="translate(6.013115, 5.716307) rotate(3.000000) translate(-6.013115, -5.716307) "></path>
                            <path d="M3.29968295,6.17142857 C4.7886716,6.17142857 6,7.38274565 6,8.87188151 C6,10.3605644 4.7886716,11.5718702 3.29968295,11.5718702 C1.81101134,11.5718702 0.6,10.3605644 0.6,8.87188151 C0.6,7.38273433 1.81101134,6.17142857 3.29968295,6.17142857 Z M3.29968295,6.81544501 C2.16604416,6.81544501 1.24402776,7.73776714 1.24402776,8.87188151 C1.24402776,10.0052259 2.16604416,10.9278537 3.29968295,10.9278537 C4.43363879,10.9278537 5.35598356,10.0052259 5.35598356,8.87188151 C5.35598356,7.73776714 4.43363879,6.81544501 3.29968295,6.81544501 Z M3.25941707,7.38241726 C3.43742037,7.38241726 3.58143095,7.52645048 3.58143095,7.70443115 L3.58143095,8.56243656 L4.73742204,8.56243656 C4.91540271,8.56243656 5.05943593,8.70646978 5.05943593,8.88445045 C5.05943593,9.06245375 4.91540271,9.20646432 4.73742204,9.20646432 L3.25941706,9.20646432 C3.08144771,9.20646432 2.93740317,9.06245375 2.93740317,8.88445044 L2.93740317,7.70443115 C2.93740317,7.52645048 3.08144772,7.38241726 3.25941707,7.38241726 Z" id="形状结合" fill="#007AFF" fill-rule="nonzero"></path>
                        </g>
                    </g>
                </g>
            </g>
        </g>
    </g>
</svg>