<svg xmlns="http://www.w3.org/2000/svg" width="30" height="30" viewBox="0 0 30 30">
  <g fill="none" fill-rule="evenodd">
    <path fill="#BDC1D1" d="M28.3121576,6.55670103 C28.3121576,4.59793814 23.8276215,3 18.3121576,3 C12.7966937,3 8.31215757,4.59793814 8.31215757,6.55670103 L8.31215757,7.79381443 C8.31215757,9.75257732 12.7966937,11.3505155 18.3121576,11.3505155 C23.8276215,11.3505155 28.3121576,9.75257732 28.3121576,7.79381443 L28.3121576,6.55670103 Z M8.31215757,10.6804124 C8.31215757,12.2268041 12.7966937,13.4639175 18.3121576,13.4639175 C23.8276215,13.4639175 28.3121576,12.2268041 28.3121576,10.6804124 L28.3121576,13.2061856 C28.3121576,15.1649485 23.8276215,16.7628866 18.3121576,16.7628866 C12.7966937,16.7628866 8.31215757,15.1649485 8.31215757,13.2061856 L8.31215757,10.6804124 Z M8.31215757,16.0927835 C8.31215757,17.6391753 12.7966937,18.8762887 18.3121576,18.8762887 C23.8276215,18.8762887 28.3121576,17.6391753 28.3121576,16.0927835 L28.3121576,18.6185567 C28.3121576,20.5773196 23.8276215,22.1752577 18.3121576,22.1752577 C12.7966937,22.1752577 8.31215757,20.628866 8.31215757,18.6701031 L8.31215757,16.0927835 Z M8.31215757,21.556701 C8.31215757,23.1030928 12.7966937,24.3402062 18.3121576,24.3402062 C23.8276215,24.3402062 28.3121576,23.1030928 28.3121576,21.556701 L28.3121576,24.0824742 C28.3121576,26.0412371 23.8276215,27.6391753 18.3121576,27.6391753 C12.7966937,27.6391753 8.31215757,26.0412371 8.31215757,24.0824742 L8.31215757,21.556701 Z"/>
    <g transform="translate(0 9.7)">
      <path fill="#BDC1D1" d="M9.09803922,0.69984917 C4.47903469,0.69984917 0.69984917,4.47903469 0.69984917,9.09803922 C0.69984917,13.7170437 4.47903469,17.4962293 9.09803922,17.4962293 C13.7170437,17.4962293 17.4962293,13.7170437 17.4962293,9.09803922 C17.4962293,4.47903469 13.7170437,0.69984917 9.09803922,0.69984917 Z"/>
      <path fill="#FFF" d="M9.09803922,15.1101056 C5.79140271,15.1101056 3.08597285,12.4046757 3.08597285,9.09803922 C3.08597285,5.79140271 5.79140271,3.08597285 9.09803922,3.08597285 C12.4046757,3.08597285 15.1101056,5.79140271 15.1101056,9.09803922 C15.1101056,12.4046757 12.4046757,15.1101056 9.09803922,15.1101056 Z"/>
      <path fill="#BDC1D1" d="M10.2877828,9.16802413 C10.1828054,9.06304676 10.147813,8.92307692 10.147813,8.78310709 L10.147813,5.42383107 C10.147813,5.1438914 9.90286576,4.89894419 9.62292609,4.89894419 L8.57315234,4.89894419 C8.29321267,4.89894419 8.04826546,5.1438914 8.04826546,5.42383107 L8.04826546,9.65791855 C8.04826546,9.79788839 8.11825038,9.93785822 8.18823529,10.0428356 L10.7776772,12.6322775 C10.987632,12.8422323 11.3025641,12.8422323 11.5125189,12.6322775 L12.2473605,11.8974359 C12.4573152,11.6874811 12.4573152,11.372549 12.2473605,11.1625943 L10.2877828,9.16802413 Z"/>
    </g>
  </g>
</svg>
