<svg xmlns="http://www.w3.org/2000/svg" width="20" height="20" viewBox="0 0 20 20">
  <path fill="#007AFF" fill-rule="evenodd" fill-opacity="0.7" d="M19.5959596,9.74409722 C19.5959596,8.48357797 18.5613952,7.4584596 17.2893308,7.4584596 C16.7387626,7.4584596 16.2331755,7.65097854 15.8361427,7.97139362 C14.4297348,7.09546244 12.6448864,6.56768466 10.7316919,6.45598169 L11.7296717,3.32949811 L14.4723169,3.9695786 C14.5442866,4.95901199 15.3791351,5.7422822 16.3957071,5.7422822 C17.4590593,5.7422822 18.3244949,4.88479324 18.3244949,3.83043718 C18.3244949,2.77683081 17.4590593,1.91919192 16.3957071,1.91919192 C15.6520202,1.91919192 15.0054924,2.33871528 14.683428,2.95150726 L11.4963699,2.20797033 C11.2294823,2.14559659 10.959596,2.29778251 10.8768308,2.55687342 L9.63775253,6.43753946 C7.57642045,6.48746843 5.63863636,7.01689552 4.12907197,7.94410511 C3.73743687,7.64048295 3.24504419,7.45860953 2.71066919,7.45860953 C1.4386048,7.4584596 0.404040404,8.48357797 0.404040404,9.74409722 C0.404040404,10.5231692 0.799873737,11.2119792 1.40261995,11.6244555 C1.37743056,11.8057292 1.36423611,11.9882023 1.36423611,12.1729246 C1.36423611,13.7483112 2.28844697,15.2137942 3.9665404,16.2990372 C5.57506313,17.3395991 7.70416667,17.9125079 9.96101641,17.9125079 C12.2178662,17.9125079 14.3469697,17.3395991 15.9554924,16.2990372 C17.6335859,15.2139441 18.5577967,13.7484612 18.5577967,12.1729246 C18.5577967,12.0046954 18.5464015,11.8378157 18.5254104,11.6719855 C19.1683396,11.2659564 19.5959596,10.5534564 19.5959596,9.74409722 M16.3957071,2.95795455 C16.8815025,2.95795455 17.2767361,3.34958965 17.2767361,3.83028725 C17.2767361,4.3115846 16.8815025,4.7032197 16.3957071,4.7032197 C15.9099116,4.7032197 15.514678,4.3115846 15.514678,3.83028725 C15.514678,3.34958965 15.9099116,2.95795455 16.3957071,2.95795455 M5.84614899,11.157852 C5.84614899,10.4477509 6.44769571,9.85160196 7.16439394,9.85160196 C7.88169192,9.85160196 8.46344697,10.447601 8.46344697,11.157852 C8.46344697,11.8685527 7.88169192,12.44506 7.16439394,12.44506 C6.44769571,12.44506 5.84614899,11.8685527 5.84614899,11.157852 M13.1594697,14.943458 C12.491351,15.6048295 11.4609848,15.9264441 10.009596,15.9264441 C10.0065972,15.9264441 10.0029987,15.9258444 9.99940025,15.9258444 C9.99640152,15.9258444 9.99280303,15.9264441 9.98920455,15.9264441 C8.53781566,15.9264441 7.50804924,15.6049795 6.8405303,14.943458 C6.63541667,14.7401436 6.63541667,14.4116319 6.8405303,14.2089173 C7.04504419,14.0062027 7.37670455,14.0062027 7.58181818,14.2089173 C8.04242424,14.6653251 8.82989268,14.8875316 9.98920455,14.8875316 C9.99280303,14.8875316 9.99640152,14.8881313 9.99940025,14.8881313 C10.0029987,14.8881313 10.0065972,14.8875316 10.009596,14.8875316 C11.1689078,14.8875316 11.956976,14.6653251 12.4181818,14.2089173 C12.6232955,14.0056029 12.9549558,14.0062027 13.1594697,14.2089173 C13.3639836,14.4120818 13.3639836,14.7407434 13.1594697,14.943458 M12.854798,12.44506 C12.1375,12.44506 11.5347538,11.8685527 11.5347538,11.157852 C11.5347538,10.4471512 12.1375,9.85160196 12.854798,9.85160196 C13.572096,9.85160196 14.153851,10.4470013 14.153851,11.157852 C14.153851,11.8685527 13.572096,12.44506 12.854798,12.44506"/>
</svg>
