<?xml version="1.0" encoding="UTF-8"?>
<svg width="30px" height="30px" viewBox="0 0 30 30" version="1.1" xmlns="http://www.w3.org/2000/svg" xmlns:xlink="http://www.w3.org/1999/xlink">
    <!-- Generator: Sketch 52.2 (67145) - http://www.bohemiancoding.com/sketch -->
    <title>SBP默认</title>
    <desc>Created with Sketch.</desc>
    <g id="Page-1" stroke="none" stroke-width="1" fill="none" fill-rule="evenodd">
        <g id="投票" transform="translate(-46.000000, -315.000000)">
            <g id="SBP" transform="translate(46.000000, 315.000000)">
                <path d="M25,27 L5,27 C3.896,27 3,26.104 3,25 L3,5 C3,3.896 3.896,3 5,3 L25,3 C26.104,3 27,3.896 27,5 L27,25 C27,26.104 26.104,27 25,27" id="Fill-1" fill="#BDC1D1"></path>
                <path d="M3.5,16.2983 L5.756,16.1573 C5.805,16.5233 5.905,16.8023 6.055,16.9943 C6.299,17.3053 6.648,17.4613 7.102,17.4613 C7.44,17.4613 7.702,17.3813 7.885,17.2223 C8.068,17.0633 8.16,16.8793 8.16,16.6703 C8.16,16.4713 8.072,16.2933 7.898,16.1363 C7.723,15.9793 7.318,15.8303 6.683,15.6913 C5.643,15.4573 4.901,15.1463 4.458,14.7593 C4.011,14.3713 3.788,13.8783 3.788,13.2773 C3.788,12.8833 3.902,12.5103 4.131,12.1593 C4.359,11.8093 4.703,11.5333 5.162,11.3323 C5.621,11.1313 6.25,11.0313 7.05,11.0313 C8.031,11.0313 8.778,11.2143 9.293,11.5783 C9.808,11.9433 10.114,12.5233 10.212,13.3193 L7.977,13.4503 C7.917,13.1043 7.792,12.8533 7.602,12.6963 C7.412,12.5393 7.149,12.4613 6.814,12.4613 C6.539,12.4613 6.331,12.5193 6.191,12.6363 C6.051,12.7533 5.981,12.8953 5.981,13.0633 C5.981,13.1853 6.039,13.2953 6.154,13.3923 C6.266,13.4933 6.531,13.5883 6.95,13.6753 C7.987,13.8993 8.729,14.1253 9.178,14.3533 C9.626,14.5823 9.953,14.8653 10.157,15.2043 C10.361,15.5433 10.463,15.9213 10.463,16.3403 C10.463,16.8323 10.327,17.2863 10.055,17.7013 C9.783,18.1163 9.402,18.4323 8.914,18.6463 C8.425,18.8613 7.809,18.9683 7.065,18.9683 C5.76,18.9683 4.856,18.7173 4.354,18.2153 C3.851,17.7123 3.566,17.0733 3.5,16.2983" id="Fill-3" fill="#FFFFFF"></path>
                <path d="M14.0552,17.1885 L15.2642,17.1885 C15.6732,17.1885 15.9612,17.1165 16.1282,16.9715 C16.2962,16.8265 16.3792,16.6315 16.3792,16.3875 C16.3792,16.1605 16.2972,15.9785 16.1312,15.8405 C15.9652,15.7025 15.6742,15.6335 15.2592,15.6335 L14.0552,15.6335 L14.0552,17.1885 Z M14.0552,14.1725 L15.0862,14.1725 C15.4562,14.1725 15.7142,14.1085 15.8582,13.9815 C16.0032,13.8545 16.0762,13.6695 16.0762,13.4295 C16.0762,13.2065 16.0032,13.0315 15.8582,12.9055 C15.7142,12.7805 15.4612,12.7175 15.1022,12.7175 L14.0552,12.7175 L14.0552,14.1725 Z M11.6622,11.1625 L16.1022,11.1625 C16.8422,11.1625 17.4102,11.3455 17.8062,11.7115 C18.2022,12.0785 18.4002,12.5325 18.4002,13.0735 C18.4002,13.5265 18.2592,13.9165 17.9762,14.2405 C17.7882,14.4575 17.5122,14.6285 17.1492,14.7535 C17.7012,14.8865 18.1062,15.1145 18.3672,15.4375 C18.6262,15.7605 18.7562,16.1665 18.7562,16.6545 C18.7562,17.0525 18.6642,17.4105 18.4792,17.7275 C18.2942,18.0455 18.0412,18.2965 17.7202,18.4815 C17.5212,18.5965 17.2212,18.6805 16.8192,18.7325 C16.2852,18.8025 15.9312,18.8375 15.7562,18.8375 L11.6622,18.8375 L11.6622,11.1625 Z" id="Fill-5" fill="#FFFFFF"></path>
                <path d="M22.3691,14.4346 L22.9501,14.4346 C23.4081,14.4346 23.7281,14.3546 23.9131,14.1966 C24.0981,14.0376 24.1911,13.8336 24.1911,13.5866 C24.1911,13.3456 24.1111,13.1416 23.9501,12.9736 C23.7891,12.8066 23.4881,12.7226 23.0441,12.7226 L22.3691,12.7226 L22.3691,14.4346 Z M19.9871,11.1626 L23.9291,11.1626 C24.7881,11.1626 25.4311,11.3666 25.8581,11.7746 C26.2861,12.1836 26.5001,12.7646 26.5001,13.5186 C26.5001,14.2926 26.2671,14.8986 25.8011,15.3346 C25.3351,15.7716 24.6241,15.9896 23.6671,15.9896 L22.3691,15.9896 L22.3691,18.8376 L19.9871,18.8376 L19.9871,11.1626 Z" id="Fill-7" fill="#FFFFFF"></path>
            </g>
        </g>
    </g>
</svg>