<?xml version="1.0" encoding="UTF-8"?>
<svg width="16px" height="16px" viewBox="0 0 16 16" version="1.1" xmlns="http://www.w3.org/2000/svg" xmlns:xlink="http://www.w3.org/1999/xlink">
    <!-- Generator: Sketch 54.1 (76490) - https://sketchapp.com -->
    <title>搜索</title>
    <desc>Created with Sketch.</desc>
    <g id="页面1" stroke="none" stroke-width="1" fill="none" fill-rule="evenodd" opacity="0.697916667" stroke-linecap="round" stroke-linejoin="round">
        <g id="资产管理" transform="translate(-88.000000, -197.000000)" fill="#007AFF" stroke="#007AFF" stroke-width="0.2">
            <g id="查询" transform="translate(80.000000, 188.000000)">
                <g id="编组-6" transform="translate(8.000000, 9.000000)">
                    <path d="M3.45327145,7.26660168 C3.45327145,5.16426262 5.16411806,3.45328 7.26629,3.45328 C9.36839471,3.45328 11.0793086,5.16426262 11.0793086,7.26660168 C11.0793086,9.36894073 9.36839471,11.0799234 7.26629,11.0799234 C5.16411806,11.0799234 3.45327145,9.36894073 3.45327145,7.26660168 M13.3599668,12.6871673 L10.9545362,10.2815455 C11.6281455,9.459502 12.0325128,8.41034942 12.0325128,7.26660168 C12.0325128,4.63904763 9.89491248,2.5 7.26629,2.5 C4.63894482,2.5 2.5,4.63770299 2.5,7.26660168 C2.5,9.89550036 4.63760029,12.0332034 7.26629,12.0332034 C8.4086023,12.0332034 9.459016,11.6288039 10.2809941,10.9551411 L12.6864247,13.3608301 C12.7796006,13.4540134 12.9017511,13.5 13.0238344,13.5 C13.1459849,13.5 13.2680682,13.4540134 13.3613113,13.3608301 C13.546453,13.1743291 13.546453,12.8723237 13.3599668,12.6871673" id="Fill-1"></path>
                </g>
            </g>
        </g>
    </g>
</svg>