<?xml version="1.0" encoding="UTF-8"?>
<svg width="16px" height="16px" viewBox="0 0 16 16" version="1.1" xmlns="http://www.w3.org/2000/svg" xmlns:xlink="http://www.w3.org/1999/xlink">
    <!-- Generator: Sketch 52.2 (67145) - http://www.bohemiancoding.com/sketch -->
    <title>分组 copy</title>
    <desc>Created with Sketch.</desc>
    <defs>
        <polygon id="path-1" points="0 0 16 0 16 16 0 16"></polygon>
    </defs>
    <g id="Page-1" stroke="none" stroke-width="1" fill="none" fill-rule="evenodd">
        <g id="投票" transform="translate(-1013.000000, -482.000000)">
            <g id="候选节点列表" transform="translate(157.000000, 470.000000)">
                <g id="分组" transform="translate(846.000000, 0.000000)">
                    <g id="搜索" transform="translate(10.000000, 12.000000)">
                        <mask id="mask-2" fill="white">
                            <use xlink:href="#path-1"></use>
                        </mask>
                        <g id="Clip-2"></g>
                        <path d="M1.38657665,6.9332388 C1.38657665,3.87529108 3.87508082,1.38658909 6.93278546,1.38658909 C9.99039231,1.38658909 12.4789943,3.87529108 12.4789943,6.9332388 C12.4789943,9.99118652 9.99039231,12.4798885 6.93278546,12.4798885 C3.87508082,12.4798885 1.38657665,9.99118652 1.38657665,6.9332388 M15.7963153,14.8176979 L12.2975072,11.3186116 C13.2773026,10.122912 13.8654731,8.59687189 13.8654731,6.9332388 C13.8654731,3.11134201 10.7562363,0 6.93278546,0 C3.11119247,0 0,3.10938617 0,6.9332388 C0,10.7570914 3.10923679,13.8664776 6.93278546,13.8664776 C8.59433062,13.8664776 10.1222051,13.2782603 11.3178097,12.298387 L14.8166178,15.7975711 C14.9521463,15.9331104 15.1298198,16 15.3073955,16 C15.485069,16 15.6626447,15.9331104 15.798271,15.7975711 C16.0675681,15.5262968 16.0675681,15.0870163 15.7963153,14.8176979" id="Fill-1" fill="#007AFF" mask="url(#mask-2)"></path>
                    </g>
                </g>
            </g>
        </g>
    </g>
</svg>