<?xml version="1.0" encoding="UTF-8" standalone="no"?>
<svg width="30px" height="30px" viewBox="0 0 30 30" version="1.1" xmlns="http://www.w3.org/2000/svg" xmlns:xlink="http://www.w3.org/1999/xlink">
    <!-- Generator: Sketch 49.3 (51167) - http://www.bohemiancoding.com/sketch -->
    <title>send_icon_default</title>
    <desc>Created with Sketch.</desc>
    <defs></defs>
    <g id="Page-1" stroke="none" stroke-width="1" fill="none" fill-rule="evenodd">
        <g id="vite-钱包6" transform="translate(-46.000000, -214.000000)" fill="#BDC1D1">
            <g id="Group-9" transform="translate(46.000000, 214.000000)">
                <g id="icons/utility/package" transform="translate(2.000000, 1.000000)">
                    <path d="M23.7403846,12.8461538 L17.2788462,13.015238 L17.2788462,15.1538462 L23.5096154,15.1538462 L23.5096154,18.6153846 L2.74038462,18.6153846 L2.74038462,15.1538462 L8.91346154,15.1538462 L8.91346154,12.8461538 L2.50961538,12.8461538 C1.35576923,12.8461538 0.432692308,13.7692308 0.432692308,14.9230769 L0.432692308,26.1153846 C0.432692308,27.0961538 1.18269231,27.8461538 2.16346154,27.8461538 L24.0865385,27.8461538 C25.0673077,27.8461538 25.8173077,27.0961538 25.8173077,26.1153846 L25.8173077,14.9230769 C25.8173077,13.7692308 24.8942308,12.8461538 23.7403846,12.8461538 Z" id="Mask"></path>
                    <path d="M11.3942308,1.01923077 L11.3942308,8.23076923 L7.41346154,8.23076923 C6.83653846,8.23076923 6.54807692,8.75 6.89423077,9.03846154 L12.6634615,16.1346154 C12.8942308,16.3076923 13.2403846,16.3076923 13.4711538,16.1346154 L19.2403846,9.03846154 C19.5865385,8.69230769 19.2980769,8.23076923 18.7211538,8.23076923 L14.8557692,8.23076923 L14.8557692,1.01923077 C14.8557692,0.557692308 14.4519231,0.153846154 13.9903846,0.153846154 L12.2596154,0.153846154 C11.7980769,0.153846154 11.3942308,0.557692308 11.3942308,1.01923077 L11.3942308,1.01923077 Z" id="Path" transform="translate(13.067308, 8.209135) scale(1, -1) translate(-13.067308, -8.209135) "></path>
                </g>
            </g>
        </g>
    </g>
</svg>