<svg xmlns="http://www.w3.org/2000/svg" width="30" height="30" viewBox="0 0 30 30">
  <path fill="#BDC1D1" fill-rule="evenodd" d="M15.0869513,10.958159 C12.8024324,10.958159 10.9865329,12.7740586 10.9865329,15.0585774 C10.9865329,17.3430962 12.8024324,19.1589958 15.0869513,19.1589958 C17.3714701,19.1589958 19.1873697,17.3430962 19.1873697,15.0585774 C19.1873697,12.7740586 17.3714701,10.958159 15.0869513,10.958159 Z M27.3882065,18.748954 L25.2208425,16.9330544 C25.3379973,16.2887029 25.3965747,15.5857741 25.3965747,14.9414226 C25.3965747,14.2970711 25.3379973,13.5941423 25.2208425,12.9497908 L27.3882065,11.1338912 C28.0911354,10.5481172 28.325445,9.49372385 27.8568257,8.67364017 L26.9195872,7.0334728 C26.5681228,6.44769874 25.9237713,6.09623431 25.2208425,6.09623431 C24.9865329,6.09623431 24.7522232,6.15481172 24.576491,6.21338912 L21.8819303,7.20920502 C20.827537,6.27196653 19.6559889,5.62761506 18.4258634,5.21757322 L17.9572441,2.46443515 C17.7815119,1.52719665 16.9614282,1 16.0241898,1 L14.1497128,1 C13.2124743,1 12.3923906,1.52719665 12.2166584,2.46443515 L11.7480391,5.15899582 C10.4593362,5.56903766 9.28778808,6.27196653 8.23339478,7.15062762 L5.53883411,6.15481172 C5.30452448,6.09623431 5.12879227,6.0376569 4.89448264,6.0376569 C4.19155377,6.0376569 3.54720231,6.38912134 3.19573787,6.9748954 L2.25849938,8.61506276 C1.78988013,9.43514644 1.96561235,10.4895397 2.72711863,11.0753138 L4.89448264,12.8912134 C4.77732783,13.5355649 4.71875042,14.2384937 4.71875042,14.8828452 C4.71875042,15.5857741 4.77732783,16.2301255 4.89448264,16.874477 L2.72711863,18.6903766 C2.02418976,19.2761506 1.78988013,20.3305439 2.25849938,21.1506276 L3.19573787,22.790795 C3.54720231,23.376569 4.19155377,23.7280335 4.89448264,23.7280335 C5.12879227,23.7280335 5.36310189,23.6694561 5.53883411,23.6108787 L8.23339478,22.6150628 C9.28778808,23.5523013 10.4593362,24.1966527 11.6894617,24.6066946 L12.158081,27.41841 C12.3338132,28.3556485 13.0953195,29 14.0911354,29 L15.9656123,29 C16.9028508,29 17.7229345,28.2970711 17.8986667,27.3598326 L18.367286,24.5481172 C19.7145663,24.0794979 20.9446918,23.376569 21.9990852,22.3807531 L24.5179136,23.376569 C24.7522232,23.4351464 24.9865329,23.4937238 25.2208425,23.4937238 C25.9237713,23.4937238 26.5681228,23.1422594 26.9195872,22.5564854 L27.7982483,21.0334728 C28.325445,20.3891213 28.0911354,19.334728 27.3882065,18.748954 L27.3882065,18.748954 Z M15.0869513,22.2482454 C11.0999535,22.2482454 7.89728326,19.0455751 7.89728326,15.0585774 C7.89728326,11.0715797 11.0999535,7.8689094 15.0869513,7.8689094 C19.073949,7.8689094 22.2766193,11.0715797 22.2766193,15.0585774 C22.2766193,19.0455751 19.073949,22.2482454 15.0869513,22.2482454 Z"/>
</svg>
