<?xml version="1.0" encoding="UTF-8"?>
<svg width="18px" height="18px" viewBox="0 0 18 18" version="1.1" xmlns="http://www.w3.org/2000/svg" xmlns:xlink="http://www.w3.org/1999/xlink">
    <!-- Generator: Sketch 56.3 (81716) - https://sketch.com -->
    <title>分享</title>
    <desc>Created with Sketch.</desc>
    <g id="页面1" stroke="none" stroke-width="1" fill="none" fill-rule="evenodd">
        <g id="首页-copy-13备份-70" transform="translate(-886.000000, -418.000000)" fill="#4CA2FF" fill-rule="nonzero">
            <g id="编组-6" transform="translate(886.000000, 418.000000)">
                <path d="M16.382527,1 L11.7249407,1 C11.3838653,1 11.1074678,1.29173958 11.1074678,1.65165434 C11.1074678,2.01156911 11.3838653,2.30330869 11.7263726,2.30333053 L14.7206185,2.48407256 L8.18154371,8.96872627 C7.9403035,9.22332078 7.9403035,9.6360528 8.18154371,9.89064732 C8.29806006,10.0136136 8.4540577,10.0813411 8.61832538,10.0813411 C8.7826122,10.0813411 8.93814563,10.0135821 9.05717415,9.88805737 L15.765054,3.47716409 L15.765054,6.75612443 C15.765054,7.1160392 16.0414516,7.40777877 16.382527,7.40777877 C16.7233439,7.40777877 17,7.11580785 17,6.75612443 L17,1.65165434 C17,1.57245256 16.9851302,1.49280194 16.9561512,1.41518916 C16.8911472,1.24605612 16.7711261,1.11671788 16.6190697,1.04992927 C16.5333472,1.01578655 16.4584505,1 16.382527,1 Z M14.8255751,10.8571775 C14.4844997,10.8571775 14.2081021,11.1489171 14.2081021,11.5088319 C14.2081021,12.3856778 14.2079526,13.2427288 14.2076139,14.0786864 C14.207286,14.8880734 14.2068124,15.5213279 14.2061908,15.9612866 C14.2057431,16.1030173 14.1952187,16.1880003 14.1626961,16.2872369 C14.078768,16.5433278 13.8785902,16.6860083 13.5696988,16.6966913 L2.76171005,16.6966913 C2.56253397,16.6966913 2.4141351,16.654125 2.340561,16.5670441 C2.26259251,16.4750153 2.22204002,16.2736243 2.23847305,16.1170558 C2.24257553,16.0867488 2.24464278,16.0558976 2.24464278,16.0249645 L2.24464278,4.61867951 C2.24464278,4.36928774 2.28946126,4.18974103 2.39117676,4.08344914 C2.4324066,4.03993694 2.48450717,4.00713259 2.54634149,3.98428947 C2.61553187,3.95872884 2.66807039,3.95013223 2.75967692,3.9469953 L6.94159518,3.94695272 C7.28267063,3.94695272 7.55906816,3.65521315 7.55906816,3.29529838 C7.55906816,2.93538534 7.28267226,2.64364404 6.94161734,2.64364403 L2.79465026,2.64452964 C2.34857533,2.62170451 1.89898983,2.77899853 1.54733331,3.13112325 C1.19783272,3.48163059 1.00969682,3.97815745 1.00969682,4.61868052 L1.00928283,15.9946858 C0.962796682,16.5296677 1.09032795,17.0347938 1.40486831,17.4174418 C1.71651308,17.7964172 2.16843358,18 2.76171005,18 L13.5706542,18 C14.6346651,18 15.4392839,17.1822497 15.4411374,15.9627988 C15.4417587,15.522955 15.4422323,14.8892695 15.4425602,14.0792402 C15.4430481,13.3177907 15.4430481,12.713969 15.4430481,11.5088319 C15.4430481,11.1724163 15.2010279,10.895236 14.8503205,10.8180047 L14.8255751,10.8571775 Z" id="Combined-Shape"></path>
            </g>
        </g>
    </g>
</svg>