<?xml version="1.0" encoding="UTF-8"?>
<svg width="24px" height="24px" viewBox="0 0 24 24" version="1.1" xmlns="http://www.w3.org/2000/svg" xmlns:xlink="http://www.w3.org/1999/xlink">
    <!-- Generator: Sketch 58 (84663) - https://sketch.com -->
    <title>defi_default</title>
    <desc>Created with Sketch.</desc>
    <g id="页面-1" stroke="none" stroke-width="1" fill="none" fill-rule="evenodd">
        <g id="市场页面" transform="translate(-23.000000, -372.000000)" fill="#BDC1D1" fill-rule="nonzero">
            <g id="side-panel">
                <g id="iconfinder_21.app-option-menu_4201225备份-2" transform="translate(23.000000, 372.000000)">
                    <path d="M12,2 C17.5251271,2 22,6.4748729 22,12 C22,17.5251271 17.5251271,22 12,22 C6.4748729,22 2,17.5251271 2,12 C2,6.4748729 6.4748729,2 12,2 Z M12,8.25 C11.4096777,8.25 10.8727642,8.4647757 10.4643285,8.87311341 L10.4643285,8.87311341 L8.87311914,10.4644182 C8.46471505,10.8728223 8.25,11.4096228 8.25,12.0000955 C8.25,12.5905223 8.46474728,13.1274034 8.8731287,13.5356868 L8.8731287,13.5356868 L10.4643189,15.1269725 C10.8727039,15.5353575 11.4095875,15.7500955 12,15.7500955 C12.5546857,15.7500955 13.0961481,15.5226885 13.5322389,15.1302382 L13.5322389,15.1302382 L15.1268809,13.5356772 C15.5352527,13.1274034 15.75,12.5905223 15.75,12.0000955 C15.75,11.4096228 15.5352849,10.8728223 15.1268789,10.4644163 L15.1268789,10.4644163 L13.5356811,8.87312297 C13.1272358,8.4647757 12.5903223,8.25 12,8.25 Z" id="形状结合"></path>
                </g>
            </g>
        </g>
    </g>
</svg>