<?xml version="1.0" encoding="UTF-8"?>
<svg width="24px" height="24px" viewBox="0 0 24 24" version="1.1" xmlns="http://www.w3.org/2000/svg" xmlns:xlink="http://www.w3.org/1999/xlink">
    <!-- Generator: Sketch 55.2 (78181) - https://sketchapp.com -->
    <title>资产</title>
    <desc>Created with Sketch.</desc>
    <g id="页面1" stroke="none" stroke-width="1" fill="none" fill-rule="evenodd">
        <g id="挖矿-copy-42备份-2" transform="translate(-110.000000, -459.000000)">
            <g id="分组-2" transform="translate(110.000000, 459.000000)">
                <circle id="椭圆形" fill="#E8F3FF" fill-rule="nonzero" cx="12" cy="12" r="12"></circle>
                <path d="M15.8822523,9.77603595 C15.8822523,10.484197 14.1443226,11.0581947 12.0000503,11.0581947 C9.85587881,11.0581947 8.11764706,10.4840906 8.11764706,9.77603595 L8.11764706,8.75050045 C8.11764706,8.0425522 9.85587881,7.46823529 12.0000503,7.46823529 C14.1443226,7.46823529 15.8822523,8.0425522 15.8822523,8.75050045 L15.8822523,9.77603595 Z M15.8822523,12.5082567 C15.8822523,13.2160985 14.1443226,13.7904154 12.0000503,13.7904154 C9.85587881,13.7904154 8.11764706,13.2160985 8.11764706,12.5082567 L8.11764706,11.4826148 C8.11764706,11.3486642 8.17402758,11.2196078 8.28950698,11.0981054 C8.78414542,11.6184804 10.249435,11.9956485 11.9879688,11.9956485 C13.7260999,11.9956485 15.2036724,11.6184804 15.6985122,11.0981054 C15.8138909,11.2196078 15.8822523,11.3486642 15.8822523,11.4826148 L15.8822523,12.5082567 Z M15.8822523,15.2447937 C15.8822523,15.9530611 14.1443226,16.5270588 12.0000503,16.5270588 C9.85587881,16.5270588 8.11774774,15.9529547 8.11774774,15.2447937 L8.11774774,14.2191518 C8.11774774,14.0849885 8.17402758,13.9561449 8.28950698,13.8345361 C8.78414542,14.3548046 10.249435,14.7320791 11.9879688,14.7320791 C13.7260999,14.7320791 15.2036724,14.3548046 15.6985122,13.8345361 C15.8138909,13.9561449 15.8823529,14.0849885 15.8823529,14.2191518 L15.8823529,15.2447937 L15.8822523,15.2447937 Z" id="Fill-1" fill="#459DFF"></path>
            </g>
        </g>
    </g>
</svg>