<?xml version="1.0" encoding="UTF-8"?>
<svg width="40px" height="40px" viewBox="0 0 40 40" version="1.1" xmlns="http://www.w3.org/2000/svg" xmlns:xlink="http://www.w3.org/1999/xlink">
    <!-- Generator: Sketch 54.1 (76490) - https://sketchapp.com -->
    <title>Group</title>
    <desc>Created with Sketch.</desc>
    <defs>
        <linearGradient x1="54.0356162%" y1="-147.020206%" x2="50%" y2="100%" id="linearGradient-1">
            <stop stop-color="#FFFFFF" stop-opacity="0.5" offset="0%"></stop>
            <stop stop-color="#000000" stop-opacity="0.5" offset="100%"></stop>
        </linearGradient>
        <path d="M8,2 L32,2 C35.3137085,2 38,4.6862915 38,8 L38,32 C38,35.3137085 35.3137085,38 32,38 L8,38 C4.6862915,38 2,35.3137085 2,32 L2,8 C2,4.6862915 4.6862915,2 8,2 Z" id="path-2"></path>
        <linearGradient x1="39.9266124%" y1="0%" x2="39.9266124%" y2="194.819006%" id="linearGradient-4">
            <stop stop-color="#FFFFFF" offset="0%"></stop>
            <stop stop-color="#EFEFEF" offset="53.0338973%"></stop>
            <stop stop-color="#DEDEDE" offset="100%"></stop>
        </linearGradient>
        <path d="M9.32943671,15.1231207 L16.4412294,13.5249941 L15.7324743,31.454294 L9.32943671,15.1231207 Z M18.0664386,13.2172707 L32.3118807,9.85609826 L15.9572611,31.4779986 L18.0664386,13.2172707 Z" id="path-5"></path>
        <filter x="-191.9%" y="-113.3%" width="383.8%" height="407.9%" filterUnits="objectBoundingBox" id="filter-6">
            <feMorphology radius="3.5" operator="erode" in="SourceAlpha" result="shadowSpreadOuter1"></feMorphology>
            <feOffset dx="0" dy="19.6" in="shadowSpreadOuter1" result="shadowOffsetOuter1"></feOffset>
            <feGaussianBlur stdDeviation="12.6" in="shadowOffsetOuter1" result="shadowBlurOuter1"></feGaussianBlur>
            <feColorMatrix values="0 0 0 0 0.184313725   0 0 0 0 0.28627451   0 0 0 0 0.71372549  0 0 0 1 0" type="matrix" in="shadowBlurOuter1"></feColorMatrix>
        </filter>
        <filter x="-112.7%" y="-29.1%" width="225.4%" height="239.6%" filterUnits="objectBoundingBox" id="filter-7">
            <feOffset dx="0" dy="1.4" in="SourceAlpha" result="shadowOffsetInner1"></feOffset>
            <feComposite in="shadowOffsetInner1" in2="SourceAlpha" operator="arithmetic" k2="-1" k3="1" result="shadowInnerInner1"></feComposite>
            <feColorMatrix values="0 0 0 0 1   0 0 0 0 1   0 0 0 0 1  0 0 0 0.5 0" type="matrix" in="shadowInnerInner1"></feColorMatrix>
        </filter>
    </defs>
    <g id="页面1" stroke="none" stroke-width="1" fill="none" fill-rule="evenodd">
        <g id="walletconnect" transform="translate(-700.000000, -426.000000)">
            <g id="Group" transform="translate(700.000000, 426.000000)">
                <mask id="mask-3" fill="white">
                    <use xlink:href="#path-2"></use>
                </mask>
                <g id="Mask">
                    <use fill="#000000" xlink:href="#path-2"></use>
                    <path stroke="#FFFFFF" stroke-width="2" d="M8,1 L32,1 C35.8659932,1 39,4.13400675 39,8 L39,32 C39,35.8659932 35.8659932,39 32,39 L8,39 C4.13400675,39 1,35.8659932 1,32 L1,8 C1,4.13400675 4.13400675,1 8,1 Z" fill="url(#linearGradient-1)"></path>
                </g>
                <g id="Combined-Shape" mask="url(#mask-3)">
                    <use fill="black" fill-opacity="1" filter="url(#filter-6)" xlink:href="#path-5"></use>
                    <use fill="url(#linearGradient-4)" fill-rule="evenodd" xlink:href="#path-5"></use>
                    <use fill="black" fill-opacity="1" filter="url(#filter-7)" xlink:href="#path-5"></use>
                </g>
            </g>
        </g>
    </g>
</svg>