<?xml version="1.0" encoding="UTF-8"?>
<svg width="40px" height="40px" viewBox="0 0 40 40" version="1.1" xmlns="http://www.w3.org/2000/svg" xmlns:xlink="http://www.w3.org/1999/xlink">
    <!-- Generator: Sketch 58 (84663) - https://sketch.com -->
    <title>Switch</title>
    <desc>Created with Sketch.</desc>
    <g id="页面-1" stroke="none" stroke-width="1" fill="none" fill-rule="evenodd">
        <g id="画板" transform="translate(-1086.000000, -137.000000)">
            <g id="编组-2" transform="translate(641.000000, 51.000000)">
                <g id="编组-5" transform="translate(0.000000, 50.000000)">
                    <g id="编组-2备份" transform="translate(445.000000, 36.000000)">
                        <rect id="矩形" fill="#007AFF" x="0" y="0" width="40" height="40" rx="20"></rect>
                        <path d="M15.6545217,25.000741 L17.2964515,26.7022968 C17.530635,26.9396664 17.6615074,27.2628963 17.6615074,27.5986301 C17.6616378,27.9345603 17.5307867,28.2574722 17.3045808,28.4868338 L17.28738,28.5046838 C16.7982225,29.0023208 16.0049653,28.9946875 15.5278047,28.4907651 L11.8046961,24.6202545 C11.5605928,24.3862209 11.4289404,24.0511096 11.4291872,23.7297542 C11.4237912,23.558072 11.4539565,23.3876409 11.5158884,23.2366502 C11.7052578,22.7534032 12.1626553,22.4388245 12.6761656,22.4388245 L26.8904061,22.4388245 L26.8904061,22.9388245 L26.8904061,22.4388245 C27.5817718,22.4388245 28.1371233,23.0261646 28.1384276,23.7255187 C28.1384276,24.4236293 27.5816063,25.000741 26.8904061,25.000741 L15.6545217,25.000741 Z M23.9231904,16.0761913 L21.5335273,13.5995333 C21.2991546,13.3622422 21.1682714,13.0389362 21.1682714,12.70308 C21.1681411,12.3671497 21.2989922,12.0442378 21.5255276,11.8145265 C21.7578006,11.5682639 22.0790769,11.4285714 22.4154966,11.4285714 C22.7518545,11.4285714 23.0731252,11.568277 23.3014954,11.810448 L27.7873081,16.46029 C28.1366282,16.8235353 28.2383177,17.3646834 28.0506405,17.8295797 C27.8611635,18.3127674 27.403876,18.6272973 26.8904061,18.6272973 L12.6761656,18.6272973 L12.6761656,18.1272967 L12.6767905,18.6272973 C12.3408603,18.6277162 12.0201709,18.4884959 11.7888502,18.2442074 C11.5588822,18.0030104 11.4334034,17.6793053 11.4382572,17.3513311 C11.4382572,16.653241 11.9953015,16.0761913 12.6864386,16.0761913 L23.9231904,16.0761913 Z" id="Fill-1" fill="#FFFFFF" fill-rule="nonzero" transform="translate(19.785990, 20.150962) rotate(90.000000) translate(-19.785990, -20.150962) "></path>
                    </g>
                </g>
            </g>
        </g>
    </g>
</svg>