<?xml version="1.0" encoding="UTF-8"?>
<svg width="18px" height="16px" viewBox="0 0 18 16" version="1.1" xmlns="http://www.w3.org/2000/svg" xmlns:xlink="http://www.w3.org/1999/xlink">
    <!-- Generator: Sketch 56.3 (81716) - https://sketch.com -->
    <title>telegram copy</title>
    <desc>Created with Sketch.</desc>
    <g id="页面-1" stroke="none" stroke-width="1" fill="none" fill-rule="evenodd" fill-opacity="0.7">
        <g id="弹窗" transform="translate(-939.000000, -632.000000)" fill="#007AFF" fill-rule="nonzero">
            <g id="编组-5" transform="translate(781.000000, 48.000000)">
                <g id="telegram-copy" transform="translate(158.000000, 582.000000)">
                    <path d="M0.858859124,9.50239477 L4.81557138,10.9375853 L6.3470616,15.7241681 C6.44505499,16.0307315 6.8307895,16.1440448 7.08682014,15.9406148 L9.29235838,14.1932426 C9.52354724,14.0101724 9.85284396,14.0010495 10.0944503,14.1714922 L14.0724555,16.978291 C14.3463448,17.1717635 14.7343689,17.0259081 14.8030558,16.7042697 L17.7171573,3.08158611 C17.7921406,2.73024258 17.4369145,2.43714107 17.0926784,2.56653073 L0.854222754,8.6544642 C0.45349159,8.80465855 0.456983177,9.35603871 0.858859124,9.50239477 Z M6.10024646,10.1735967 L13.8331387,5.54499604 C13.9721154,5.46205538 14.1150987,5.64468059 13.9957551,5.75226425 L7.61387807,11.5175024 C7.38955791,11.7204316 7.24485738,11.9920053 7.20387417,12.2867756 L6.98647994,13.8524683 C6.95768866,14.0615166 6.65552328,14.0822657 6.5961663,13.8799483 L5.7600743,11.0248649 C5.66431323,10.6992213 5.80386223,10.3513823 6.10024646,10.1735967 Z" id="XMLID_497_"></path>
                </g>
            </g>
        </g>
    </g>
</svg>