<?xml version="1.0" encoding="UTF-8"?>
<svg width="24px" height="24px" viewBox="0 0 24 24" version="1.1" xmlns="http://www.w3.org/2000/svg" xmlns:xlink="http://www.w3.org/1999/xlink">
    <!-- Generator: Sketch 55.2 (78181) - https://sketchapp.com -->
    <title>时间</title>
    <desc>Created with Sketch.</desc>
    <g id="页面1" stroke="none" stroke-width="1" fill="none" fill-rule="evenodd">
        <g id="挖矿-copy-42备份-2" transform="translate(-817.000000, -459.000000)">
            <g id="时间" transform="translate(817.000000, 459.000000)">
                <circle id="椭圆形" fill="#E8F3FF" fill-rule="nonzero" cx="12" cy="12" r="12"></circle>
                <path d="M15.8709468,8.73481324 C16.4612826,8.73481324 16.9411765,9.17576912 16.9411765,9.71815147 L16.9411765,15.6049015 C16.9411765,16.1472838 16.4612826,16.5882397 15.8709468,16.5882397 L8.81577632,16.5882397 C8.23504418,16.5882397 7.76470588,16.1472838 7.76470588,15.6049015 L7.76470588,9.71815147 C7.76470588,9.17576912 8.24464782,8.73481324 8.8349836,8.73481324 L9.58368341,8.73481324 L9.58368341,9.24631324 L8.79656904,9.24631324 C8.5374148,9.24631324 8.32142892,9.44475441 8.32142892,9.68285735 L8.32142892,11.0542103 L16.3748498,11.0542103 L16.3748498,9.68285735 C16.3748498,9.44475441 16.1589119,9.24631324 15.8997097,9.24631324 L15.1221989,9.24631324 L15.1221989,8.73481324 L15.8709468,8.73481324 Z M11.3258702,9.25072059 L11.3258702,8.73480882 L13.3656355,8.73480882 L13.3656355,9.25072059 L11.3258702,9.25072059 Z M10.4523711,10.212 C10.2411871,10.212 10.0684176,10.0532647 10.0684176,9.85923529 L10.0684176,8.11747059 C10.0684176,7.92344118 10.2411871,7.76470588 10.4523711,7.76470588 C10.668357,7.76470588 10.8459283,7.92785294 10.8459283,8.11747059 L10.8459283,9.85923529 C10.8459283,10.0532647 10.6635552,10.212 10.4523711,10.212 Z M14.2343328,10.212 C14.0231007,10.212 13.8503792,10.0532647 13.8503792,9.85923529 L13.8503792,8.11747059 C13.8503792,7.92344118 14.0231007,7.76470588 14.2343328,7.76470588 C14.4502706,7.76470588 14.6278419,7.92785294 14.6278419,8.11747059 L14.6278419,9.85923529 C14.6278419,10.0532647 14.4502706,10.212 14.2343328,10.212 Z" id="合并形状" fill="#459DFF"></path>
            </g>
        </g>
    </g>
</svg>