<?xml version="1.0" encoding="UTF-8"?>
<svg width="12px" height="12px" viewBox="0 0 12 12" version="1.1" xmlns="http://www.w3.org/2000/svg" xmlns:xlink="http://www.w3.org/1999/xlink">
    <!-- Generator: Sketch 58 (84663) - https://sketch.com -->
    <title>交易挖矿</title>
    <desc>Created with Sketch.</desc>
    <g id="页面-1" stroke="none" stroke-width="1" fill="none" fill-rule="evenodd">
        <g id="挖矿标示&amp;区域" transform="translate(-163.000000, -184.000000)">
            <g id="交易中心" transform="translate(80.000000, 57.000000)">
                <g id="交易对-0111-copy备份" transform="translate(6.000000, 125.000000)">
                    <g id="mining备份-2" transform="translate(77.000000, 0.000000)">
                        <g id="编组-2" transform="translate(0.000000, 2.000000)">
                            <rect id="矩形" x="0" y="0" width="12" height="12"></rect>
                            <path d="M10.0616231,0.918705372 L10.307513,0.965725159 L10.5459985,1.02306375 C10.7774834,1.08433772 10.9537003,1.14576066 11.0674614,1.19212727 C11.1369677,1.22115708 11.1928866,1.2763062 11.2188456,1.34159444 C11.2950384,1.51021782 11.4214148,1.91534005 11.4937379,2.35080278 C11.6217895,3.12354596 11.5497448,3.82956408 11.2817348,4.39501526 C11.2676825,4.42296842 11.2493559,4.44855858 11.22661,4.47167499 L8.93602144,6.75922667 C8.88237001,6.81341734 8.80897873,6.84344624 8.7339943,6.84243107 C8.6594549,6.84216206 8.58793764,6.81292419 8.53342703,6.75976081 L7.61745612,5.84409598 L3.39726316,10.0643179 C3.37808639,10.6153028 3.18709801,11.1594049 2.6998648,11.5004122 C2.65221632,11.5341062 2.59526487,11.5521403 2.53667245,11.5520143 C2.46224374,11.5517173 2.39083004,11.5225696 2.33613786,11.4694058 L0.939783953,10.0730513 C0.842782535,9.97557371 0.829630755,9.82257467 0.908516134,9.71005518 C1.25084027,9.22096245 1.79672686,9.03031214 2.34776555,9.01200212 L6.56643693,4.789821 L5.6512802,3.87609656 C5.59806142,3.82299048 5.56815392,3.7508955 5.56815392,3.67571243 C5.56815392,3.60052936 5.59806142,3.52843438 5.65118378,3.47542463 L7.94059975,1.18600925 C7.96456982,1.16191626 7.99118868,1.14255177 8.02016511,1.12953436 C8.58276046,0.862818566 9.28873317,0.790759871 10.0616231,0.918705372 Z M2.45739497,9.57881821 L2.42039476,9.57860688 C2.15083214,9.58169015 1.86811235,9.64115147 1.64129609,9.78456944 L1.53286632,9.86340249 L2.54595883,10.876495 C2.61307429,10.795585 2.6679809,10.7015832 2.71157043,10.5964818 C2.7859779,10.4170732 2.81980374,10.2331785 2.82860546,10.0763604 L2.83038368,9.95167707 L2.45739497,9.57881821 Z M8.21617303,4.19429249 L7.96279059,4.19696545 L2.81068792,9.34798897 L3.06172167,9.59902272 L7.42824827,5.22918646 L7.43573495,5.22501881 L8.21257423,4.44929263 L8.21617303,4.19429249 Z M9.79242606,1.45509261 C9.30989832,1.39505893 8.86041075,1.4222233 8.46889884,1.55808521 L8.30473024,1.62302937 L6.25279086,3.67496875 L6.96864713,4.39106107 L7.64454779,3.71588389 C7.68425787,3.67626153 7.73453879,3.64966527 7.78811625,3.6388448 L7.84252314,3.63338476 L8.50331865,3.62559951 L8.55974878,3.63100917 C8.61353287,3.64174627 8.66365662,3.6682191 8.70594566,3.70820806 C8.74704748,3.74930988 8.7744957,3.8017287 8.7844983,3.85676496 L8.78854526,3.91235149 L8.7807779,4.57011416 C8.7807779,4.62507568 8.76413562,4.67832029 8.73330693,4.72525161 L8.69784039,4.76990826 L8.01899438,5.44480305 L8.7330879,6.15839713 L10.7769007,4.12543394 C10.975395,3.69315854 11.0231481,3.17691817 10.9536641,2.61631043 C10.9097748,2.26220504 10.8263419,1.93674075 10.7343823,1.67514167 C10.4690483,1.58207463 10.1463139,1.49912155 9.79242606,1.45509261 Z" id="形状结合" fill="#007AFF" fill-rule="nonzero" transform="translate(6.206238, 6.204579) rotate(180.000000) translate(-6.206238, -6.204579) "></path>
                            <path d="M4.4150705,3.86262346 C4.57722538,3.86262346 4.70847648,3.99387455 4.70847648,4.15602062 C4.70847648,4.31817991 4.57722979,4.44942659 4.41507051,4.44942659 L4.41507051,4.44942659 L1.46957306,4.44942659 L2.11450549,4.99089272 C2.22910742,5.10550497 2.22910742,5.29119068 2.11450549,5.4057926 C1.9999082,5.52052402 1.81420291,5.52052402 1.6995879,5.40577488 L1.6995879,5.40577488 L1.01157871,4.7177657 C0.806719455,4.512914 0.776919978,4.31187009 0.844974124,4.14791637 C0.913138613,3.98369681 1.07623071,3.86262346 1.36583115,3.86262346 L1.36583115,3.86262346 Z M5.85669096,0.918212264 C5.93394706,0.918212264 6.00838708,0.948406891 6.06415139,1.00416115 L6.06415139,1.00416115 L6.75240505,1.69218575 C6.95727604,1.89704918 6.98707916,2.09810129 6.91902282,2.26204171 C6.8508523,2.4262572 6.68774995,2.54734183 6.39816646,2.54734183 L6.39816646,2.54734183 L1.10769662,2.54734183 C0.945540142,2.54734183 0.81429065,2.41608915 0.81429065,2.25393587 C0.81429065,2.09177658 0.945537332,1.9605299 1.10769662,1.9605299 L1.10769662,1.9605299 L6.29442454,1.9605299 L5.6492601,1.41906963 C5.53464304,1.30445257 5.53464304,1.11876476 5.6492556,1.00416252 C5.7049975,0.94841058 5.77943846,0.918212264 5.85669096,0.918212264 Z" id="形状结合" fill="#007AFF" fill-rule="nonzero"></path>
                        </g>
                    </g>
                </g>
            </g>
        </g>
    </g>
</svg>