<?xml version="1.0" encoding="UTF-8"?>
<svg width="24px" height="24px" viewBox="0 0 24 24" version="1.1" xmlns="http://www.w3.org/2000/svg" xmlns:xlink="http://www.w3.org/1999/xlink">
    <!-- Generator: Sketch 52.5 (67469) - http://www.bohemiancoding.com/sketch -->
    <title>side new</title>
    <desc>Created with Sketch.</desc>
    <defs>
        <linearGradient x1="75.9565844%" y1="71.3147538%" x2="29.1375601%" y2="23.6048796%" id="linearGradient-1">
            <stop stop-color="#1786FA" offset="0%"></stop>
            <stop stop-color="#0A4EF2" offset="100%"></stop>
        </linearGradient>
    </defs>
    <g id="Page-1" stroke="none" stroke-width="1" fill="none" fill-rule="evenodd">
        <g id="交易所-0114" transform="translate(-23.000000, -476.000000)">
            <g id="side-panel">
                <g id="交易所" transform="translate(23.000000, 476.000000)">
                    <g id="分组" transform="translate(2.000000, 2.000000)">
                        <path d="M10.700101,1.5 L10.700101,0.7 C10.700101,0.3 10.400101,0 10,0 C9.6,0 9.3,0.3 9.3,0.7 L9.3,1.5 L0.7,1.5 C0.3,1.5 0,1.85 0,2.25 L0,15.5 C0,15.9 0.3,16.25 0.7,16.25 L9.25010101,16.25 L9.25010101,16.450101 L6.50010101,18.200101 C6.15,18.450101 6,18.900101 6.2,19.25 C6.4,19.6 6.8,19.750101 7.15,19.550101 L7.2,19.550101 L9.75,17.95 L10.2,17.95 L12.750101,19.550101 C13.1,19.750101 13.5,19.65 13.750101,19.300101 L13.750101,19.25 C13.95,18.85 13.800101,18.4 13.45,18.200101 L10.700101,16.450101 L10.700101,16.25 L19.250101,16.25 C19.650101,16.25 19.950101,15.9 19.950101,15.5 L19.950101,2.25 C20.000101,1.85 19.700101,1.5 19.300101,1.5 L10.700101,1.5 Z" id="路径" fill="url(#linearGradient-1)"></path>
                        <path d="M14.125,8.1375 L10.48125,11.78125 C10.34375,11.91875 10.17182,11.9875 10,11.9875 C9.82818,11.9875 9.65625,11.91875 9.51875,11.78125 L7.59375,9.85625 L5.66875,11.78125 C5.39375,12.05625 4.98125,12.05625 4.70625,11.78125 C4.43125,11.50625 4.43125,11.09375 4.70625,10.81875 L7.1125,8.4125 C7.3875,8.1375 7.8,8.1375 8.075,8.4125 L10,10.3375 L13.1625,7.175 L12.0625,7.175 C11.68443,7.175 11.375,6.86568 11.375,6.4875 C11.375,6.10932 11.68443,5.8 12.0625,5.8 L14.8125,5.8 C14.8240489,5.80001661 14.83463,5.80029307 14.8452029,5.8008301 C15.1975113,5.8174749 15.4825251,6.10248872 15.4992263,6.45479544 C15.4997069,6.46536998 15.4999834,6.47595114 15.4999993,6.48653254 L15.5,9.2375 C15.5,9.61557 15.19068,9.925 14.8125,9.925 C14.43432,9.925 14.125,9.61557 14.125,9.2375 L14.125,8.1375 Z" id="合并形状" fill="#FFFFFF"></path>
                    </g>
                </g>
            </g>
        </g>
    </g>
</svg>