<?xml version="1.0" encoding="UTF-8"?>
<svg width="14px" height="14px" viewBox="0 0 14 14" version="1.1" xmlns="http://www.w3.org/2000/svg" xmlns:xlink="http://www.w3.org/1999/xlink">
    <!-- Generator: Sketch 55.2 (78181) - https://sketchapp.com -->
    <title>交易中</title>
    <desc>Created with Sketch.</desc>
    <g id="页面1" stroke="none" stroke-width="1" fill="none" fill-rule="evenodd">
        <g id="首页-copy-13备份-36" transform="translate(-897.000000, -151.000000)">
            <g id="列表1" transform="translate(80.000000, 142.000000)">
                <g id="已确认" transform="translate(817.000000, 9.000000)">
                    <path d="M7,14 C3.134,14 0,10.866 0,7 C0,3.134 3.134,0 7,0 C10.866,0 14,3.134 14,7 C14,10.866 10.866,14 7,14 Z" id="Fill-1" fill="#7ED321"></path>
                    <path d="M9.77512919,7.98169654 C9.98657936,7.77024637 10.3294078,7.77024637 10.540858,7.98169654 C10.7523082,8.1931467 10.7523082,8.53597516 10.540858,8.74742533 L9.22062764,10.0676557 C9.18882309,10.0994602 9.15340367,10.1270575 9.12253628,10.1450097 C9.03783977,10.20646 8.93963375,10.2394456 8.83776324,10.2394456 C8.73478105,10.2394456 8.63321119,10.2055551 8.56757523,10.1541075 C8.52649755,10.1304381 8.48866394,10.1014208 8.45489884,10.0676557 L7.13466849,8.74742533 C6.92321832,8.53597516 6.92321832,8.1931467 7.13466849,7.98169654 C7.34611865,7.77024637 7.68894711,7.77024637 7.90039728,7.98169654 L8.29631121,8.37761047 L8.29631121,4.6348407 C8.29631121,4.28581211 8.52998199,3.99444089 8.83776324,3.99444089 C9.14554448,3.99444089 9.37921526,4.28581211 9.37921526,4.6348407 L9.37921526,8.37761047 L9.77512919,7.98169654 Z M5.70258002,5.60918723 L5.70258002,9.3651593 C5.70258002,9.71418789 5.46890924,10.0055591 5.16112799,10.0055591 C4.85334675,10.0055591 4.61967597,9.71418789 4.61967597,9.3651593 L4.61967597,5.60918723 L4.22376204,6.00510116 C4.01231187,6.21655133 3.66948341,6.21655133 3.45803324,6.00510116 C3.24658307,5.79365099 3.24658307,5.45082253 3.45803324,5.23937236 L4.77826359,3.91914201 C4.98971376,3.70769184 5.33254222,3.70769184 5.54399239,3.91914201 L6.86422274,5.23937236 C7.07567291,5.45082253 7.07567291,5.79365099 6.86422274,6.00510116 C6.65277257,6.21655133 6.30994411,6.21655133 6.09849395,6.00510116 L5.70258002,5.60918723 Z" id="Combined-Shape" fill="#FFFFFF" fill-rule="nonzero" transform="translate(6.999446, 7.000000) rotate(90.000000) translate(-6.999446, -7.000000) "></path>
                </g>
            </g>
        </g>
    </g>
</svg>