<?xml version="1.0" encoding="UTF-8"?>
<svg width="4px" height="41px" viewBox="0 0 4 41" version="1.1" xmlns="http://www.w3.org/2000/svg" xmlns:xlink="http://www.w3.org/1999/xlink">
    <!-- Generator: Sketch 58 (84663) - https://sketch.com -->
    <title>形状结合</title>
    <desc>Created with Sketch.</desc>
    <g id="页面-1" stroke="none" stroke-width="1" fill="none" fill-rule="evenodd">
        <g id="画板" transform="translate(-672.000000, -136.000000)" fill="#E5E5EA">
            <g id="编组-2" transform="translate(641.000000, 51.000000)">
                <g id="编组-5" transform="translate(0.000000, 50.000000)">
                    <g id="编组-8" transform="translate(31.000000, 36.000000)">
                        <path d="M2,36 C3.1045695,36 4,36.8954305 4,38 C4,39.1045695 3.1045695,40 2,40 C0.8954305,40 0,39.1045695 0,38 C0,36.8954305 0.8954305,36 2,36 Z M2,27 C3.1045695,27 4,27.8954305 4,29 C4,30.1045695 3.1045695,31 2,31 C0.8954305,31 0,30.1045695 0,29 C0,27.8954305 0.8954305,27 2,27 Z M2,18 C3.1045695,18 4,18.8954305 4,20 C4,21.1045695 3.1045695,22 2,22 C0.8954305,22 0,21.1045695 0,20 C0,18.8954305 0.8954305,18 2,18 Z M2,9 C3.1045695,9 4,9.8954305 4,11 C4,12.1045695 3.1045695,13 2,13 C0.8954305,13 0,12.1045695 0,11 C0,9.8954305 0.8954305,9 2,9 Z M2,-1.13686838e-13 C3.1045695,-1.13686838e-13 4,0.8954305 4,2 C4,3.1045695 3.1045695,4 2,4 C0.8954305,4 0,3.1045695 0,2 C0,0.8954305 0.8954305,-1.13686838e-13 2,-1.13686838e-13 Z" id="形状结合"></path>
                    </g>
                </g>
            </g>
        </g>
    </g>
</svg>