<?xml version="1.0" encoding="UTF-8"?>
<svg width="14px" height="14px" viewBox="0 0 14 14" version="1.1" xmlns="http://www.w3.org/2000/svg" xmlns:xlink="http://www.w3.org/1999/xlink">
    <!-- Generator: Sketch 55.2 (78181) - https://sketchapp.com -->
    <title>转发</title>
    <desc>Created with Sketch.</desc>
    <g id="页面1" stroke="none" stroke-width="1" fill="none" fill-rule="evenodd">
        <g id="首页-copy-13备份-36" transform="translate(-898.000000, -215.000000)">
            <g id="列表1备份-3" transform="translate(80.000000, 206.000000)">
                <g id="分组-4备份-2" transform="translate(818.000000, 9.000000)">
                    <rect id="矩形" fill="#B5B8C6" x="0" y="0" width="14" height="14" rx="7"></rect>
                    <path d="M8.0905062,5.07146976 L7.25804938,4.51791249 C7.00252261,4.34684854 6.93302788,4.00258234 7.10409183,3.74705556 C7.27408663,3.49259794 7.62049113,3.42310321 7.87494875,3.59309801 L9.83256183,4.89532233 C10.0880886,5.06531713 10.1565142,5.40958333 9.98651939,5.6651101 L8.67894932,7.61844658 C8.50895452,7.87397336 8.16361917,7.94346809 7.90809239,7.77347329 C7.65256562,7.60347849 7.58414004,7.25921229 7.75413484,7.00368551 L8.26808935,6.2361801 C6.5817316,6.37673748 5.25595968,7.7908753 5.25595968,9.51340749 C5.25595968,9.83816878 4.99268864,10.1014398 4.66792735,10.1014398 C4.34316606,10.1014398 4.07989502,9.83816878 4.07989502,9.51340749 C4.07989502,7.20151833 5.83849356,5.29914427 8.0905062,5.07146976 Z" id="形状结合" fill="#FFFFFF" transform="translate(7.079895, 6.800720) rotate(7.000000) translate(-7.079895, -6.800720) "></path>
                </g>
            </g>
        </g>
    </g>
</svg>