<?xml version="1.0" encoding="UTF-8"?>
<svg width="14px" height="14px" viewBox="0 0 14 14" version="1.1" xmlns="http://www.w3.org/2000/svg" xmlns:xlink="http://www.w3.org/1999/xlink">
    <!-- Generator: Sketch 55.2 (78181) - https://sketchapp.com -->
    <title>未开通</title>
    <desc>Created with Sketch.</desc>
    <g id="页面1" stroke="none" stroke-width="1" fill="none" fill-rule="evenodd">
        <g id="首页-copy-13备份-36" transform="translate(-897.000000, -247.000000)">
            <g id="列表1备份-7" transform="translate(80.000000, 238.000000)">
                <g id="已取消备份" transform="translate(817.000000, 9.000000)">
                    <path d="M14,7 C14,10.866 10.866,14 7,14 C3.134,14 0,10.866 0,7 C0,3.134 3.134,0 7,0 C10.866,0 14,3.134 14,7" id="Fill-1" fill="#B5B8C6"></path>
                    <path d="M6.9927417,6.04421356 L8.90193001,4.13502525 C9.13624458,3.90071068 9.51614357,3.90071068 9.75045815,4.13502525 C9.98477272,4.36933983 9.98477272,4.74923882 9.75045815,4.98355339 L7.84126984,6.8927417 L9.75045815,8.80193001 C9.98477272,9.03624458 9.98477272,9.41614357 9.75045815,9.65045815 C9.51614357,9.88477272 9.13624458,9.88477272 8.90193001,9.65045815 L6.9927417,7.74126984 L5.08355339,9.65045815 C4.84923882,9.88477272 4.46933983,9.88477272 4.23502525,9.65045815 C4.00071068,9.41614357 4.00071068,9.03624458 4.23502525,8.80193001 L6.14421356,6.8927417 L4.23502525,4.98355339 C4.00071068,4.74923882 4.00071068,4.36933983 4.23502525,4.13502525 C4.46933983,3.90071068 4.84923882,3.90071068 5.08355339,4.13502525 L6.9927417,6.04421356 Z" id="形状结合" fill="#FFFFFF"></path>
                </g>
            </g>
        </g>
    </g>
</svg>