<?xml version="1.0" encoding="UTF-8"?>
<svg width="18px" height="14px" viewBox="0 0 18 14" version="1.1" xmlns="http://www.w3.org/2000/svg" xmlns:xlink="http://www.w3.org/1999/xlink">
    <!-- Generator: Sketch 56.3 (81716) - https://sketch.com -->
    <title>twitter copy</title>
    <desc>Created with Sketch.</desc>
    <g id="页面-1" stroke="none" stroke-width="1" fill="none" fill-rule="evenodd" fill-opacity="0.7">
        <g id="弹窗" transform="translate(-906.000000, -633.000000)" fill="#007AFF" fill-rule="nonzero">
            <g id="编组-5" transform="translate(781.000000, 48.000000)">
                <g id="twitter-copy" transform="translate(124.000000, 582.000000)">
                    <path d="M18.1966821,4.71670282 C17.9269208,4.83361387 17.6495708,4.93228464 17.366183,5.01239036 C17.7016951,4.64163076 17.9574975,4.20537933 18.1136488,3.72799252 C18.1486568,3.62098643 18.1123748,3.50385887 18.022362,3.43387461 C17.9324601,3.36383623 17.8075501,3.35544678 17.7085638,3.41276567 C17.1067247,3.76155032 16.4574144,4.01220546 15.7765857,4.15877728 C15.0907718,3.50396712 14.1592922,3.13131313 13.1963498,3.13131313 C11.1637237,3.13131313 9.51003736,4.74712134 9.51003736,6.73320202 C9.51003736,6.88962468 9.52017417,7.04518133 9.54022624,7.19857297 C7.01793083,6.98217926 4.67300205,5.7707967 3.06274339,3.84073591 C3.00535681,3.77194241 2.91695045,3.73486645 2.82643918,3.74195689 C2.73587252,3.74888496 2.654501,3.79878866 2.60874684,3.87548447 C2.28215292,4.42307204 2.10949464,5.04935807 2.10949464,5.68657744 C2.10949464,6.55447965 2.42661645,7.37794483 2.98680034,8.02138864 C2.81646854,7.963745 2.65117746,7.89170397 2.49341975,7.80613157 C2.40872468,7.76007078 2.30536236,7.76077441 2.22122122,7.80791772 C2.13702469,7.85506102 2.08423568,7.94177005 2.08201999,8.03654378 C2.08163224,8.0525108 2.08163224,8.06847782 2.08163224,8.08466134 C2.08163224,9.38015491 2.79519784,10.5465051 3.88615223,11.1822089 C3.7924282,11.1730617 3.69875956,11.159801 3.60570023,11.1424267 C3.5097605,11.1245111 3.41110654,11.1573653 3.34640815,11.2288651 C3.28159898,11.3003107 3.2601621,11.3999016 3.29001864,11.4908325 C3.69382963,12.7227286 4.73349061,13.6288434 5.9903454,13.9050999 C4.9479148,14.543077 3.75581379,14.8772478 2.50438745,14.8772478 C2.24326742,14.8772478 1.98065179,14.862255 1.72363081,14.8325401 C1.5959512,14.8177097 1.47386623,14.8913745 1.43038315,15.0100176 C1.38690007,15.1287148 1.4329866,15.2610516 1.5416112,15.3290873 C3.14926641,16.3363086 5.00818179,16.8686869 6.91728274,16.8686869 C10.6703431,16.8686869 13.0181523,15.1393775 14.326799,13.688652 C15.9586607,11.8797241 16.8945716,9.48537486 16.8945716,7.11960388 C16.8945716,7.02077074 16.8930207,6.92096333 16.8899187,6.82148069 C17.5337452,6.34750378 18.0880575,5.77388186 18.5391182,5.11457928 C18.6076387,5.01444713 18.6002161,4.88211031 18.5208387,4.7899346 C18.4415721,4.69770477 18.3094611,4.66788162 18.1966821,4.71670282 Z" id="XMLID_827_"></path>
                </g>
            </g>
        </g>
    </g>
</svg>