<?xml version="1.0" encoding="UTF-8"?>
<svg width="12px" height="12px" viewBox="0 0 12 12" version="1.1" xmlns="http://www.w3.org/2000/svg" xmlns:xlink="http://www.w3.org/1999/xlink">
    <!-- Generator: Sketch 55.2 (78181) - https://sketchapp.com -->
    <title>已取消</title>
    <desc>Created with Sketch.</desc>
    <g id="页面1" stroke="none" stroke-width="1" fill="none" fill-rule="evenodd">
        <g id="首页-copy-13备份-15" transform="translate(-370.000000, -71.000000)">
            <g id="K线图" transform="translate(349.000000, 57.000000)">
                <g id="已取消备份-2" transform="translate(21.000000, 14.000000)">
                    <path d="M12,6 C12,9.31371429 9.31371429,12 6,12 C2.68628571,12 0,9.31371429 0,6 C0,2.68628571 2.68628571,0 6,0 C9.31371429,0 12,2.68628571 12,6" id="Fill-1" fill="#FFC800"></path>
                    <path d="M8.13820038,3.94285714 L8.13820038,8.05714286 C8.13820038,8.34117501 7.90794682,8.57142857 7.62391466,8.57142857 C7.33988251,8.57142857 7.10962895,8.34117501 7.10962895,8.05714286 L7.10962895,3.94285714 C7.10962895,3.65882499 7.33988251,3.42857143 7.62391466,3.42857143 C7.90794682,3.42857143 8.13820038,3.65882499 8.13820038,3.94285714 Z M4.89428571,3.94285714 L4.89428571,8.05714286 C4.89428571,8.34117501 4.66403216,8.57142857 4.38,8.57142857 C4.09596784,8.57142857 3.86571429,8.34117501 3.86571429,8.05714286 L3.86571429,3.94285714 C3.86571429,3.65882499 4.09596784,3.42857143 4.38,3.42857143 C4.66403216,3.42857143 4.89428571,3.65882499 4.89428571,3.94285714 Z" id="形状结合" fill="#FFFFFF" fill-rule="nonzero"></path>
                </g>
            </g>
        </g>
    </g>
</svg>