<svg xmlns="http://www.w3.org/2000/svg" width="16" height="16" viewBox="0 0 16 16">
  <g fill="none" fill-rule="evenodd">
    <path fill="#FFC800" d="M16,8 C16,12.4182857 12.4182857,16 8,16 C3.58171429,16 0,12.4182857 0,8 C0,3.58171429 3.58171429,0 8,0 C12.4182857,0 16,3.58171429 16,8"/>
    <path fill="#FFF" fill-rule="nonzero" stroke="#FFF" stroke-width=".4" d="M7.98628571,9.57257143 C6.28966696,9.57257143 4.91428571,8.19719018 4.91428571,6.50057143 C4.91428571,4.80395268 6.28966696,3.42857143 7.98628571,3.42857143 C9.68290447,3.42857143 11.0582857,4.80395268 11.0582857,6.50057143 C11.0582857,8.19719018 9.68290447,9.57257143 7.98628571,9.57257143 Z"/>
    <path fill="#FFF" fill-rule="nonzero" d="M9.34675887,8.99616378 C9.30994563,8.7301784 9.5037915,8.48750366 9.77708283,8.4527452 C10.0495465,8.41809201 10.3011579,8.60278516 10.3387435,8.87843854 L10.4453647,12.2676638 C10.5010734,12.6701737 10.0518797,12.9529944 9.69418169,12.7472576 L7.99985834,11.7153817 L6.20581876,12.7472576 C5.84809224,12.9530108 5.39887205,12.6701293 5.45374912,12.2781546 L5.56216076,8.8716547 C5.59889159,8.60655577 5.85052983,8.42189773 6.12298799,8.45658827 C6.39627472,8.4913843 6.59008499,8.73408643 6.55417825,8.98627612 L6.55579777,11.4209771 L7.6943624,10.76611 C7.85189182,10.675504 8.04810863,10.675504 8.20563805,10.76611 L9.34438686,11.421083 L9.34675887,8.99616378 Z"/>
  </g>
</svg>
