<?xml version="1.0" encoding="UTF-8"?>
<svg width="16px" height="16px" viewBox="0 0 16 16" version="1.1" xmlns="http://www.w3.org/2000/svg" xmlns:xlink="http://www.w3.org/1999/xlink">
    <!-- Generator: Sketch 52.5 (67469) - http://www.bohemiancoding.com/sketch -->
    <title>vx充币</title>
    <desc>Created with Sketch.</desc>
    <g id="Page-1" stroke="none" stroke-width="1" fill="none" fill-rule="evenodd">
        <g id="跨链充值icon" transform="translate(-140.000000, -234.000000)">
            <g id="分组-4" transform="translate(110.000000, 143.000000)">
                <g id="网管充值-copy" transform="translate(30.000000, 91.000000)">
                    <path d="M8,16 C3.58171429,16 0,12.4182857 0,8 C0,3.58171429 3.58171429,0 8,0 C12.4182857,0 16,3.58171429 16,8 C16,12.4182857 12.4182857,16 8,16 Z" id="Fill-1" fill="#FFC800"></path>
                    <g id="分组-2" transform="translate(4.250000, 4.250000)" fill="#FFFFFF">
                        <path d="M4.12326389,6.73264352 C4.12326389,6.94389352 3.95474537,7.11518981 3.74349537,7.11518981 C3.53219907,7.11518981 3.36372685,6.94389352 3.36372685,6.73264352 L3.36372685,5.04306019 C3.36372685,4.83176389 3.53219907,4.66046759 3.74349537,4.66046759 L3.74349537,4.59671759 C3.95474537,4.59671759 4.12326389,4.83176389 4.12326389,5.04306019 L4.12326389,6.73264352 Z" id="Fill-1"></path>
                        <path d="M2.71338507e-13,4.75614352 C2.71338507e-13,5.10822685 0.283148148,5.39822685 0.635277778,5.39822685 L6.85171296,5.39822685 C7.20384259,5.39822685 7.48699074,5.10822685 7.48699074,4.75614352 L7.48699074,4.43975463 L2.71338507e-13,4.43975463 L2.71338507e-13,4.75614352 Z M7.48699074,0.627763889 C7.48699074,0.275680556 7.20384259,3.24074074e-05 6.85171296,3.24074074e-05 L0.635277778,3.24074074e-05 C0.283148148,3.24074074e-05 2.71338507e-13,0.275680556 2.71338507e-13,0.627763889 L2.71338507e-13,3.8700787 L7.48699074,3.8700787 L7.48699074,0.627763889 Z M7.18856481,7.08461574 C7.18856481,7.24188426 7.06106481,7.36943056 6.90375,7.36943056 L0.574166667,7.36943056 C0.416851852,7.36943056 0.289351852,7.24188426 0.289351852,7.08461574 C0.289351852,6.92730093 0.416851852,6.79980093 0.574166667,6.79980093 L6.90375,6.79980093 C7.06106481,6.79980093 7.18856481,6.92730093 7.18856481,7.08461574 Z" id="Fill-3"></path>
                    </g>
                </g>
            </g>
        </g>
    </g>
</svg>