<?xml version="1.0" encoding="UTF-8"?>
<svg width="18px" height="18px" viewBox="0 0 18 18" version="1.1" xmlns="http://www.w3.org/2000/svg" xmlns:xlink="http://www.w3.org/1999/xlink">
    <!-- Generator: Sketch 52.5 (67469) - http://www.bohemiancoding.com/sketch -->
    <title>未勾选</title>
    <desc>Created with Sketch.</desc>
    <g id="Page-1" stroke="none" stroke-width="1" fill="none" fill-rule="evenodd">
        <g id="vite-钱包1-copy-5" transform="translate(-540.000000, -491.000000)" fill="#FFFFFF" fill-rule="nonzero" stroke="#0C8DE6" stroke-width="0.8">
            <g id="Group-2" transform="translate(540.000000, 190.000000)">
                <g id="分组-2" transform="translate(0.000000, 301.000000)">
                    <g id="分组">
                        <path d="M2.45454545,1.63636364 C2.00267611,1.63636364 1.63636364,2.00267611 1.63636364,2.45454545 L1.63636364,15.5454545 C1.63636364,15.9973239 2.00267611,16.3636364 2.45454545,16.3636364 L15.5454545,16.3636364 C15.9973239,16.3636364 16.3636364,15.9973239 16.3636364,15.5454545 L16.3636364,2.45454545 C16.3636364,2.00267611 15.9973239,1.63636364 15.5454545,1.63636364 L2.45454545,1.63636364 Z M2.45454545,0 L15.5454545,0 C16.9010626,-1.81672859e-16 18,1.09893743 18,2.45454545 L18,15.5454545 C18,16.9010626 16.9010626,18 15.5454545,18 L2.45454545,18 C1.09893743,18 1.81672859e-16,16.9010626 0,15.5454545 L0,2.45454545 C-1.81672859e-16,1.09893743 1.09893743,2.72509288e-16 2.45454545,0 Z" id="矩形"></path>
                    </g>
                </g>
            </g>
        </g>
    </g>
</svg>