<?xml version="1.0" encoding="UTF-8"?>
<svg width="100px" height="100px" viewBox="0 0 100 100" version="1.1" xmlns="http://www.w3.org/2000/svg" xmlns:xlink="http://www.w3.org/1999/xlink">
    <!-- Generator: Sketch 55.2 (78181) - https://sketchapp.com -->
    <title>解锁</title>
    <desc>Created with Sketch.</desc>
    <defs>
        <path d="M60.5428571,0.116428571 C59.7357143,0.116428571 58.905,0.16 58.0528571,0.249285714 L58.0528571,0.249285714 C35.0792857,2.66357143 -2.08928571,30.2685714 0.345714286,53.4342857 L0.345714286,53.4342857 C2.78071429,76.5985714 45.01,97.1435714 67.9828571,94.7285714 L67.9828571,94.7285714 C85.5835714,92.8785714 89.9714286,76.3942857 90.1685714,60.655 L90.1685714,60.655 L90.1685714,58.36 C90.12,54.35 89.8242857,50.4371429 89.4335714,46.8842857 L89.4335714,46.8842857 C87.5214286,29.4771429 81.495,0.119285714 60.5435714,0.116428571 L60.5435714,0.116428571 C60.5421429,0.116428571 60.5442857,0.116428571 60.5428571,0.116428571 L60.5428571,0.116428571 Z" id="path-1"></path>
        <linearGradient x1="3.85452822%" y1="8.43014242%" x2="100%" y2="91.5698576%" id="linearGradient-3">
            <stop stop-color="#54B6FF" offset="0%"></stop>
            <stop stop-color="#2A7FFF" offset="100%"></stop>
        </linearGradient>
        <path d="M32.85,49.8695227 L32.85,36.1902437 C32.85,25.1364874 40.8253121,16.1833837 50.4214286,16.1833837 C60.017639,16.1833837 67.9928571,25.1365978 67.9928571,36.1902437 L67.9928571,49.8695227 C67.9928571,51.485535 69.2720436,52.7955717 70.85,52.7955717 C72.4279564,52.7955717 73.7071429,51.485535 73.7071429,49.8695227 L73.7071429,36.1902437 C73.7071429,22.0184178 63.2966437,10.3312857 50.4221429,10.3312857 C37.5463411,10.3312857 27.1357143,22.0182793 27.1357143,36.1902437 L27.1357143,49.8695227 C27.1357143,51.485535 28.4149007,52.7955717 29.9928571,52.7955717 C31.5708136,52.7955717 32.85,51.485535 32.85,49.8695227 Z" id="path-4"></path>
        <linearGradient x1="3.85452822%" y1="24.7160494%" x2="100%" y2="75.2839506%" id="linearGradient-5">
            <stop stop-color="#54B6FF" offset="0%"></stop>
            <stop stop-color="#2A7FFF" offset="100%"></stop>
        </linearGradient>
        <path d="M79.3820488,38.2857143 C81.0255826,38.2857143 82.3571429,39.4356733 82.3571429,40.8538841 L82.3571429,81.431111 C82.3571429,82.850041 81.0255826,84 79.3820488,84 L21.0458136,84 C19.4029888,84 18.0714286,82.850041 18.0714286,81.4318302 L18.0714286,40.8538841 C18.0714286,39.4356733 19.4029888,38.2857143 21.0458136,38.2857143 L79.3820488,38.2857143 Z" id="path-6"></path>
        <filter x="-17.1%" y="-15.3%" width="134.2%" height="148.1%" filterUnits="objectBoundingBox" id="filter-7">
            <feOffset dx="0" dy="4" in="SourceAlpha" result="shadowOffsetOuter1"></feOffset>
            <feGaussianBlur stdDeviation="3" in="shadowOffsetOuter1" result="shadowBlurOuter1"></feGaussianBlur>
            <feColorMatrix values="0 0 0 0 0   0 0 0 0 0   0 0 0 0 0  0 0 0 0.106544384 0" type="matrix" in="shadowBlurOuter1"></feColorMatrix>
        </filter>
    </defs>
    <g id="页面1" stroke="none" stroke-width="1" fill="none" fill-rule="evenodd" opacity="0.798339844">
        <g id="弹窗新修改" transform="translate(-211.000000, -605.000000)">
            <g id="解锁密码" transform="translate(71.000000, 525.000000)">
                <g id="Group-2" transform="translate(140.000000, 80.000000)">
                    <g id="编组" transform="translate(5.714286, 0.000000)">
                        <mask id="mask-2" fill="white">
                            <use xlink:href="#path-1"></use>
                        </mask>
                        <use id="Clip-3" fill="#E9F3FF" xlink:href="#path-1"></use>
                        <g id="Stroke-4">
                            <use fill="url(#linearGradient-3)" xlink:href="#path-4"></use>
                            <use fill-opacity="0.3" fill="#FFFFFF" xlink:href="#path-4"></use>
                        </g>
                        <g id="Fill-6">
                            <use fill="black" fill-opacity="1" filter="url(#filter-7)" xlink:href="#path-6"></use>
                            <use fill="url(#linearGradient-5)" fill-rule="evenodd" xlink:href="#path-6"></use>
                            <use fill-opacity="0.3" fill="#FFFFFF" fill-rule="evenodd" xlink:href="#path-6"></use>
                        </g>
                        <path d="M58.8583615,55.9791429 C58.8775714,51.442 55.2154286,47.7491429 50.679,47.7304956 C46.1425714,47.7112857 42.449,51.3734286 42.4303512,55.9098571 C42.4168571,59.0455714 44.1904286,61.9155714 47.0004286,63.3062857 L45.7318571,72.1777143 C45.6047143,73.0762857 46.2304286,73.907 47.129,74.0341429 C47.2054286,74.0448571 47.2818571,74.0506464 47.3582857,74.0506464 L53.9304286,74.0506464 C54.8375714,74.0591429 55.5804286,73.3312857 55.5897143,72.4241429 C55.5904286,72.3405714 55.5847143,72.257 55.5725714,72.1741429 L54.3047143,63.3027143 C57.0804286,61.9134286 58.8411429,59.0827143 58.8583615,55.9791429" id="Fill-8" fill="#FFFFFF"></path>
                    </g>
                </g>
            </g>
        </g>
    </g>
</svg>