<?xml version="1.0" encoding="UTF-8"?>
<svg width="18px" height="18px" viewBox="0 0 18 18" version="1.1" xmlns="http://www.w3.org/2000/svg" xmlns:xlink="http://www.w3.org/1999/xlink">
    <!-- Generator: Sketch 54.1 (76490) - https://sketchapp.com -->
    <title>锁</title>
    <desc>Created with Sketch.</desc>
    <g id="Page-1" stroke="none" stroke-width="1" fill="none" fill-rule="evenodd" opacity="0.7">
        <g id="设置" transform="translate(-668.000000, -436.000000)" fill="#007AFF" stroke="#007AFF" stroke-width="0.1">
            <g id="锁" transform="translate(668.000000, 436.000000)">
                <path d="M14.0612903,8.35714286 L12.3408602,8.35714286 L2.74615385,8.35714286 C2.40705231,8.35714286 2.13076923,8.64576 2.13076923,9 L2.13076923,16.0714286 C2.13076923,16.4262857 2.40705231,16.7142857 2.74615385,16.7142857 L15.0538462,16.7142857 C15.3935385,16.7142857 15.6692308,16.4262857 15.6692308,16.0714286 L15.6692308,9 C15.6692308,8.64576 15.3935385,8.35714286 15.0538462,8.35714286 L14.0612903,8.35714286 Z M5.21333645,7.09907834 L3.98256722,7.09907834 L3.97692308,5.094 C3.97692308,1.90542857 6.46366769,-2.23820962e-13 8.868,-2.23820962e-13 C10.9173111,-2.23820962e-13 13.1708084,1.60192354 13.7050026,4.01438615 C13.7311994,4.13269296 13.7542952,4.28544261 13.7742898,4.47263508 L13.7742627,4.47263797 C13.8076855,4.78554618 13.5811178,5.06630292 13.2682096,5.09972571 C13.2481086,5.10187276 13.2279076,5.10294857 13.2076923,5.10294857 C12.8666769,5.10294857 12.5773948,4.8525445 12.5285162,4.51505019 C12.4979648,4.30403128 12.462373,4.13483894 12.4217508,4.00747175 C11.907281,2.39440076 10.3169826,1.28571429 8.868,1.28571429 C7.06861538,1.28571429 5.20769231,2.71028571 5.20769231,5.094 L5.21333645,7.09907834 Z M15.0538462,18 L2.74615385,18 C1.72835692,18 0.9,17.1347657 0.9,16.0714286 L0.9,9 C0.9,7.93676571 1.72835692,7.07142857 2.74615385,7.07142857 L15.0538462,7.07142857 C16.0717415,7.07142857 16.9,7.93676571 16.9,9 L16.9,16.0714286 C16.9,17.1347657 16.0717415,18 15.0538462,18 Z M8.9,14.1428571 C8.56030769,14.1428571 8.28461538,13.8554743 8.28461538,13.5 L8.28461538,11.5714286 C8.28461538,11.2159543 8.56030769,10.9285714 8.9,10.9285714 C9.23969231,10.9285714 9.51538462,11.2159543 9.51538462,11.5714286 L9.51538462,13.5 C9.51538462,13.8554743 9.23969231,14.1428571 8.9,14.1428571 Z" id="合并形状"></path>
            </g>
        </g>
    </g>
</svg>