<?xml version="1.0" encoding="UTF-8"?>
<svg width="24px" height="24px" viewBox="0 0 24 24" version="1.1" xmlns="http://www.w3.org/2000/svg" xmlns:xlink="http://www.w3.org/1999/xlink">
    <!-- Generator: Sketch 55.2 (78181) - https://sketchapp.com -->
    <title>usd@1x</title>
    <desc>Created with Sketch.</desc>
    <defs>
        <linearGradient x1="33.7917091%" y1="-10.4966906%" x2="100.605856%" y2="87.6369925%" id="linearGradient-1">
            <stop stop-color="#0B30E4" offset="0%"></stop>
            <stop stop-color="#0D6CEF" offset="31.4739301%"></stop>
            <stop stop-color="#0998F3" offset="49.1836977%"></stop>
            <stop stop-color="#00C3FF" offset="71.3239784%"></stop>
            <stop stop-color="#00ECFF" offset="100%"></stop>
        </linearGradient>
    </defs>
    <g id="页面1" stroke="none" stroke-width="1" fill="none" fill-rule="evenodd">
        <g id="挖矿-copy-12备份-10" transform="translate(-1010.000000, -104.000000)">
            <g id="btc" transform="translate(80.000000, 90.000000)">
                <g id="usd-icon" transform="translate(930.000000, 14.000000)">
                    <path d="M12,0.25 C5.51065419,0.25 0.25,5.51065419 0.25,12 C0.25,18.4893458 5.51065419,23.75 12,23.75 C18.4893458,23.75 23.75,18.4893458 23.75,12 C23.75,5.51065419 18.4893458,0.25 12,0.25 Z" id="Rectangle-3" stroke-opacity="0.67" stroke="#007AFF" stroke-width="0.5" fill="#F2F8FF"></path>
                    <path d="M13.8788398,11.3868302 C13.348707,11.093862 12.78512,10.8706482 12.2270854,10.6390639 C11.9033975,10.5051356 11.5936883,10.3488859 11.3202513,10.1312524 C10.781748,9.70156579 10.8849844,9.00402258 11.5155634,8.72779546 C11.6941345,8.64967062 11.8810761,8.62455907 12.0708078,8.61339837 C12.8018331,8.57433595 13.4966141,8.70826425 14.1578571,9.02634396 C14.4871254,9.18538381 14.5959143,9.1351607 14.7075212,8.79196944 C14.8247084,8.42924697 14.9223645,8.06094415 15.0312091,7.6954315 C15.1037257,7.44989629 15.0144402,7.28806627 14.7828559,7.18482987 C14.3587496,6.99788829 13.9235105,6.86395999 13.4658943,6.7914155 C12.8688252,6.69933979 12.8688252,6.69654962 12.8660071,6.09666245 C12.8632448,5.25124008 12.8632448,5.25124008 12.0150044,5.25124008 C11.8922368,5.25124008 11.7694692,5.2484499 11.6467016,5.25124008 C11.250497,5.26240077 11.1835329,5.33215509 11.1723722,5.73114981 C11.1667918,5.90972087 11.1723722,6.08829194 11.169582,6.26965317 C11.1667918,6.79978601 11.1640017,6.7914155 10.6561902,6.97556691 C9.42851414,7.42199456 8.66958712,8.25904642 8.5886721,9.59832939 C8.51612761,10.7841529 9.13554598,11.5849325 10.1093163,12.1681065 C10.7092035,12.5280109 11.3732646,12.7400919 12.009424,13.0218715 C12.2577494,13.1307161 12.4949141,13.2562739 12.7014148,13.4292367 C13.3124348,13.934258 13.2008278,14.7741001 12.4753829,15.0921798 C12.0875768,15.2623803 11.6773935,15.3042329 11.2560774,15.2512196 C10.6059671,15.1703046 9.98375853,15.000132 9.39782223,14.6959752 C9.05463097,14.5174321 8.95418475,14.5648371 8.83699749,14.935958 C8.73655127,15.2568279 8.64726573,15.58046 8.5579802,15.9041201 C8.43800277,16.339387 8.48264554,16.4426513 8.89838129,16.646306 C9.42851414,16.9030298 9.99491923,17.0341401 10.572485,17.1262437 C11.024493,17.1987603 11.0384439,17.2182915 11.0440242,17.6870405 C11.0468144,17.8990937 11.0468144,18.113937 11.0496046,18.326018 C11.0523947,18.5938467 11.1807427,18.7500964 11.4569698,18.7556767 C11.7694692,18.7612571 12.0847587,18.7612571 12.3972581,18.7528866 C12.6539819,18.7473062 12.78512,18.6077976 12.78512,18.3483115 C12.78512,18.0581335 12.7990709,17.7651654 12.7878823,17.4750153 C12.7739314,17.1792291 12.9022793,17.0285876 13.186877,16.9504349 C13.8425676,16.7718638 14.4006022,16.420302 14.8303167,15.8957495 C16.0244828,14.4448597 15.5697125,12.321566 13.8788398,11.3868302" id="Fill-1" fill="url(#linearGradient-1)"></path>
                </g>
            </g>
        </g>
    </g>
</svg>