<?xml version="1.0" encoding="UTF-8"?>
<svg width="90px" height="50px" viewBox="0 0 90 50" version="1.1" xmlns="http://www.w3.org/2000/svg" xmlns:xlink="http://www.w3.org/1999/xlink">
    <!-- Generator: Sketch 51.2 (57519) - http://www.bohemiancoding.com/sketch -->
    <title>ViteLogo2</title>
    <desc>Created with Sketch.</desc>
    <defs>
        <rect id="path-1" x="0" y="0" width="118" height="800"></rect>
        <filter x="-53.0%" y="-7.6%" width="205.9%" height="115.6%" filterUnits="objectBoundingBox" id="filter-2">
            <feMorphology radius="0.5" operator="dilate" in="SourceAlpha" result="shadowSpreadOuter1"></feMorphology>
            <feOffset dx="0" dy="2" in="shadowSpreadOuter1" result="shadowOffsetOuter1"></feOffset>
            <feGaussianBlur stdDeviation="20" in="shadowOffsetOuter1" result="shadowBlurOuter1"></feGaussianBlur>
            <feComposite in="shadowBlurOuter1" in2="SourceAlpha" operator="out" result="shadowBlurOuter1"></feComposite>
            <feColorMatrix values="0 0 0 0 0.866666667   0 0 0 0 0.898039216   0 0 0 0 0.988235294  0 0 0 0.495555933 0" type="matrix" in="shadowBlurOuter1"></feColorMatrix>
        </filter>
        <linearGradient x1="0%" y1="0%" x2="136.342633%" y2="155.448607%" id="linearGradient-3">
            <stop stop-color="#052EF5" offset="0%"></stop>
            <stop stop-color="#0D6DF0" offset="31.4739301%"></stop>
            <stop stop-color="#0B92E7" offset="49.1836977%"></stop>
            <stop stop-color="#0BB6EB" offset="71.3239784%"></stop>
            <stop stop-color="#00E0F2" offset="100%"></stop>
        </linearGradient>
    </defs>
    <g id="Page-1" stroke="none" stroke-width="1" fill="none" fill-rule="evenodd">
        <g id="vite-钱包6-copy-2" transform="translate(-14.000000, -24.000000)">
            <rect id="Rectangle-2" fill="#FAFCFF" x="0" y="0" width="1440" height="1024"></rect>
            <g id="side-panel" transform="translate(59.000000, 400.000000) scale(1, -1) translate(-59.000000, -400.000000) ">
                <use fill="black" fill-opacity="1" filter="url(#filter-2)" xlink:href="#path-1"></use>
                <rect stroke="#F5F4F5" stroke-width="1" stroke-linejoin="square" fill="#FFFFFF" fill-rule="evenodd" x="0.5" y="0.5" width="117" height="799"></rect>
            </g>
            <g id="ViteLogo" transform="translate(14.000000, 24.000000)" fill="url(#linearGradient-3)">
                <path d="M0,12.3392321 L16.3461538,8.65384615 L14.7171102,50 L0,12.3392321 Z M20.2208119,7.6978745 L52.8846154,7.10542736e-15 L15.3846154,49.5192308 L20.2208119,7.6978745 Z M46.8587343,36.2263893 L52.3489598,22.1153846 L53.3269231,22.1153846 L47.3923319,37.0192308 L46.2587734,37.0192308 L40.3461538,22.1153846 L41.3685088,22.1153846 L46.8143426,36.2263893 L46.8587343,36.2263893 Z M57.0961538,37.0192308 L57.0961538,22.1153846 L58.0576923,22.1153846 L58.0576923,37.0192308 L57.0961538,37.0192308 Z M61.8269231,22.9086889 L61.8269231,22.1153846 L74.3269231,22.1153846 L74.3269231,22.9086889 L68.568118,22.9086889 L68.568118,37.0192308 L67.5626782,37.0192308 L67.5626782,22.9086889 L61.8269231,22.9086889 Z M78.0961538,22.1153846 L89.0397829,22.1153846 L89.0397829,22.9091518 L79.0992662,22.9091518 L79.0992662,28.8783733 L88.4469302,28.8783733 L88.4469302,29.6716777 L79.0992662,29.6716777 L79.0992662,36.2263893 L89.1538462,36.2263893 L89.1538462,37.0192308 L78.0961538,37.0192308 L78.0961538,22.1153846 Z" id="Combined-Shape"></path>
            </g>
        </g>
    </g>
</svg>