<?xml version="1.0" encoding="UTF-8"?>
<svg width="90px" height="50px" viewBox="0 0 90 50" version="1.1" xmlns="http://www.w3.org/2000/svg" xmlns:xlink="http://www.w3.org/1999/xlink">
    <title>ViteLogo2</title>
    <desc>Created with Sketch.</desc>
    <defs>
        <linearGradient x1="0%" y1="0%" x2="136.342633%" y2="155.448607%" id="linearGradient-1">
            <stop stop-color="#052EF5" offset="0%"></stop>
            <stop stop-color="#0D6DF0" offset="31.4739301%"></stop>
            <stop stop-color="#0B92E7" offset="49.1836977%"></stop>
            <stop stop-color="#0BB6EB" offset="71.3239784%"></stop>
            <stop stop-color="#00E0F2" offset="100%"></stop>
        </linearGradient>
    </defs>
    <g id="Page-1" stroke="none" stroke-width="1" fill="none" fill-rule="evenodd">
        <g transform="translate(-14.000000, -24.000000)">
            <g id="ViteLogo" transform="translate(14.000000, 24.000000)">
                <path d="M46.8587343,36.2263893 L52.3489598,22.1153846 L53.3269231,22.1153846 L47.3923319,37.0192308 L46.2587734,37.0192308 L40.3461538,22.1153846 L41.3685088,22.1153846 L46.8143426,36.2263893 L46.8587343,36.2263893 Z M57.0961538,37.0192308 L57.0961538,22.1153846 L58.0576923,22.1153846 L58.0576923,37.0192308 L57.0961538,37.0192308 Z M61.8269231,22.9086889 L61.8269231,22.1153846 L74.3269231,22.1153846 L74.3269231,22.9086889 L68.568118,22.9086889 L68.568118,37.0192308 L67.5626782,37.0192308 L67.5626782,22.9086889 L61.8269231,22.9086889 Z M78.0961538,22.1153846 L89.0397829,22.1153846 L89.0397829,22.9091518 L79.0992662,22.9091518 L79.0992662,28.8783733 L88.4469302,28.8783733 L88.4469302,29.6716777 L79.0992662,29.6716777 L79.0992662,36.2263893 L89.1538462,36.2263893 L89.1538462,37.0192308 L78.0961538,37.0192308 L78.0961538,22.1153846 Z" id="Combined-Shape" fill="#24283E"></path>
                <path d="M0,12.3392321 L16.3461538,8.65384615 L14.7171102,50 L0,12.3392321 Z M20.2208119,7.6978745 L52.8846154,5.68434189e-14 L15.3846154,49.5192308 L20.2208119,7.6978745 Z" id="Combined-Shape" fill="url(#linearGradient-1)"></path>
            </g>
        </g>
    </g>
</svg>