<?xml version="1.0" encoding="UTF-8" standalone="no"?>
<svg width="106px" height="50px" viewBox="0 0 106 50" version="1.1" xmlns="http://www.w3.org/2000/svg" xmlns:xlink="http://www.w3.org/1999/xlink">
    <!-- Generator: Sketch 49.3 (51167) - http://www.bohemiancoding.com/sketch -->
    <title>ViteLogo</title>
    <desc>Created with Sketch.</desc>
    <defs></defs>
    <g id="Page-1" stroke="none" stroke-width="1" fill="none" fill-rule="evenodd">
        <g id="vite-钱包6" transform="translate(-30.000000, -15.000000)" fill="#FFFFFF">
            <g id="Page-1" transform="translate(30.000000, 15.000000)">
                <polygon id="Fill-1" points="0 12.3392321 14.7171102 50 16.3461538 8.65384615"></polygon>
                <polygon id="Fill-2" points="20.2208119 7.6978745 15.3846154 49.5192308 52.8846154 0"></polygon>
                <polygon id="Fill-3" points="47.8587343 36.2263893 47.8143426 36.2263893 42.3685088 22.1153846 41.3461538 22.1153846 47.2587734 37.0192308 48.3923319 37.0192308 54.3269231 22.1153846 53.3489598 22.1153846"></polygon>
                <polygon id="Fill-4" points="60.0961538 37.0192308 61.0576923 37.0192308 61.0576923 22.1153846 60.0961538 22.1153846"></polygon>
                <polygon id="Fill-5" points="66.8269231 22.9086889 72.5626782 22.9086889 72.5626782 37.0192308 73.568118 37.0192308 73.568118 22.9086889 79.3269231 22.9086889 79.3269231 22.1153846 66.8269231 22.1153846"></polygon>
                <polygon id="Fill-6" points="85.0961538 22.1153846 85.0961538 37.0192308 96.1538462 37.0192308 96.1538462 36.2263893 86.0992662 36.2263893 86.0992662 29.6716777 95.4469302 29.6716777 95.4469302 28.8783733 86.0992662 28.8783733 86.0992662 22.9091518 96.0397829 22.9091518 96.0397829 22.1153846"></polygon>
            </g>
        </g>
    </g>
</svg>