<svg xmlns="http://www.w3.org/2000/svg" xmlns:xlink="http://www.w3.org/1999/xlink" width="24" height="24" viewBox="0 0 24 24">
  <defs>
    <path id="vite_icon-a" d="M9.98494518,5.01195946 L7.98645559,10.0330853 L6.01354441,10.0121872 L4.04291895,5.01892549 L5.40058226,5.00997847 L6.98955095,9.03618061 L8.58670943,5.0233833 L9.98494518,5.01195946 Z M6.98360656,0 C8.90711344,0 10.5573702,0.68465669 11.9344262,2.05399061 C13.3114823,3.42332453 14,5.07197784 14,7 C14,8.92802216 13.3114823,10.5766755 11.9344262,11.9460094 C10.5573702,13.3153433 8.90711344,14 6.98360656,14 C5.06009967,14 3.41530738,13.3153433 2.04918033,11.9460094 C0.683053279,10.5766755 0,8.92802216 0,7 C0,5.07197784 0.683053279,3.42332453 2.04918033,2.05399061 C3.41530738,0.68465669 5.06009967,0 6.98360656,0 Z M7,12.6197183 C8.54099131,12.6197183 9.85791803,12.071993 10.9508197,10.9765258 C12.0437213,9.88105869 12.5901639,8.55556333 12.5901639,7 C12.5901639,5.44443667 12.0437213,4.11894131 10.9508197,3.02347418 C9.85791803,1.92800704 8.54099131,1.38028169 7,1.38028169 C5.45900869,1.38028169 4.14208197,1.92800704 3.04918033,3.02347418 C1.95627869,4.11894131 1.40983607,5.44443667 1.40983607,7 C1.40983607,8.55556333 1.95627869,9.88105869 3.04918033,10.9765258 C4.14208197,12.071993 5.45900869,12.6197183 7,12.6197183 Z"/>
  </defs>
  <g fill="none" fill-rule="evenodd" transform="translate(5 5)">
    <use fill="#FFF" xlink:href="#vite_icon-a"/>
  </g>
</svg>
