<svg xmlns="http://www.w3.org/2000/svg" width="90" height="50" viewBox="0 0 90 50">
  <path fill="#FFF" fill-rule="evenodd" d="M0,12.3392321 L16.3461538,8.65384615 L14.7171102,50 L0,12.3392321 Z M20.2208119,7.6978745 L52.8846154,7.10542736e-15 L15.3846154,49.5192308 L20.2208119,7.6978745 Z M46.8587343,36.2263893 L52.3489598,22.1153846 L53.3269231,22.1153846 L47.3923319,37.0192308 L46.2587734,37.0192308 L40.3461538,22.1153846 L41.3685088,22.1153846 L46.8143426,36.2263893 L46.8587343,36.2263893 Z M57.0961538,37.0192308 L57.0961538,22.1153846 L58.0576923,22.1153846 L58.0576923,37.0192308 L57.0961538,37.0192308 Z M61.8269231,22.9086889 L61.8269231,22.1153846 L74.3269231,22.1153846 L74.3269231,22.9086889 L68.568118,22.9086889 L68.568118,37.0192308 L67.5626782,37.0192308 L67.5626782,22.9086889 L61.8269231,22.9086889 Z M78.0961538,22.1153846 L89.0397829,22.1153846 L89.0397829,22.9091518 L79.0992662,22.9091518 L79.0992662,28.8783733 L88.4469302,28.8783733 L88.4469302,29.6716777 L79.0992662,29.6716777 L79.0992662,36.2263893 L89.1538462,36.2263893 L89.1538462,37.0192308 L78.0961538,37.0192308 L78.0961538,22.1153846 Z"/>
</svg>
