<?xml version="1.0" encoding="UTF-8"?>
<svg width="30px" height="30px" viewBox="0 0 30 30" version="1.1" xmlns="http://www.w3.org/2000/svg" xmlns:xlink="http://www.w3.org/1999/xlink">
    <!-- Generator: Sketch 52.2 (67145) - http://www.bohemiancoding.com/sketch -->
    <title>投票选中</title>
    <desc>Created with Sketch.</desc>
    <defs>
        <linearGradient x1="75.9565844%" y1="71.3147538%" x2="29.1375601%" y2="23.6048796%" id="linearGradient-1">
            <stop stop-color="#1786FA" offset="0%"></stop>
            <stop stop-color="#0A4EF2" offset="100%"></stop>
        </linearGradient>
    </defs>
    <g id="Page-1" stroke="none" stroke-width="1" fill="none" fill-rule="evenodd">
        <g id="投票" transform="translate(-46.000000, -405.000000)">
            <g transform="translate(46.000000, 405.000000)" id="分组-3">
                <g transform="translate(2.000000, 1.000000)">
                    <g id="投票" transform="translate(5.000000, 0.000000)">
                        <path d="M15.1823111,7.40808889 L7.96631111,14.6240889 C7.62142222,14.9698667 7.0552,14.9698667 6.70942222,14.6240889 L0.817866667,8.73164444 C0.472088889,8.38675556 0.472088889,7.82053333 0.817866667,7.47475556 L8.03386667,0.259644444 C8.37875556,-0.0861333333 8.94497778,-0.0861333333 9.29075556,0.259644444 L15.1823111,6.1512 C15.5280889,6.49697778 15.5280889,7.06231111 15.1823111,7.40808889" id="Fill-5" fill="url(#linearGradient-1)"></path>
                        <path d="M6.88888889,9.21928889 L10.8888889,5.21928889" id="Stroke-7" stroke="#FFFFFF" stroke-linecap="round" stroke-linejoin="round"></path>
                        <path d="M6.88888889,9.21928889 L5.11111111,7.44151111" id="Stroke-9" stroke="#FFFFFF" stroke-linecap="round" stroke-linejoin="round"></path>
                    </g>
                    <path d="M17.9860057,13 L17.9860057,14.1587805 L20.0966953,14.1587805 L21.0693391,16.4541316 L3.93066093,16.4541316 L4.90330467,14.1587805 L7.01399427,14.1587805 L7.01399427,13 L4.42885095,13 C3.90487412,13 3.40182355,13.2056292 3.02787902,13.5726676 L0.646410193,15.9101548 C0.235554847,16.3134223 0.0183995583,16.8741767 0.0504921133,17.4489783 L0.394560014,23.6114912 C0.453720253,24.6710952 1.33019575,25.5 2.39145003,25.5 L23.3852204,25.5 C24.4897899,25.5 25.3852204,24.6045695 25.3852204,23.5 C25.3852204,23.4628146 25.3841833,23.4256364 25.3821104,23.3885088 L25.0431662,17.3177662 C25.0153932,16.8203309 24.8029611,16.3511705 24.4474564,16.0021295 L21.9732127,13.5728721 C21.5992497,13.2057083 21.0961104,13 20.5720326,13 L17.9860057,13 Z" id="路径" fill="url(#linearGradient-1)"></path>
                </g>
            </g>
        </g>
    </g>
</svg>