<?xml version="1.0" encoding="UTF-8"?>
<svg width="24px" height="24px" viewBox="0 0 24 24" version="1.1" xmlns="http://www.w3.org/2000/svg" xmlns:xlink="http://www.w3.org/1999/xlink">
    <!-- Generator: Sketch 54.1 (76490) - https://sketchapp.com -->
    <title>更多蓝</title>
    <desc>Created with Sketch.</desc>
    <defs>
        <linearGradient x1="75.9565844%" y1="66.0973163%" x2="29.1375601%" y2="30.0658921%" id="linearGradient-1">
            <stop stop-color="#1786FA" offset="0%"></stop>
            <stop stop-color="#0A4EF2" offset="100%"></stop>
        </linearGradient>
    </defs>
    <g id="页面1" stroke="none" stroke-width="1" fill="none" fill-rule="evenodd">
        <g id="资产管理" transform="translate(-23.000000, -300.000000)" fill="url(#linearGradient-1)" fill-rule="nonzero">
            <g id="iconfinder_21.app-option-menu_4201225" transform="translate(23.000000, 300.000000)">
                <path d="M19.5635451,4.75 C20.0924312,4.75 20.510552,5.15931352 20.510552,5.69285714 L20.510552,8.00714286 C20.510552,8.54068648 20.0924312,8.95 19.5635451,8.95 L9.7132001,8.95 C9.18431403,8.95 8.7661932,8.54068648 8.7661932,8.00714286 L8.7661932,5.69285714 C8.7661932,5.15931352 9.18431403,4.75 9.7132001,4.75 L19.5635451,4.75 Z M19.5635451,10.15 C20.0924312,10.15 20.510552,10.5593135 20.510552,11.0928571 L20.510552,13.4071429 C20.510552,13.9406865 20.0924312,14.35 19.5635451,14.35 L9.7132001,14.35 C9.18431403,14.35 8.7661932,13.9406865 8.7661932,13.4071429 L8.7661932,11.0928571 C8.7661932,10.5593135 9.18431403,10.15 9.7132001,10.15 L19.5635451,10.15 Z M19.5635451,15.55 C20.0924312,15.55 20.510552,15.9593135 20.510552,16.4928571 L20.510552,18.8071429 C20.510552,19.3406865 20.0924312,19.75 19.5635451,19.75 L9.7132001,19.75 C9.18431403,19.75 8.7661932,19.3406865 8.7661932,18.8071429 L8.7661932,16.4928571 C8.7661932,15.9593135 9.18431403,15.55 9.7132001,15.55 L19.5635451,15.55 Z M6.5610897,4.75 C7.08997577,4.75 7.5080966,5.15931352 7.5080966,5.69285714 L7.5080966,8.00714286 C7.5080966,8.54068648 7.08997577,8.95 6.5610897,8.95 L4.1970069,8.95 C3.66812083,8.95 3.25,8.54068648 3.25,8.00714286 L3.25,5.69285714 C3.25,5.15931352 3.66812083,4.75 4.1970069,4.75 L6.5610897,4.75 Z M6.5610897,10.15 C7.08997577,10.15 7.5080966,10.5593135 7.5080966,11.0928571 L7.5080966,13.4071429 C7.5080966,13.9406865 7.08997577,14.35 6.5610897,14.35 L4.1970069,14.35 C3.66812083,14.35 3.25,13.9406865 3.25,13.4071429 L3.25,11.0928571 C3.25,10.5593135 3.66812083,10.15 4.1970069,10.15 L6.5610897,10.15 Z M6.5610897,15.55 C7.08997577,15.55 7.5080966,15.9593135 7.5080966,16.4928571 L7.5080966,18.8071429 C7.5080966,19.3406865 7.08997577,19.75 6.5610897,19.75 L4.1970069,19.75 C3.66812083,19.75 3.25,19.3406865 3.25,18.8071429 L3.25,16.4928571 C3.25,15.9593135 3.66812083,15.55 4.1970069,15.55 L6.5610897,15.55 Z" id="形状结合"></path>
            </g>
        </g>
    </g>
</svg>