<?xml version="1.0" encoding="UTF-8"?>
<svg width="24px" height="24px" viewBox="0 0 24 24" version="1.1" xmlns="http://www.w3.org/2000/svg" xmlns:xlink="http://www.w3.org/1999/xlink">
    <!-- Generator: Sketch 52.5 (67469) - http://www.bohemiancoding.com/sketch -->
    <title>side new</title>
    <desc>Created with Sketch.</desc>
    <defs>
        <linearGradient x1="75.9565844%" y1="71.3147538%" x2="29.1375601%" y2="23.6048796%" id="linearGradient-1">
            <stop stop-color="#1786FA" offset="0%"></stop>
            <stop stop-color="#0A4EF2" offset="100%"></stop>
        </linearGradient>
        <path d="M2.000038,19.0225726 L2.000038,7.42052586 C2.42726081,7.78629826 2.98282051,8.00762228 3.58939188,8.00762228 L20.2435148,8.00762228 C20.5956655,8.00762228 20.8811608,8.29157161 20.8811608,8.64190967 L20.8811608,11.5575597 L18.2448773,11.5575597 C16.9332395,11.5575597 15.8684982,12.628998 15.8885628,13.9381671 C15.9083298,15.2243751 16.9873969,16.2458738 18.2805854,16.2458738 L20.8811608,16.2458738 L20.8811608,19.9693523 C20.8811608,20.3196481 20.5956655,20.6036397 20.2435148,20.6036397 L3.5894769,20.6036397 C2.71160841,20.6036397 2.000038,19.8957326 2.000038,19.0225726 Z M21.6530781,12.4032931 C21.8443719,12.4032931 22,12.5581016 22,12.7483878 L22,15.0550796 C22,15.2453235 21.8443719,15.4001742 21.6530781,15.4001742 L18.2448603,15.4001742 C17.4142626,15.4001742 16.7384854,14.7279564 16.7384854,13.9017337 C16.7384854,13.0754686 17.4142626,12.4032931 18.2448603,12.4032931 L21.6530781,12.4032931 Z M2.00045459,5.61899744 C1.97928474,4.72993794 2.70024981,4 3.58934087,4 L18.5193966,4 C18.8715472,4 19.1570426,4.28394932 19.1570426,4.6342874 L19.1570426,7.16188038 L3.61914019,7.16188038 C2.75126149,7.16188038 2.02094428,6.48209344 2.00045459,5.61899744 Z" id="path-2"></path>
    </defs>
    <g id="Page-1" stroke="none" stroke-width="1" fill="none" fill-rule="evenodd">
        <g id="web新样式" transform="translate(-23.000000, -110.000000)">
            <g id="side-panel" transform="translate(12.000000, 30.000000)">
                <g id="钱包" transform="translate(11.000000, 80.000000)">
                    <mask id="mask-3" fill="white">
                        <use xlink:href="#path-2"></use>
                    </mask>
                    <use id="Combined-Shape" fill="url(#linearGradient-1)" fill-rule="nonzero" xlink:href="#path-2"></use>
                </g>
            </g>
        </g>
    </g>
</svg>