<?xml version="1.0" encoding="UTF-8"?>
<svg width="24px" height="24px" viewBox="0 0 24 24" version="1.1" xmlns="http://www.w3.org/2000/svg" xmlns:xlink="http://www.w3.org/1999/xlink">
    <!-- Generator: Sketch 54.1 (76490) - https://sketchapp.com -->
    <title>其它未选中</title>
    <desc>Created with Sketch.</desc>
    <defs>
        <rect id="path-1" x="0" y="0" width="70" height="858"></rect>
        <filter x="-25.0%" y="-1.8%" width="150.0%" height="104.1%" filterUnits="objectBoundingBox" id="filter-2">
            <feMorphology radius="0.5" operator="dilate" in="SourceAlpha" result="shadowSpreadOuter1"></feMorphology>
            <feOffset dx="0" dy="2" in="shadowSpreadOuter1" result="shadowOffsetOuter1"></feOffset>
            <feGaussianBlur stdDeviation="5" in="shadowOffsetOuter1" result="shadowBlurOuter1"></feGaussianBlur>
            <feColorMatrix values="0 0 0 0 0.690196078   0 0 0 0 0.752941176   0 0 0 0 0.929411765  0 0 0 0.422186368 0" type="matrix" in="shadowBlurOuter1"></feColorMatrix>
        </filter>
        <linearGradient x1="50.4055716%" y1="71.3147538%" x2="49.6740244%" y2="23.6048796%" id="linearGradient-3">
            <stop stop-color="#1786FA" offset="0%"></stop>
            <stop stop-color="#0A4EF2" offset="100%"></stop>
        </linearGradient>
        <linearGradient x1="0%" y1="3.50013887%" x2="136.342633%" y2="148.066912%" id="linearGradient-4">
            <stop stop-color="#002BFF" offset="0%"></stop>
            <stop stop-color="#006CFF" offset="31.4739301%"></stop>
            <stop stop-color="#009CFF" offset="49.1836977%"></stop>
            <stop stop-color="#0BB6EB" offset="71.3239784%"></stop>
            <stop stop-color="#00E0F2" offset="100%"></stop>
        </linearGradient>
        <path d="M21.5,19.997223 C21.5,20.5510414 21.0613852,21 20.5012539,21 L1.49874609,21 C0.947153856,21 0.5,20.5481176 0.5,19.997223 L0.5,17.9375 C0.5,15.4 3.475,13.825 6.275,12.6 L6.5375,12.46875 C6.75625,12.38125 6.975,12.38125 7.19375,12.5125 C8.33125,13.25625 9.6,13.65 10.95625,13.65 C12.3125,13.65 13.625,13.2125 14.71875,12.5125 C14.9375,12.38125 15.15625,12.38125 15.375,12.46875 L15.6375,12.6 C18.525,13.825 21.5,15.35625 21.5,17.9375 L21.5,19.997223 Z M11,0 C13.8875,0 16.20625,2.58125 16.20625,5.775 C16.20625,8.96875 13.8875,11.55 11,11.55 C8.1125,11.55 5.79375,8.96875 5.79375,5.775 C5.79375,2.58125 8.1125,0 11,0 Z" id="path-5"></path>
        <linearGradient x1="75.9565844%" y1="64.6901736%" x2="29.1375601%" y2="31.8084269%" id="linearGradient-7">
            <stop stop-color="#1786FA" offset="0%"></stop>
            <stop stop-color="#0A4EF2" offset="100%"></stop>
        </linearGradient>
        <rect id="path-8" x="0" y="0" width="70" height="858"></rect>
        <filter x="-25.0%" y="-1.8%" width="150.0%" height="104.1%" filterUnits="objectBoundingBox" id="filter-9">
            <feMorphology radius="0.5" operator="dilate" in="SourceAlpha" result="shadowSpreadOuter1"></feMorphology>
            <feOffset dx="0" dy="2" in="shadowSpreadOuter1" result="shadowOffsetOuter1"></feOffset>
            <feGaussianBlur stdDeviation="5" in="shadowOffsetOuter1" result="shadowBlurOuter1"></feGaussianBlur>
            <feColorMatrix values="0 0 0 0 0.690196078   0 0 0 0 0.752941176   0 0 0 0 0.929411765  0 0 0 0.422186368 0" type="matrix" in="shadowBlurOuter1"></feColorMatrix>
        </filter>
    </defs>
    <g id="Page-1" stroke="none" stroke-width="1" fill="none" fill-rule="evenodd">
        <g id="资产管理" transform="translate(-23.000000, -245.000000)">
            <rect fill="#FAFCFF" x="0" y="0" width="1440" height="858"></rect>
            <g id="side-panel">
                <g id="矩形">
                    <use fill="black" fill-opacity="1" filter="url(#filter-2)" xlink:href="#path-1"></use>
                    <use fill="#FFFFFF" fill-rule="evenodd" xlink:href="#path-1"></use>
                </g>
                <rect id="矩形" fill="url(#linearGradient-3)" fill-rule="nonzero" x="0" y="117" width="3" height="24"></rect>
                <g id="icons/utility/settings" stroke-width="1" fill-rule="evenodd" transform="translate(23.000000, 713.000000)" fill="#BDC1D1">
                    <path d="M12.069561,8.7665272 C10.2419459,8.7665272 8.78922628,10.2192469 8.78922628,12.0468619 C8.78922628,13.874477 10.2419459,15.3271967 12.069561,15.3271967 C13.8971761,15.3271967 15.3498957,13.874477 15.3498957,12.0468619 C15.3498957,10.2192469 13.8971761,8.7665272 12.069561,8.7665272 Z M21.9105652,14.9991632 L20.176674,13.5464435 C20.2703978,13.0309623 20.3172598,12.4686192 20.3172598,11.9531381 C20.3172598,11.4376569 20.2703978,10.8753138 20.176674,10.3598326 L21.9105652,8.90711297 C22.4729083,8.43849372 22.660356,7.59497908 22.2854606,6.93891213 L21.5356698,5.62677824 C21.2544982,5.158159 20.7390171,4.87698745 20.176674,4.87698745 C19.9892263,4.87698745 19.8017786,4.92384937 19.6611928,4.9707113 L17.5055443,5.76736402 C16.6620296,5.01757322 15.7247911,4.50209205 14.7406907,4.17405858 L14.3657953,1.97154812 C14.2252095,1.22175732 13.5691426,0.8 12.8193518,0.8 L11.3197702,0.8 C10.5699794,0.8 9.91391247,1.22175732 9.7733267,1.97154812 L9.3984313,4.12719665 C8.36746896,4.45523013 7.43023047,5.01757322 6.58671582,5.72050209 L4.43106729,4.92384937 C4.24361959,4.87698745 4.10303381,4.83012552 3.91558611,4.83012552 C3.35324302,4.83012552 2.83776185,5.11129707 2.5565903,5.57991632 L1.8067995,6.89205021 C1.43190411,7.54811715 1.57248988,8.3916318 2.1816949,8.86025105 L3.91558611,10.3129707 C3.82186226,10.8284519 3.77500034,11.390795 3.77500034,11.9062762 C3.77500034,12.4686192 3.82186226,12.9841004 3.91558611,13.4995816 L2.1816949,14.9523013 C1.6193518,15.4209205 1.43190411,16.2644351 1.8067995,16.9205021 L2.5565903,18.232636 C2.83776185,18.7012552 3.35324302,18.9824268 3.91558611,18.9824268 C4.10303381,18.9824268 4.29048151,18.9355649 4.43106729,18.8887029 L6.58671582,18.0920502 C7.43023047,18.841841 8.36746896,19.3573222 9.35156938,19.6853556 L9.72646477,21.934728 C9.86705055,22.6845188 10.4762556,23.2 11.2729083,23.2 L12.7724899,23.2 C13.5222807,23.2 14.1783476,22.6376569 14.3189334,21.8878661 L14.6938288,19.6384937 C15.7716531,19.2635983 16.7557535,18.7012552 17.5992681,17.9046025 L19.6143309,18.7012552 C19.8017786,18.7481172 19.9892263,18.7949791 20.176674,18.7949791 C20.7390171,18.7949791 21.2544982,18.5138075 21.5356698,18.0451883 L22.2385987,16.8267782 C22.660356,16.3112971 22.4729083,15.4677824 21.9105652,14.9991632 L21.9105652,14.9991632 Z M12.069561,17.7985963 C8.87996284,17.7985963 6.31782661,15.2364601 6.31782661,12.0468619 C6.31782661,8.85726376 8.87996284,6.29512752 12.069561,6.29512752 C15.2591592,6.29512752 17.8212954,8.85726376 17.8212954,12.0468619 C17.8212954,15.2364601 15.2591592,17.7985963 12.069561,17.7985963 Z" id="Mask"></path>
                </g>
                <g id="Group-7" stroke-width="1" fill-rule="evenodd" transform="translate(12.000000, 30.000000)" fill="url(#linearGradient-4)">
                    <path d="M3,13.4965921 L16.2614299,10.4468864 L14.9398072,44.6613757 L3,13.4965921 Z M19.4048915,9.65580726 L45.9046263,3.28571429 L15.4813458,44.2635328 L19.4048915,9.65580726 Z" id="Combined-Shape"></path>
                </g>
                <g id="关闭" stroke-width="1" fill-rule="evenodd" transform="translate(24.000000, 777.000000)">
                    <mask id="mask-6" fill="white">
                        <use xlink:href="#path-5"></use>
                    </mask>
                    <use id="Mask" fill="#BDC1D1" xlink:href="#path-5"></use>
                </g>
                <g id="交易所-copy" stroke-width="1" fill-rule="evenodd" transform="translate(23.000000, 181.000000)">
                    <g id="分组" transform="translate(2.000000, 2.000000)">
                        <path d="M10.700101,1.5 L10.700101,0.7 C10.700101,0.3 10.400101,0 10,0 C9.6,0 9.3,0.3 9.3,0.7 L9.3,1.5 L0.7,1.5 C0.3,1.5 0,1.85 0,2.25 L0,15.5 C0,15.9 0.3,16.25 0.7,16.25 L9.25010101,16.25 L9.25010101,16.450101 L6.50010101,18.200101 C6.15,18.450101 6,18.900101 6.2,19.25 C6.4,19.6 6.8,19.750101 7.15,19.550101 L7.2,19.550101 L9.75,17.95 L10.2,17.95 L12.750101,19.550101 C13.1,19.750101 13.5,19.65 13.750101,19.300101 L13.750101,19.25 C13.95,18.85 13.800101,18.4 13.45,18.200101 L10.700101,16.450101 L10.700101,16.25 L19.250101,16.25 C19.650101,16.25 19.950101,15.9 19.950101,15.5 L19.950101,2.25 C20.000101,1.85 19.700101,1.5 19.300101,1.5 L10.700101,1.5 Z" id="路径" fill="#BDC1D1"></path>
                        <path d="M14.125,8.1375 L10.48125,11.78125 C10.34375,11.91875 10.17182,11.9875 10,11.9875 C9.82818,11.9875 9.65625,11.91875 9.51875,11.78125 L7.59375,9.85625 L5.66875,11.78125 C5.39375,12.05625 4.98125,12.05625 4.70625,11.78125 C4.43125,11.50625 4.43125,11.09375 4.70625,10.81875 L7.1125,8.4125 C7.3875,8.1375 7.8,8.1375 8.075,8.4125 L10,10.3375 L13.1625,7.175 L12.0625,7.175 C11.68443,7.175 11.375,6.86568 11.375,6.4875 C11.375,6.10932 11.68443,5.8 12.0625,5.8 L14.8125,5.8 C14.8234613,5.8 14.8343648,5.80025986 14.8452046,5.80077372 C15.0060444,5.80899982 15.1649731,5.87747312 15.29375,6.00625 C15.4225269,6.13502688 15.4910002,6.29395555 15.4991699,6.45479708 C15.4997401,6.4656352 15.5,6.47653868 15.5,6.4875 L15.5,9.2375 C15.5,9.61557 15.19068,9.925 14.8125,9.925 C14.43432,9.925 14.125,9.61557 14.125,9.2375 L14.125,8.1375 Z" id="合并形状" fill="#FFFFFF"></path>
                    </g>
                </g>
                <g id="iconfinder_21.app-option-menu_4201225" stroke-width="1" fill-rule="evenodd" transform="translate(23.000000, 245.000000)" fill="#BDC1D1">
                    <path d="M19.5635451,4.75 C20.0924312,4.75 20.510552,5.15931352 20.510552,5.69285714 L20.510552,8.00714286 C20.510552,8.54068648 20.0924312,8.95 19.5635451,8.95 L9.7132001,8.95 C9.18431403,8.95 8.7661932,8.54068648 8.7661932,8.00714286 L8.7661932,5.69285714 C8.7661932,5.15931352 9.18431403,4.75 9.7132001,4.75 L19.5635451,4.75 Z M19.5635451,10.15 C20.0924312,10.15 20.510552,10.5593135 20.510552,11.0928571 L20.510552,13.4071429 C20.510552,13.9406865 20.0924312,14.35 19.5635451,14.35 L9.7132001,14.35 C9.18431403,14.35 8.7661932,13.9406865 8.7661932,13.4071429 L8.7661932,11.0928571 C8.7661932,10.5593135 9.18431403,10.15 9.7132001,10.15 L19.5635451,10.15 Z M19.5635451,15.55 C20.0924312,15.55 20.510552,15.9593135 20.510552,16.4928571 L20.510552,18.8071429 C20.510552,19.3406865 20.0924312,19.75 19.5635451,19.75 L9.7132001,19.75 C9.18431403,19.75 8.7661932,19.3406865 8.7661932,18.8071429 L8.7661932,16.4928571 C8.7661932,15.9593135 9.18431403,15.55 9.7132001,15.55 L19.5635451,15.55 Z M6.5610897,4.75 C7.08997577,4.75 7.5080966,5.15931352 7.5080966,5.69285714 L7.5080966,8.00714286 C7.5080966,8.54068648 7.08997577,8.95 6.5610897,8.95 L4.1970069,8.95 C3.66812083,8.95 3.25,8.54068648 3.25,8.00714286 L3.25,5.69285714 C3.25,5.15931352 3.66812083,4.75 4.1970069,4.75 L6.5610897,4.75 Z M6.5610897,10.15 C7.08997577,10.15 7.5080966,10.5593135 7.5080966,11.0928571 L7.5080966,13.4071429 C7.5080966,13.9406865 7.08997577,14.35 6.5610897,14.35 L4.1970069,14.35 C3.66812083,14.35 3.25,13.9406865 3.25,13.4071429 L3.25,11.0928571 C3.25,10.5593135 3.66812083,10.15 4.1970069,10.15 L6.5610897,10.15 Z M6.5610897,15.55 C7.08997577,15.55 7.5080966,15.9593135 7.5080966,16.4928571 L7.5080966,18.8071429 C7.5080966,19.3406865 7.08997577,19.75 6.5610897,19.75 L4.1970069,19.75 C3.66812083,19.75 3.25,19.3406865 3.25,18.8071429 L3.25,16.4928571 C3.25,15.9593135 3.66812083,15.55 4.1970069,15.55 L6.5610897,15.55 Z" id="形状结合" fill-rule="nonzero"></path>
                </g>
                <g id="编组-5" stroke-width="1" fill-rule="evenodd" transform="translate(23.000000, 116.000000)" fill="url(#linearGradient-7)">
                    <path d="M2.000038,19.0225726 L2.000038,7.42052586 C2.42726081,7.78629826 2.98282051,8.00762228 3.58939188,8.00762228 L20.2435148,8.00762228 C20.5956655,8.00762228 20.8811608,8.29157161 20.8811608,8.64190967 L20.8811608,11.5575597 L18.2448773,11.5575597 C16.9332395,11.5575597 15.8684982,12.628998 15.8885628,13.9381671 C15.9083298,15.2243751 16.9873969,16.2458738 18.2805854,16.2458738 L20.8811608,16.2458738 L20.8811608,19.9693523 C20.8811608,20.3196481 20.5956655,20.6036397 20.2435148,20.6036397 L3.5894769,20.6036397 C2.71160841,20.6036397 2.000038,19.8957326 2.000038,19.0225726 Z M21.6530781,12.4032931 C21.8443719,12.4032931 22,12.5581016 22,12.7483878 L22,15.0550796 C22,15.2453235 21.8443719,15.4001742 21.6530781,15.4001742 L18.2448603,15.4001742 C17.4142626,15.4001742 16.7384854,14.7279564 16.7384854,13.9017337 C16.7384854,13.0754686 17.4142626,12.4032931 18.2448603,12.4032931 L21.6530781,12.4032931 Z M2.00045459,5.61899744 C1.97928474,4.72993794 2.70024981,4 3.58934087,4 L18.5193966,4 C18.8715472,4 19.1570426,4.28394932 19.1570426,4.6342874 L19.1570426,7.16188038 L3.61914019,7.16188038 C2.75126149,7.16188038 2.02094428,6.48209344 2.00045459,5.61899744 Z" id="Combined-Shape" fill-rule="nonzero"></path>
                </g>
            </g>
            <g id="side-panel">
                <g id="矩形">
                    <use fill="black" fill-opacity="1" filter="url(#filter-9)" xlink:href="#path-8"></use>
                    <use fill="#FFFFFF" fill-rule="evenodd" xlink:href="#path-8"></use>
                </g>
                <g id="iconfinder_21.app-option-menu_4201225" transform="translate(23.000000, 245.000000)" fill="#BDC1D1" fill-rule="nonzero">
                    <path d="M19.5635451,4.75 C20.0924312,4.75 20.510552,5.15931352 20.510552,5.69285714 L20.510552,8.00714286 C20.510552,8.54068648 20.0924312,8.95 19.5635451,8.95 L9.7132001,8.95 C9.18431403,8.95 8.7661932,8.54068648 8.7661932,8.00714286 L8.7661932,5.69285714 C8.7661932,5.15931352 9.18431403,4.75 9.7132001,4.75 L19.5635451,4.75 Z M19.5635451,10.15 C20.0924312,10.15 20.510552,10.5593135 20.510552,11.0928571 L20.510552,13.4071429 C20.510552,13.9406865 20.0924312,14.35 19.5635451,14.35 L9.7132001,14.35 C9.18431403,14.35 8.7661932,13.9406865 8.7661932,13.4071429 L8.7661932,11.0928571 C8.7661932,10.5593135 9.18431403,10.15 9.7132001,10.15 L19.5635451,10.15 Z M19.5635451,15.55 C20.0924312,15.55 20.510552,15.9593135 20.510552,16.4928571 L20.510552,18.8071429 C20.510552,19.3406865 20.0924312,19.75 19.5635451,19.75 L9.7132001,19.75 C9.18431403,19.75 8.7661932,19.3406865 8.7661932,18.8071429 L8.7661932,16.4928571 C8.7661932,15.9593135 9.18431403,15.55 9.7132001,15.55 L19.5635451,15.55 Z M6.5610897,4.75 C7.08997577,4.75 7.5080966,5.15931352 7.5080966,5.69285714 L7.5080966,8.00714286 C7.5080966,8.54068648 7.08997577,8.95 6.5610897,8.95 L4.1970069,8.95 C3.66812083,8.95 3.25,8.54068648 3.25,8.00714286 L3.25,5.69285714 C3.25,5.15931352 3.66812083,4.75 4.1970069,4.75 L6.5610897,4.75 Z M6.5610897,10.15 C7.08997577,10.15 7.5080966,10.5593135 7.5080966,11.0928571 L7.5080966,13.4071429 C7.5080966,13.9406865 7.08997577,14.35 6.5610897,14.35 L4.1970069,14.35 C3.66812083,14.35 3.25,13.9406865 3.25,13.4071429 L3.25,11.0928571 C3.25,10.5593135 3.66812083,10.15 4.1970069,10.15 L6.5610897,10.15 Z M6.5610897,15.55 C7.08997577,15.55 7.5080966,15.9593135 7.5080966,16.4928571 L7.5080966,18.8071429 C7.5080966,19.3406865 7.08997577,19.75 6.5610897,19.75 L4.1970069,19.75 C3.66812083,19.75 3.25,19.3406865 3.25,18.8071429 L3.25,16.4928571 C3.25,15.9593135 3.66812083,15.55 4.1970069,15.55 L6.5610897,15.55 Z" id="形状结合"></path>
                </g>
            </g>
        </g>
    </g>
</svg>