<svg xmlns="http://www.w3.org/2000/svg" width="20" height="20" viewBox="0 0 20 20">
  <path fill="#007AFF" fill-opacity="0.7" d="M18.0832953,13.9601259 C17.8782658,14.8511494 17.1494212,15.5081279 16.272425,15.606127 C14.1950355,15.8382504 12.0924737,15.8394034 9.99894312,15.8382504 C7.90560467,15.8394034 5.8028507,15.8382504 3.72565333,15.606127 C2.848465,15.5081279 2.1200047,14.8511494 1.91516734,13.9601259 C1.62347577,12.6911331 1.62347577,11.306463 1.62347577,10.0001922 C1.62347577,8.69372914 1.62693457,7.30886689 1.91843395,6.03987411 C2.12346349,5.1488506 2.85192373,4.49167992 3.72891994,4.39387298 C5.80630949,4.16174955 7.90887135,4.16059657 10.0024019,4.16174955 C12.0957403,4.16059657 14.1984943,4.16174955 16.2756916,4.39387298 C17.15288,4.49167992 17.8817246,5.1488506 18.086562,6.03987411 C18.3782535,7.30886689 18.3765241,8.69372914 18.3765241,10.0001922 C18.3765241,11.306463 18.3747947,12.6911331 18.0832953,13.9601259 Z M8.49216264,6.90909091 L8.49216264,12.2627025 L13.1285263,9.58589669 L8.49216264,6.90909091 Z"/>
</svg>
