<?xml version="1.0" encoding="UTF-8"?>
<svg width="24px" height="24px" viewBox="0 0 24 24" version="1.1" xmlns="http://www.w3.org/2000/svg" xmlns:xlink="http://www.w3.org/1999/xlink">
    <!-- Generator: Sketch 58 (84663) - https://sketch.com -->
    <title>BTC</title>
    <desc>Created with Sketch.</desc>
    <g id="页面-1" stroke="none" stroke-width="1" fill="none" fill-rule="evenodd">
        <g id="分红" transform="translate(-381.000000, -128.000000)">
            <g id="手续费分红池" transform="translate(80.000000, 90.000000)">
                <g id="bg">
                    <g id="BTC" transform="translate(301.000000, 22.000000)">
                        <g transform="translate(0.000000, 16.000000)" id="编组">
                            <g>
                                <path d="M12,0.5 C5.64872538,0.5 0.5,5.64872538 0.5,12 C0.5,18.3512746 5.64872538,23.5 12,23.5 C18.3512746,23.5 23.5,18.3512746 23.5,12 C23.5,5.64872538 18.3512746,0.5 12,0.5 Z" id="Combined-Shape" stroke="#FE7F00" fill="#FE7F00"></path>
                                <path d="M14.4372381,10.7706373 C14.1464961,11.9365449 12.3500107,11.3441839 11.7673509,11.1989599 L12.2815144,9.13819037 C12.8638802,9.28341435 14.740327,9.55445993 14.4372381,10.7706373 M14.1179805,14.0963842 C13.7990169,15.3778241 11.6409414,14.6849235 10.9412793,14.5111838 L11.5083584,12.2390458 C12.2080205,12.4136674 14.4516429,12.7593828 14.1179805,14.0963842 M16.4765473,10.7891578 C16.6635159,9.53740934 15.7104467,8.86449901 14.4072525,8.41559815 L14.8302835,6.71994644 L13.797841,6.46271772 L13.386569,8.11368513 C13.1152294,8.04607072 12.8365405,7.982278 12.5593214,7.91907323 L12.9738271,6.25722872 L11.9425605,6 L11.5192355,7.69506376 C11.294932,7.64391199 11.0744503,7.59334818 10.860436,7.54013858 L10.8613179,7.53484702 L9.43818165,7.17943042 L9.16360836,8.28183922 C9.16360836,8.28183922 9.92941501,8.4573427 9.91295237,8.4682198 C10.3309858,8.57258116 10.4068315,8.84921228 10.3941906,9.06851813 L9.91236442,11.0002323 C9.94146801,11.0075817 9.97850895,11.0181648 10.0199595,11.0346275 C9.98527039,11.0261022 9.94852343,11.016695 9.91089454,11.0075817 L9.23592638,13.7136278 C9.18448064,13.8406253 9.05483736,14.0311216 8.76262554,13.9588035 C8.77291469,13.9737963 8.01269358,13.771541 8.01269358,13.771541 L7.5,14.9530293 L8.84346885,15.2878676 C9.0930542,15.3504844 9.33793594,15.416041 9.57928997,15.4777759 L9.15184934,17.19283 L10.182822,17.4500587 L10.605853,15.7532311 C10.8874817,15.8296648 11.1608791,15.9002189 11.428691,15.9666574 L11.0071298,17.6555477 L12.0389845,17.9127764 L12.4661311,16.200956 C14.2261635,16.5340305 15.549642,16.3996836 16.1070199,14.8078053 C16.5556268,13.5260713 16.0846778,12.7867225 15.1583604,12.3046024 C15.8327406,12.1490893 16.3410246,11.70548 16.4765473,10.7891578" id="Fill-3" fill="#FFFFFF"></path>
                            </g>
                        </g>
                    </g>
                </g>
            </g>
        </g>
    </g>
</svg>