<?xml version="1.0" encoding="UTF-8"?>
<svg width="16px" height="16px" viewBox="0 0 16 16" version="1.1" xmlns="http://www.w3.org/2000/svg" xmlns:xlink="http://www.w3.org/1999/xlink">
    <!-- Generator: Sketch 58 (84663) - https://sketch.com -->
    <title>详情</title>
    <desc>Created with Sketch.</desc>
    <g id="页面-1" stroke="none" stroke-width="1" fill="none" fill-rule="evenodd">
        <g id="分红" transform="translate(-510.000000, -132.000000)" fill="#545F75">
            <g id="手续费分红池" transform="translate(80.000000, 90.000000)">
                <g id="bg">
                    <g id="BTC" transform="translate(301.000000, 22.000000)">
                        <g id="详情" transform="translate(129.000000, 20.000000)">
                            <path d="M12.2437593,2.5679216 C12.925963,2.5679216 13.4809198,3.1228784 13.4809198,3.8050142 L13.4809198,3.8050142 L13.4809198,12.3116809 C13.4809198,12.9938846 12.925963,13.5488414 12.2437593,13.5488414 L12.2437593,13.5488414 L3.73709259,13.5488414 C3.05495679,13.5488414 2.5,12.9938846 2.5,12.3116809 L2.5,12.3116809 L2.5,3.8050142 C2.5,3.1228784 3.05495679,2.5679216 3.73709259,2.5679216 L3.73709259,2.5679216 Z M12.2437593,3.36365617 L3.73709259,3.36365617 C3.49373457,3.36365617 3.29573457,3.56165617 3.29573457,3.8050142 L3.29573457,3.8050142 L3.29573457,12.3116809 C3.29573457,12.5551068 3.49373457,12.7531068 3.73709259,12.7531068 L3.73709259,12.7531068 L12.2437593,12.7531068 C12.4871852,12.7531068 12.6851852,12.5551068 12.6851852,12.3116809 L12.6851852,12.3116809 L12.6851852,3.8050142 C12.6851852,3.56165617 12.4871852,3.36365617 12.2437593,3.36365617 L12.2437593,3.36365617 Z M10.9876543,10.2068037 C11.2073827,10.2068037 11.3854877,10.3849086 11.3854877,10.604637 C11.3854877,10.7969588 11.2491261,10.9573606 11.0678348,10.994456 L10.9876543,11.0025383 L6.41226543,11.0025383 C6.19253704,11.0025383 6.0144321,10.8244333 6.0144321,10.604637 C6.0144321,10.4123747 6.15079369,10.2519803 6.33208495,10.2148858 L6.41226543,10.2068037 L10.9876543,10.2068037 Z M4.98659074,10.2068309 C5.20631914,10.2068309 5.38449198,10.3849358 5.38449198,10.6046642 C5.38449198,10.8243926 5.20631914,11.0024975 4.98659074,11.0024975 C4.76693025,11.0024975 4.58875741,10.8243926 4.58875741,10.6046642 C4.58875741,10.3849358 4.76693025,10.2068309 4.98659074,10.2068309 Z M10.9876543,7.66050741 C11.2073827,7.66050741 11.3854877,7.83868025 11.3854877,8.05834074 C11.3854877,8.2506625 11.2491261,8.41106431 11.0678348,8.44815974 L10.9876543,8.45624198 L6.41226543,8.45624198 C6.19253704,8.45624198 6.0144321,8.27813704 6.0144321,8.05834074 C6.0144321,7.86613781 6.15079369,7.70569886 6.33208495,7.6685923 L6.41226543,7.66050741 L10.9876543,7.66050741 Z M4.98659074,7.66053457 C5.20631914,7.66053457 5.38449198,7.83863951 5.38449198,8.0583679 C5.38449198,8.2780963 5.20631914,8.45620123 4.98659074,8.45620123 C4.76693025,8.45620123 4.58875741,8.2780963 4.58875741,8.0583679 C4.58875741,7.83863951 4.76693025,7.66053457 4.98659074,7.66053457 Z M10.9876543,5.11421111 C11.2073827,5.11421111 11.3854877,5.29238395 11.3854877,5.51204444 C11.3854877,5.70430679 11.2491261,5.86475316 11.0678348,5.90186066 L10.9876543,5.90994568 L6.41226543,5.90994568 C6.19253704,5.90994568 6.0144321,5.73177284 6.0144321,5.51204444 C6.0144321,5.31984151 6.15079369,5.15940257 6.33208495,5.122296 L6.41226543,5.11421111 L10.9876543,5.11421111 Z M4.98659074,5.11423827 C5.20631914,5.11423827 5.38449198,5.29234321 5.38449198,5.5120716 C5.38449198,5.7318 5.20631914,5.90990494 4.98659074,5.90990494 C4.76693025,5.90990494 4.58875741,5.7318 4.58875741,5.5120716 C4.58875741,5.29234321 4.76693025,5.11423827 4.98659074,5.11423827 Z" id="形状结合"></path>
                        </g>
                    </g>
                </g>
            </g>
        </g>
    </g>
</svg>