<?xml version="1.0" encoding="UTF-8"?>
<svg width="34px" height="34px" viewBox="0 0 34 34" version="1.1" xmlns="http://www.w3.org/2000/svg" xmlns:xlink="http://www.w3.org/1999/xlink">
    <!-- Generator: Sketch 58 (84663) - https://sketch.com -->
    <title>资产</title>
    <desc>Created with Sketch.</desc>
    <defs>
        <linearGradient x1="-10.3703828%" y1="-10.4966906%" x2="238.489639%" y2="87.6369925%" id="linearGradient-1">
            <stop stop-color="#0B30E4" offset="0%"></stop>
            <stop stop-color="#0D6CEF" offset="31.4739301%"></stop>
            <stop stop-color="#0998F3" offset="49.1836977%"></stop>
            <stop stop-color="#00C3FF" offset="71.3239784%"></stop>
            <stop stop-color="#00ECFF" offset="100%"></stop>
        </linearGradient>
    </defs>
    <g id="页面-1" stroke="none" stroke-width="1" fill="none" fill-rule="evenodd">
        <g id="首页-copy-13备份-41" transform="translate(-110.000000, -147.000000)">
            <g id="icon/asset" transform="translate(110.000000, 147.000000)">
                <g id="编组">
                    <circle id="椭圆形" fill="url(#linearGradient-1)" cx="17" cy="17" r="17"></circle>
                    <path d="M22.4998574,13.8493843 C22.4998574,14.8526124 20.0377903,15.6657758 17.0000713,15.6657758 C13.962495,15.6657758 11.5,14.8524617 11.5,13.8493843 L11.5,12.3965423 C11.5,11.3936156 13.962495,10.58 17.0000713,10.58 C20.0377903,10.58 22.4998574,11.3936156 22.4998574,12.3965423 L22.4998574,13.8493843 Z M22.4998574,17.7200303 C22.4998574,18.7228062 20.0377903,19.5364218 17.0000713,19.5364218 C13.962495,19.5364218 11.5,18.7228062 11.5,17.7200303 L11.5,16.2670376 C11.5,16.0772743 11.5798724,15.8944444 11.7434682,15.722316 C12.444206,16.4595139 14.5200329,16.9938354 16.9829558,16.9938354 C19.4453081,16.9938354 21.5385358,16.4595139 22.2395589,15.722316 C22.4030121,15.8944444 22.4998574,16.0772743 22.4998574,16.2670376 L22.4998574,17.7200303 Z M22.4998574,21.596791 C22.4998574,22.6001699 20.0377903,23.4133333 17.0000713,23.4133333 C13.962495,23.4133333 11.5001426,22.6000192 11.5001426,21.596791 L11.5001426,20.1437983 C11.5001426,19.9537336 11.5798724,19.7712052 11.7434682,19.5989261 C12.444206,20.3359732 14.5200329,20.8704454 16.9829558,20.8704454 C19.4453081,20.8704454 21.5385358,20.3359732 22.2395589,19.5989261 C22.4030121,19.7712052 22.5,19.9537336 22.5,20.1437983 L22.5,21.596791 L22.4998574,21.596791 Z" id="Fill-1" fill="#FFFFFF"></path>
                </g>
            </g>
        </g>
    </g>
</svg>