<?xml version="1.0" encoding="UTF-8"?>
<svg width="12px" height="12px" viewBox="0 0 12 12" version="1.1" xmlns="http://www.w3.org/2000/svg" xmlns:xlink="http://www.w3.org/1999/xlink">
    <!-- Generator: Sketch 58 (84663) - https://sketch.com -->
    <title>infor</title>
    <desc>Created with Sketch.</desc>
    <g id="页面-1" stroke="none" stroke-width="1" fill="none" fill-rule="evenodd">
        <g id="分红" transform="translate(-136.000000, -190.000000)" fill="#545F75">
            <g id="移入显示" transform="translate(136.000000, 190.000000)">
                <path d="M6,11.3522727 C8.9559786,11.3522727 11.3522727,8.9559786 11.3522727,6 C11.3522727,3.0440214 8.9559786,0.647727273 6,0.647727273 C3.0440214,0.647727273 0.647727273,3.0440214 0.647727273,6 C0.647727273,8.9559786 3.0440214,11.3522727 6,11.3522727 Z M6,12 C2.6862915,12 0,9.3137085 0,6 C0,2.6862915 2.6862915,0 6,0 C9.3137085,0 12,2.6862915 12,6 C12,9.3137085 9.3137085,12 6,12 Z M6.49021806,4.90909091 L6.49021806,9.54545455 L5.49967879,9.54545455 L5.49967879,4.90909091 L6.49021806,4.90909091 Z M6.00681818,2.72727273 C6.38345455,2.72727273 6.68863636,3.03245455 6.68863636,3.40909091 C6.68863636,3.78572727 6.38345455,4.09090909 6.00681818,4.09090909 C5.63018182,4.09090909 5.325,3.78572727 5.325,3.40909091 C5.325,3.03245455 5.63018182,2.72727273 6.00681818,2.72727273 Z" id="Combined-Shape-Copy-3"></path>
            </g>
        </g>
    </g>
</svg>