<?xml version="1.0" encoding="UTF-8"?>
<svg width="34px" height="34px" viewBox="0 0 34 34" version="1.1" xmlns="http://www.w3.org/2000/svg" xmlns:xlink="http://www.w3.org/1999/xlink">
    <!-- Generator: Sketch 58 (84663) - https://sketch.com -->
    <title>icon/business</title>
    <desc>Created with Sketch.</desc>
    <g id="页面-1" stroke="none" stroke-width="1" fill="none" fill-rule="evenodd">
        <g id="挖矿" transform="translate(-784.000000, -124.000000)">
            <g id="邀请挖矿备份-2" transform="translate(754.000000, 102.000000)">
                <g id="icon/mortgage" transform="translate(30.000000, 22.000000)">
                    <g id="编组">
                        <circle id="椭圆形" fill="#545F75" cx="17" cy="17" r="17"></circle>
                        <path d="M12.17184,15.4516 L16.65776,18.2672 C16.8312,18.37664 17.05,18.37664 17.22344,18.2672 L21.70936,15.4516 C22.02344,15.25472 22.2156,14.90632 22.2156,14.53288 L22.2156,12.08288 C22.2156,11.4844 21.73592,11 21.14368,11 L12.73744,11 C12.14528,11 11.6656,11.4844 11.6656,12.08288 L11.6656,14.53288 C11.6656,14.90632 11.85776,15.25472 12.17184,15.4516 M23.68744,16.02976 C23.52024,15.93288 23.314,15.936 23.1484,16.0344 L17.52656,19.41096 C17.18904,19.61408 16.77024,19.61408 16.4328,19.41096 L10.80936,16.036 C10.64368,15.936 10.43904,15.9344 10.27024,16.03128 C10.10312,16.12816 10,16.30632 10,16.5016 L10,22.84848 C10,23.44688 10.47968,23.93128 11.07184,23.93128 L22.88592,23.93128 C23.47808,23.93128 23.95776,23.44688 23.95776,22.84848 L23.95776,16.5 C23.95776,16.30632 23.85464,16.12664 23.68744,16.02976" id="Fill-1" fill="#FFFFFF"></path>
                    </g>
                </g>
            </g>
        </g>
    </g>
</svg>