<?xml version="1.0" encoding="UTF-8"?>
<svg width="34px" height="34px" viewBox="0 0 34 34" version="1.1" xmlns="http://www.w3.org/2000/svg" xmlns:xlink="http://www.w3.org/1999/xlink">
    <!-- Generator: Sketch 58 (84663) - https://sketch.com -->
    <title>icon/business</title>
    <desc>Created with Sketch.</desc>
    <g id="页面-1" stroke="none" stroke-width="1" fill="none" fill-rule="evenodd">
        <g id="挖矿" transform="translate(-447.000000, -124.000000)">
            <g id="抵押挖矿备份" transform="translate(417.000000, 102.000000)">
                <g id="icon/mortgage" transform="translate(30.000000, 22.000000)">
                    <g id="编组">
                        <circle id="椭圆形备份" fill="#545F75" cx="17" cy="17" r="17"></circle>
                        <path d="M24.999957,19.4991358 L25,21.7486471 C25,22.8086192 22.5569979,23.6733333 19.5523862,23.6733333 C18.3409432,23.6733333 17.2207988,23.5327604 16.31527,23.2954944 C17.090909,22.6946792 17.6880106,21.8781898 18.014968,20.9388559 C18.5018177,20.9781724 19.0182269,20.999331 19.5523862,20.999331 C22.5497165,20.999331 24.9881558,20.3331158 24.999957,19.4991358 Z M25,15.2364765 L25,17.6772625 C25,18.7372346 22.5569979,19.6019486 19.5523862,19.6019486 C19.1163476,19.6019486 18.6921369,19.5843246 18.2855044,19.5509522 C18.2914543,19.4627904 18.2937848,19.3742071 18.2937848,19.2851046 C18.2937848,18.3163145 18.0182818,17.4089126 17.5411867,16.6363189 C18.1625335,16.7053038 18.8417519,16.7427526 19.5523862,16.7427526 C22.5569979,16.7427526 25,16.0732966 25,15.2364765 Z M19.5523862,10.34 C22.4659491,10.34 24.8514236,11.1531012 24.9933223,12.1688816 L25,12.2646862 L25,13.4513172 C25,14.5112893 22.5569979,15.3760034 19.5523862,15.3760034 C16.6388233,15.3760034 14.2533488,14.5629022 14.11145,13.5471218 L14.1047724,13.4513172 L14.1047724,12.2646862 C14.1047724,11.2047141 16.5477744,10.34 19.5523862,10.34 Z M13.1766174,15.1421088 C15.4832995,15.1421088 17.3532348,16.999626 17.3532348,19.2909895 C17.3532348,21.5823531 15.4832995,23.4398703 13.1766174,23.4398703 C10.8699353,23.4398703 9,21.5823531 9,19.2909895 C9,16.999626 10.8699353,15.1421088 13.1766174,15.1421088 Z M13.467485,16.3818689 L12.7129295,16.3818689 C12.5117147,16.3818689 12.3356518,16.5567626 12.3356518,16.7566411 L12.3356518,19.779804 C12.3356518,19.8797432 12.3859555,19.9796825 12.4362592,20.054637 L14.297496,21.9035134 C14.448407,22.0534223 14.6747737,22.0534223 14.8256848,21.9035134 L15.3538736,21.3788322 C15.5047847,21.2289233 15.5047847,21.00406 15.3538736,20.8541511 L13.9453701,19.4300165 C13.8699145,19.3550621 13.8447627,19.2551228 13.8447627,19.1551836 L13.8447627,16.7566411 C13.8447627,16.5567626 13.6686997,16.3818689 13.467485,16.3818689 Z" id="形状结合" fill="#FFFFFF"></path>
                    </g>
                </g>
            </g>
        </g>
    </g>
</svg>