<?xml version="1.0" encoding="UTF-8"?>
<svg width="34px" height="34px" viewBox="0 0 34 34" version="1.1" xmlns="http://www.w3.org/2000/svg" xmlns:xlink="http://www.w3.org/1999/xlink">
    <!-- Generator: Sketch 58 (84663) - https://sketch.com -->
    <title>icon/business</title>
    <desc>Created with Sketch.</desc>
    <g id="页面-1" stroke="none" stroke-width="1" fill="none" fill-rule="evenodd">
        <g id="挖矿" transform="translate(-1120.000000, -124.000000)">
            <g id="挂单" transform="translate(1089.000000, 102.000000)">
                <g id="icon/mortgage" transform="translate(31.000000, 22.000000)">
                    <g id="编组">
                        <circle id="椭圆形备份" fill="#545F75" cx="17" cy="17" r="17"></circle>
                        <path d="M20.225025,13.5009223 C19.7127,13.4962945 19.301175,13.104822 19.3049736,12.6258414 L19.3049736,10.8765911 L22.068975,13.5009223 L20.225025,13.5009223 Z M19.764975,17.6593797 L14.235,17.6593797 C13.98105,17.6593797 13.775025,17.4079342 13.775025,17.0984304 C13.775025,16.7889968 13.98105,16.5375512 14.235,16.5375512 L19.764975,16.5375512 C20.018025,16.5375512 20.225025,16.7889968 20.225025,17.0984304 C20.225025,17.4079342 20.01795,17.6593797 19.764975,17.6593797 L19.764975,17.6593797 Z M19.764975,20.2771899 L14.235,20.2771899 C13.98105,20.2771899 13.775025,20.0256742 13.775025,19.7162406 C13.775025,19.4067368 13.98105,19.1552913 14.235,19.1552913 L19.764975,19.1552913 C20.018025,19.1552913 20.225025,19.4067368 20.225025,19.7162406 C20.225025,20.0256742 20.01795,20.2771899 19.764975,20.2771899 L19.764975,20.2771899 Z M19.302975,10.0015102 L19.302975,10.0137109 C19.245,10.0137109 18.999,9.99309599 18.38205,10.0024218 L12.85305,10.0024218 C11.835975,10.0015102 11.01,10.7850162 11.01,11.7507605 L11.01,22.2498382 C11.01,23.2165642 11.835,24 12.85305,24 L21.14595,24 C22.164075,24 22.989075,23.2165642 22.989075,22.2508198 L22.989075,13.5009223 L19.302975,10.0024218 L19.302975,10.0015102 Z" id="Fill-1" fill="#FFFFFF"></path>
                    </g>
                </g>
            </g>
        </g>
    </g>
</svg>