<?xml version="1.0" encoding="UTF-8"?>
<svg width="34px" height="34px" viewBox="0 0 34 34" version="1.1" xmlns="http://www.w3.org/2000/svg" xmlns:xlink="http://www.w3.org/1999/xlink">
    <!-- Generator: Sketch 58 (84663) - https://sketch.com -->
    <title>icon/business</title>
    <desc>Created with Sketch.</desc>
    <g id="页面-1" stroke="none" stroke-width="1" fill="none" fill-rule="evenodd">
        <g id="挖矿" transform="translate(-110.000000, -124.000000)">
            <g id="交易挖矿备份-" transform="translate(80.000000, 102.000000)">
                <g id="icon/mortgage" transform="translate(30.000000, 22.000000)">
                    <g id="编组">
                        <circle id="椭圆形" fill="#545F75" cx="17" cy="17" r="17"></circle>
                        <path d="M18.0411601,12.5094033 C17.8175665,12.2830255 17.6923743,11.97524 17.6923744,11.655118 C17.6922506,11.3363676 17.8163145,11.0284453 18.0306172,10.8112443 C18.2540474,10.574357 18.5636451,10.44 18.8877885,10.44 C19.2111828,10.44 19.5210113,10.5738566 19.7397752,10.8058691 L22.9605826,14.1444499 C23.2927416,14.4898499 23.3908974,15.0035743 23.2126929,15.4449661 C23.0317555,15.9063767 22.5928986,16.2081461 22.100438,16.2081461 L11.893783,16.2081461 C11.7922459,16.2080362 11.6921269,16.1947179 11.595679,16.1692094 L11.8965018,16.2081461 L11.595679,16.1692094 C11.3858535,16.1137149 11.1934032,16.0005252 11.0415271,15.8401332 C10.8228682,15.6107975 10.7023233,15.3027502 10.7069536,14.9920974 C10.7069536,14.3249563 11.2413644,13.7766426 11.9030543,13.7766426 L19.2638662,13.7766426 L18.0411601,12.5094033 Z M23.2964239,19.5682861 C23.2964239,20.2354678 22.76215,20.7838001 22.100438,20.7838001 L14.740289,20.7838001 L15.4262585,21.4946957 C15.649661,21.7211378 15.7747807,22.0288261 15.7747807,22.3487732 C15.7749044,22.6674664 15.6508799,22.9754098 15.434559,23.1947197 L15.4201323,23.2096698 C14.9502642,23.6876829 14.1848939,23.6812213 13.7267331,23.1973508 L11.0624109,20.4271909 C10.8314252,20.2057338 10.7001983,19.8886095 10.7005901,19.5807513 C10.6954122,19.4160078 10.7243687,19.2516008 10.7833677,19.1078587 C10.9642064,18.646381 11.4031535,18.3445361 11.895679,18.3445361 L22.100438,18.3445361 C22.2040897,18.3445361 22.3046102,18.3581717 22.400438,18.3837463 C22.9157586,18.5212755 23.2953719,19.0040619 23.2964239,19.5682861 Z" id="Fill-1" fill="#FFFFFF"></path>
                    </g>
                </g>
            </g>
        </g>
    </g>
</svg>