<?xml version="1.0" encoding="UTF-8"?>
<svg width="24px" height="24px" viewBox="0 0 24 24" version="1.1" xmlns="http://www.w3.org/2000/svg" xmlns:xlink="http://www.w3.org/1999/xlink">
    <!-- Generator: Sketch 58 (84663) - https://sketch.com -->
    <title>Oval</title>
    <desc>Created with Sketch.</desc>
    <g id="页面-1" stroke="none" stroke-width="1" fill="none" fill-rule="evenodd">
        <g id="分红" transform="translate(-921.000000, -128.000000)" fill-rule="nonzero">
            <g id="手续费分红池" transform="translate(80.000000, 90.000000)">
                <g id="bg">
                    <g id="USDT" transform="translate(841.000000, 22.000000)">
                        <g id="BTC" transform="translate(0.000000, 16.000000)">
                            <g id="编组">
                                <circle id="Oval" fill="#00A478" cx="11.8875" cy="11.8875" r="11.8875"></circle>
                                <path d="M17.5129534,6 L17.5129534,8.61139896 L13.6321244,8.61139896 L13.632842,10.1106203 C16.7197638,10.2973743 19,11.0020903 19,11.8393782 C19,12.6800081 16.7015249,13.3870057 13.5958404,13.5703476 L13.5958549,18.984456 L10.5492228,18.984456 L10.5492228,13.5803109 C10.9028497,13.607513 11.2564767,13.6143135 11.6254048,13.6160136 L12,13.6165803 C8.11917098,13.6165803 5,12.8186528 5,11.8393782 C5,10.9856517 7.37065198,10.2697537 10.5498984,10.1002224 L10.5492228,8.57512953 L6.66839378,8.57512953 L6.66839378,6 L17.5129534,6 Z M5.58031088,11.8393782 C5.83419689,12.2020725 7.93782383,12.746114 12,12.746114 C16.0984456,12.746114 18.1658031,12.2020725 18.4196891,11.8393782 C18.2023713,11.5289243 16.6297898,10.6604205 13.6337056,10.4166728 L13.6321244,12.4196891 C13.1243523,12.4559585 12.5803109,12.4559585 12.0362694,12.4196891 C11.5284974,12.4196891 11.0207254,12.3834197 10.5854922,12.3834197 L10.5854922,12.3834197 L10.5855555,10.3986915 C7.44685268,10.6103571 5.80286986,11.4896427 5.58031088,11.8393782 Z" id="形状结合" fill="#FFFFFF"></path>
                            </g>
                        </g>
                    </g>
                </g>
            </g>
        </g>
    </g>
</svg>