<?xml version="1.0" encoding="UTF-8"?>
<svg width="24px" height="24px" viewBox="0 0 24 24" version="1.1" xmlns="http://www.w3.org/2000/svg" xmlns:xlink="http://www.w3.org/1999/xlink">
    <!-- Generator: Sketch 58 (84663) - https://sketch.com -->
    <title>vite@1x</title>
    <desc>Created with Sketch.</desc>
    <defs>
        <linearGradient x1="-10.3703828%" y1="-10.4966906%" x2="238.489639%" y2="87.6369925%" id="linearGradient-1">
            <stop stop-color="#0B30E4" offset="0%"></stop>
            <stop stop-color="#0D6CEF" offset="31.4739301%"></stop>
            <stop stop-color="#0998F3" offset="49.1836977%"></stop>
            <stop stop-color="#00C3FF" offset="71.3239784%"></stop>
            <stop stop-color="#00ECFF" offset="100%"></stop>
        </linearGradient>
    </defs>
    <g id="页面-1" stroke="none" stroke-width="1" fill="none" fill-rule="evenodd">
        <g id="分红" transform="translate(-1191.000000, -128.000000)">
            <g id="手续费分红池" transform="translate(80.000000, 90.000000)">
                <g id="bg">
                    <g id="USDT备份" transform="translate(1111.000000, 22.000000)">
                        <g id="BTC" transform="translate(0.000000, 16.000000)">
                            <g id="编组">
                                <path d="M12,0 C18.627417,-1.21743675e-15 24,5.372583 24,12 C24,18.627417 18.627417,24 12,24 C5.372583,24 8.11624501e-16,18.627417 0,12 C-8.11624501e-16,5.372583 5.372583,1.21743675e-15 12,0 Z" id="Rectangle-3" fill="url(#linearGradient-1)"></path>
                                <path d="M10.2802139,8.08914027 L9.88882528,18.0705882 L6.35294118,8.9788358 L10.2802139,8.08914027 Z M19.0588235,6 L10.0491979,17.9545249 L11.2111264,7.85835747 L19.0588235,6 Z" id="Combined-Shape" fill="#FFFFFF"></path>
                            </g>
                        </g>
                    </g>
                </g>
            </g>
        </g>
    </g>
</svg>