<?xml version="1.0" encoding="UTF-8"?>
<svg width="16px" height="16px" viewBox="0 0 16 16" version="1.1" xmlns="http://www.w3.org/2000/svg" xmlns:xlink="http://www.w3.org/1999/xlink">
    <!-- Generator: Sketch 52.5 (67469) - http://www.bohemiancoding.com/sketch -->
    <title>刷新</title>
    <desc>Created with Sketch.</desc>
    <g id="Page-1" stroke="none" stroke-width="1" fill="none" fill-rule="evenodd">
        <g id="资产管理" transform="translate(-1396.000000, -111.000000)">
            <g id="刷新" transform="translate(1396.000000, 111.000000)">
                <g id="分组-4">
                    <path d="M8,-4.08562073e-14 C3.58889296,-4.08562073e-14 0,3.58889296 0,8 C0,12.4111987 3.58889296,16.0000916 8,16.0000916 C12.411107,16.0000916 16,12.4111987 16,8 C16,3.58880132 12.411107,-4.08562073e-14 8,-4.08562073e-14" id="路径" fill="#BDC1D1"></path>
                    <path d="M7.91147361,11.7962606 C6.36851631,11.7962606 5.05377108,10.815494 4.54779142,9.44614143 L4.55292339,9.44405657 C4.5214901,9.38078907 4.5,9.31214904 4.5,9.23669312 C4.5,8.97600534 4.71129261,8.76463254 4.97206058,8.76463254 C5.18174945,8.76463254 5.3535099,8.90367671 5.41509348,9.09283773 L5.42174899,9.09011137 C5.78619868,10.115061 6.76303611,10.8521394 7.91147361,10.8521394 C9.3696733,10.8521394 10.5557987,9.66593386 10.5557987,8.20773417 C10.5557987,6.74953448 9.3696733,5.56340912 7.91147361,5.56340912 C7.59144749,5.56340912 7.28697764,5.62571438 7.00287527,5.73043854 L7.33565112,6.36856628 C7.37462198,6.41050406 7.39859787,6.46695567 7.39859787,6.52894018 C7.39859787,6.66084772 7.2669309,6.76268514 7.15795684,6.76501057 L7.15306543,6.76501057 C7.14969758,6.76501057 7.14640992,6.76501057 7.14296188,6.76477001 L4.78466367,6.66357407 C4.70054756,6.65988547 4.62445015,6.61169312 4.58547929,6.53679851 C4.54658862,6.46214446 4.55043759,6.3721747 4.59566303,6.30096869 L5.86253666,4.30920503 C5.90768191,4.23815939 5.98786886,4.19718386 6.0718246,4.20015078 C6.15594071,4.20383938 6.23203812,4.25203174 6.27100898,4.32700653 L6.56192724,4.88494733 C6.97905975,4.71487081 7.43404051,4.61920778 7.91147361,4.61920778 C9.8900866,4.61920778 11.5,6.22912118 11.5,8.20773417 C11.5,10.1864274 9.8900866,11.7962606 7.91147361,11.7962606" id="路径" fill="#FFFFFF"></path>
                </g>
            </g>
        </g>
    </g>
</svg>