<?xml version="1.0" encoding="UTF-8"?>
<svg width="18px" height="10px" viewBox="0 0 18 10" version="1.1" xmlns="http://www.w3.org/2000/svg" xmlns:xlink="http://www.w3.org/1999/xlink">
    <!-- Generator: Sketch 58 (84663) - https://sketch.com -->
    <title>0 Fee</title>
    <desc>Created with Sketch.</desc>
    <g id="页面-1" stroke="none" stroke-width="1" fill="none" fill-rule="evenodd">
        <g id="挖矿标示&amp;区域备份" transform="translate(-179.000000, -340.000000)" fill="#01D764">
            <g id="交易中心" transform="translate(80.000000, 57.000000)">
                <g id="-mockplus-dup-|FE741180-931F-446E-A335-0F9625920818|交易对-0111-copy备份-9" transform="translate(6.000000, 283.000000)">
                    <g id="编组-2备份" transform="translate(93.000000, 0.000000)">
                        <rect id="Rectangle-9-Copy" fill-opacity="0.1" transform="translate(9.000000, 5.000000) scale(1, -1) translate(-9.000000, -5.000000) " x="0" y="0" width="18" height="10" rx="2"></rect>
                        <path d="M2.57604413,3 C2.03388495,3 1.63041765,3.2327044 1.35933806,3.71069182 C1.11977935,4.11320755 1,4.65408805 1,5.33333333 C1,6.01257862 1.11977935,6.55345912 1.35933806,6.95597484 C1.63041765,7.42767296 2.03388495,7.66666667 2.57604413,7.66666667 C3.11189913,7.66666667 3.51536643,7.42767296 3.7927502,6.95597484 C4.0323089,6.55345912 4.15208826,6.01257862 4.15208826,5.33333333 C4.15208826,4.65408805 4.0323089,4.11320755 3.7927502,3.71069182 C3.51536643,3.2327044 3.11189913,3 2.57604413,3 Z M2.57604413,3.44025157 C2.97951143,3.44025157 3.26950355,3.65408805 3.44602049,4.08805031 C3.57210402,4.38993711 3.64144996,4.80503145 3.64144996,5.33333333 C3.64144996,5.85534591 3.57210402,6.27044025 3.44602049,6.57861635 C3.26950355,7.00628931 2.97951143,7.22641509 2.57604413,7.22641509 C2.17257683,7.22641509 1.88258471,7.00628931 1.70606777,6.57861635 C1.57998424,6.27044025 1.51694247,5.85534591 1.51694247,5.33333333 C1.51694247,4.80503145 1.57998424,4.38993711 1.70606777,4.08805031 C1.88258471,3.65408805 2.17257683,3.44025157 2.57604413,3.44025157 Z M7.02048857,3.08805031 L7.02048857,7.57861635 L7.53743105,7.57861635 L7.53743105,5.49056604 L9.90149724,5.49056604 L9.90149724,5.04402516 L7.53743105,5.04402516 L7.53743105,3.53459119 L10.0338849,3.53459119 L10.0338849,3.08805031 L7.02048857,3.08805031 Z M11.9377463,4.23899371 C11.464933,4.23899371 11.0929866,4.40880503 10.8156028,4.74842767 C10.5382191,5.06918239 10.4058314,5.47169811 10.4058314,5.94968553 C10.4058314,6.47798742 10.5445232,6.89308176 10.8345154,7.20754717 C11.1118991,7.50943396 11.4901497,7.66666667 11.9566588,7.66666667 C12.3790386,7.66666667 12.7257683,7.5408805 12.9968479,7.30188679 C13.2174941,7.10062893 13.3624901,6.8490566 13.4381403,6.53459119 L12.9338061,6.53459119 C12.8518519,6.76100629 12.7446809,6.93081761 12.605989,7.04402516 C12.4420804,7.17610063 12.2214342,7.24528302 11.9566588,7.24528302 C11.6477541,7.24528302 11.4018913,7.14465409 11.2253743,6.94339623 C11.0488574,6.74213836 10.9542947,6.4591195 10.929078,6.09433962 L13.501182,6.09433962 C13.4885737,5.52830189 13.3624901,5.08176101 13.1229314,4.7672956 C12.858156,4.41509434 12.4609929,4.23899371 11.9377463,4.23899371 Z M11.9503546,4.66037736 C12.5681639,4.66037736 12.9148936,5.00628931 12.9779354,5.70440252 L10.9416864,5.70440252 C10.9732072,5.3836478 11.0740741,5.13207547 11.250591,4.94339623 C11.427108,4.75471698 11.6603625,4.66037736 11.9503546,4.66037736 Z M15.4365642,4.23899371 C14.963751,4.23899371 14.5918046,4.40880503 14.3144208,4.74842767 C14.037037,5.06918239 13.9046493,5.47169811 13.9046493,5.94968553 C13.9046493,6.47798742 14.0433412,6.89308176 14.3333333,7.20754717 C14.6107171,7.50943396 14.9889677,7.66666667 15.4554768,7.66666667 C15.8778566,7.66666667 16.2245863,7.5408805 16.4956659,7.30188679 C16.7163121,7.10062893 16.8613081,6.8490566 16.9369582,6.53459119 L16.4326241,6.53459119 C16.3506698,6.76100629 16.2434988,6.93081761 16.1048069,7.04402516 C15.9408983,7.17610063 15.7202522,7.24528302 15.4554768,7.24528302 C15.1465721,7.24528302 14.9007092,7.14465409 14.7241923,6.94339623 C14.5476753,6.74213836 14.4531127,6.4591195 14.427896,6.09433962 L17,6.09433962 C16.9873916,5.52830189 16.8613081,5.08176101 16.6217494,4.7672956 C16.356974,4.41509434 15.9598109,4.23899371 15.4365642,4.23899371 Z M15.4491726,4.66037736 C16.0669819,4.66037736 16.4137116,5.00628931 16.4767533,5.70440252 L14.4405043,5.70440252 C14.4720252,5.3836478 14.572892,5.13207547 14.749409,4.94339623 C14.9259259,4.75471698 15.1591805,4.66037736 15.4491726,4.66037736 Z" id="0Fee" fill-rule="nonzero"></path>
                    </g>
                </g>
            </g>
        </g>
    </g>
</svg>