<svg width="340" height="340" xmlns="http://www.w3.org/2000/svg" xmlns:xlink="http://www.w3.org/1999/xlink" style="background:#fff"><defs><filter x="-15.9%" y="-6%" width="131.8%" height="118.9%" filterUnits="objectBoundingBox" id="j"><feOffset dy="4" in="SourceAlpha" result="shadowOffsetOuter1"/><feGaussianBlur stdDeviation="3" in="shadowOffsetOuter1" result="shadowBlurOuter1"/><feColorMatrix values="0 0 0 0 0 0 0 0 0 0 0 0 0 0 0 0 0 0 0.106544384 0" in="shadowBlurOuter1"/></filter><filter x="-6.8%" y="-4.3%" width="113.6%" height="113.6%" filterUnits="objectBoundingBox" id="v"><feOffset dy="4" in="SourceAlpha" result="shadowOffsetOuter1"/><feGaussianBlur stdDeviation="3" in="shadowOffsetOuter1" result="shadowBlurOuter1"/><feColorMatrix values="0 0 0 0 0 0 0 0 0 0 0 0 0 0 0 0 0 0 0.106544384 0" in="shadowBlurOuter1"/></filter><filter x="-15.9%" y="-6%" width="131.8%" height="118.9%" filterUnits="objectBoundingBox" id="B"><feOffset dy="4" in="SourceAlpha" result="shadowOffsetOuter1"/><feGaussianBlur stdDeviation="3" in="shadowOffsetOuter1" result="shadowBlurOuter1"/><feColorMatrix values="0 0 0 0 0 0 0 0 0 0 0 0 0 0 0 0 0 0 0.106544384 0" in="shadowBlurOuter1"/></filter><filter x="-18.4%" y="-7%" width="136.9%" height="122.2%" filterUnits="objectBoundingBox" id="z"><feOffset dy="4" in="SourceAlpha" result="shadowOffsetOuter1"/><feGaussianBlur stdDeviation="3" in="shadowOffsetOuter1" result="shadowBlurOuter1"/><feColorMatrix values="0 0 0 0 0 0 0 0 0 0 0 0 0 0 0 0 0 0 0.106544384 0" in="shadowBlurOuter1"/></filter><filter x="-6.8%" y="-4.3%" width="113.6%" height="113.6%" filterUnits="objectBoundingBox" id="a"><feOffset dy="4" in="SourceAlpha" result="shadowOffsetOuter1"/><feGaussianBlur stdDeviation="3" in="shadowOffsetOuter1" result="shadowBlurOuter1"/><feColorMatrix values="0 0 0 0 0 0 0 0 0 0 0 0 0 0 0 0 0 0 0.106544384 0" in="shadowBlurOuter1"/></filter><filter x="-18%" y="-19.8%" width="135.9%" height="162.4%" filterUnits="objectBoundingBox" id="F"><feOffset dy="4" in="SourceAlpha" result="shadowOffsetOuter1"/><feGaussianBlur stdDeviation="3" in="shadowOffsetOuter1" result="shadowBlurOuter1"/><feColorMatrix values="0 0 0 0 0 0 0 0 0 0 0 0 0 0 0 0 0 0 0.106544384 0" in="shadowBlurOuter1"/></filter><filter x="-16%" y="-6.1%" width="131.9%" height="119.2%" filterUnits="objectBoundingBox" id="D"><feOffset dy="4" in="SourceAlpha" result="shadowOffsetOuter1"/><feGaussianBlur stdDeviation="3" in="shadowOffsetOuter1" result="shadowBlurOuter1"/><feColorMatrix values="0 0 0 0 0 0 0 0 0 0 0 0 0 0 0 0 0 0 0.106544384 0" in="shadowBlurOuter1"/></filter><filter x="-18.3%" y="-7%" width="136.7%" height="121.9%" filterUnits="objectBoundingBox" id="d"><feOffset dy="4" in="SourceAlpha" result="shadowOffsetOuter1"/><feGaussianBlur stdDeviation="3" in="shadowOffsetOuter1" result="shadowBlurOuter1"/><feColorMatrix values="0 0 0 0 0 0 0 0 0 0 0 0 0 0 0 0 0 0 0.106544384 0" in="shadowBlurOuter1"/></filter><filter x="-18%" y="-19.8%" width="135.9%" height="162.4%" filterUnits="objectBoundingBox" id="s"><feOffset dy="4" in="SourceAlpha" result="shadowOffsetOuter1"/><feGaussianBlur stdDeviation="3" in="shadowOffsetOuter1" result="shadowBlurOuter1"/><feColorMatrix values="0 0 0 0 0 0 0 0 0 0 0 0 0 0 0 0 0 0 0.106544384 0" in="shadowBlurOuter1"/></filter><filter x="-16%" y="-6.1%" width="131.9%" height="119.2%" filterUnits="objectBoundingBox" id="m"><feOffset dy="4" in="SourceAlpha" result="shadowOffsetOuter1"/><feGaussianBlur stdDeviation="3" in="shadowOffsetOuter1" result="shadowBlurOuter1"/><feColorMatrix values="0 0 0 0 0 0 0 0 0 0 0 0 0 0 0 0 0 0 0.106544384 0" in="shadowBlurOuter1"/></filter><filter x="-18%" y="-19.8%" width="135.9%" height="162.4%" filterUnits="objectBoundingBox" id="H"><feOffset dy="4" in="SourceAlpha" result="shadowOffsetOuter1"/><feGaussianBlur stdDeviation="3" in="shadowOffsetOuter1" result="shadowBlurOuter1"/><feColorMatrix values="0 0 0 0 0 0 0 0 0 0 0 0 0 0 0 0 0 0 0.106544384 0" in="shadowBlurOuter1"/></filter><filter x="-18%" y="-19.8%" width="135.9%" height="162.4%" filterUnits="objectBoundingBox" id="p"><feOffset dy="4" in="SourceAlpha" result="shadowOffsetOuter1"/><feGaussianBlur stdDeviation="3" in="shadowOffsetOuter1" result="shadowBlurOuter1"/><feColorMatrix values="0 0 0 0 0 0 0 0 0 0 0 0 0 0 0 0 0 0 0.106544384 0" in="shadowBlurOuter1"/></filter><filter x="-18.4%" y="-7%" width="136.9%" height="122.2%" filterUnits="objectBoundingBox" id="g"><feOffset dy="4" in="SourceAlpha" result="shadowOffsetOuter1"/><feGaussianBlur stdDeviation="3" in="shadowOffsetOuter1" result="shadowBlurOuter1"/><feColorMatrix values="0 0 0 0 0 0 0 0 0 0 0 0 0 0 0 0 0 0 0.106544384 0" in="shadowBlurOuter1"/></filter><filter x="-18.3%" y="-7%" width="136.7%" height="121.9%" filterUnits="objectBoundingBox" id="x"><feOffset dy="4" in="SourceAlpha" result="shadowOffsetOuter1"/><feGaussianBlur stdDeviation="3" in="shadowOffsetOuter1" result="shadowBlurOuter1"/><feColorMatrix values="0 0 0 0 0 0 0 0 0 0 0 0 0 0 0 0 0 0 0.106544384 0" in="shadowBlurOuter1"/></filter><path d="M264.205 281.878c-2.479.074-4.96.14-7.436.208l-7.863.222c-1.65.045-3.493.312-5.217.235-.775 2.289-1.313 4.631-1.533 7.04a13.918 13.918 0 01-1.317-.652c-.694-.39-1.34-.817-1.94-1.286.34-2.094.884-4.16 1.584-6.182-.987-.942-1.575-2.387-2.243-3.549a1067.936 1067.936 0 01-3.771-6.62c-.67-1.184-1.343-2.367-2.014-3.55l.001-.002a36.97 36.97 0 01.534-3.21c.976 1.638 1.93 3.284 2.893 4.923 1.224 2.09 2.44 4.184 3.652 6.283.578 1 1.148 2.002 1.728 2.998.054.09.107.17.157.25 1.08-2.623 2.393-5.161 3.817-7.571.538-.912 1.1-1.808 1.672-2.701-.733-1.005-1.138-2.458-1.58-3.417-.983-2.147-1.977-4.296-2.956-6.445-1.026-2.254-2.032-4.518-3.049-6.775-.135-.303-.271-.605-.408-.907a44.987 44.987 0 011.695-2.042c1.298 2.492 2.303 5.224 3.44 7.66.905 1.935 1.789 3.885 2.681 5.83.47 1.025.934 2.048 1.403 3.07.12.264.215.498.31.706 1.877-2.775 3.852-5.49 5.759-8.246-.779-.954-1.29-2.25-1.826-3.221a182.916 182.916 0 01-3.08-5.816 232.304 232.304 0 01-3.023-6.255c.473-.568.928-1.148 1.356-1.744.03.06.057.117.088.173 1.08 2.07 2.153 4.14 3.272 6.19 1.055 1.932 2.105 3.865 3.18 5.785.476.85.92 1.916 1.513 2.713 1.982-2.97 3.837-6.014 5.353-9.265a36.617 36.617 0 001.768-4.56c-1.096-1.118-2.027-2.67-2.903-3.763a295.93 295.93 0 01-4.28-5.473c-1.302-1.715-2.62-3.44-3.856-5.215.094-1.156.187-2.31.32-3.459 1.77 2.199 3.433 4.492 5.153 6.728a441.749 441.749 0 003.857 4.964 466.87 466.87 0 002.069 2.58c.141.174.296.401.46.643.474-2.03.8-4.103 1.027-6.23.111-1.035.211-2.071.317-3.103-.553-.505-.912-1.236-1.287-1.856a142.927 142.927 0 01-1.912-3.25 117.283 117.283 0 01-3.135-5.803 120.11 120.11 0 01-2.689-5.67c.454-.737.941-1.46 1.452-2.162.039.082.079.162.118.241.984 1.972 1.93 3.961 2.964 5.91a215.359 215.359 0 002.999 5.52c.514.91 1.04 1.816 1.576 2.716.108.182.22.404.338.637.287-2.187.665-4.355 1.266-6.498a47.775 47.775 0 014.29-10.36 6.65 6.65 0 01-.182-.711c-.37-1.768-.646-3.562-.937-5.343-.197-1.201-.475-2.474-.727-3.766l.002-.003a55.07 55.07 0 011.86-1.297c.19.975.358 1.941.553 2.857.33 1.551.668 3.103.982 4.658.032.179.063.494.105.852a48.372 48.372 0 014.865-6.29c-.417-1.386-.36-3.194-.444-4.277-.032-.413-.06-.842-.09-1.277a53.187 53.187 0 012.209-1.05c.008.506.023 1.007.059 1.503a58.77 58.77 0 00.305 2.999c2.304-2.237 4.82-4.232 7.564-5.917 1.036-.634 2.14-1.3 3.288-1.913.05 0 .099 0 .147.003.859.039 1.47.649 1.633 1.366a7.335 7.335 0 00-.272.146 44.921 44.921 0 00-5.208 3.434 53.16 53.16 0 00-5.516 4.85c1.839.182 3.682.297 5.526.4-.36.747-.684 1.508-.97 2.283-1.26-.1-2.518-.213-3.776-.335-.824-.08-1.846-.033-2.7-.29a45.03 45.03 0 00-4.702 6.39 1.19 1.19 0 01.13-.016c3.16-.227 6.394-.246 9.596.01a25.55 25.55 0 00-.216 2.35c0 .034-.004.067-.004.1a49.595 49.595 0 00-2.585-.183 64.655 64.655 0 00-5.308-.023c-.891.034-2.012.28-2.995.197-2.308 4.37-3.9 9.11-4.608 14.017-.129.9-.23 1.802-.318 2.705.638-.18 1.292-.453 1.75-.582l3.277-.913c2.076-.577 4.154-1.159 6.23-1.736 1.793-.502 3.6-1.055 5.416-1.58.086.895.152 1.79.19 2.675-2.357.633-4.73 1.209-7.041 1.854-2.405.671-4.81 1.344-7.212 2.012-.8.225-1.826.654-2.842.886-.222 2.71-.414 5.423-.9 8.102a38.404 38.404 0 01-.54 2.475c.65-.125 1.321-.344 1.751-.425 1.044-.194 2.091-.378 3.138-.546a132 132 0 015.996-.84c1.356-.16 2.722-.31 4.099-.43-.715.93-1.508 1.808-2.331 2.67a102.34 102.34 0 00-3.42.401c-2.213.303-4.413.66-6.607 1.07-.994.186-2.236.628-3.383.697-.923 2.803-2.144 5.508-3.56 8.1a74.557 74.557 0 01-2.99 4.97 61.65 61.65 0 0110.452-1.331c-.24.86-.448 1.74-.626 2.63a41.7 41.7 0 00-1.158.068 67.161 67.161 0 00-6.605.824c-1.23.21-2.678.702-4.029.751-1.792 2.623-3.68 5.266-5.496 7.955 1.673-.077 3.365-.274 5.014-.367l6.49-.37c1.536-.09 3.079-.2 4.623-.305-.088.832-.177 1.663-.274 2.49-1.944.09-3.888.163-5.82.274-2.503.146-5.01.29-7.512.434-1.138.067-2.279.132-3.417.198-.228.015-.462.036-.7.057-2.17 3.36-4.15 6.796-5.612 10.357.003.002.008 0 .01.002 4.676-.141 9.347-.284 14.018-.426 2.22-.067 4.478-.226 6.739-.325a20.31 20.31 0 01-1.128 2.428" id="A"/><path d="M72.474 271.827c2.861.086 5.727.16 8.585.24l9.08.255c1.905.054 4.032.36 6.023.274.895 2.641 1.515 5.347 1.77 8.126a15.785 15.785 0 001.52-.751c.803-.45 1.548-.945 2.241-1.485-.393-2.419-1.021-4.804-1.829-7.138 1.139-1.087 1.818-2.757 2.59-4.099 1.458-2.542 2.914-5.089 4.354-7.642.774-1.369 1.551-2.734 2.326-4.1l-.002-.003a42.94 42.94 0 00-.616-3.706c-1.127 1.892-2.228 3.792-3.342 5.685a1350.72 1350.72 0 00-4.215 7.254c-.669 1.154-1.326 2.312-1.996 3.462a19.93 19.93 0 01-.18.289c-1.249-3.03-2.763-5.96-4.408-8.742a98.705 98.705 0 00-1.93-3.119c.845-1.16 1.313-2.838 1.822-3.945 1.136-2.48 2.284-4.96 3.414-7.442 1.185-2.602 2.347-5.217 3.52-7.823l.472-1.047a51.467 51.467 0 00-1.957-2.359c-1.498 2.879-2.66 6.033-3.973 8.844-1.044 2.236-2.064 4.487-3.095 6.733-.54 1.184-1.077 2.366-1.62 3.546-.138.304-.247.574-.358.814-2.167-3.205-4.447-6.338-6.649-9.521.9-1.101 1.49-2.597 2.107-3.719 1.219-2.222 2.42-4.45 3.557-6.716a271.732 271.732 0 003.492-7.222 35.576 35.576 0 01-1.567-2.013c-.035.068-.065.135-.102.2-1.246 2.39-2.485 4.78-3.777 7.146-1.217 2.231-2.43 4.464-3.673 6.68-.55.981-1.06 2.212-1.747 3.132-2.287-3.428-4.43-6.943-6.18-10.697a42.421 42.421 0 01-2.04-5.265c1.264-1.291 2.34-3.083 3.35-4.345 1.67-2.09 3.321-4.19 4.942-6.32 1.504-1.98 3.025-3.97 4.453-6.021-.109-1.336-.215-2.666-.37-3.994-2.044 2.539-3.964 5.188-5.95 7.77-1.475 1.917-2.95 3.835-4.453 5.73-.793.996-1.589 1.989-2.39 2.978-.162.203-.341.464-.53.743-.547-2.343-.925-4.737-1.186-7.193-.128-1.195-.244-2.39-.367-3.583.64-.582 1.054-1.426 1.488-2.143a165.12 165.12 0 002.206-3.751 136.107 136.107 0 003.62-6.7c1.082-2.156 2.135-4.334 3.105-6.55a39.402 39.402 0 00-1.676-2.495c-.044.095-.091.186-.137.278-1.136 2.277-2.227 4.574-3.422 6.825a246.985 246.985 0 01-3.462 6.374 155.61 155.61 0 01-1.82 3.134c-.124.211-.253.468-.389.736-.333-2.525-.769-5.029-1.464-7.502a55.152 55.152 0 00-4.952-11.963 7.92 7.92 0 00.21-.82c.426-2.041.746-4.113 1.08-6.17.229-1.387.55-2.857.84-4.348l-.002-.004a63.392 63.392 0 00-2.147-1.497c-.22 1.125-.413 2.24-.639 3.298-.38 1.792-.771 3.583-1.133 5.38-.038.206-.073.57-.122.983a55.791 55.791 0 00-5.617-7.263c.482-1.6.415-3.689.513-4.937.036-.478.07-.973.104-1.476a60.635 60.635 0 00-2.55-1.213 32.04 32.04 0 01-.068 1.736 70.38 70.38 0 01-.353 3.463c-2.66-2.583-5.564-4.887-8.735-6.832-1.196-.733-2.47-1.5-3.795-2.209-.058 0-.115 0-.17.003a2.011 2.011 0 00-1.886 1.578c.109.056.213.11.314.17a51.76 51.76 0 016.014 3.964 61.283 61.283 0 016.37 5.6c-2.124.209-4.253.342-6.383.462.416.861.791 1.74 1.121 2.636a253.81 253.81 0 004.36-.388c.951-.092 2.132-.038 3.117-.334.65.737 1.28 1.485 1.887 2.263a52.21 52.21 0 013.542 5.116 1.168 1.168 0 00-.15-.02c-3.65-.261-7.382-.283-11.08.012.126.902.208 1.804.25 2.713.001.04.005.077.005.117.99-.096 1.984-.169 2.985-.213a75.01 75.01 0 016.128-.027c1.03.04 2.324.324 3.458.227 2.666 5.047 4.502 10.52 5.32 16.186.15 1.04.265 2.08.368 3.124-.736-.208-1.491-.523-2.021-.672-1.26-.352-2.52-.704-3.783-1.054-2.397-.667-4.796-1.338-7.193-2.006-2.072-.579-4.157-1.217-6.254-1.824a57.308 57.308 0 00-.219 3.09c2.72.73 5.46 1.395 8.13 2.14 2.776.776 5.553 1.55 8.327 2.323.923.26 2.108.755 3.281 1.024.256 3.128.48 6.26 1.04 9.354.175.96.385 1.912.624 2.858-.752-.145-1.527-.398-2.023-.492a157.977 157.977 0 00-3.624-.63c-2.3-.378-4.61-.698-6.922-.97a158.883 158.883 0 00-4.733-.496c.825 1.074 1.74 2.088 2.692 3.082 1.314.135 2.63.284 3.948.465 2.556.35 5.096.761 7.629 1.235 1.148.214 2.582.724 3.906.805 1.065 3.236 2.475 6.359 4.111 9.352 1.04 1.912 2.208 3.823 3.452 5.737a71.288 71.288 0 00-12.069-1.536c.278.994.518 2.01.723 3.037.445.021.892.046 1.338.08 2.557.189 5.1.51 7.626.95 1.42.243 3.091.811 4.652.868 2.068 3.029 4.25 6.08 6.345 9.184-1.93-.089-3.886-.317-5.789-.423l-7.492-.427c-1.775-.104-3.556-.23-5.339-.352.1.96.204 1.92.316 2.875 2.246.105 4.49.186 6.72.316 2.89.169 5.784.336 8.674.502 1.314.076 2.632.15 3.946.228.262.016.533.042.808.065 2.506 3.88 4.79 7.848 6.48 11.96-.004.001-.01-.001-.013.001-5.398-.162-10.791-.327-16.186-.491-2.563-.078-5.17-.262-7.78-.375.373.96.805 1.896 1.303 2.803" id="n"/><path d="M242.277 244.351a4.752 4.752 0 014.749 4.537l.005.217v4.754h4.753a4.75 4.75 0 014.753 4.754 4.75 4.75 0 01-4.535 4.748l-.218.005H99.038a4.751 4.751 0 01-4.754-4.753 4.752 4.752 0 014.536-4.75l.218-.004h4.754v-4.754a4.751 4.751 0 014.536-4.749l.217-.005h133.732zm-111.69-47.534v38.028H113.3v-38.028h17.288zm106.937 0v38.028H218.51v-38.028h19.013zm-52.606 0v38.028h-19.014v-38.028h19.014zm62.113-28.521v14.26a4.75 4.75 0 01-4.754 4.754H108.545a4.75 4.75 0 01-4.753-4.754v-14.26H247.03zm-68.96-66.368l.191.136 76.374 48.17a4.746 4.746 0 011.655 5.305 4.744 4.744 0 01-4.287 3.244l-.219.005H99.04a4.747 4.747 0 01-4.508-3.25 4.744 4.744 0 011.48-5.165l.177-.14 76.374-48.169a4.734 4.734 0 015.51-.136z" id="b"/><path d="M212.773 240.297H238.3c3.551.895 6.88 2.176 9.786 3.853a26.363 26.363 0 013.505 2.401l.434.364h-.23v20.697c-.292.244-.593.485-.906.722l-.478.354v-21.773h-2.607v23.427c-.3.17-.607.335-.916.496l-.468.238v-24.161h-2.606v25.338l-.687.27-.697.26v-25.868h-2.608v26.713l-.688.194-.695.183v-27.09h-2.607v27.68l-.69.13-.693.122v-27.932h-2.607v28.3l-.69.076-.694.065v-28.441h-2.607v28.611l-.692.025-.692.016v-28.652h-2.607v28.637l-.692-.024-.69-.033v-28.58h-2.608v28.369l-.693-.077-.69-.085v-28.207h-2.608v27.798l-.694-.132-.69-.14v-27.526h-2.606v26.895l-.695-.196-.689-.207v-26.492h-2.607v25.593c-.312-.12-.62-.243-.926-.37l-.457-.194v-25.03h-2.608v23.777a33.07 33.07 0 01-.918-.504l-.234-.14-.23-.142v-22.99h-2.608v21.216c-.37-.287-.719-.58-1.054-.876l-.33-.297v-19.574c1.25-1.147 2.724-2.235 4.455-3.234 2.711-1.566 5.792-2.786 9.077-3.669l.708-.184H238.3zm41.629 24.705v-15.65a15.77 15.77 0 011.14 1.596l.243.406v11.643c-.314.545-.67 1.082-1.072 1.61l-.311.395v-15.65zm-58.476-14.656v13.663a13.671 13.671 0 01-1.383-2.503v-9.545h.402c.278-.546.614-1.083.981-1.615z" id="t"/><path d="M242.277 244.351a4.752 4.752 0 014.749 4.537l.005.217v4.754h4.753a4.75 4.75 0 014.753 4.754 4.75 4.75 0 01-4.535 4.748l-.218.005H99.038a4.751 4.751 0 01-4.754-4.753 4.752 4.752 0 014.536-4.75l.218-.004h4.754v-4.754a4.751 4.751 0 014.536-4.749l.217-.005h133.732zm-111.69-47.534v38.028H113.3v-38.028h17.288zm106.937 0v38.028H218.51v-38.028h19.013zm-52.606 0v38.028h-19.014v-38.028h19.014zm62.113-28.521v14.26a4.75 4.75 0 01-4.754 4.754H108.545a4.75 4.75 0 01-4.753-4.754v-14.26H247.03zm-68.96-66.368l.191.136 76.374 48.17a4.746 4.746 0 011.655 5.305 4.744 4.744 0 01-4.287 3.244l-.219.005H99.04a4.747 4.747 0 01-4.508-3.25 4.744 4.744 0 011.48-5.165l.177-.14 76.374-48.169a4.734 4.734 0 015.51-.136z" id="w"/><path d="M72.474 271.827c.532.983 1.145 1.93 1.842 2.837 5.343 6.944 15.637 9.546 23.616 6.058a15.785 15.785 0 001.52-.751c.803-.45 1.548-.945 2.241-1.485 6.669-5.157 8.493-14.18 7.44-22.98l-.001-.002a42.94 42.94 0 00-.616-3.706c-1.136-5.38-3.278-10.445-5.95-14.223a30.47 30.47 0 00-.893-1.205 51.467 51.467 0 00-1.957-2.359c-2.15-2.446-4.489-4.762-6.54-7.24a35.576 35.576 0 01-1.566-2.014c-1.202-1.658-2.235-3.42-2.97-5.356-1.228-3.228-1.525-6.675-1.804-10.134-.109-1.336-.215-2.666-.37-3.994-.165-1.41-.388-2.803-.73-4.176-.754-3.028-2.077-5.865-3.727-8.523a39.402 39.402 0 00-1.676-2.495 52.005 52.005 0 00-2.033-2.632 62.926 62.926 0 00-11.483-10.824l-.002-.004a63.392 63.392 0 00-2.147-1.497l-.002-.004a63.84 63.84 0 00-6.892-4.011 62.653 62.653 0 00-12.067-4.58c-1.083-.283-2.295-.503-3.434-.474-.058 0-.115-.001-.17.002a2.011 2.011 0 00-1.886 1.578 1.944 1.944 0 00.508 1.834 31.47 31.47 0 015.807 8.362c.416.861.791 1.74 1.121 2.636a30.886 30.886 0 011.926 9.362c.001.04.005.077.005.117.189 4.52-.572 9.176-.992 13.741a57.308 57.308 0 00-.219 3.09c-.182 4.056.15 7.996 1.926 11.652.6 1.237 1.343 2.38 2.174 3.459.825 1.074 1.74 2.088 2.692 3.082 2.617 2.735 5.51 5.295 7.6 8.436 1.563 2.354 2.622 4.921 3.377 7.622.278.994.518 2.01.723 3.037.646 3.213.989 6.55 1.341 9.88.1.96.204 1.92.316 2.875.495 4.25 1.154 8.414 2.65 12.206.372.96.804 1.896 1.302 2.803" id="k"/><path d="M264.205 281.878a18.698 18.698 0 01-1.595 2.458c-4.628 6.013-13.544 8.267-20.454 5.246a13.918 13.918 0 01-1.317-.65c-.694-.39-1.34-.818-1.94-1.287-5.776-4.466-7.357-12.28-6.444-19.9l.001-.003a36.97 36.97 0 01.534-3.21c.983-4.66 2.84-9.047 5.152-12.318.25-.354.507-.701.774-1.044a44.987 44.987 0 011.695-2.042c1.863-2.119 3.887-4.126 5.664-6.272.473-.568.928-1.148 1.356-1.744 1.04-1.436 1.936-2.961 2.573-4.638 1.063-2.796 1.32-5.781 1.562-8.777.094-1.156.187-2.31.32-3.459.143-1.22.336-2.428.633-3.617.653-2.622 1.798-5.08 3.227-7.38.454-.737.941-1.46 1.452-2.162a45.515 45.515 0 011.761-2.28 54.5 54.5 0 019.944-9.374l.002-.003a55.07 55.07 0 011.86-1.297l.002-.004a55.238 55.238 0 015.97-3.473 54.255 54.255 0 0110.45-3.966c.937-.246 1.987-.436 2.974-.412.05 0 .099 0 .147.003.859.039 1.47.649 1.633 1.366.128.538.006 1.13-.44 1.589a27.243 27.243 0 00-5.03 7.242c-.36.746-.684 1.507-.97 2.282a26.784 26.784 0 00-1.668 8.109c0 .034-.004.067-.004.1-.164 3.916.495 7.948.859 11.902.086.895.152 1.79.19 2.675.157 3.514-.13 6.926-1.669 10.092a17.256 17.256 0 01-1.882 2.996c-.715.93-1.508 1.808-2.331 2.67-2.267 2.368-4.772 4.585-6.583 7.305-1.353 2.04-2.27 4.263-2.925 6.602-.24.86-.448 1.74-.626 2.63-.56 2.782-.856 5.673-1.161 8.556-.088.832-.177 1.663-.274 2.49-.429 3.68-1 7.288-2.294 10.571a20.31 20.31 0 01-1.128 2.428" id="y"/><path d="M208.945 248.113h25.528c3.55.894 6.88 2.175 9.785 3.852a26.42 26.42 0 013.506 2.402l.434.363h-.23v20.698c-.292.243-.593.485-.905.722l-.479.353V254.73h-2.608v23.428c-.3.17-.606.334-.915.495l-.468.239V254.73h-2.607v25.338l-.687.271-.696.26V254.73h-2.608v26.714l-.688.193-.695.183v-27.09h-2.607v27.68l-.69.131-.693.122V254.73h-2.607v28.301l-.691.075-.693.066V254.73h-2.608v28.612l-.69.024-.693.017V254.73h-2.607v28.638l-.692-.025-.69-.033v-28.58h-2.608v28.37l-.694-.078-.69-.085V254.73h-2.607v27.799l-.694-.132-.69-.141V254.73h-2.607v26.896l-.695-.196-.688-.207V254.73h-2.607v25.594c-.312-.12-.62-.244-.927-.371l-.456-.193v-25.03h-2.608v23.777c-.31-.166-.618-.331-.919-.504l-.233-.141-.231-.142v-22.99h-2.608v21.216a22.41 22.41 0 01-1.053-.875l-.33-.297v-19.575c1.25-1.146 2.724-2.235 4.455-3.234 2.711-1.565 5.792-2.785 9.077-3.668l.707-.184h25.528zm41.63 24.705v-15.65c.425.524.805 1.056 1.14 1.596l.243.406v11.643a15.07 15.07 0 01-1.072 1.61l-.311.395v-15.65zm-58.476-14.656v13.663a13.671 13.671 0 01-1.383-2.503v-9.546h.402a14.14 14.14 0 01.981-1.614z" id="q"/><path d="M264.205 281.878c-2.479.074-4.96.14-7.436.208l-7.863.222c-1.65.045-3.493.312-5.217.235-.775 2.289-1.313 4.631-1.533 7.04a13.918 13.918 0 01-1.317-.652c-.694-.39-1.34-.817-1.94-1.286.34-2.094.884-4.16 1.584-6.182-.987-.942-1.575-2.387-2.243-3.549a1067.936 1067.936 0 01-3.771-6.62c-.67-1.184-1.343-2.367-2.014-3.55l.001-.002a36.97 36.97 0 01.534-3.21c.976 1.638 1.93 3.284 2.893 4.923 1.224 2.09 2.44 4.184 3.652 6.283.578 1 1.148 2.002 1.728 2.998.054.09.107.17.157.25 1.08-2.623 2.393-5.161 3.817-7.571.538-.912 1.1-1.808 1.672-2.701-.733-1.005-1.138-2.458-1.58-3.417-.983-2.147-1.977-4.296-2.956-6.445-1.026-2.254-2.032-4.518-3.049-6.775-.135-.303-.271-.605-.408-.907a44.987 44.987 0 011.695-2.042c1.298 2.492 2.303 5.224 3.44 7.66.905 1.935 1.789 3.885 2.681 5.83.47 1.025.934 2.048 1.403 3.07.12.264.215.498.31.706 1.877-2.775 3.852-5.49 5.759-8.246-.779-.954-1.29-2.25-1.826-3.221a182.916 182.916 0 01-3.08-5.816 232.304 232.304 0 01-3.023-6.255c.473-.568.928-1.148 1.356-1.744.03.06.057.117.088.173 1.08 2.07 2.153 4.14 3.272 6.19 1.055 1.932 2.105 3.865 3.18 5.785.476.85.92 1.916 1.513 2.713 1.982-2.97 3.837-6.014 5.353-9.265a36.617 36.617 0 001.768-4.56c-1.096-1.118-2.027-2.67-2.903-3.763a295.93 295.93 0 01-4.28-5.473c-1.302-1.715-2.62-3.44-3.856-5.215.094-1.156.187-2.31.32-3.459 1.77 2.199 3.433 4.492 5.153 6.728a441.749 441.749 0 003.857 4.964 466.87 466.87 0 002.069 2.58c.141.174.296.401.46.643.474-2.03.8-4.103 1.027-6.23.111-1.035.211-2.071.317-3.103-.553-.505-.912-1.236-1.287-1.856a142.927 142.927 0 01-1.912-3.25 117.283 117.283 0 01-3.135-5.803 120.11 120.11 0 01-2.689-5.67c.454-.737.941-1.46 1.452-2.162.039.082.079.162.118.241.984 1.972 1.93 3.961 2.964 5.91a215.359 215.359 0 002.999 5.52c.514.91 1.04 1.816 1.576 2.716.108.182.22.404.338.637.287-2.187.665-4.355 1.266-6.498a47.775 47.775 0 014.29-10.36 6.65 6.65 0 01-.182-.711c-.37-1.768-.646-3.562-.937-5.343-.197-1.201-.475-2.474-.727-3.766l.002-.003a55.07 55.07 0 011.86-1.297c.19.975.358 1.941.553 2.857.33 1.551.668 3.103.982 4.658.032.179.063.494.105.852a48.372 48.372 0 014.865-6.29c-.417-1.386-.36-3.194-.444-4.277-.032-.413-.06-.842-.09-1.277a53.187 53.187 0 012.209-1.05c.008.506.023 1.007.059 1.503a58.77 58.77 0 00.305 2.999c2.304-2.237 4.82-4.232 7.564-5.917 1.036-.634 2.14-1.3 3.288-1.913.05 0 .099 0 .147.003.859.039 1.47.649 1.633 1.366a7.335 7.335 0 00-.272.146 44.921 44.921 0 00-5.208 3.434 53.16 53.16 0 00-5.516 4.85c1.839.182 3.682.297 5.526.4-.36.747-.684 1.508-.97 2.283-1.26-.1-2.518-.213-3.776-.335-.824-.08-1.846-.033-2.7-.29a45.03 45.03 0 00-4.702 6.39 1.19 1.19 0 01.13-.016c3.16-.227 6.394-.246 9.596.01a25.55 25.55 0 00-.216 2.35c0 .034-.004.067-.004.1a49.595 49.595 0 00-2.585-.183 64.655 64.655 0 00-5.308-.023c-.891.034-2.012.28-2.995.197-2.308 4.37-3.9 9.11-4.608 14.017-.129.9-.23 1.802-.318 2.705.638-.18 1.292-.453 1.75-.582l3.277-.913c2.076-.577 4.154-1.159 6.23-1.736 1.793-.502 3.6-1.055 5.416-1.58.086.895.152 1.79.19 2.675-2.357.633-4.73 1.209-7.041 1.854-2.405.671-4.81 1.344-7.212 2.012-.8.225-1.826.654-2.842.886-.222 2.71-.414 5.423-.9 8.102a38.404 38.404 0 01-.54 2.475c.65-.125 1.321-.344 1.751-.425 1.044-.194 2.091-.378 3.138-.546a132 132 0 015.996-.84c1.356-.16 2.722-.31 4.099-.43-.715.93-1.508 1.808-2.331 2.67a102.34 102.34 0 00-3.42.401c-2.213.303-4.413.66-6.607 1.07-.994.186-2.236.628-3.383.697-.923 2.803-2.144 5.508-3.56 8.1a74.557 74.557 0 01-2.99 4.97 61.65 61.65 0 0110.452-1.331c-.24.86-.448 1.74-.626 2.63a41.7 41.7 0 00-1.158.068 67.161 67.161 0 00-6.605.824c-1.23.21-2.678.702-4.029.751-1.792 2.623-3.68 5.266-5.496 7.955 1.673-.077 3.365-.274 5.014-.367l6.49-.37c1.536-.09 3.079-.2 4.623-.305-.088.832-.177 1.663-.274 2.49-1.944.09-3.888.163-5.82.274-2.503.146-5.01.29-7.512.434-1.138.067-2.279.132-3.417.198-.228.015-.462.036-.7.057-2.17 3.36-4.15 6.796-5.612 10.357.003.002.008 0 .01.002 4.676-.141 9.347-.284 14.018-.426 2.22-.067 4.478-.226 6.739-.325a20.31 20.31 0 01-1.128 2.428" id="h"/><path d="M72.474 271.827c.532.983 1.145 1.93 1.842 2.837 5.343 6.944 15.637 9.546 23.616 6.058a15.785 15.785 0 001.52-.751c.803-.45 1.548-.945 2.241-1.485 6.669-5.157 8.493-14.18 7.44-22.98l-.001-.002a42.94 42.94 0 00-.616-3.706c-1.136-5.38-3.278-10.445-5.95-14.223a30.47 30.47 0 00-.893-1.205 51.467 51.467 0 00-1.957-2.359c-2.15-2.446-4.489-4.762-6.54-7.24a35.576 35.576 0 01-1.566-2.014c-1.202-1.658-2.235-3.42-2.97-5.356-1.228-3.228-1.525-6.675-1.804-10.134-.109-1.336-.215-2.666-.37-3.994-.165-1.41-.388-2.803-.73-4.176-.754-3.028-2.077-5.865-3.727-8.523a39.402 39.402 0 00-1.676-2.495 52.005 52.005 0 00-2.033-2.632 62.926 62.926 0 00-11.483-10.824l-.002-.004a63.392 63.392 0 00-2.147-1.497l-.002-.004a63.84 63.84 0 00-6.892-4.011 62.653 62.653 0 00-12.067-4.58c-1.083-.283-2.295-.503-3.434-.474-.058 0-.115-.001-.17.002a2.011 2.011 0 00-1.886 1.578 1.944 1.944 0 00.508 1.834 31.47 31.47 0 015.807 8.362c.416.861.791 1.74 1.121 2.636a30.886 30.886 0 011.926 9.362c.001.04.005.077.005.117.189 4.52-.572 9.176-.992 13.741a57.308 57.308 0 00-.219 3.09c-.182 4.056.15 7.996 1.926 11.652.6 1.237 1.343 2.38 2.174 3.459.825 1.074 1.74 2.088 2.692 3.082 2.617 2.735 5.51 5.295 7.6 8.436 1.563 2.354 2.622 4.921 3.377 7.622.278.994.518 2.01.723 3.037.646 3.213.989 6.55 1.341 9.88.1.96.204 1.92.316 2.875.495 4.25 1.154 8.414 2.65 12.206.372.96.804 1.896 1.302 2.803" id="C"/><path d="M72.474 271.827c2.861.086 5.727.16 8.585.24l9.08.255c1.905.054 4.032.36 6.023.274.895 2.641 1.515 5.347 1.77 8.126a15.785 15.785 0 001.52-.751c.803-.45 1.548-.945 2.241-1.485-.393-2.419-1.021-4.804-1.829-7.138 1.139-1.087 1.818-2.757 2.59-4.099 1.458-2.542 2.914-5.089 4.354-7.642.774-1.369 1.551-2.734 2.326-4.1l-.002-.003a42.94 42.94 0 00-.616-3.706c-1.127 1.892-2.228 3.792-3.342 5.685a1350.72 1350.72 0 00-4.215 7.254c-.669 1.154-1.326 2.312-1.996 3.462a19.93 19.93 0 01-.18.289c-1.249-3.03-2.763-5.96-4.408-8.742a98.705 98.705 0 00-1.93-3.119c.845-1.16 1.313-2.838 1.822-3.945 1.136-2.48 2.284-4.96 3.414-7.442 1.185-2.602 2.347-5.217 3.52-7.823l.472-1.047a51.467 51.467 0 00-1.957-2.359c-1.498 2.879-2.66 6.033-3.973 8.844-1.044 2.236-2.064 4.487-3.095 6.733-.54 1.184-1.077 2.366-1.62 3.546-.138.304-.247.574-.358.814-2.167-3.205-4.447-6.338-6.649-9.521.9-1.101 1.49-2.597 2.107-3.719 1.219-2.222 2.42-4.45 3.557-6.716a271.732 271.732 0 003.492-7.222 35.576 35.576 0 01-1.567-2.013c-.035.068-.065.135-.102.2-1.246 2.39-2.485 4.78-3.777 7.146-1.217 2.231-2.43 4.464-3.673 6.68-.55.981-1.06 2.212-1.747 3.132-2.287-3.428-4.43-6.943-6.18-10.697a42.421 42.421 0 01-2.04-5.265c1.264-1.291 2.34-3.083 3.35-4.345 1.67-2.09 3.321-4.19 4.942-6.32 1.504-1.98 3.025-3.97 4.453-6.021-.109-1.336-.215-2.666-.37-3.994-2.044 2.539-3.964 5.188-5.95 7.77-1.475 1.917-2.95 3.835-4.453 5.73-.793.996-1.589 1.989-2.39 2.978-.162.203-.341.464-.53.743-.547-2.343-.925-4.737-1.186-7.193-.128-1.195-.244-2.39-.367-3.583.64-.582 1.054-1.426 1.488-2.143a165.12 165.12 0 002.206-3.751 136.107 136.107 0 003.62-6.7c1.082-2.156 2.135-4.334 3.105-6.55a39.402 39.402 0 00-1.676-2.495c-.044.095-.091.186-.137.278-1.136 2.277-2.227 4.574-3.422 6.825a246.985 246.985 0 01-3.462 6.374 155.61 155.61 0 01-1.82 3.134c-.124.211-.253.468-.389.736-.333-2.525-.769-5.029-1.464-7.502a55.152 55.152 0 00-4.952-11.963 7.92 7.92 0 00.21-.82c.426-2.041.746-4.113 1.08-6.17.229-1.387.55-2.857.84-4.348l-.002-.004a63.392 63.392 0 00-2.147-1.497c-.22 1.125-.413 2.24-.639 3.298-.38 1.792-.771 3.583-1.133 5.38-.038.206-.073.57-.122.983a55.791 55.791 0 00-5.617-7.263c.482-1.6.415-3.689.513-4.937.036-.478.07-.973.104-1.476a60.635 60.635 0 00-2.55-1.213 32.04 32.04 0 01-.068 1.736 70.38 70.38 0 01-.353 3.463c-2.66-2.583-5.564-4.887-8.735-6.832-1.196-.733-2.47-1.5-3.795-2.209-.058 0-.115 0-.17.003a2.011 2.011 0 00-1.886 1.578c.109.056.213.11.314.17a51.76 51.76 0 016.014 3.964 61.283 61.283 0 016.37 5.6c-2.124.209-4.253.342-6.383.462.416.861.791 1.74 1.121 2.636a253.81 253.81 0 004.36-.388c.951-.092 2.132-.038 3.117-.334.65.737 1.28 1.485 1.887 2.263a52.21 52.21 0 013.542 5.116 1.168 1.168 0 00-.15-.02c-3.65-.261-7.382-.283-11.08.012.126.902.208 1.804.25 2.713.001.04.005.077.005.117.99-.096 1.984-.169 2.985-.213a75.01 75.01 0 016.128-.027c1.03.04 2.324.324 3.458.227 2.666 5.047 4.502 10.52 5.32 16.186.15 1.04.265 2.08.368 3.124-.736-.208-1.491-.523-2.021-.672-1.26-.352-2.52-.704-3.783-1.054-2.397-.667-4.796-1.338-7.193-2.006-2.072-.579-4.157-1.217-6.254-1.824a57.308 57.308 0 00-.219 3.09c2.72.73 5.46 1.395 8.13 2.14 2.776.776 5.553 1.55 8.327 2.323.923.26 2.108.755 3.281 1.024.256 3.128.48 6.26 1.04 9.354.175.96.385 1.912.624 2.858-.752-.145-1.527-.398-2.023-.492a157.977 157.977 0 00-3.624-.63c-2.3-.378-4.61-.698-6.922-.97a158.883 158.883 0 00-4.733-.496c.825 1.074 1.74 2.088 2.692 3.082 1.314.135 2.63.284 3.948.465 2.556.35 5.096.761 7.629 1.235 1.148.214 2.582.724 3.906.805 1.065 3.236 2.475 6.359 4.111 9.352 1.04 1.912 2.208 3.823 3.452 5.737a71.288 71.288 0 00-12.069-1.536c.278.994.518 2.01.723 3.037.445.021.892.046 1.338.08 2.557.189 5.1.51 7.626.95 1.42.243 3.091.811 4.652.868 2.068 3.029 4.25 6.08 6.345 9.184-1.93-.089-3.886-.317-5.789-.423l-7.492-.427c-1.775-.104-3.556-.23-5.339-.352.1.96.204 1.92.316 2.875 2.246.105 4.49.186 6.72.316 2.89.169 5.784.336 8.674.502 1.314.076 2.632.15 3.946.228.262.016.533.042.808.065 2.506 3.88 4.79 7.848 6.48 11.96-.004.001-.01-.001-.013.001-5.398-.162-10.791-.327-16.186-.491-2.563-.078-5.17-.262-7.78-.375.373.96.805 1.896 1.303 2.803" id="E"/><path d="M264.205 281.878a18.698 18.698 0 01-1.595 2.458c-4.628 6.013-13.544 8.267-20.454 5.246a13.918 13.918 0 01-1.317-.65c-.694-.39-1.34-.818-1.94-1.287-5.776-4.466-7.357-12.28-6.444-19.9l.001-.003a36.97 36.97 0 01.534-3.21c.983-4.66 2.84-9.047 5.152-12.318.25-.354.507-.701.774-1.044a44.987 44.987 0 011.695-2.042c1.863-2.119 3.887-4.126 5.664-6.272.473-.568.928-1.148 1.356-1.744 1.04-1.436 1.936-2.961 2.573-4.638 1.063-2.796 1.32-5.781 1.562-8.777.094-1.156.187-2.31.32-3.459.143-1.22.336-2.428.633-3.617.653-2.622 1.798-5.08 3.227-7.38.454-.737.941-1.46 1.452-2.162a45.515 45.515 0 011.761-2.28 54.5 54.5 0 019.944-9.374l.002-.003a55.07 55.07 0 011.86-1.297l.002-.004a55.238 55.238 0 015.97-3.473 54.255 54.255 0 0110.45-3.966c.937-.246 1.987-.436 2.974-.412.05 0 .099 0 .147.003.859.039 1.47.649 1.633 1.366.128.538.006 1.13-.44 1.589a27.243 27.243 0 00-5.03 7.242c-.36.746-.684 1.507-.97 2.282a26.784 26.784 0 00-1.668 8.109c0 .034-.004.067-.004.1-.164 3.916.495 7.948.859 11.902.086.895.152 1.79.19 2.675.157 3.514-.13 6.926-1.669 10.092a17.256 17.256 0 01-1.882 2.996c-.715.93-1.508 1.808-2.331 2.67-2.267 2.368-4.772 4.585-6.583 7.305-1.353 2.04-2.27 4.263-2.925 6.602-.24.86-.448 1.74-.626 2.63-.56 2.782-.856 5.673-1.161 8.556-.088.832-.177 1.663-.274 2.49-.429 3.68-1 7.288-2.294 10.571a20.31 20.31 0 01-1.128 2.428" id="e"/><path d="M208.945 248.113h25.528c3.55.894 6.88 2.175 9.785 3.852a26.42 26.42 0 013.506 2.402l.434.363h-.23v20.698c-.292.243-.593.485-.905.722l-.479.353V254.73h-2.608v23.428c-.3.17-.606.334-.915.495l-.468.239V254.73h-2.607v25.338l-.687.271-.696.26V254.73h-2.608v26.714l-.688.193-.695.183v-27.09h-2.607v27.68l-.69.131-.693.122V254.73h-2.607v28.301l-.691.075-.693.066V254.73h-2.608v28.612l-.69.024-.693.017V254.73h-2.607v28.638l-.692-.025-.69-.033v-28.58h-2.608v28.37l-.694-.078-.69-.085V254.73h-2.607v27.799l-.694-.132-.69-.141V254.73h-2.607v26.896l-.695-.196-.688-.207V254.73h-2.607v25.594c-.312-.12-.62-.244-.927-.371l-.456-.193v-25.03h-2.608v23.777c-.31-.166-.618-.331-.919-.504l-.233-.141-.231-.142v-22.99h-2.608v21.216a22.41 22.41 0 01-1.053-.875l-.33-.297v-19.575c1.25-1.146 2.724-2.235 4.455-3.234 2.711-1.565 5.792-2.785 9.077-3.668l.707-.184h25.528zm41.63 24.705v-15.65c.425.524.805 1.056 1.14 1.596l.243.406v11.643a15.07 15.07 0 01-1.072 1.61l-.311.395v-15.65zm-58.476-14.656v13.663a13.671 13.671 0 01-1.383-2.503v-9.546h.402a14.14 14.14 0 01.981-1.614z" id="G"/><path d="M212.773 240.297H238.3c3.551.895 6.88 2.176 9.786 3.853a26.363 26.363 0 013.505 2.401l.434.364h-.23v20.697c-.292.244-.593.485-.906.722l-.478.354v-21.773h-2.607v23.427c-.3.17-.607.335-.916.496l-.468.238v-24.161h-2.606v25.338l-.687.27-.697.26v-25.868h-2.608v26.713l-.688.194-.695.183v-27.09h-2.607v27.68l-.69.13-.693.122v-27.932h-2.607v28.3l-.69.076-.694.065v-28.441h-2.607v28.611l-.692.025-.692.016v-28.652h-2.607v28.637l-.692-.024-.69-.033v-28.58h-2.608v28.369l-.693-.077-.69-.085v-28.207h-2.608v27.798l-.694-.132-.69-.14v-27.526h-2.606v26.895l-.695-.196-.689-.207v-26.492h-2.607v25.593c-.312-.12-.62-.243-.926-.37l-.457-.194v-25.03h-2.608v23.777a33.07 33.07 0 01-.918-.504l-.234-.14-.23-.142v-22.99h-2.608v21.216c-.37-.287-.719-.58-1.054-.876l-.33-.297v-19.574c1.25-1.147 2.724-2.235 4.455-3.234 2.711-1.566 5.792-2.786 9.077-3.669l.708-.184H238.3zm41.629 24.705v-15.65a15.77 15.77 0 011.14 1.596l.243.406v11.643c-.314.545-.67 1.082-1.072 1.61l-.311.395v-15.65zm-58.476-14.656v13.663a13.671 13.671 0 01-1.383-2.503v-9.545h.402c.278-.546.614-1.083.981-1.615z" id="I"/><linearGradient x1="33.332%" y1="0%" x2="68.06%" y2="100%" id="i"><stop stop-color="#54B6FF" offset="0%"/><stop stop-color="#2A7FFF" offset="100%"/></linearGradient><linearGradient x1="3.855%" y1="33.416%" x2="100%" y2="66.584%" id="r"><stop stop-color="#54B6FF" offset="0%"/><stop stop-color="#2A7FFF" offset="100%"/></linearGradient><linearGradient x1="3.855%" y1="33.416%" x2="100%" y2="66.584%" id="u"><stop stop-color="#54B6FF" offset="0%"/><stop stop-color="#2A7FFF" offset="100%"/></linearGradient><linearGradient x1="3.856%" y1="0%" x2="99.998%" y2="100%" id="c"><stop stop-color="#54B6FF" offset="0%"/><stop stop-color="#2A7FFF" offset="100%"/></linearGradient><linearGradient x1="33.615%" y1="0%" x2="67.754%" y2="100%" id="f"><stop stop-color="#54B6FF" offset="0%"/><stop stop-color="#2A7FFF" offset="100%"/></linearGradient><linearGradient x1="33.332%" y1="0%" x2="68.06%" y2="100%" id="o"><stop stop-color="#54B6FF" offset="0%"/><stop stop-color="#2A7FFF" offset="100%"/></linearGradient><linearGradient x1="33.615%" y1="0%" x2="67.754%" y2="100%" id="l"><stop stop-color="#54B6FF" offset="0%"/><stop stop-color="#2A7FFF" offset="100%"/></linearGradient></defs><g fill="none" fill-rule="evenodd"><path fill="#01081F" d="M-585-193H855v820H-585z"/><path d="M47.2 278.296c-23.338-15.362-34.943-46.418-31.736-75.113 1.411-12.623 5.343-24.989 5.05-37.695-.181-7.902-2-15.67-2.48-23.558-1.842-30.304 17.43-59.527 43.511-72.733 26.08-13.208 57.434-11.847 84.493-1.021 10.702 4.281 21.096 10.018 32.472 11.431 19.095 2.373 37.524-7.726 56.667-9.634 36.053-3.594 70.697 24.188 83.577 59.673 12.881 35.486 6.827 76.201-9.002 110.351-8.671 18.708-21.723 37.188-40.844 42.734-6.78 1.966-13.9 2.16-20.933 2.152-36.4-.043-73.296-5.27-109.156 3.437-28.21 6.849-66.33 6.62-91.619-10.024" fill="#0F162D"/><use fill="#000" filter="url(#a)" xlink:href="#b"/><use fill="url(#c)" xlink:href="#b"/><use fill="#000" filter="url(#d)" xlink:href="#e"/><use fill="url(#f)" xlink:href="#e"/><use fill-opacity=".3" fill="#FFF" xlink:href="#e"/><use fill="#000" filter="url(#g)" xlink:href="#h"/><use fill="url(#i)" xlink:href="#h"/><path d="M245.356 276.441c.229 3.908 1.513 8.2 3.712 11.845.326.54.671 1.067 1.038 1.575 1.964 2.734 4.496 4.959 7.526 6.154 8.309 3.277 17.719 3.393 25.783-.677 1.844-.933 3.737-2.48 4.556-4.266.305-.664.462-1.36.412-2.068a3.843 3.843 0 00-.243-1.081c-.33-.866-.974-1.578-1.686-2.172a10.324 10.324 0 00-5.607-2.34c6.946-.747 14.317-2.675 18.771-8.059.72-.87 1.362-1.902 1.612-2.98.136-.58.157-1.174.017-1.765a2.75 2.75 0 00-.08-.273c-.479-1.459-1.92-2.486-3.426-2.865-1.6-.402-3.28-.214-4.918-.023 6.846-2.985 12.057-9.463 13.507-16.79.398-2.009.382-4.346-.496-6.104a4.754 4.754 0 00-1.148-1.508 4.389 4.389 0 00-.684-.486c-1.962-1.133-4.442-.558-6.566.228a39.581 39.581 0 00-14.082 8.988c.67-1.922.856-4.075.155-5.985-.7-1.912-2.385-3.521-4.403-3.793l-.142-.016c-.804-.087-1.582.03-2.329.287-1.768.613-3.358 2.026-4.685 3.428a62.688 62.688 0 00-10.41 14.827c-.51-1.39-1.04-2.815-2.02-3.927a4.858 4.858 0 00-1.891-1.326c-.629-.236-1.301-.314-1.95-.164a3.79 3.79 0 00-.112.028c-.817.225-1.498.779-2.122 1.35-5.469 5.014-8.524 12.552-8.089 19.958" fill="#B3DCFF"/><path d="M256.987 284.238a103.125 103.125 0 01-7.92 4.048 91.466 91.466 0 01-6.291 2.604c-1.126.416-.592 2.209.538 1.79a96.314 96.314 0 006.792-2.82 104.805 104.805 0 008.8-4.561 32.212 32.212 0 006.326 3.848c7.07 3.227 15.243 3.961 22.739 1.924.305-.662.462-1.359.411-2.067-9.329 2.82-19.89 1.099-27.747-4.728 5.362-3.23 10.452-6.887 15.32-10.82 8.17 2.927 17.391 2.467 25.274-1.085a3.795 3.795 0 00.018-1.764 2.699 2.699 0 00-.08-.273c-7.274 3.502-15.783 4.126-23.512 1.728 2.397-1.99 4.74-4.042 7.034-6.142 7.394-6.772 14.305-14.042 21.145-21.368a4.774 4.774 0 00-1.148-1.509c-3.458 3.704-6.931 7.392-10.476 11.013-6.535 6.675-13.326 13.132-20.654 18.933-1.192-5.449-.26-11.195.525-16.641.738-5.119 2.285-9.98 4.883-14.367-.804-.088-1.581.029-2.33.286-.487.887-.94 1.793-1.351 2.72-2.175 4.895-2.955 10.05-3.606 15.322-.573 4.64-.91 9.368.263 13.943-.754.58-1.511 1.156-2.278 1.721a126.308 126.308 0 01-11.057 7.332 33.47 33.47 0 01-2.472-6.845c-1.701-7.014-1.156-14.509 1.496-21.191-.629-.236-1.3-.314-1.951-.163a38.29 38.29 0 00-.47 1.312c-3.06 9.054-2.431 19.242 1.78 27.82" fill="#FFF" fill-rule="nonzero"/><use fill="#000" filter="url(#j)" xlink:href="#k"/><use fill="url(#l)" xlink:href="#k"/><use fill-opacity=".3" fill="#FFF" xlink:href="#k"/><use fill="#000" filter="url(#m)" xlink:href="#n"/><use fill="url(#o)" xlink:href="#n"/><path d="M94.237 265.549c-.264 4.513-1.747 9.468-4.286 13.677a26.445 26.445 0 01-1.197 1.818c-2.268 3.157-5.192 5.726-8.691 7.106-9.594 3.783-20.46 3.917-29.77-.783-2.129-1.075-4.316-2.863-5.261-4.925-.353-.766-.532-1.57-.475-2.388.03-.413.121-.83.28-1.248.38-.999 1.126-1.822 1.946-2.508a11.927 11.927 0 016.476-2.7c-8.022-.864-16.532-3.09-21.675-9.307-.831-1.004-1.572-2.195-1.86-3.441a4.393 4.393 0 01-.02-2.037c.025-.107.056-.214.09-.315.555-1.685 2.218-2.87 3.957-3.308 1.847-.465 3.787-.248 5.679-.027-7.904-3.446-13.921-10.925-15.597-19.386-.46-2.32-.44-5.02.574-7.049a5.507 5.507 0 011.325-1.741c.241-.208.503-.396.79-.56 2.265-1.308 5.129-.645 7.582.263a45.697 45.697 0 0116.26 10.377c-.776-2.22-.99-4.704-.18-6.911.809-2.207 2.754-4.064 5.084-4.379.054-.007.11-.013.164-.017.928-.101 1.826.033 2.688.33 2.042.709 3.877 2.34 5.41 3.959a72.343 72.343 0 0112.021 17.12c.589-1.607 1.2-3.252 2.332-4.536a5.615 5.615 0 012.183-1.53c.727-.273 1.502-.363 2.253-.189l.128.032c.944.259 1.73.898 2.45 1.56 6.315 5.788 9.843 14.492 9.34 23.043" fill="#B3DCFF"/><path d="M80.807 274.552a118.974 118.974 0 009.144 4.674 106.3 106.3 0 007.265 3.006c1.3.482.683 2.551-.62 2.067a111.482 111.482 0 01-7.842-3.255 121.114 121.114 0 01-10.16-5.267c-2.265 1.75-4.7 3.253-7.306 4.443-8.164 3.726-17.601 4.574-26.256 2.223-.353-.766-.532-1.57-.475-2.388 10.772 3.256 22.966 1.269 32.038-5.46-6.19-3.73-12.068-7.95-17.69-12.494-9.432 3.381-20.08 2.85-29.182-1.252a4.39 4.39 0 01-.02-2.036 3.48 3.48 0 01.092-.315c8.4 4.043 18.224 4.765 27.148 1.995a220.322 220.322 0 01-8.12-7.093c-8.54-7.819-16.519-16.213-24.416-24.672a5.502 5.502 0 011.325-1.741c3.993 4.276 8.003 8.534 12.096 12.715 7.546 7.707 15.387 15.163 23.848 21.862 1.376-6.292.301-12.928-.606-19.216-.852-5.91-2.639-11.522-5.638-16.589.928-.1 1.826.034 2.688.332a41.034 41.034 0 011.563 3.141c2.51 5.65 3.412 11.603 4.163 17.69.662 5.358 1.05 10.817-.304 16.099a158.9 158.9 0 002.63 1.988c4.107 3.034 8.365 5.879 12.767 8.466a38.633 38.633 0 002.854-7.905c1.965-8.098 1.336-16.751-1.727-24.468.727-.271 1.502-.363 2.253-.188.191.5.371 1.006.543 1.515 3.532 10.454 2.806 22.219-2.055 32.123" fill="#FFF" fill-rule="nonzero"/><path d="M253.6 259.776h-1.3c-1.455-2.859-4.135-5.555-8.042-7.811-12.454-7.19-32.646-7.19-45.098 0-3.908 2.256-6.588 4.952-8.043 7.811h-1.297v5.208c0 4.712 3.114 9.424 9.34 13.019 12.454 7.19 32.645 7.19 45.098 0 6.228-3.595 9.34-8.307 9.34-13.02v-5.207z" fill="#8DCBFF"/><path d="M214.794 247.013c-5.73.732-11.177 2.38-15.633 4.952-3.908 2.256-6.588 4.951-8.043 7.811h-1.297v5.208c0 4.712 3.113 9.424 9.34 13.019 4.456 2.572 9.904 4.219 15.633 4.95v-35.94z" fill="#B3DCFF"/><path d="M244.346 277.95c6.167-3.589 9.253-8.277 9.253-12.966v-5.208h-1.298c-1.24-2.437-3.38-4.753-6.401-6.782h-1.554v24.956z" fill="#5BB5FF"/><use fill="#000" filter="url(#p)" xlink:href="#q"/><use fill="url(#r)" xlink:href="#q"/><path d="M244.26 272.795c-12.454 7.19-32.645 7.19-45.099 0-12.454-7.19-12.454-18.848 0-26.038 12.453-7.189 32.644-7.189 45.097 0 12.454 7.19 12.455 18.848.001 26.038" fill="#B3DCFF"/><path d="M228.854 262.923c9.168-5.293 11.577-13.006 7.246-19.577-11.964-3.494-26.943-2.36-36.94 3.411-9.167 5.293-11.577 13.006-7.247 19.576 11.965 3.495 26.944 2.361 36.94-3.41" fill="#C2E3FF"/><path d="M244.26 272.795c-12.454 7.19-32.645 7.19-45.099 0-6.017-3.475-9.118-7.992-9.32-12.545-.217 4.87 2.884 9.778 9.32 13.494 12.454 7.19 32.645 7.19 45.098 0 6.436-3.716 9.537-8.624 9.32-13.493-.202 4.553-3.302 9.07-9.32 12.544" fill="#FFF" fill-rule="nonzero"/><path d="M237.716 269.018c-8.84 5.103-23.171 5.103-32.012-.001-8.84-5.104-8.84-13.378-.001-18.482 8.84-5.104 23.173-5.104 32.013 0s8.84 13.378 0 18.483" fill="#D5A026"/><path d="M205.703 251.728c8.84-5.103 23.172-5.103 32.013 0 4.157 2.4 6.358 5.503 6.605 8.646.279-3.541-1.923-7.135-6.605-9.838-8.84-5.104-23.173-5.104-32.013-.001-4.682 2.703-6.883 6.297-6.605 9.837.248-3.142 2.449-6.243 6.605-8.644" fill="#E9BD41"/><path d="M257.426 251.96h-1.298c-1.455-2.859-4.134-5.555-8.042-7.81-12.454-7.19-32.646-7.19-45.098 0-3.908 2.255-6.588 4.951-8.043 7.81h-1.297v5.208c0 4.712 3.114 9.424 9.34 13.019 12.454 7.19 32.646 7.19 45.099 0 6.227-3.595 9.34-8.307 9.34-13.019v-5.208z" fill="#8DCBFF"/><path d="M218.621 239.199c-5.729.731-11.177 2.378-15.633 4.95-3.908 2.256-6.588 4.952-8.043 7.812h-1.297v5.207c0 4.712 3.113 9.424 9.34 13.019 4.457 2.572 9.904 4.22 15.633 4.95V239.2z" fill="#B3DCFF"/><path d="M248.173 270.135c6.167-3.59 9.254-8.277 9.254-12.967v-5.208h-1.298c-1.241-2.437-3.38-4.752-6.402-6.781h-1.554v24.956z" fill="#5BB5FF"/><use fill="#000" filter="url(#s)" xlink:href="#t"/><use fill="url(#u)" xlink:href="#t"/><path d="M248.086 264.98c-12.453 7.19-32.644 7.19-45.097 0-12.455-7.191-12.455-18.849-.001-26.038 12.453-7.19 32.644-7.19 45.098 0 12.453 7.19 12.454 18.847 0 26.038" fill="#B3DCFF"/><path d="M232.68 255.107c9.169-5.293 11.578-13.005 7.248-19.576-11.965-3.494-26.944-2.36-36.94 3.41-9.167 5.294-11.578 13.006-7.247 19.577 11.964 3.494 26.943 2.36 36.94-3.411" fill="#C2E3FF"/><path d="M248.086 264.98c-12.453 7.19-32.644 7.19-45.097 0-6.018-3.476-9.119-7.993-9.321-12.546-.217 4.87 2.884 9.779 9.32 13.494 12.454 7.19 32.645 7.19 45.098 0 6.436-3.715 9.537-8.623 9.32-13.492-.202 4.552-3.303 9.069-9.32 12.544" fill="#FFF" fill-rule="nonzero"/><path d="M209.53 243.913c8.84-5.104 23.172-5.103 32.013 0 4.157 2.4 6.359 5.502 6.605 8.645.279-3.54-1.922-7.135-6.605-9.838-8.84-5.104-23.172-5.104-32.012 0-4.683 2.703-6.884 6.297-6.605 9.837.248-3.143 2.448-6.244 6.605-8.644" fill="#8DCBFF"/><path fill="#FFF" fill-rule="nonzero" d="M175.41 114.46l54.085 33.682H121.326z"/><path d="M47.2 278.296c-23.338-15.362-34.943-46.418-31.736-75.113 1.411-12.623 5.343-24.989 5.05-37.695-.181-7.902-2-15.67-2.48-23.558-1.842-30.304 17.43-59.527 43.511-72.733 26.08-13.208 57.434-11.847 84.493-1.021 10.702 4.281 21.096 10.018 32.472 11.431 19.095 2.373 37.524-7.726 56.667-9.634 36.053-3.594 70.697 24.188 83.577 59.673 12.881 35.486 6.827 76.201-9.002 110.351-8.671 18.708-21.723 37.188-40.844 42.734-6.78 1.966-13.9 2.16-20.933 2.152-36.4-.043-73.296-5.27-109.156 3.437-28.21 6.849-66.33 6.62-91.619-10.024" fill="#0F162D"/><use fill="#000" filter="url(#v)" xlink:href="#w"/><use fill="url(#c)" xlink:href="#w"/><use fill="#000" filter="url(#x)" xlink:href="#y"/><use fill="url(#f)" xlink:href="#y"/><use fill-opacity=".3" fill="#FFF" xlink:href="#y"/><use fill="#000" filter="url(#z)" xlink:href="#A"/><use fill="url(#i)" xlink:href="#A"/><path d="M245.356 276.441c.229 3.908 1.513 8.2 3.712 11.845.326.54.671 1.067 1.038 1.575 1.964 2.734 4.496 4.959 7.526 6.154 8.309 3.277 17.719 3.393 25.783-.677 1.844-.933 3.737-2.48 4.556-4.266.305-.664.462-1.36.412-2.068a3.843 3.843 0 00-.243-1.081c-.33-.866-.974-1.578-1.686-2.172a10.324 10.324 0 00-5.607-2.34c6.946-.747 14.317-2.675 18.771-8.059.72-.87 1.362-1.902 1.612-2.98.136-.58.157-1.174.017-1.765a2.75 2.75 0 00-.08-.273c-.479-1.459-1.92-2.486-3.426-2.865-1.6-.402-3.28-.214-4.918-.023 6.846-2.985 12.057-9.463 13.507-16.79.398-2.009.382-4.346-.496-6.104a4.754 4.754 0 00-1.148-1.508 4.389 4.389 0 00-.684-.486c-1.962-1.133-4.442-.558-6.566.228a39.581 39.581 0 00-14.082 8.988c.67-1.922.856-4.075.155-5.985-.7-1.912-2.385-3.521-4.403-3.793l-.142-.016c-.804-.087-1.582.03-2.329.287-1.768.613-3.358 2.026-4.685 3.428a62.688 62.688 0 00-10.41 14.827c-.51-1.39-1.04-2.815-2.02-3.927a4.858 4.858 0 00-1.891-1.326c-.629-.236-1.301-.314-1.95-.164a3.79 3.79 0 00-.112.028c-.817.225-1.498.779-2.122 1.35-5.469 5.014-8.524 12.552-8.089 19.958" fill="#B3DCFF"/><path d="M256.987 284.238a103.125 103.125 0 01-7.92 4.048 91.466 91.466 0 01-6.291 2.604c-1.126.416-.592 2.209.538 1.79a96.314 96.314 0 006.792-2.82 104.805 104.805 0 008.8-4.561 32.212 32.212 0 006.326 3.848c7.07 3.227 15.243 3.961 22.739 1.924.305-.662.462-1.359.411-2.067-9.329 2.82-19.89 1.099-27.747-4.728 5.362-3.23 10.452-6.887 15.32-10.82 8.17 2.927 17.391 2.467 25.274-1.085a3.795 3.795 0 00.018-1.764 2.699 2.699 0 00-.08-.273c-7.274 3.502-15.783 4.126-23.512 1.728 2.397-1.99 4.74-4.042 7.034-6.142 7.394-6.772 14.305-14.042 21.145-21.368a4.774 4.774 0 00-1.148-1.509c-3.458 3.704-6.931 7.392-10.476 11.013-6.535 6.675-13.326 13.132-20.654 18.933-1.192-5.449-.26-11.195.525-16.641.738-5.119 2.285-9.98 4.883-14.367-.804-.088-1.581.029-2.33.286-.487.887-.94 1.793-1.351 2.72-2.175 4.895-2.955 10.05-3.606 15.322-.573 4.64-.91 9.368.263 13.943-.754.58-1.511 1.156-2.278 1.721a126.308 126.308 0 01-11.057 7.332 33.47 33.47 0 01-2.472-6.845c-1.701-7.014-1.156-14.509 1.496-21.191-.629-.236-1.3-.314-1.951-.163a38.29 38.29 0 00-.47 1.312c-3.06 9.054-2.431 19.242 1.78 27.82" fill="#FFF" fill-rule="nonzero"/><use fill="#000" filter="url(#B)" xlink:href="#C"/><use fill="url(#l)" xlink:href="#C"/><use fill-opacity=".3" fill="#FFF" xlink:href="#C"/><use fill="#000" filter="url(#D)" xlink:href="#E"/><use fill="url(#o)" xlink:href="#E"/><path d="M94.237 265.549c-.264 4.513-1.747 9.468-4.286 13.677a26.445 26.445 0 01-1.197 1.818c-2.268 3.157-5.192 5.726-8.691 7.106-9.594 3.783-20.46 3.917-29.77-.783-2.129-1.075-4.316-2.863-5.261-4.925-.353-.766-.532-1.57-.475-2.388.03-.413.121-.83.28-1.248.38-.999 1.126-1.822 1.946-2.508a11.927 11.927 0 016.476-2.7c-8.022-.864-16.532-3.09-21.675-9.307-.831-1.004-1.572-2.195-1.86-3.441a4.393 4.393 0 01-.02-2.037c.025-.107.056-.214.09-.315.555-1.685 2.218-2.87 3.957-3.308 1.847-.465 3.787-.248 5.679-.027-7.904-3.446-13.921-10.925-15.597-19.386-.46-2.32-.44-5.02.574-7.049a5.507 5.507 0 011.325-1.741c.241-.208.503-.396.79-.56 2.265-1.308 5.129-.645 7.582.263a45.697 45.697 0 0116.26 10.377c-.776-2.22-.99-4.704-.18-6.911.809-2.207 2.754-4.064 5.084-4.379.054-.007.11-.013.164-.017.928-.101 1.826.033 2.688.33 2.042.709 3.877 2.34 5.41 3.959a72.343 72.343 0 0112.021 17.12c.589-1.607 1.2-3.252 2.332-4.536a5.615 5.615 0 012.183-1.53c.727-.273 1.502-.363 2.253-.189l.128.032c.944.259 1.73.898 2.45 1.56 6.315 5.788 9.843 14.492 9.34 23.043" fill="#B3DCFF"/><path d="M80.807 274.552a118.974 118.974 0 009.144 4.674 106.3 106.3 0 007.265 3.006c1.3.482.683 2.551-.62 2.067a111.482 111.482 0 01-7.842-3.255 121.114 121.114 0 01-10.16-5.267c-2.265 1.75-4.7 3.253-7.306 4.443-8.164 3.726-17.601 4.574-26.256 2.223-.353-.766-.532-1.57-.475-2.388 10.772 3.256 22.966 1.269 32.038-5.46-6.19-3.73-12.068-7.95-17.69-12.494-9.432 3.381-20.08 2.85-29.182-1.252a4.39 4.39 0 01-.02-2.036 3.48 3.48 0 01.092-.315c8.4 4.043 18.224 4.765 27.148 1.995a220.322 220.322 0 01-8.12-7.093c-8.54-7.819-16.519-16.213-24.416-24.672a5.502 5.502 0 011.325-1.741c3.993 4.276 8.003 8.534 12.096 12.715 7.546 7.707 15.387 15.163 23.848 21.862 1.376-6.292.301-12.928-.606-19.216-.852-5.91-2.639-11.522-5.638-16.589.928-.1 1.826.034 2.688.332a41.034 41.034 0 011.563 3.141c2.51 5.65 3.412 11.603 4.163 17.69.662 5.358 1.05 10.817-.304 16.099a158.9 158.9 0 002.63 1.988c4.107 3.034 8.365 5.879 12.767 8.466a38.633 38.633 0 002.854-7.905c1.965-8.098 1.336-16.751-1.727-24.468.727-.271 1.502-.363 2.253-.188.191.5.371 1.006.543 1.515 3.532 10.454 2.806 22.219-2.055 32.123" fill="#FFF" fill-rule="nonzero"/><path d="M253.6 259.776h-1.3c-1.455-2.859-4.135-5.555-8.042-7.811-12.454-7.19-32.646-7.19-45.098 0-3.908 2.256-6.588 4.952-8.043 7.811h-1.297v5.208c0 4.712 3.114 9.424 9.34 13.019 12.454 7.19 32.645 7.19 45.098 0 6.228-3.595 9.34-8.307 9.34-13.02v-5.207z" fill="#8DCBFF"/><path d="M214.794 247.013c-5.73.732-11.177 2.38-15.633 4.952-3.908 2.256-6.588 4.951-8.043 7.811h-1.297v5.208c0 4.712 3.113 9.424 9.34 13.019 4.456 2.572 9.904 4.219 15.633 4.95v-35.94z" fill="#B3DCFF"/><path d="M244.346 277.95c6.167-3.589 9.253-8.277 9.253-12.966v-5.208h-1.298c-1.24-2.437-3.38-4.753-6.401-6.782h-1.554v24.956z" fill="#5BB5FF"/><use fill="#000" filter="url(#F)" xlink:href="#G"/><use fill="url(#r)" xlink:href="#G"/><path d="M244.26 272.795c-12.454 7.19-32.645 7.19-45.099 0-12.454-7.19-12.454-18.848 0-26.038 12.453-7.189 32.644-7.189 45.097 0 12.454 7.19 12.455 18.848.001 26.038" fill="#B3DCFF"/><path d="M228.854 262.923c9.168-5.293 11.577-13.006 7.246-19.577-11.964-3.494-26.943-2.36-36.94 3.411-9.167 5.293-11.577 13.006-7.247 19.576 11.965 3.495 26.944 2.361 36.94-3.41" fill="#C2E3FF"/><path d="M244.26 272.795c-12.454 7.19-32.645 7.19-45.099 0-6.017-3.475-9.118-7.992-9.32-12.545-.217 4.87 2.884 9.778 9.32 13.494 12.454 7.19 32.645 7.19 45.098 0 6.436-3.716 9.537-8.624 9.32-13.493-.202 4.553-3.302 9.07-9.32 12.544" fill="#FFF" fill-rule="nonzero"/><path d="M237.716 269.018c-8.84 5.103-23.171 5.103-32.012-.001-8.84-5.104-8.84-13.378-.001-18.482 8.84-5.104 23.173-5.104 32.013 0s8.84 13.378 0 18.483" fill="#D5A026"/><path d="M205.703 251.728c8.84-5.103 23.172-5.103 32.013 0 4.157 2.4 6.358 5.503 6.605 8.646.279-3.541-1.923-7.135-6.605-9.838-8.84-5.104-23.173-5.104-32.013-.001-4.682 2.703-6.883 6.297-6.605 9.837.248-3.142 2.449-6.243 6.605-8.644" fill="#E9BD41"/><path d="M257.426 251.96h-1.298c-1.455-2.859-4.134-5.555-8.042-7.81-12.454-7.19-32.646-7.19-45.098 0-3.908 2.255-6.588 4.951-8.043 7.81h-1.297v5.208c0 4.712 3.114 9.424 9.34 13.019 12.454 7.19 32.646 7.19 45.099 0 6.227-3.595 9.34-8.307 9.34-13.019v-5.208z" fill="#8DCBFF"/><path d="M218.621 239.199c-5.729.731-11.177 2.378-15.633 4.95-3.908 2.256-6.588 4.952-8.043 7.812h-1.297v5.207c0 4.712 3.113 9.424 9.34 13.019 4.457 2.572 9.904 4.22 15.633 4.95V239.2z" fill="#B3DCFF"/><path d="M248.173 270.135c6.167-3.59 9.254-8.277 9.254-12.967v-5.208h-1.298c-1.241-2.437-3.38-4.752-6.402-6.781h-1.554v24.956z" fill="#5BB5FF"/><use fill="#000" filter="url(#H)" xlink:href="#I"/><use fill="url(#u)" xlink:href="#I"/><path d="M248.086 264.98c-12.453 7.19-32.644 7.19-45.097 0-12.455-7.191-12.455-18.849-.001-26.038 12.453-7.19 32.644-7.19 45.098 0 12.453 7.19 12.454 18.847 0 26.038" fill="#B3DCFF"/><path d="M232.68 255.107c9.169-5.293 11.578-13.005 7.248-19.576-11.965-3.494-26.944-2.36-36.94 3.41-9.167 5.294-11.578 13.006-7.247 19.577 11.964 3.494 26.943 2.36 36.94-3.411" fill="#C2E3FF"/><path d="M248.086 264.98c-12.453 7.19-32.644 7.19-45.097 0-6.018-3.476-9.119-7.993-9.321-12.546-.217 4.87 2.884 9.779 9.32 13.494 12.454 7.19 32.645 7.19 45.098 0 6.436-3.715 9.537-8.623 9.32-13.492-.202 4.552-3.303 9.069-9.32 12.544" fill="#FFF" fill-rule="nonzero"/><path d="M209.53 243.913c8.84-5.104 23.172-5.103 32.013 0 4.157 2.4 6.359 5.502 6.605 8.645.279-3.54-1.922-7.135-6.605-9.838-8.84-5.104-23.172-5.104-32.012 0-4.683 2.703-6.884 6.297-6.605 9.837.248-3.143 2.448-6.244 6.605-8.644" fill="#8DCBFF"/><path fill="#FFF" fill-rule="nonzero" d="M175.41 114.46l54.085 33.682H121.326z"/></g></svg>