<?xml version="1.0" encoding="UTF-8"?>
<svg width="18px" height="18px" viewBox="0 0 18 18" version="1.1" xmlns="http://www.w3.org/2000/svg" xmlns:xlink="http://www.w3.org/1999/xlink">
    <!-- Generator: Sketch 52.5 (67469) - http://www.bohemiancoding.com/sketch -->
    <title>添加</title>
    <desc>Created with Sketch.</desc>
    <g id="Page-1" stroke="none" stroke-width="1" fill="none" fill-rule="evenodd">
        <g id="配额" transform="translate(-788.000000, -308.000000)" fill-rule="nonzero">
            <g id="Group-9" transform="translate(310.000000, 133.000000)">
                <g id="添加" transform="translate(478.000000, 175.000000)">
                    <circle id="椭圆形" fill="#F5FAFF" cx="9" cy="9" r="9"></circle>
                    <g id="分组-5" transform="translate(3.750000, 3.375000)" fill="#007AFF" opacity="0.5" stroke="#007AFF">
                        <path d="M4.75263158,5.25 L4.75263158,0.994736842 C4.75263158,0.720047848 4.97531101,0.497368421 5.25,0.497368421 C5.52468899,0.497368421 5.74736842,0.720047848 5.74736842,0.994736842 L5.74736842,5.25 L10.0026316,5.25 C10.2773206,5.25 10.5,5.47267943 10.5,5.74736842 C10.5,6.02205742 10.2773206,6.24473684 10.0026316,6.24473684 L5.74736842,6.24473684 L5.74736842,10.5 C5.74736842,10.774689 5.52468899,10.9973684 5.25,10.9973684 C4.97531101,10.9973684 4.75263158,10.774689 4.75263158,10.5 L4.75263158,6.24473684 L0.497368421,6.24473684 C0.222679427,6.24473684 -6.06592221e-13,6.02205742 -6.06625861e-13,5.74736842 C-6.066595e-13,5.47267943 0.222679427,5.25 0.497368421,5.25 L4.75263158,5.25 Z" id="合并形状"></path>
                    </g>
                </g>
            </g>
        </g>
    </g>
</svg>