<?xml version="1.0" encoding="UTF-8"?>
<svg width="30px" height="30px" viewBox="0 0 30 30" version="1.1" xmlns="http://www.w3.org/2000/svg" xmlns:xlink="http://www.w3.org/1999/xlink">
    <!-- Generator: Sketch 54.1 (76490) - https://sketchapp.com -->
    <title>钱包-灰色</title>
    <desc>Created with Sketch.</desc>
    <g id="Page-1" stroke="none" stroke-width="1" fill="none" fill-rule="evenodd">
        <g id="交易所" transform="translate(-20.000000, -113.000000)">
            <g id="钱包-灰色" transform="translate(20.000000, 113.000000)">
                <rect id="Rectangle" fill="#FFFFFF" x="0" y="0" width="30" height="30" rx="2"></rect>
                <path d="M5.000038,22.0225726 L5.000038,10.4205259 C5.42726081,10.7862983 5.98282051,11.0076223 6.58939188,11.0076223 L23.2435148,11.0076223 C23.5956655,11.0076223 23.8811608,11.2915716 23.8811608,11.6419097 L23.8811608,14.5575597 L21.2448773,14.5575597 C19.9332395,14.5575597 18.8684982,15.628998 18.8885628,16.9381671 C18.9083298,18.2243751 19.9873969,19.2458738 21.2805854,19.2458738 L23.8811608,19.2458738 L23.8811608,22.9693523 C23.8811608,23.3196481 23.5956655,23.6036397 23.2435148,23.6036397 L6.5894769,23.6036397 C5.71160841,23.6036397 5.000038,22.8957326 5.000038,22.0225726 Z M24.6530781,15.4032931 C24.8443719,15.4032931 25,15.5581016 25,15.7483878 L25,18.0550796 C25,18.2453235 24.8443719,18.4001742 24.6530781,18.4001742 L21.2448603,18.4001742 C20.4142626,18.4001742 19.7384854,17.7279564 19.7384854,16.9017337 C19.7384854,16.0754686 20.4142626,15.4032931 21.2448603,15.4032931 L24.6530781,15.4032931 Z M5.00045459,8.61899744 C4.97928474,7.72993794 5.70024981,7 6.58934087,7 L21.5193966,7 C21.8715472,7 22.1570426,7.28394932 22.1570426,7.6342874 L22.1570426,10.1618804 L6.61914019,10.1618804 C5.75126149,10.1618804 5.02094428,9.48209344 5.00045459,8.61899744 Z" id="Combined-Shape" fill="#BDC1D1" fill-rule="nonzero"></path>
            </g>
        </g>
    </g>
</svg>