<svg xmlns="http://www.w3.org/2000/svg" xmlns:xlink="http://www.w3.org/1999/xlink" width="1440" height="800" viewBox="0 0 1440 800">
  <defs>
    <linearGradient id="bg-b" x1="-26.239%" x2="127.824%" y1="-41.468%" y2="144.048%">
      <stop offset="0%" stop-color="#1B3BD8"/>
      <stop offset="31.474%" stop-color="#176CE0"/>
      <stop offset="49.184%" stop-color="#0B92E7"/>
      <stop offset="71.324%" stop-color="#0BB6EB"/>
      <stop offset="100%" stop-color="#00E0F2"/>
    </linearGradient>
    <rect id="bg-a" width="1440" height="800"/>
  </defs>
  <g fill="none" fill-rule="evenodd">
    <mask id="bg-c" fill="#fff">
      <use xlink:href="#bg-a"/>
    </mask>
    <use fill="url(#bg-b)" xlink:href="#bg-a"/>
    <path fill="#FFF" d="M1780.62255,766.161422 C1780.62255,766.161422 1614.40664,649.846052 1472.89642,765.595297 C1331.3862,881.344541 1178.74882,762.509274 1178.74882,762.509274 C1178.74882,762.509274 935.050006,516.529892 699.435299,755.243288 C463.820592,993.956685 355.317198,799.747122 311.505954,745.755366 C267.69471,691.76361 144.160418,588.547009 -73.2420045,740.294171 C-290.644427,892.041333 -84.9608795,738.32763 -84.9608795,738.32763 L-84.9608795,1214.42783 L1798.97023,1214.42783" mask="url(#bg-c)" opacity=".1"/>
    <path fill="#FFF" d="M-386.479703,711.445505 C-386.479703,711.445505 -200.581468,573.63278 -42.3144307,710.774749 C115.952606,847.916718 286.664426,707.118369 286.664426,707.118369 C286.664426,707.118369 559.220632,415.677186 822.735464,698.509487 C1086.2503,981.341788 1213.84916,732.036646 1256.60115,687.268011 C1299.35313,642.499377 1443.76277,501.004475 1686.90872,680.79748 C1930.05468,860.590486 1700.01528,678.467484 1700.01528,678.467484 L1700.01528,1207.01636 L-407,1207.01636 L-386.479703,711.445505 Z" mask="url(#bg-c)" opacity=".1"/>
    <circle cx="1267" cy="-26" r="384" fill="#FFF" mask="url(#bg-c)" opacity=".1"/>
  </g>
</svg>
