<?xml version="1.0" encoding="UTF-8"?>
<svg width="24px" height="24px" viewBox="0 0 24 24" version="1.1" xmlns="http://www.w3.org/2000/svg" xmlns:xlink="http://www.w3.org/1999/xlink">
    <defs>
        <linearGradient x1="75.9565844%" y1="71.3147538%" x2="29.1375601%" y2="23.6048796%" id="linearGradient-1">
            <stop stop-color="#1786FA" offset="0%"></stop>
            <stop stop-color="#0A4EF2" offset="100%"></stop>
        </linearGradient>
        <path d="M8.42048602,14.5049046 C8.42048602,14.1498174 8.14867364,13.8391161 7.83803092,13.8391161 L2.01347986,13.8391161 C1.70283713,13.8391161 1.43102475,14.1498174 1.43102475,14.5049046 L1.43102475,19.3873531 C1.43102475,19.7424403 1.70283713,20.0531416 2.01347986,20.0531416 L7.83803092,20.0531416 C8.14867364,20.0531416 8.42048602,19.7424403 8.42048602,19.3873531 L8.42048602,14.5049046 Z M3.08944323,7.67421186 L0.914534323,7.67421186 C0.470675363,7.67421186 0.248745884,8.07368493 0.515061259,8.29561441 L4.06593294,11.9796438 C4.24347652,12.1128015 4.5097919,12.1128015 4.68733548,11.9796438 L8.23820716,8.29561441 C8.50452253,8.02929903 8.28259305,7.67421186 7.83873409,7.67421186 L5.75259698,7.67421186 C5.75259698,5.45491706 7.92750589,3.23562227 10.1468007,3.23562227 L10.1468007,0.572468507 C6.15207005,0.572468507 3.08944323,3.67948123 3.08944323,7.67421186 Z M18.0474902,7.91965163 C17.8699466,7.78649394 17.6036312,7.78649394 17.4260876,7.91965163 L13.8752159,11.603681 C13.6089006,11.8699964 13.8308301,12.2250835 14.274689,12.2250835 L16.405212,12.2250835 C16.405212,14.8882373 14.5853903,16.6636731 11.9222365,16.6636731 L11.9222365,19.3268269 C15.9169672,19.3268269 19.0683658,16.2198142 19.0683658,12.2250835 L21.2432747,12.2250835 C21.6871336,12.2250835 21.9090631,11.8256105 21.6427477,11.603681 L18.0474902,7.91965163 L18.0474902,7.91965163 Z M20.6380125,1.51194229 C20.6380125,1.15685512 20.3662001,0.846153846 20.0555574,0.846153846 L14.2310063,0.846153846 C13.9203636,0.846153846 13.6485512,1.15685512 13.6485512,1.51194229 L13.6485512,6.39439084 C13.6485512,6.74947801 13.9203636,7.06017928 14.2310063,7.06017928 L20.0555574,7.06017928 C20.3662001,7.06017928 20.6380125,6.74947801 20.6380125,6.39439084 L20.6380125,1.51194229 Z" id="path-2"></path>
    </defs>
    <g id="Page-1" stroke="none" stroke-width="1" fill="none" fill-rule="evenodd">
        <g transform="translate(-23.000000, -413.000000)">
            <g id="side-panel">
                <g id="icons/utility/change_record_type-copy" transform="translate(24.000000, 415.000000)">
                    <mask id="mask-3" fill="white">
                        <use xlink:href="#path-2"></use>
                    </mask>
                    <use id="Mask" fill="url(#linearGradient-1)" fill-rule="nonzero" xlink:href="#path-2"></use>
                </g>
            </g>
        </g>
    </g>
</svg>