<svg xmlns="http://www.w3.org/2000/svg" width="20" height="20" viewBox="0 0 20 20">
  <g fill="#FFF" opacity=".9" transform="translate(1.4)">
    <path d="M-1.13686838e-13,19.2 L-1.96710864e-06,4.93088279 C-1.96710864e-06,4.48905499 0.358170233,4.13088279 0.799998033,4.13088279 C0.799998689,4.13088279 0.799999344,4.13088279 0.8,4.13088279 L7.86721919,4.13090214 C8.07945801,4.13090266 8.28299834,4.21524063 8.43303794,4.36535204 L12.8000653,8.73446906 C12.9500113,8.88448679 13.0342442,9.08791132 13.0342446,9.30001769 L13.0342642,19.2 C13.034265,19.6418278 12.6760934,20.0000007 12.2342656,20.0000015 C12.2342651,20.0000015 12.2342646,20.0000015 12.2342642,20.0000015 L0.8,20 C0.3581722,20 -1.13854774e-13,19.6418278 -1.13908882e-13,19.2 Z M1.42502667,5.55592963 L1.42502667,18.5749733 L11.6111173,18.5749733 L11.6111173,9.56025458 L7.60679239,5.55592963 L1.42502667,5.55592963 Z"/>
    <path d="M7.18925957,9.17731239 L7.18925957,4.84341629 C7.18925957,4.44990604 7.50826266,4.13090295 7.90177291,4.13090295 C8.29528316,4.13090295 8.61428625,4.44990604 8.61428625,4.84341629 L8.61428625,8.55276072 L12.3236307,8.55276072 C12.7171409,8.55276072 13.036144,8.87176381 13.036144,9.26527406 C13.036144,9.65878431 12.7171409,9.9777874 12.3236307,9.9777874 L7.98925958,9.97731238 C7.54746068,9.97727151 7.18933359,9.61911128 7.18933359,9.17731239 Z"/>
    <path d="M14.7686864,15.6766138 C14.3873884,15.6766138 14.0782853,15.3675107 14.0782853,14.9862127 C14.0782853,14.6049147 14.3873884,14.2958116 14.7686864,14.2958116 L16.092882,14.2958116 L16.092882,1.68080225 L6.22290751,1.68080225 L6.22290751,2.68013986 C6.22290751,3.06143788 5.9138044,3.37054099 5.53250639,3.37054099 C5.15120837,3.37054099 4.84210526,3.06143788 4.84210526,2.68013986 L4.84210526,1.1 C4.84210526,0.6581722 5.20027746,0.3 5.64210526,0.3 L16.6736842,0.3 C17.115512,0.3 17.4736842,0.6581722 17.4736842,1.1 L17.4736842,14.8766138 C17.4736842,15.3184416 17.115512,15.6766138 16.6736842,15.6766138 L14.7686864,15.6766138 Z"/>
  </g>
</svg>
