<?xml version="1.0" encoding="UTF-8"?>
<svg width="20px" height="20px" viewBox="0 0 20 20" version="1.1" xmlns="http://www.w3.org/2000/svg" xmlns:xlink="http://www.w3.org/1999/xlink">
    <!-- Generator: Sketch 50.2 (55047) - http://www.bohemiancoding.com/sketch -->
    <title>error_icon</title>
    <desc>Created with Sketch.</desc>
    <defs></defs>
    <g id="Page-1" stroke="none" stroke-width="1" fill="none" fill-rule="evenodd">
        <g transform="translate(-604.000000, -492.000000)" fill="#FF2929">
            <g id="Group-10" transform="translate(604.000000, 492.000000)">
                <path d="M10,0 C4.45833333,0 0,4.45833333 0,10 C0,15.5416667 4.45833333,20 10,20 C15.5416667,20 20,15.5416667 20,10 C20,4.45833333 15.5416667,0 10,0 Z M12.0416667,10.3333333 L15.2916667,13.5833333 C15.4583333,13.75 15.4583333,14 15.2916667,14.1666667 L14.125,15.3333333 C13.9583333,15.5 13.7083333,15.5 13.5416667,15.3333333 L10.2916667,12.0833333 C10.125,11.9166667 9.875,11.9166667 9.70833333,12.0833333 L6.45833333,15.3333333 C6.29166667,15.5 6.04166667,15.5 5.875,15.3333333 L4.70833333,14.1666667 C4.54166667,14 4.54166667,13.75 4.70833333,13.5833333 L7.95833333,10.3333333 C8.125,10.1666667 8.125,9.91666667 7.95833333,9.75 L4.66666667,6.45833333 C4.5,6.29166667 4.5,6.04166667 4.66666667,5.875 L5.83333333,4.70833333 C6,4.54166667 6.25,4.54166667 6.41666667,4.70833333 L9.70833333,8 C9.875,8.16666667 10.125,8.16666667 10.2916667,8 L13.5416667,4.75 C13.7083333,4.58333333 13.9583333,4.58333333 14.125,4.75 L15.2916667,5.91666667 C15.4583333,6.08333333 15.4583333,6.33333333 15.2916667,6.5 L12.0416667,9.75 C11.9166667,9.91666667 11.9166667,10.1666667 12.0416667,10.3333333 L12.0416667,10.3333333 Z" id="Mask"></path>
            </g>
        </g>
    </g>
</svg>