<?xml version="1.0" encoding="UTF-8"?>
<svg width="96px" height="85px" viewBox="0 0 96 85" version="1.1" xmlns="http://www.w3.org/2000/svg" xmlns:xlink="http://www.w3.org/1999/xlink">
    <!-- Generator: Sketch 51.2 (57519) - http://www.bohemiancoding.com/sketch -->
    <title>folder</title>
    <desc>Created with Sketch.</desc>
    <defs></defs>
    <g id="Page-1" stroke="none" stroke-width="1" fill="none" fill-rule="evenodd">
        <g id="vite-钱包1-copy-11" transform="translate(-672.000000, -276.000000)">
            <g id="Group-3" transform="translate(540.000000, 168.000000)">
                <g id="Group-2" transform="translate(0.000000, 67.000000)">
                    <g id="if_folder_sans_security_103564" transform="translate(132.000000, 30.000000)">
                        <g id="background">
                            <rect id="Rectangle-path" x="0" y="0" width="96" height="96"></rect>
                        </g>
                        <path d="M95.997,68.6421429 L96,23.1428571 L90,23.1428571 L90,17.0714286 L30,17.0714286 L30,11 L0,11 L0,96 L95.997,96 L95.997,68.715 C95.997,68.7028571 96,68.6907143 96,68.6785714 C96,68.6664286 95.997,68.6542857 95.997,68.6421429 Z M6,89.9255357 L6,17.0714286 L24,17.0714286 L24,29.2142857 L89.997,29.2142857 L89.997,51.5207143 C85.05,45.3248214 77.487,41.3571429 69,41.3571429 C54.081,41.3571429 42,53.5819643 42,68.6785714 C42,77.2666071 45.921,84.9196429 52.044,89.9255357 L6,89.9255357 Z M69,89.5733929 C57.597,89.5460714 48.372,80.21125 48.345,68.6785714 C48.372,57.1398214 57.597,47.805 69,47.7807143 C80.397,47.805 89.622,57.1398214 89.649,68.6785714 C89.622,80.21125 80.397,89.5460714 69,89.5733929 Z M89.997,89.9255357 L85.95,89.9255357 C87.438,88.71125 88.794,87.3360714 89.997,85.8303571 L89.997,89.9255357 Z" id="Shape" fill="#9DC5F4" fill-rule="nonzero"></path>
                        <path d="M78.432,65.6428571 C78.456,65.2451786 78.474,64.8323214 78.474,64.40125 C78.456,62.3430357 78.21,59.8719643 76.806,57.5435714 C75.435,55.17875 72.492,53.415 69,53.4969643 C65.505,53.415 62.556,55.17875 61.185,57.5435714 C59.775,59.8719643 59.529,62.3430357 59.517,64.40125 C59.517,64.8353571 59.535,65.2451786 59.559,65.6428571 L57,65.6428571 L57,80.8214286 L81,80.8214286 L81,65.6428571 L78.432,65.6428571 Z M65.511,64.40125 C65.499,62.9501786 65.79,61.4930357 66.273,60.7644643 C66.792,60.0753571 67.083,59.6533929 69,59.5683929 C70.911,59.6503571 71.19,60.0692857 71.712,60.7644643 C72.198,61.4930357 72.489,62.9592857 72.471,64.40125 C72.471,64.8414286 72.447,65.25125 72.414,65.6428571 L65.568,65.6428571 C65.538,65.2451786 65.511,64.8292857 65.511,64.40125 Z" id="Shape" fill="#9DC5F4" fill-rule="nonzero"></path>
                    </g>
                </g>
            </g>
        </g>
    </g>
</svg>