<?xml version="1.0" encoding="UTF-8"?>
<svg width="34px" height="34px" viewBox="0 0 34 34" version="1.1" xmlns="http://www.w3.org/2000/svg" xmlns:xlink="http://www.w3.org/1999/xlink">
    <!-- Generator: Sketch 54.1 (76490) - https://sketchapp.com -->
    <title>账户地址</title>
    <desc>Created with Sketch.</desc>
    <g id="页面1" stroke="none" stroke-width="1" fill="none" fill-rule="evenodd">
        <g id="资产管理" transform="translate(-371.000000, -98.000000)">
            <g id="分组-6" transform="translate(371.000000, 98.000000)">
                <circle id="椭圆形" fill="#E8F3FF" fill-rule="nonzero" cx="17" cy="17" r="17"></circle>
                <g id="分组" transform="translate(17.000000, 16.960000) rotate(-90.000000) translate(-17.000000, -16.960000) translate(10.000000, 10.460000)" fill="#007AFF" fill-opacity="0.7">
                    <path d="M13.0814536,11.3699872 C13.0814536,12.3151972 12.2654792,13.0814536 11.2591449,13.0814536 L3.28607034,13.0814536 C2.27963356,13.0814536 1.46365915,12.3151972 1.46365915,11.3699872 L1.46365915,10.5143985 L3.51384611,10.5143985 C4.07908266,10.5143985 4.5389396,10.0824647 4.5389396,9.55176479 C4.5389396,9.02096859 4.07908266,8.58913113 3.51384611,8.58913113 L1.46365915,8.58913113 L1.46365915,7.09165821 L3.51384611,7.09165821 C4.07908266,7.09165821 4.5389396,6.65982075 4.5389396,6.12902455 C4.5389396,5.59832461 4.07908266,5.16639089 3.51384611,5.16639089 L1.46365915,5.16639089 L1.46365915,3.66901423 L3.51384611,3.66901423 C4.07908266,3.66901423 4.5389396,3.23708051 4.5389396,2.70638057 C4.5389396,2.17558437 4.07908266,1.74374691 3.51384611,1.74374691 L1.46365915,1.74374691 L1.46365915,0.88806185 C1.46365915,-0.0570518772 2.27963356,-0.823308271 3.28607034,-0.823308271 L11.2591449,-0.823308271 C12.2654792,-0.823308271 13.0814536,-0.0570518772 13.0814536,0.88806185 L13.0814536,11.3699872 Z M3.54869321,8.96491228 L1.39115642,8.96491228 C1.07749084,8.96491228 0.823308271,9.21062286 0.823308271,9.51383386 C0.823308271,9.81704486 1.07749084,10.0626566 1.39115642,10.0626566 L3.54869321,10.0626566 C3.86235879,10.0626566 4.11654135,9.81704486 4.11654135,9.51383386 C4.11654135,9.21062286 3.86235879,8.96491228 3.54869321,8.96491228 Z M3.54869321,2.10401003 L1.39115642,2.10401003 C1.07749084,2.10401003 0.823308271,2.3497206 0.823308271,2.6529316 C0.823308271,2.95614261 1.07749084,3.20175439 1.39115642,3.20175439 L3.54869321,3.20175439 C3.86235879,3.20175439 4.11654135,2.95614261 4.11654135,2.6529316 C4.11654135,2.3497206 3.86235879,2.10401003 3.54869321,2.10401003 Z M3.54869321,6.67794486 L1.39115642,6.67794486 C1.07749084,6.67794486 0.823308271,6.43223428 0.823308271,6.12902328 C0.823308271,5.82581228 1.07749084,5.5802005 1.39115642,5.5802005 L3.54869321,5.5802005 C3.86235879,5.5802005 4.11654135,5.82581228 4.11654135,6.12902328 C4.11654135,6.43223428 3.86235879,6.67794486 3.54869321,6.67794486 Z" id="Fill-1" transform="translate(6.952381, 6.129073) rotate(90.000000) translate(-6.952381, -6.129073) "></path>
                </g>
            </g>
        </g>
    </g>
</svg>