<?xml version="1.0" encoding="UTF-8"?>
<svg width="16px" height="16px" viewBox="0 0 16 16" version="1.1" xmlns="http://www.w3.org/2000/svg" xmlns:xlink="http://www.w3.org/1999/xlink">
    <!-- Generator: Sketch 52.2 (67145) - http://www.bohemiancoding.com/sketch -->
    <title>悬浮</title>
    <desc>Created with Sketch.</desc>
    <g id="Page-1" stroke="none" stroke-width="1" fill="none" fill-rule="evenodd">
        <g id="投票" transform="translate(-533.000000, -325.000000)" fill="#007AFF" fill-rule="nonzero">
            <g id="我的投票" transform="translate(157.000000, 112.000000)">
                <g id="悬浮" transform="translate(376.000000, 213.000000)">
                    <path d="M8,15.1363636 C11.9413048,15.1363636 15.1363636,11.9413048 15.1363636,8 C15.1363636,4.05869519 11.9413048,0.863636364 8,0.863636364 C4.05869519,0.863636364 0.863636364,4.05869519 0.863636364,8 C0.863636364,11.9413048 4.05869519,15.1363636 8,15.1363636 Z M8,16 C3.581722,16 0,12.418278 0,8 C0,3.581722 3.581722,0 8,0 C12.418278,0 16,3.581722 16,8 C16,12.418278 12.418278,16 8,16 Z M8.00909091,5.45454545 C7.50690909,5.45454545 7.1,5.04763636 7.1,4.54545455 C7.1,4.04327273 7.50690909,3.63636364 8.00909091,3.63636364 C8.51127273,3.63636364 8.91818182,4.04327273 8.91818182,4.54545455 C8.91818182,5.04763636 8.51127273,5.45454545 8.00909091,5.45454545 Z M7.33290506,12.7272727 L7.33290506,6.54545455 L8.65362407,6.54545455 L8.65362407,12.7272727 L7.33290506,12.7272727 Z" id="Combined-Shape-Copy-3"></path>
                </g>
            </g>
        </g>
    </g>
</svg>