<?xml version="1.0" encoding="UTF-8"?>
<svg width="13px" height="12px" viewBox="0 0 13 12" version="1.1" xmlns="http://www.w3.org/2000/svg" xmlns:xlink="http://www.w3.org/1999/xlink">
    <!-- Generator: Sketch 55.2 (78181) - https://sketchapp.com -->
    <title>infor</title>
    <desc>Created with Sketch.</desc>
    <g id="页面1" stroke="none" stroke-width="1" fill="none" fill-rule="evenodd">
        <g id="首页-copy-13备份-9" transform="translate(-1092.000000, -502.000000)" fill="#BCC4C9" fill-rule="nonzero">
            <g id="限价" transform="translate(350.000000, 494.000000)">
                <g id="编组-2" transform="translate(527.000000, 6.000000)">
                    <g id="移入显示" transform="translate(215.000000, 2.000000)">
                        <path d="M6.5,11.3522727 C9.4559786,11.3522727 11.8522727,8.9559786 11.8522727,6 C11.8522727,3.0440214 9.4559786,0.647727273 6.5,0.647727273 C3.5440214,0.647727273 1.14772727,3.0440214 1.14772727,6 C1.14772727,8.9559786 3.5440214,11.3522727 6.5,11.3522727 Z M6.5,12 C3.1862915,12 0.5,9.3137085 0.5,6 C0.5,2.6862915 3.1862915,0 6.5,0 C9.8137085,0 12.5,2.6862915 12.5,6 C12.5,9.3137085 9.8137085,12 6.5,12 Z M6.50681818,4.09090909 C6.13018182,4.09090909 5.825,3.78572727 5.825,3.40909091 C5.825,3.03245455 6.13018182,2.72727273 6.50681818,2.72727273 C6.88345455,2.72727273 7.18863636,3.03245455 7.18863636,3.40909091 C7.18863636,3.78572727 6.88345455,4.09090909 6.50681818,4.09090909 Z M5.99967879,9.54545455 L5.99967879,4.90909091 L6.99021806,4.90909091 L6.99021806,9.54545455 L5.99967879,9.54545455 Z" id="Combined-Shape-Copy-3"></path>
                    </g>
                </g>
            </g>
        </g>
    </g>
</svg>