<?xml version="1.0" encoding="UTF-8"?>
<svg width="20px" height="20px" viewBox="0 0 20 20" version="1.1" xmlns="http://www.w3.org/2000/svg" xmlns:xlink="http://www.w3.org/1999/xlink">
    <!-- Generator: Sketch 51.2 (57519) - http://www.bohemiancoding.com/sketch -->
    <title>qrcode_default</title>
    <desc>Created with Sketch.</desc>
    <defs></defs>
    <g id="Page-1" stroke="none" stroke-width="1" fill="none" fill-rule="evenodd" opacity="0.8">
        <g id="vite-钱包6-copy-2" transform="translate(-987.000000, -130.000000)" fill="#007AFF" fill-rule="nonzero">
            <g id="Group-9" transform="translate(552.000000, 130.000000)">
                <g id="Group-13" transform="translate(435.000000, 0.000000)">
                    <g transform="translate(9.500000, 10.500000) scale(-1, 1) translate(-9.500000, -10.500000) translate(0.000000, 1.000000)">
                        <path d="M5.78008658,0 L0.8,-2.22044605e-16 C0.3581722,-1.40882155e-16 5.69140024e-17,0.3581722 1.11022302e-16,0.8 L0,5.78008658 C4.46530217e-16,6.22191438 0.3581722,6.58008658 0.8,6.58008658 L5.78008658,6.58008658 C6.22191438,6.58008658 6.58008658,6.22191438 6.58008658,5.78008658 L6.58008658,0.8 C6.58008658,0.3581722 6.22191438,-3.03207055e-16 5.78008658,-2.22044605e-16 Z M5.25635823,5.25635823 L1.32372835,5.25635823 L1.32372835,1.32372835 L5.25635823,1.32372835 L5.25635823,5.25635823 Z M4.11255411,4.11255411 L2.46753247,4.11255411 L2.46753247,2.46753247 L4.11255411,2.46753247 L4.11255411,4.11255411 Z" id="Shape"></path>
                        <path d="M5.78008658,11.517619 L0.8,11.517619 C0.3581722,11.517619 5.69140024e-17,11.8757912 1.11022302e-16,12.317619 L0,17.2977056 C4.46530217e-16,17.7395334 0.3581722,18.0977056 0.8,18.0977056 L5.78008658,18.0977056 C6.22191438,18.0977056 6.58008658,17.7395334 6.58008658,17.2977056 L6.58008658,12.317619 C6.58008658,11.8757912 6.22191438,11.517619 5.78008658,11.517619 Z M5.25635823,16.7739773 L1.32372835,16.7739773 L1.32372835,12.8413474 L5.25635823,12.8413474 L5.25635823,16.7739773 Z M4.11255411,15.6301732 L2.46753247,15.6301732 L2.46753247,13.9851515 L4.11255411,13.9851515 L4.11255411,15.6301732 Z" id="Shape-Copy-2"></path>
                        <path d="M17.2977056,0 L12.317619,0 C11.8757912,8.11624501e-17 11.517619,0.3581722 11.517619,0.8 L11.517619,5.78008658 C11.517619,6.22191438 11.8757912,6.58008658 12.317619,6.58008658 L17.2977056,6.58008658 C17.7395334,6.58008658 18.0977056,6.22191438 18.0977056,5.78008658 L18.0977056,0.8 C18.0977056,0.3581722 17.7395334,-3.03207055e-16 17.2977056,-2.22044605e-16 Z M16.7739773,5.25635823 L12.8413474,5.25635823 L12.8413474,1.32372835 L16.7739773,1.32372835 L16.7739773,5.25635823 Z M15.6301732,4.11255411 L13.9851515,4.11255411 L13.9851515,2.46753247 L15.6301732,2.46753247 L15.6301732,4.11255411 Z" id="Shape-Copy"></path>
                        <path d="M8.22510823,1.64502165 L9.87012987,1.64502165 L9.87012987,3.29004329 L8.22510823,3.29004329 L8.22510823,1.64502165 Z M8.22510823,4.93506494 L9.87012987,4.93506494 L9.87012987,6.58008658 L8.22510823,6.58008658 L8.22510823,4.93506494 Z M8.22510823,8.22510823 L9.87012987,8.22510823 L9.87012987,9.87012987 L8.22510823,9.87012987 L8.22510823,8.22510823 Z M4.93506494,8.22510823 L6.58008658,8.22510823 L6.58008658,9.87012987 L4.93506494,9.87012987 L4.93506494,8.22510823 Z M1.64502165,8.22510823 L3.29004329,8.22510823 L3.29004329,9.87012987 L1.64502165,9.87012987 L1.64502165,8.22510823 Z M11.5151515,8.22510823 L13.1601732,8.22510823 L13.1601732,9.87012987 L11.5151515,9.87012987 L11.5151515,8.22510823 Z M14.8051948,8.22510823 L16.4502165,8.22510823 L16.4502165,9.87012987 L14.8051948,9.87012987 L14.8051948,8.22510823 Z M9.87012987,9.87012987 L11.5151515,9.87012987 L11.5151515,11.5151515 L9.87012987,11.5151515 L9.87012987,9.87012987 Z M13.1601732,9.87012987 L14.8051948,9.87012987 L14.8051948,11.5151515 L13.1601732,11.5151515 L13.1601732,9.87012987 Z M11.5151515,11.5151515 L13.1601732,11.5151515 L13.1601732,13.1601732 L11.5151515,13.1601732 L11.5151515,11.5151515 Z M8.22510823,11.5151515 L9.87012987,11.5151515 L9.87012987,13.1601732 L8.22510823,13.1601732 L8.22510823,11.5151515 Z M9.87012987,13.1601732 L11.5151515,13.1601732 L11.5151515,14.8051948 L9.87012987,14.8051948 L9.87012987,13.1601732 Z M11.5151515,14.8051948 L13.1601732,14.8051948 L13.1601732,16.4502165 L11.5151515,16.4502165 L11.5151515,14.8051948 Z M9.87012987,16.4502165 L11.5151515,16.4502165 L11.5151515,18.0952381 L9.87012987,18.0952381 L9.87012987,16.4502165 Z M16.4502165,9.87012987 L18.0952381,9.87012987 L18.0952381,11.5151515 L16.4502165,11.5151515 L16.4502165,9.87012987 Z M16.4502165,13.1601732 L18.0952381,13.1601732 L18.0952381,14.8051948 L16.4502165,14.8051948 L16.4502165,13.1601732 Z M13.1601732,13.1601732 L14.8051948,13.1601732 L14.8051948,14.8051948 L13.1601732,14.8051948 L13.1601732,13.1601732 Z M13.1601732,16.4502165 L14.8051948,16.4502165 L14.8051948,18.0952381 L13.1601732,18.0952381 L13.1601732,16.4502165 Z M14.8051948,14.8051948 L16.4502165,14.8051948 L16.4502165,16.4502165 L14.8051948,16.4502165 L14.8051948,14.8051948 Z M14.8051948,11.5151515 L16.4502165,11.5151515 L16.4502165,13.1601732 L14.8051948,13.1601732 L14.8051948,11.5151515 Z M8.22510823,14.8051948 L9.87012987,14.8051948 L9.87012987,16.4502165 L8.22510823,16.4502165 L8.22510823,14.8051948 Z" id="Combined-Shape" opacity="0.504017857"></path>
                    </g>
                </g>
            </g>
        </g>
    </g>
</svg>