<?xml version="1.0" encoding="UTF-8" standalone="no"?>
<svg width="30px" height="30px" viewBox="0 0 30 30" version="1.1" xmlns="http://www.w3.org/2000/svg" xmlns:xlink="http://www.w3.org/1999/xlink">
    <!-- Generator: Sketch 49.3 (51167) - http://www.bohemiancoding.com/sketch -->
    <title>send_icon_pressed</title>
    <desc>Created with Sketch.</desc>
    <defs>
        <linearGradient x1="100%" y1="38.7352683%" x2="-137.88902%" y2="38.7352675%" id="linearGradient-1">
            <stop stop-color="#1B3BD8" offset="0%"></stop>
            <stop stop-color="#176CE0" offset="31.4739301%"></stop>
            <stop stop-color="#0B92E7" offset="49.1836977%"></stop>
            <stop stop-color="#0BB6EB" offset="71.3239784%"></stop>
            <stop stop-color="#00E0F2" offset="100%"></stop>
        </linearGradient>
    </defs>
    <g id="Page-1" stroke="none" stroke-width="1" fill="none" fill-rule="evenodd">
        <g id="vite-钱包7" transform="translate(-46.000000, -214.000000)" fill="url(#linearGradient-1)">
            <g id="icons/utility/package" transform="translate(46.000000, 214.000000)">
                <path d="M25.7403846,13.8461538 C26.8942308,13.8461538 27.8173077,14.7692308 27.8173077,15.9230769 L27.8173077,27.1153846 C27.8173077,28.0961538 27.0673077,28.8461538 26.0865385,28.8461538 L4.16346154,28.8461538 C3.18269231,28.8461538 2.43269231,28.0961538 2.43269231,27.1153846 L2.43269231,15.9230769 C2.43269231,14.7692308 3.35576923,13.8461538 4.50961538,13.8461538 L10.9134615,13.8461538 L10.9134615,16.1538462 L4.74038462,16.1538462 L4.74038462,19.6153846 L25.5096154,19.6153846 L25.5096154,16.1538462 L19.2788462,16.1538462 L19.2788462,14.015238 L25.7403846,13.8461538 Z M13.3942308,16.3990385 L13.3942308,9.1875 L9.41346154,9.1875 C8.83653846,9.1875 8.54807692,8.66826923 8.89423077,8.37980769 L14.6634615,1.28365385 C14.8942308,1.11057692 15.2403846,1.11057692 15.4711538,1.28365385 L21.2403846,8.37980769 C21.5865385,8.72596154 21.2980769,9.1875 20.7211538,9.1875 L16.8557692,9.1875 L16.8557692,16.3990385 C16.8557692,16.8605769 16.4519231,17.2644231 15.9903846,17.2644231 L14.2596154,17.2644231 C13.7980769,17.2644231 13.3942308,16.8605769 13.3942308,16.3990385 Z" id="Combined-Shape"></path>
            </g>
        </g>
    </g>
</svg>