<?xml version="1.0" encoding="UTF-8"?>
<svg width="24px" height="24px" viewBox="0 0 24 24" version="1.1" xmlns="http://www.w3.org/2000/svg" xmlns:xlink="http://www.w3.org/1999/xlink">
    <!-- Generator: Sketch 55.2 (78181) - https://sketchapp.com -->
    <title>快照块</title>
    <desc>Created with Sketch.</desc>
    <g id="页面1" stroke="none" stroke-width="1" fill="none" fill-rule="evenodd">
        <g id="挖矿-copy-42备份-2" transform="translate(-465.000000, -459.000000)">
            <g id="快照块" transform="translate(465.000000, 459.000000)">
                <circle id="椭圆形" fill="#E8F3FF" fill-rule="nonzero" cx="12" cy="12" r="12"></circle>
                <path d="M15.1769856,16.0588619 L17.294976,14.9998667 L17.294976,13.2703307 L15.1769856,14.1748811 L15.1769856,16.0588619 Z M14.8230144,13.5568715 L17.0505216,12.6028619 L14.8230144,11.6503883 L12.5955072,12.6028619 L14.8230144,13.5568715 Z M12.352512,11.9413835 L14.4705024,11.0323787 L14.4705024,9.56534513 L12.352512,10.4713547 L12.352512,11.9413835 Z M12,9.85034993 L14.4329472,8.80633073 L12,7.76384753 L9.566976,8.80633073 L12,9.85034993 Z M9.5294976,16.0588619 L11.647488,14.9998667 L11.647488,13.2703307 L9.5294976,14.1748811 L9.5294976,16.0588619 Z M9.1769856,13.5568715 L11.4044928,12.6028619 L9.1769856,11.6503883 L6.9494784,12.6028619 L9.1769856,13.5568715 Z M18,12.7078475 L18,15.0013259 C18,15.1348811 17.9639808,15.2578379 17.8950144,15.3703499 C17.824512,15.4843979 17.7299712,15.5713355 17.6070144,15.6298571 L15.136512,16.8658763 C15.0435072,16.9168715 14.9399808,16.9438283 14.8230144,16.9438283 C14.7059712,16.9438283 14.6009856,16.9183307 14.5095168,16.8658763 L12.0390144,15.6298571 C12.0239616,15.6223307 12.0119808,15.6148811 12,15.6088907 C11.9924736,15.6163403 11.9789568,15.6238667 11.9609856,15.6298571 L9.4904832,16.8658763 C9.3974784,16.9168715 9.293952,16.9438283 9.1769856,16.9438283 C9.0584832,16.9438283 8.9549568,16.9183307 8.863488,16.8658763 L6.3929856,15.6298571 C6.271488,15.5713355 6.175488,15.4843979 6.1049856,15.3703499 C6.0344832,15.2563787 6,15.1333451 6,15.0013259 L6,12.7078475 C6,12.5683787 6.0390144,12.4393547 6.1199616,12.3223883 C6.1994496,12.2038859 6.302976,12.1153355 6.430464,12.0568907 L8.8230144,11.0323787 L8.8230144,8.82437873 C8.8230144,8.68483313 8.861952,8.55588593 8.942976,8.43884273 C9.022464,8.32034033 9.1259904,8.23186673 9.2534784,8.17334513 L11.7239808,7.11434993 C11.808,7.07833073 11.9010048,7.05882353 12.0014592,7.05882353 C12.1004544,7.05882353 12.1934592,7.07833073 12.2790144,7.11434993 L14.7495168,8.17334513 C14.878464,8.23186673 14.9834496,8.32187633 15.0600192,8.43884273 C15.1395072,8.55734513 15.1799808,8.68636913 15.1799808,8.82437873 L15.1799808,11.0308427 L17.5724544,12.0553547 C17.7060096,12.1138763 17.8094592,12.2038859 17.885952,12.3208523 C17.9625216,12.4378955 18,12.5668427 18,12.7078475 L18,12.7078475 Z" id="Fill-1" fill="#459DFF"></path>
            </g>
        </g>
    </g>
</svg>