<?xml version="1.0" encoding="UTF-8"?>
<svg width="16px" height="16px" viewBox="0 0 16 16" version="1.1" xmlns="http://www.w3.org/2000/svg" xmlns:xlink="http://www.w3.org/1999/xlink">
    <!-- Generator: Sketch 50.2 (55047) - http://www.bohemiancoding.com/sketch -->
    <title>sync_icon</title>
    <desc>Created with Sketch.</desc>
    <defs></defs>
    <g id="Page-1" stroke="none" stroke-width="1" fill="none" fill-rule="evenodd">
        <g transform="translate(-777.000000, -33.000000)" fill="#FFFFFF">
            <g id="Group" transform="translate(647.000000, 30.000000)">
                <path d="M145.137931,12.137931 C145.137931,11.862069 144.896552,11.6206897 144.62069,11.6206897 L143.413793,11.6206897 C143.137931,11.6206897 142.931034,11.8275862 142.931034,12.1034483 C142.931034,12.1724138 142.931034,12.2758621 142.896552,12.3448276 C142.793103,12.7931034 142.62069,13.2068966 142.37931,13.6206897 C141.413793,15.3103448 139.724138,16.2413793 137.931034,16.2413793 C136.551724,16.2413793 135.241379,15.6896552 134.275862,14.7241379 C134.103448,14.5862069 133.965517,14.4137931 133.862069,14.2413793 C133.758621,13.9655172 134,13.8275862 134.310345,13.8275862 L136.724138,13.8275862 C137,13.8275862 137.241379,13.5862069 137.241379,13.3103448 L137.241379,12.2413793 C137.241379,11.9655172 137.034483,11.7586207 136.758621,11.7586207 L130.448276,11.7586207 C130.206897,11.7586207 130,11.9655172 130,12.2068966 L130,18.4827586 C130.034483,18.7586207 130.275862,19 130.551724,19 L131.586207,19 C131.862069,19 132.103448,18.7586207 132.103448,18.4827586 L132.103448,16.0689655 C132.103448,15.7586207 132.275862,15.6206897 132.517241,15.8275862 C132.62069,15.9655172 132.724138,16.0689655 132.862069,16.1724138 C134.586207,17.8965517 137,18.6206897 139.482759,18.137931 C140.344828,17.9655172 141.172414,17.6206897 141.896552,17.137931 C143.689655,15.9655172 144.827586,14.1724138 145.137931,12.2068966 L145.137931,12.137931 L145.137931,12.137931 Z M130.034483,9.86206897 C130.034483,10.137931 130.275862,10.3793103 130.551724,10.3793103 L131.758621,10.3793103 C132.034483,10.3793103 132.241379,10.1724138 132.241379,9.89655172 C132.241379,9.82758621 132.241379,9.72413793 132.275862,9.65517241 C132.37931,9.20689655 132.551724,8.79310345 132.793103,8.37931034 C133.758621,6.68965517 135.448276,5.75862069 137.241379,5.75862069 C138.62069,5.75862069 139.931034,6.31034483 140.896552,7.27586207 C141.068966,7.4137931 141.206897,7.5862069 141.310345,7.75862069 C141.413793,8.03448276 141.172414,8.17241379 140.862069,8.17241379 L138.448276,8.17241379 C138.172414,8.17241379 137.931034,8.4137931 137.931034,8.68965517 L137.931034,9.75862069 C137.931034,10.0344828 138.137931,10.2413793 138.413793,10.2413793 L144.724138,10.2413793 C144.965517,10.2413793 145.172414,10.0344828 145.172414,9.79310345 L145.172414,3.51724138 C145.137931,3.24137931 144.896552,3 144.62069,3 L143.586207,3 C143.310345,3 143.068966,3.24137931 143.068966,3.51724138 L143.068966,5.93103448 C143.068966,6.24137931 142.896552,6.37931034 142.655172,6.17241379 C142.551724,6.03448276 142.448276,5.93103448 142.310345,5.82758621 C140.586207,4.10344828 138.172414,3.37931034 135.689655,3.86206897 C134.827586,4.03448276 134,4.37931034 133.275862,4.86206897 C131.482759,6.03448276 130.344828,7.82758621 130.034483,9.79310345 L130.034483,9.86206897 L130.034483,9.86206897 Z" id="Mask"></path>
            </g>
        </g>
    </g>
</svg>