<?xml version="1.0" encoding="UTF-8"?>
<svg width="94px" height="27px" viewBox="0 0 94 27" version="1.1" xmlns="http://www.w3.org/2000/svg" xmlns:xlink="http://www.w3.org/1999/xlink">
    <!-- Generator: Sketch 50.2 (55047) - http://www.bohemiancoding.com/sketch -->
    <title>testnet</title>
    <desc>Created with Sketch.</desc>
    <defs>
        <linearGradient x1="-20.1549328%" y1="88.5290022%" x2="89.2610173%" y2="58.4054023%" id="linearGradient-1">
            <stop stop-color="#06C8EE" offset="0%"></stop>
            <stop stop-color="#0C8DE6" offset="100%"></stop>
        </linearGradient>
    </defs>
    <g id="Page-1" stroke="none" stroke-width="1" fill="none" fill-rule="evenodd">
        <g transform="translate(-81.000000, -50.000000)">
            <g id="Group-12" transform="translate(81.000000, 50.000000)">
                <rect id="Rectangle-4" fill-opacity="0.48" fill="url(#linearGradient-1)" transform="translate(47.000000, 13.276596) scale(-1, 1) translate(-47.000000, -13.276596) " x="2.06382979" y="2.04255319" width="89.8723404" height="22.4680851" rx="11.2340426"></rect>
                <path d="M13.2978723,2.04255319 C7.09348196,2.04255319 2.06382979,7.07220536 2.06382979,13.2765957 C2.06382979,19.4809861 7.09348196,24.5106383 13.2978723,24.5106383 L80.7021277,24.5106383 C86.906518,24.5106383 91.9361702,19.4809861 91.9361702,13.2765957 C91.9361702,7.07220536 86.906518,2.04255319 80.7021277,2.04255319 L13.2978723,2.04255319 Z M13.2978723,0 L80.7021277,0 C88.034589,0 93.9787234,5.94413439 93.9787234,13.2765957 C93.9787234,20.6090571 88.034589,26.5531915 80.7021277,26.5531915 L13.2978723,26.5531915 C5.96541098,26.5531915 0.0212765957,20.6090571 0.0212765957,13.2765957 C0.0212765957,5.94413439 5.96541098,0 13.2978723,0 Z" id="Rectangle-4" fill="#0B94E7" fill-rule="nonzero" transform="translate(47.000000, 13.276596) scale(-1, 1) translate(-47.000000, -13.276596) "></path>
                <path d="M19.5276596,6.12765957 L19.5276596,7.63914894 L15.7489362,7.63914894 C15.5038298,7.63914894 15.3608511,7.6187234 15.2382979,7.57787234 L15.1974468,7.59829787 C15.2382979,7.72085106 15.2587234,7.88425532 15.2587234,8.10893617 L15.2587234,20.4255319 L13.6859574,20.4255319 L13.6859574,8.10893617 C13.6859574,7.88425532 13.706383,7.72085106 13.747234,7.59829787 L13.706383,7.57787234 C13.5838298,7.6187234 13.4408511,7.63914894 13.1957447,7.63914894 L9.41702128,7.63914894 L9.41702128,6.12765957 L19.5276596,6.12765957 Z M29.3114894,6.12765957 L29.3114894,7.6187234 L23.4085106,7.6187234 C23.1634043,7.6187234 23.0204255,7.59829787 22.8978723,7.55744681 L22.8570213,7.57787234 C22.8978723,7.70042553 22.9182979,7.86382979 22.9182979,8.08851064 L22.9182979,11.3770213 C22.9182979,11.5812766 22.8978723,11.7651064 22.8570213,11.867234 L22.8978723,11.9080851 C23.0204255,11.8468085 23.1634043,11.8468085 23.4085106,11.8468085 L28.6578723,11.8468085 L28.6578723,13.3174468 L23.4085106,13.3174468 C23.1634043,13.3174468 23.0204255,13.3174468 22.8978723,13.2561702 L22.8570213,13.2970213 C22.8978723,13.3991489 22.9182979,13.5829787 22.9182979,13.8076596 L22.9182979,18.4646809 C22.9182979,18.6893617 22.8978723,18.852766 22.8570213,18.9753191 L22.8978723,18.9957447 C23.0204255,18.9548936 23.1634043,18.9344681 23.4085106,18.9344681 L29.3931915,18.9344681 L29.3931915,20.4255319 L21.3455319,20.4255319 L21.3455319,6.12765957 L29.3114894,6.12765957 Z M35.4391489,5.8212766 C36.746383,5.8212766 37.9719149,6.18893617 39.0748936,6.72 L38.3395745,8.23148936 C37.3591489,7.70042553 36.3787234,7.41446809 35.4187234,7.41446809 C34.0093617,7.41446809 33.2740426,8.02723404 33.2740426,9.04851064 C33.2740426,9.86553191 33.6825532,10.4578723 34.7855319,11.2544681 L37.1344681,12.9906383 C38.8093617,14.2161702 39.5446809,15.2987234 39.5446809,16.8919149 C39.5446809,19.3429787 37.7880851,20.7319149 35.1123404,20.7319149 C33.4170213,20.7319149 31.7829787,20.1804255 30.5982979,19.4246809 L31.3540426,17.9540426 C32.4161702,18.6076596 33.7438298,19.1387234 35.1123404,19.1387234 C36.8893617,19.1387234 37.8697872,18.2604255 37.8697872,16.9940426 C37.8697872,16.0340426 37.3387234,15.2987234 36.0314894,14.3387234 L33.7029787,12.5617021 C32.2731915,11.4995745 31.5787234,10.5191489 31.5787234,9.10978723 C31.5787234,7.06723404 33.0085106,5.8212766 35.4391489,5.8212766 Z M50.5744681,6.12765957 L50.5744681,7.63914894 L46.7957447,7.63914894 C46.5506383,7.63914894 46.4076596,7.6187234 46.2851064,7.57787234 L46.2442553,7.59829787 C46.2851064,7.72085106 46.3055319,7.88425532 46.3055319,8.10893617 L46.3055319,20.4255319 L44.732766,20.4255319 L44.732766,8.10893617 C44.732766,7.88425532 44.7531915,7.72085106 44.7940426,7.59829787 L44.7531915,7.57787234 C44.6306383,7.6187234 44.4876596,7.63914894 44.2425532,7.63914894 L40.4638298,7.63914894 L40.4638298,6.12765957 L50.5744681,6.12765957 Z M52.5557447,5.92340426 L61.2774468,15.666383 C61.747234,16.1974468 62.2170213,16.8306383 62.4008511,17.28 L62.4621277,17.2595745 C62.3395745,16.626383 62.2987234,15.8706383 62.2987234,14.6859574 L62.2987234,6.12765957 L63.8714894,6.12765957 L63.8714894,20.6297872 L63.6876596,20.6297872 L54.986383,10.8868085 C54.5165957,10.3557447 54.0468085,9.72255319 53.8629787,9.27319149 L53.7812766,9.29361702 C53.9038298,9.92680851 53.9651064,10.6825532 53.9651064,11.8468085 L53.9651064,20.4255319 L52.3923404,20.4255319 L52.3923404,5.92340426 L52.5557447,5.92340426 Z M75.0646809,6.12765957 L75.0646809,7.6187234 L69.1617021,7.6187234 C68.9165957,7.6187234 68.773617,7.59829787 68.6510638,7.55744681 L68.6102128,7.57787234 C68.6510638,7.70042553 68.6714894,7.86382979 68.6714894,8.08851064 L68.6714894,11.3770213 C68.6714894,11.5812766 68.6510638,11.7651064 68.6102128,11.867234 L68.6510638,11.9080851 C68.773617,11.8468085 68.9165957,11.8468085 69.1617021,11.8468085 L74.4110638,11.8468085 L74.4110638,13.3174468 L69.1617021,13.3174468 C68.9165957,13.3174468 68.773617,13.3174468 68.6510638,13.2561702 L68.6102128,13.2970213 C68.6510638,13.3991489 68.6714894,13.5829787 68.6714894,13.8076596 L68.6714894,18.4646809 C68.6714894,18.6893617 68.6510638,18.852766 68.6102128,18.9753191 L68.6510638,18.9957447 C68.773617,18.9548936 68.9165957,18.9344681 69.1617021,18.9344681 L75.146383,18.9344681 L75.146383,20.4255319 L67.0987234,20.4255319 L67.0987234,6.12765957 L75.0646809,6.12765957 Z M86.2782979,6.12765957 L86.2782979,7.63914894 L82.4995745,7.63914894 C82.2544681,7.63914894 82.1114894,7.6187234 81.9889362,7.57787234 L81.9480851,7.59829787 C81.9889362,7.72085106 82.0093617,7.88425532 82.0093617,8.10893617 L82.0093617,20.4255319 L80.4365957,20.4255319 L80.4365957,8.10893617 C80.4365957,7.88425532 80.4570213,7.72085106 80.4978723,7.59829787 L80.4570213,7.57787234 C80.3344681,7.6187234 80.1914894,7.63914894 79.946383,7.63914894 L76.1676596,7.63914894 L76.1676596,6.12765957 L86.2782979,6.12765957 Z" id="TESTNET" fill="#FFFFFF"></path>
            </g>
        </g>
    </g>
</svg>