<svg xmlns="http://www.w3.org/2000/svg" width="30" height="30" viewBox="0 0 30 30">
  <g fill="#BDC1D1" fill-rule="evenodd">
    <path fill-rule="nonzero" d="M25.6076923,12.8461538 L23.340563,12.85 L23.340563,15.1538462 L25.3769231,15.1538462 L25.3769231,18.6153846 L4.60769231,18.6153846 L4.60769231,15.1538462 L6.86384984,15.1538462 L6.86384984,12.8461538 L4.37692307,12.8461538 C3.22307692,12.8461538 2.3,13.7692308 2.3,14.9230769 L2.3,26.1153846 C2.3,27.0961538 3.05,27.8461538 4.03076923,27.8461538 L25.9538462,27.8461538 C26.9346154,27.8461538 27.6846154,27.0961538 27.6846154,26.1153846 L27.6846154,14.9230769 C27.6846154,13.7692308 26.7615385,12.8461538 25.6076923,12.8461538 Z"/>
    <path stroke="#BDC1D1" stroke-width=".4" d="M15.0986746,6.9905368 L11.2918027,3.15027126 C11.091441,2.94990958 10.7908985,2.94990958 10.5905368,3.15027126 L6.75027126,6.9905368 C6.54990958,7.19089848 6.54990958,7.491441 6.75027126,7.69180268 L7.45153714,8.39306856 C7.65189882,8.59343024 7.95244134,8.59343024 8.15280302,8.39306856 L9.3549731,7.19089848 C9.55533478,6.9905368 9.92266453,7.12411125 9.92266453,7.42465377 L9.92266453,14.5040998 C9.92266453,14.7712487 10.1564198,15.005004 10.4235687,15.005004 L11.4253771,15.005004 C11.692526,15.005004 11.9262813,14.7378551 11.9262813,14.5040998 L11.9262813,7.42465377 C11.9262813,7.12411125 12.2936111,6.9905368 12.4939728,7.19089848 L13.6961428,8.39306856 C13.8965045,8.59343024 14.197047,8.59343024 14.3974087,8.39306856 L15.0986746,7.69180268 C15.2990363,7.491441 15.2990363,7.19089848 15.0986746,6.9905368 Z M21.7440037,10.8787227 C21.543642,10.678361 21.2430995,10.678361 21.0427378,10.8787227 L19.8405677,12.0808928 C19.640206,12.2812544 19.2728763,12.14768 19.2728763,11.8471375 L19.2728763,4.7009042 C19.2728763,4.43375529 19.039121,4.2 18.7719721,4.2 L17.7701637,4.2 C17.5030148,4.2 17.2692595,4.46714891 17.2692595,4.7009042 L17.2692595,11.7803502 C17.2692595,12.0808928 16.9019297,12.2144672 16.701568,12.0141055 L15.499398,10.8119354 C15.2990363,10.6115738 14.9984938,10.6115738 14.7981321,10.8119354 L14.0968662,11.5465949 C13.8965045,11.7469566 13.8965045,12.0474991 14.0968662,12.2478608 L17.9371317,16.0881264 C18.1374934,16.288488 18.4380359,16.288488 18.6383976,16.0881264 L22.4786632,12.2478608 C22.6456312,12.0474991 22.6456312,11.713563 22.4452695,11.5465949 L21.7440037,10.8787227 Z"/>
  </g>
</svg>
