<svg xmlns="http://www.w3.org/2000/svg" width="30" height="30" viewBox="0 0 30 30">
  <defs>
    <linearGradient id="transfer_pressed-a" x1="0%" x2="136.343%" y1="0%" y2="155.449%">
      <stop offset="0%" stop-color="#052EF5"/>
      <stop offset="31.474%" stop-color="#0D6DF0"/>
      <stop offset="49.184%" stop-color="#0B92E7"/>
      <stop offset="71.324%" stop-color="#0BB6EB"/>
      <stop offset="100%" stop-color="#00E0F2"/>
    </linearGradient>
  </defs>
  <path fill="url(#transfer_pressed-a)" fill-rule="evenodd" d="M26.3706267,12.668133 C27.6074005,12.668133 28.5968195,13.6575521 28.5968195,14.8943259 L28.5968195,26.8910318 C28.5968195,27.9422895 27.7929166,28.7461924 26.7416589,28.7461924 L3.24295656,28.7461924 C2.19169882,28.7461924 1.38779585,27.9422895 1.38779585,26.8910318 L1.38779585,14.8943259 C1.38779585,13.6575521 2.37721489,12.668133 3.61398869,12.668133 L6.27965245,12.668133 L6.27965245,15.1416807 L3.86134346,15.1416807 L3.86134346,18.8520021 L26.1232719,18.8520021 L26.1232719,15.1416807 L23.9405574,15.1416807 L23.9405574,12.6722556 L26.3706267,12.668133 Z M15.2579047,7.29492081 L14.5062384,8.04658711 C14.2077582,8.34506722 13.7498814,8.34506722 13.4514013,8.04658711 L12.1628305,6.75801631 C12.0772537,6.67243956 11.9202982,6.73410065 11.9202982,6.85698635 L11.9202982,14.4452366 C11.9202982,14.8243107 11.5642765,15.1965153 11.1690196,15.1965153 L10.0952106,15.1965153 C9.69046595,15.1965153 9.34393196,14.8499813 9.34393196,14.4452366 L9.34393196,6.85698635 C9.34393196,6.73410065 9.18697646,6.67243956 9.10139971,6.75801631 L7.81282891,8.04658711 C7.51434881,8.34506722 7.05647192,8.34506722 6.75799181,8.04658711 L6.00632551,7.29492081 C5.70784541,6.99644071 5.70784541,6.53856382 6.00632551,6.24008371 L10.1225934,2.12381587 C10.4210735,1.82533577 10.8789503,1.82533577 11.1780909,2.12447926 L15.2582604,6.24043963 C15.5563847,6.5389277 15.5562661,6.99655932 15.2579047,7.29492081 Z M22.3788856,10.4057704 L23.1181576,11.1104873 C23.4225156,11.3641189 23.4383734,11.8557101 23.1682976,12.1784257 L19.0520298,16.2946936 C18.7535497,16.5931737 18.2956728,16.5931737 17.9971927,16.2946936 L13.8809249,12.1784257 C13.5824448,11.8799456 13.5824448,11.4220687 13.8774415,11.1271539 L14.6325912,10.3361287 C14.9310713,10.0376486 15.3889482,10.0376486 15.6874283,10.3361287 L16.9759991,11.6246995 C17.0615758,11.7102762 17.2185313,11.6486152 17.2185313,11.5257295 L17.2185313,3.93747918 C17.2185313,3.55840507 17.574553,3.18620055 17.9698099,3.18620055 L19.0436189,3.18620055 C19.4483636,3.18620055 19.7948976,3.53273455 19.7948976,3.93747918 L19.7948976,11.5973167 C19.7948976,11.7202024 19.9518531,11.7818635 20.0374298,11.6962868 L21.3260006,10.407716 C21.6238308,10.1098858 22.0803643,10.1092373 22.3788856,10.4057704 Z"/>
</svg>
