<svg xmlns="http://www.w3.org/2000/svg" width="16" height="16" viewBox="0 0 16 16">
  <g fill="none" fill-rule="evenodd">
    <path fill="#FFC800" d="M16,8 C16,12.4182857 12.4182857,16 8,16 C3.58171429,16 0,12.4182857 0,8 C0,3.58171429 3.58171429,0 8,0 C12.4182857,0 16,3.58171429 16,8"/>
    <g transform="translate(2.286 4.229)">
      <path fill="#FFF" d="M10.0688576,1.12132446 C10.0688576,0.503783454 8.65501367,0 6.9161482,0 C5.17728273,0 3.76343884,0.503783454 3.76343884,1.12132446 L3.76343884,1.81265712 C3.76343884,2.43019813 5.17728273,2.93398159 6.9161482,2.93398159 C8.65501367,2.93398159 10.0688576,2.43019813 10.0688576,1.81265712 L10.0688576,1.12132446 Z"/>
      <path fill="#FFF" d="M3.76343884,2.85269301 C3.76343884,3.34022539 5.17728273,3.73025129 6.9161482,3.73025129 C8.65501367,3.73025129 10.0688576,3.34022539 10.0688576,2.85269301 L10.0688576,4.27469782 C10.0688576,4.89223883 8.65501367,5.39602229 6.9161482,5.39602229 C5.17728273,5.39602229 3.76343884,4.90848991 3.76343884,4.2909489 L3.76343884,2.85269301 Z"/>
      <path fill="#FFF" d="M3.76343884,5.33258064 C3.76343884,5.82011302 5.17728273,6.21013892 6.9161482,6.21013892 C8.65501367,6.21013892 10.0688576,5.82011302 10.0688576,5.33258064 L10.0688576,6.64669138 C10.0688576,7.26423239 8.65501367,7.76801584 6.9161482,7.76801584 C5.17728273,7.76801584 3.76343884,7.26423239 3.76343884,6.64669138 L3.76343884,5.33258064 Z"/>
      <g transform="translate(.686 2.971)">
        <path fill="#FFF" stroke="#FFC800" stroke-width=".8" d="M2.4,-0.285714286 C3.87805676,-0.285714286 5.08571429,0.921943243 5.08571429,2.4 C5.08571429,3.87805676 3.87805676,5.08571429 2.4,5.08571429 C0.921943243,5.08571429 -0.285714286,3.87805676 -0.285714286,2.4 C-0.285714286,0.921943243 0.921943243,-0.285714286 2.4,-0.285714286 Z"/>
        <path fill="#FFC800" d="M2.82409639,2.47986231 C2.7827883,2.43855422 2.76901893,2.38347676 2.76901893,2.32839931 L2.76901893,1.00654045 C2.76901893,0.896385542 2.67263339,0.8 2.56247849,0.8 L2.14939759,0.8 C2.03924269,0.8 1.94285714,0.896385542 1.94285714,1.00654045 L1.94285714,2.67263339 C1.94285714,2.72771084 1.97039587,2.7827883 1.9979346,2.82409639 L3.01686747,3.84302926 C3.09948365,3.92564544 3.22340792,3.92564544 3.3060241,3.84302926 L3.59518072,3.55387263 C3.6777969,3.47125645 3.6777969,3.34733219 3.59518072,3.26471601 L2.82409639,2.47986231 Z"/>
      </g>
    </g>
  </g>
</svg>
