<svg xmlns="http://www.w3.org/2000/svg" width="16" height="16" viewBox="0 0 16 16">
  <g fill="none" fill-rule="evenodd">
    <path fill="#FFC800" d="M16,8 C16,12.4182857 12.4182857,16 8,16 C3.58171429,16 0,12.4182857 0,8 C0,3.58171429 3.58171429,0 8,0 C12.4182857,0 16,3.58171429 16,8"/>
    <path fill="#FFF" d="M5.27016997 5.79319381C5.27016997 7.06696269 6.15813358 8.09958144 7.25347116 8.09958144 8.34880874 8.09958144 9.2367141 7.06696269 9.2367141 5.79319381 9.2367141 4.5193667 8.34880874 3.48680619 7.25347116 3.48680619 6.15813358 3.48680619 5.27016997 4.5193667 5.27016997 5.79319381M9.85848662 10.2394177C10.3732237 10.2394177 10.8023556 10.6054231 10.9000735 11.0913922 11.0574821 10.9168626 11.1570635 10.6599308 11.1570635 10.3731829 11.1570635 9.95138854 10.9417114 9.59388535 10.6434329 9.46873885L10.6438406 9.46873885 8.40250118 8.27183985C7.72563858 8.75984713 6.82847389 8.74406551 6.07293612 8.27183985 5.94703258 8.36629663 3.95767498 9.4622748 3.94171865 9.46873885L3.94224277 9.46873885C3.64396433 9.59388535 3.42855396 9.95138854 3.42855396 10.3731829 3.42855396 10.899101 3.76328735 11.3254377 4.17623003 11.3254377L8.79669227 11.3254377C8.79651756 11.3176342 8.79605168 11.3097725 8.79605168 11.3018526 8.79605168 10.7150792 9.27171319 10.2394177 9.85848662 10.2394177"/>
    <path fill="#FFF" d="M11.0450781,12.5059669 C10.845624,12.7054209 10.5472291,12.7304036 10.3786395,12.561814 L9.4627232,11.6458977 C9.29413358,11.4773081 9.31911629,11.1789132 9.51857034,10.9794591 C9.71802439,10.7800051 10.0163611,10.7550806 10.1849507,10.9236702 L11.100867,11.8395865 C11.2695148,12.0081762 11.2445321,12.3065128 11.0450781,12.5059669"/>
    <path fill="#FFF" d="M10.3293146,12.5125125 C10.1298606,12.3130584 10.1557168,11.9638828 10.3869088,11.7326326 L11.643149,10.4764506 C11.874341,10.2452004 12.2235167,10.2194606 12.4229125,10.4188564 C12.6223665,10.6183105 12.5966268,10.9674861 12.3653183,11.1986781 L11.1091945,12.4549183 C10.8779443,12.6861103 10.5287687,12.7119665 10.3293146,12.5125125"/>
  </g>
</svg>
