<svg xmlns="http://www.w3.org/2000/svg" width="16" height="16" viewBox="0 0 16 16">
  <g fill="none" fill-rule="evenodd">
    <path fill="#FFC800" d="M8,16 C3.58171429,16 0,12.4182857 0,8 C0,3.58171429 3.58171429,0 8,0 C12.4182857,0 16,3.58171429 16,8 C16,12.4182857 12.4182857,16 8,16 Z"/>
    <path fill="#FFF" stroke="#FFF" stroke-width=".3" d="M4.96800977,4.8 L11.0319902,4.8 C11.3772525,4.8 11.6571429,5.07989036 11.6571429,5.42515263 L11.6571429,5.42515263 C11.6571429,5.77041489 11.3772525,6.05030525 11.0319902,6.05030525 L8.73142857,6.05030525 L8.73142857,11.2763206 C8.73142857,11.6802775 8.40395685,12.0077492 8,12.0077492 L8,12.0077492 C7.59604315,12.0077492 7.26857143,11.6802775 7.26857143,11.2763206 L7.26857143,6.05030525 L4.96800977,6.05030525 C4.62274751,6.05030525 4.34285714,5.77041489 4.34285714,5.42515263 L4.34285714,5.42515263 C4.34285714,5.07989036 4.62274751,4.8 4.96800977,4.8 Z"/>
  </g>
</svg>
