<svg xmlns="http://www.w3.org/2000/svg" width="16" height="16" viewBox="0 0 16 16">
  <g fill="none" fill-rule="evenodd">
    <path fill="#FFC800" d="M16,8 C16,12.4182857 12.4182857,16 8,16 C3.58171429,16 0,12.4182857 0,8 C0,3.58171429 3.58171429,0 8,0 C12.4182857,0 16,3.58171429 16,8"/>
    <path fill="#FFF" d="M7.44709056,3.8510325 C7.67740463,3.61771369 8.05093792,3.61746716 8.28194511,3.8510325 L10.7453829,6.34175002 C10.9761463,6.57506883 10.97597,6.95553268 10.7438869,7.19266613 L10.6572535,7.28118465 C10.4256639,7.51781383 10.0516544,7.5177119 9.82443689,7.28359172 L7.86411107,5.26371268 L5.91842433,7.24608622 C5.6844893,7.48443221 5.29901408,7.48393295 5.0655782,7.25302001 L5.00069786,7.18884089 C4.76361898,6.95432433 4.75789166,6.57531536 4.98844909,6.34175002 L7.44709056,3.8510325 Z M7.44709056,7.79853567 C7.67740463,7.56521686 8.05093792,7.56497033 8.28194511,7.79853567 L10.7453829,10.2892532 C10.9761463,10.522572 10.97597,10.9030358 10.7438869,11.1401693 L10.6572535,11.2286878 C10.4256639,11.465317 10.0516544,11.4652151 9.82443689,11.2310949 L7.86411107,9.21121585 L5.91842433,11.1935894 C5.6844893,11.4319354 5.29901408,11.4314361 5.0655782,11.2005232 L5.00069786,11.1363441 C4.76361898,10.9018275 4.75789166,10.5228185 4.98844909,10.2892532 L7.44709056,7.79853567 Z"/>
  </g>
</svg>
