<svg xmlns="http://www.w3.org/2000/svg" width="16" height="16" viewBox="0 0 16 16">
  <g fill="none" fill-rule="evenodd">
    <path fill="#FFC800" d="M16,8 C16,12.4182857 12.4182857,16 8,16 C3.58171429,16 0,12.4182857 0,8 C0,3.58171429 3.58171429,0 8,0 C12.4182857,0 16,3.58171429 16,8"/>
    <path fill="#FFF" d="M7.52822857,4.91428571 C7.456,5.60365714 6.88,6.14308571 6.17142857,6.14308571 C5.46285714,6.14308571 4.88685714,5.60365714 4.81462857,4.91428571 L4.34285714,4.91428571 C3.84,4.91428571 3.42857143,5.32571429 3.42857143,5.82857143 L3.42857143,10.2857143 C3.42857143,10.7885714 3.84,11.2 4.34285714,11.2 L4.80274286,11.2 C4.80274286,11.1899429 4.8,11.1808 4.8,11.1716571 C4.8,10.4146286 5.41348571,9.80022857 6.17142857,9.80022857 C6.92937143,9.80022857 7.54285714,10.4146286 7.54285714,11.1716571 C7.54285714,11.1808 7.54011429,11.1899429 7.54011429,11.2 L11.6571429,11.2 C12.16,11.2 12.5714286,10.7885714 12.5714286,10.2857143 L12.5714286,5.82857143 C12.5714286,5.32571429 12.16,4.91428571 11.6571429,4.91428571 L7.52822857,4.91428571 Z"/>
    <path fill="#FFC800" d="M5.94285714,8.39749198 L5.94285714,7.53393659 L6.51428571,7.53393659 L6.51428571,8.39749198 L5.94285714,8.39749198 Z M5.94285714,9.68 L5.94285714,8.8164446 L6.51428571,8.8164446 L6.51428571,9.68 L5.94285714,9.68 Z M5.94285714,7.11498397 L5.94285714,6.25142857 L6.51428571,6.25142857 L6.51428571,7.11498397 L5.94285714,7.11498397 Z"/>
  </g>
</svg>
