<svg xmlns="http://www.w3.org/2000/svg" width="152" height="50" viewBox="0 0 152 50">
  <defs>
    <linearGradient id="vitexlogo未登录-a" x1="117.782%" x2="0%" y1="142.31%" y2="14.403%">
      <stop offset="0%" stop-color="#FFF" stop-opacity="0"/>
      <stop offset="100%" stop-color="#FFF"/>
    </linearGradient>
    <linearGradient id="vitexlogo未登录-b" x1="-27.118%" x2="89.135%" y1="-50.169%" y2="100%">
      <stop offset="0%" stop-color="#FFF" stop-opacity="0"/>
      <stop offset="100%" stop-color="#FFF"/>
    </linearGradient>
    <linearGradient id="vitexlogo未登录-c" x1="72.313%" x2="14.723%" y1="103.957%" y2="-2.853%">
      <stop offset="0%" stop-color="#FFF" stop-opacity="0"/>
      <stop offset="100%" stop-color="#FFF"/>
    </linearGradient>
    <linearGradient id="vitexlogo未登录-d" x1="-12.563%" x2="64.806%" y1="32.577%" y2="74.464%">
      <stop offset="0%" stop-color="#FFF" stop-opacity="0"/>
      <stop offset="100%" stop-color="#FFF"/>
    </linearGradient>
  </defs>
  <g fill="none" fill-rule="evenodd">
    <path fill="#FFF" d="M77.8891495,10.5 L70.462917,29.748598 L62.7780885,10.5 L59,10.5 L70.3142243,37.3493828 L81.6290951,10.5 L77.8891495,10.5 Z M85.4931667,36.4029212 L88.5058109,36.4029212 L88.5058109,21.7269481 L85.4931667,21.7269481 L85.4931667,36.4029212 Z M85.2384496,16.1296363 C85.2384496,16.6099785 85.4214063,17.0082164 85.7950777,17.3372799 C86.1726279,17.6708689 86.6025439,17.8363703 87.0899974,17.8363703 C87.577451,17.8363703 88.0002556,17.6715153 88.3655225,17.3385729 C88.727557,17.0101559 88.9053418,16.6112715 88.9053418,16.1296363 C88.9053418,15.6486476 88.727557,15.2504097 88.3655225,14.9213462 C88.0002556,14.5884038 87.577451,14.4241953 87.0899974,14.4241953 C86.6025439,14.4241953 86.1726279,14.5890503 85.7950777,14.9232857 C85.4214063,15.2523492 85.2384496,15.6499406 85.2384496,16.1296363 L85.2384496,16.1296363 Z M95.7290454,15.1146468 L95.7290454,21.7637981 L92.9672395,21.7637981 L92.9672395,24.0859907 L95.7290454,24.0859907 L95.7290454,36.4029212 L98.777893,36.4029212 L98.777893,24.0859907 L102.883106,24.0859907 L102.883106,21.7637981 L98.777893,21.7637981 L98.777893,15.1146468 L95.7290454,15.1146468 Z M113.737675,34.2261889 C112.762122,34.2261889 111.88936,34.0063822 111.12133,33.5661224 C110.354592,33.1265091 109.743659,32.5155759 109.291763,31.7372018 L109.180566,31.5451942 L121.150978,27.3481801 C120.666757,25.4022447 119.795935,23.8842858 118.541097,22.7904244 C117.255228,21.670057 115.657105,21.10955 113.737675,21.10955 C112.24299,21.10955 110.869199,21.4593012 109.612422,22.1581571 C108.356291,22.8576594 107.368454,23.804121 106.646325,24.9994813 C105.924842,26.1941951 105.564747,27.5117421 105.564747,28.9560011 C105.564747,30.4513328 105.89575,31.7895675 106.558402,32.9726444 C107.219762,34.153782 108.157819,35.0802024 109.375806,35.7538451 C110.595087,36.4281343 112.02383,36.7662487 113.665268,36.7662487 C114.517342,36.7662487 115.400448,36.6182025 116.315232,36.320817 C117.175064,36.0421797 117.976065,35.663983 118.719529,35.1868732 L117.356081,32.9978576 C116.18852,33.8156676 114.981522,34.2261889 113.737675,34.2261889 L113.737675,34.2261889 Z M113.484251,23.4317427 C114.515403,23.4317427 115.384286,23.6980966 116.083788,24.2320975 C116.774886,24.7602799 117.309533,25.4507314 117.685144,26.302159 L117.76337,26.4805903 L108.607129,29.8623803 L108.578684,29.6328763 C108.553471,29.4305249 108.540541,29.1447762 108.540541,28.7743373 C108.540541,27.2279329 109.004721,25.9478824 109.933727,24.9438832 C110.86532,23.9366515 112.052922,23.4317427 113.484251,23.4317427 L113.484251,23.4317427 Z M145,36.4029212 L136.500594,23.3884278 L136.499947,23.1886624 L144.639905,10.5 L140.827553,10.5 L134.771879,20.6919174 L128.125314,10.5 L124.093801,10.5 L132.193676,22.9332988 L132.194323,23.1324177 L123.726595,36.4029212 L127.648204,36.4029212 L133.994798,25.739066 L140.93293,36.4029212 L145,36.4029212 Z"/>
    <polygon fill="url(#vitexlogo未登录-a)" points="55.694 0 22.879 3.49 22.879 24.362"/>
    <polygon fill="url(#vitexlogo未登录-b)" points="23.831 25.552 41.588 32.386 55.889 .19"/>
    <polygon fill="url(#vitexlogo未登录-c)" points="25.13 25.449 22.697 27.434 22.697 49.876 55.889 .19"/>
    <polygon fill="url(#vitexlogo未登录-d)" points="23.152 9.587 0 16.409 21.339 24.561 23.475 23.034 55.694 0"/>
    <polygon fill="#000" fill-opacity=".25" points="31.405 36.888 22.699 27.443 24.623 25.884 35.907 30.212" style="mix-blend-mode:overlay"/>
  </g>
</svg>
